G04 #@! TF.GenerationSoftware,KiCad,Pcbnew,8.99.0-1829-g5db4d10c86*
G04 #@! TF.CreationDate,2024-08-04T21:37:52+02:00*
G04 #@! TF.ProjectId,fiit-esp32-kit-pcb,66696974-2d65-4737-9033-322d6b69742d,0.1*
G04 #@! TF.SameCoordinates,Original*
G04 #@! TF.FileFunction,Legend,Bot*
G04 #@! TF.FilePolarity,Positive*
%FSLAX46Y46*%
G04 Gerber Fmt 4.6, Leading zero omitted, Abs format (unit mm)*
G04 Created by KiCad (PCBNEW 8.99.0-1829-g5db4d10c86) date 2024-08-04 21:37:52*
%MOMM*%
%LPD*%
G01*
G04 APERTURE LIST*
G04 Aperture macros list*
%AMRoundRect*
0 Rectangle with rounded corners*
0 $1 Rounding radius*
0 $2 $3 $4 $5 $6 $7 $8 $9 X,Y pos of 4 corners*
0 Add a 4 corners polygon primitive as box body*
4,1,4,$2,$3,$4,$5,$6,$7,$8,$9,$2,$3,0*
0 Add four circle primitives for the rounded corners*
1,1,$1+$1,$2,$3*
1,1,$1+$1,$4,$5*
1,1,$1+$1,$6,$7*
1,1,$1+$1,$8,$9*
0 Add four rect primitives between the rounded corners*
20,1,$1+$1,$2,$3,$4,$5,0*
20,1,$1+$1,$4,$5,$6,$7,0*
20,1,$1+$1,$6,$7,$8,$9,0*
20,1,$1+$1,$8,$9,$2,$3,0*%
%AMFreePoly0*
4,1,35,0.535355,0.785355,0.550000,0.750000,0.550000,-0.750000,0.535355,-0.785355,0.500000,-0.800000,0.000000,-0.800000,-0.012286,-0.794911,-0.071157,-0.794911,-0.085244,-0.792886,-0.221795,-0.752791,-0.234740,-0.746879,-0.354462,-0.669938,-0.365217,-0.660618,-0.458414,-0.553063,-0.466109,-0.541091,-0.525228,-0.411637,-0.529237,-0.397982,-0.549491,-0.257116,-0.550000,-0.250000,-0.550000,0.250000,
-0.549491,0.257116,-0.529237,0.397982,-0.525228,0.411637,-0.466109,0.541091,-0.458414,0.553063,-0.365217,0.660618,-0.354462,0.669938,-0.234740,0.746879,-0.221795,0.752791,-0.085244,0.792886,-0.071157,0.794911,-0.012286,0.794911,0.000000,0.800000,0.500000,0.800000,0.535355,0.785355,0.535355,0.785355,$1*%
%AMFreePoly1*
4,1,35,0.012286,0.794911,0.071157,0.794911,0.085244,0.792886,0.221795,0.752791,0.234740,0.746879,0.354462,0.669938,0.365217,0.660618,0.458414,0.553063,0.466109,0.541091,0.525228,0.411637,0.529237,0.397982,0.549491,0.257116,0.550000,0.250000,0.550000,-0.250000,0.549491,-0.257116,0.529237,-0.397982,0.525228,-0.411637,0.466109,-0.541091,0.458414,-0.553063,0.365217,-0.660618,
0.354462,-0.669938,0.234740,-0.746879,0.221795,-0.752791,0.085244,-0.792886,0.071157,-0.794911,0.012286,-0.794911,0.000000,-0.800000,-0.500000,-0.800000,-0.535355,-0.785355,-0.550000,-0.750000,-0.550000,0.750000,-0.535355,0.785355,-0.500000,0.800000,0.000000,0.800000,0.012286,0.794911,0.012286,0.794911,$1*%
G04 Aperture macros list end*
%ADD10C,0.150000*%
%ADD11C,0.120000*%
%ADD12C,0.750000*%
%ADD13O,1.100000X2.200000*%
%ADD14O,1.100000X1.900000*%
%ADD15RoundRect,0.050000X0.850000X0.850000X-0.850000X0.850000X-0.850000X-0.850000X0.850000X-0.850000X0*%
%ADD16O,1.800000X1.800000*%
%ADD17FreePoly0,270.000000*%
%ADD18FreePoly1,270.000000*%
%ADD19FreePoly0,180.000000*%
%ADD20FreePoly1,180.000000*%
%ADD21RoundRect,0.050000X0.370000X-1.200000X0.370000X1.200000X-0.370000X1.200000X-0.370000X-1.200000X0*%
%ADD22RoundRect,0.175000X-0.650000X0.175000X-0.650000X-0.175000X0.650000X-0.175000X0.650000X0.175000X0*%
%ADD23RoundRect,0.270833X-0.679167X0.379167X-0.679167X-0.379167X0.679167X-0.379167X0.679167X0.379167X0*%
%ADD24RoundRect,0.175000X0.650000X-0.175000X0.650000X0.175000X-0.650000X0.175000X-0.650000X-0.175000X0*%
%ADD25RoundRect,0.270833X0.679167X-0.379167X0.679167X0.379167X-0.679167X0.379167X-0.679167X-0.379167X0*%
%ADD26C,1.600000*%
%ADD27FreePoly0,0.000000*%
%ADD28FreePoly1,0.000000*%
G04 APERTURE END LIST*
D10*
X219396666Y-55542295D02*
X219396666Y-56113723D01*
X219396666Y-56113723D02*
X219434761Y-56228009D01*
X219434761Y-56228009D02*
X219510952Y-56304200D01*
X219510952Y-56304200D02*
X219625237Y-56342295D01*
X219625237Y-56342295D02*
X219701428Y-56342295D01*
X219053809Y-55618485D02*
X219015713Y-55580390D01*
X219015713Y-55580390D02*
X218939523Y-55542295D01*
X218939523Y-55542295D02*
X218749047Y-55542295D01*
X218749047Y-55542295D02*
X218672856Y-55580390D01*
X218672856Y-55580390D02*
X218634761Y-55618485D01*
X218634761Y-55618485D02*
X218596666Y-55694676D01*
X218596666Y-55694676D02*
X218596666Y-55770866D01*
X218596666Y-55770866D02*
X218634761Y-55885152D01*
X218634761Y-55885152D02*
X219091904Y-56342295D01*
X219091904Y-56342295D02*
X218596666Y-56342295D01*
X200746666Y-98116295D02*
X200746666Y-98687723D01*
X200746666Y-98687723D02*
X200784761Y-98802009D01*
X200784761Y-98802009D02*
X200860952Y-98878200D01*
X200860952Y-98878200D02*
X200975237Y-98916295D01*
X200975237Y-98916295D02*
X201051428Y-98916295D01*
X200365713Y-98916295D02*
X200365713Y-98116295D01*
X200365713Y-98116295D02*
X200060951Y-98116295D01*
X200060951Y-98116295D02*
X199984761Y-98154390D01*
X199984761Y-98154390D02*
X199946666Y-98192485D01*
X199946666Y-98192485D02*
X199908570Y-98268676D01*
X199908570Y-98268676D02*
X199908570Y-98382961D01*
X199908570Y-98382961D02*
X199946666Y-98459152D01*
X199946666Y-98459152D02*
X199984761Y-98497247D01*
X199984761Y-98497247D02*
X200060951Y-98535342D01*
X200060951Y-98535342D02*
X200365713Y-98535342D01*
X199603809Y-98192485D02*
X199565713Y-98154390D01*
X199565713Y-98154390D02*
X199489523Y-98116295D01*
X199489523Y-98116295D02*
X199299047Y-98116295D01*
X199299047Y-98116295D02*
X199222856Y-98154390D01*
X199222856Y-98154390D02*
X199184761Y-98192485D01*
X199184761Y-98192485D02*
X199146666Y-98268676D01*
X199146666Y-98268676D02*
X199146666Y-98344866D01*
X199146666Y-98344866D02*
X199184761Y-98459152D01*
X199184761Y-98459152D02*
X199641904Y-98916295D01*
X199641904Y-98916295D02*
X199146666Y-98916295D01*
X210383666Y-111466295D02*
X210383666Y-112037723D01*
X210383666Y-112037723D02*
X210421761Y-112152009D01*
X210421761Y-112152009D02*
X210497952Y-112228200D01*
X210497952Y-112228200D02*
X210612237Y-112266295D01*
X210612237Y-112266295D02*
X210688428Y-112266295D01*
X210002713Y-112266295D02*
X210002713Y-111466295D01*
X210002713Y-111466295D02*
X209697951Y-111466295D01*
X209697951Y-111466295D02*
X209621761Y-111504390D01*
X209621761Y-111504390D02*
X209583666Y-111542485D01*
X209583666Y-111542485D02*
X209545570Y-111618676D01*
X209545570Y-111618676D02*
X209545570Y-111732961D01*
X209545570Y-111732961D02*
X209583666Y-111809152D01*
X209583666Y-111809152D02*
X209621761Y-111847247D01*
X209621761Y-111847247D02*
X209697951Y-111885342D01*
X209697951Y-111885342D02*
X210002713Y-111885342D01*
X208821761Y-111466295D02*
X209202713Y-111466295D01*
X209202713Y-111466295D02*
X209240809Y-111847247D01*
X209240809Y-111847247D02*
X209202713Y-111809152D01*
X209202713Y-111809152D02*
X209126523Y-111771057D01*
X209126523Y-111771057D02*
X208936047Y-111771057D01*
X208936047Y-111771057D02*
X208859856Y-111809152D01*
X208859856Y-111809152D02*
X208821761Y-111847247D01*
X208821761Y-111847247D02*
X208783666Y-111923438D01*
X208783666Y-111923438D02*
X208783666Y-112113914D01*
X208783666Y-112113914D02*
X208821761Y-112190104D01*
X208821761Y-112190104D02*
X208859856Y-112228200D01*
X208859856Y-112228200D02*
X208936047Y-112266295D01*
X208936047Y-112266295D02*
X209126523Y-112266295D01*
X209126523Y-112266295D02*
X209202713Y-112228200D01*
X209202713Y-112228200D02*
X209240809Y-112190104D01*
X213993295Y-75569333D02*
X214564723Y-75569333D01*
X214564723Y-75569333D02*
X214679009Y-75531238D01*
X214679009Y-75531238D02*
X214755200Y-75455047D01*
X214755200Y-75455047D02*
X214793295Y-75340762D01*
X214793295Y-75340762D02*
X214793295Y-75264571D01*
X214259961Y-76293143D02*
X214793295Y-76293143D01*
X213955200Y-76102667D02*
X214526628Y-75912190D01*
X214526628Y-75912190D02*
X214526628Y-76407429D01*
X215078666Y-56094295D02*
X215078666Y-56665723D01*
X215078666Y-56665723D02*
X215116761Y-56780009D01*
X215116761Y-56780009D02*
X215192952Y-56856200D01*
X215192952Y-56856200D02*
X215307237Y-56894295D01*
X215307237Y-56894295D02*
X215383428Y-56894295D01*
X214583428Y-56437152D02*
X214659618Y-56399057D01*
X214659618Y-56399057D02*
X214697713Y-56360961D01*
X214697713Y-56360961D02*
X214735809Y-56284771D01*
X214735809Y-56284771D02*
X214735809Y-56246676D01*
X214735809Y-56246676D02*
X214697713Y-56170485D01*
X214697713Y-56170485D02*
X214659618Y-56132390D01*
X214659618Y-56132390D02*
X214583428Y-56094295D01*
X214583428Y-56094295D02*
X214431047Y-56094295D01*
X214431047Y-56094295D02*
X214354856Y-56132390D01*
X214354856Y-56132390D02*
X214316761Y-56170485D01*
X214316761Y-56170485D02*
X214278666Y-56246676D01*
X214278666Y-56246676D02*
X214278666Y-56284771D01*
X214278666Y-56284771D02*
X214316761Y-56360961D01*
X214316761Y-56360961D02*
X214354856Y-56399057D01*
X214354856Y-56399057D02*
X214431047Y-56437152D01*
X214431047Y-56437152D02*
X214583428Y-56437152D01*
X214583428Y-56437152D02*
X214659618Y-56475247D01*
X214659618Y-56475247D02*
X214697713Y-56513342D01*
X214697713Y-56513342D02*
X214735809Y-56589533D01*
X214735809Y-56589533D02*
X214735809Y-56741914D01*
X214735809Y-56741914D02*
X214697713Y-56818104D01*
X214697713Y-56818104D02*
X214659618Y-56856200D01*
X214659618Y-56856200D02*
X214583428Y-56894295D01*
X214583428Y-56894295D02*
X214431047Y-56894295D01*
X214431047Y-56894295D02*
X214354856Y-56856200D01*
X214354856Y-56856200D02*
X214316761Y-56818104D01*
X214316761Y-56818104D02*
X214278666Y-56741914D01*
X214278666Y-56741914D02*
X214278666Y-56589533D01*
X214278666Y-56589533D02*
X214316761Y-56513342D01*
X214316761Y-56513342D02*
X214354856Y-56475247D01*
X214354856Y-56475247D02*
X214431047Y-56437152D01*
X200854666Y-56094295D02*
X200854666Y-56665723D01*
X200854666Y-56665723D02*
X200892761Y-56780009D01*
X200892761Y-56780009D02*
X200968952Y-56856200D01*
X200968952Y-56856200D02*
X201083237Y-56894295D01*
X201083237Y-56894295D02*
X201159428Y-56894295D01*
X200549904Y-56094295D02*
X200016570Y-56094295D01*
X200016570Y-56094295D02*
X200359428Y-56894295D01*
X213319666Y-98131295D02*
X213319666Y-98702723D01*
X213319666Y-98702723D02*
X213357761Y-98817009D01*
X213357761Y-98817009D02*
X213433952Y-98893200D01*
X213433952Y-98893200D02*
X213548237Y-98931295D01*
X213548237Y-98931295D02*
X213624428Y-98931295D01*
X212938713Y-98931295D02*
X212938713Y-98131295D01*
X212938713Y-98131295D02*
X212633951Y-98131295D01*
X212633951Y-98131295D02*
X212557761Y-98169390D01*
X212557761Y-98169390D02*
X212519666Y-98207485D01*
X212519666Y-98207485D02*
X212481570Y-98283676D01*
X212481570Y-98283676D02*
X212481570Y-98397961D01*
X212481570Y-98397961D02*
X212519666Y-98474152D01*
X212519666Y-98474152D02*
X212557761Y-98512247D01*
X212557761Y-98512247D02*
X212633951Y-98550342D01*
X212633951Y-98550342D02*
X212938713Y-98550342D01*
X211719666Y-98931295D02*
X212176809Y-98931295D01*
X211948237Y-98931295D02*
X211948237Y-98131295D01*
X211948237Y-98131295D02*
X212024428Y-98245580D01*
X212024428Y-98245580D02*
X212100618Y-98321771D01*
X212100618Y-98321771D02*
X212176809Y-98359866D01*
X203794666Y-98131295D02*
X203794666Y-98702723D01*
X203794666Y-98702723D02*
X203832761Y-98817009D01*
X203832761Y-98817009D02*
X203908952Y-98893200D01*
X203908952Y-98893200D02*
X204023237Y-98931295D01*
X204023237Y-98931295D02*
X204099428Y-98931295D01*
X203413713Y-98931295D02*
X203413713Y-98131295D01*
X203413713Y-98131295D02*
X203108951Y-98131295D01*
X203108951Y-98131295D02*
X203032761Y-98169390D01*
X203032761Y-98169390D02*
X202994666Y-98207485D01*
X202994666Y-98207485D02*
X202956570Y-98283676D01*
X202956570Y-98283676D02*
X202956570Y-98397961D01*
X202956570Y-98397961D02*
X202994666Y-98474152D01*
X202994666Y-98474152D02*
X203032761Y-98512247D01*
X203032761Y-98512247D02*
X203108951Y-98550342D01*
X203108951Y-98550342D02*
X203413713Y-98550342D01*
X202689904Y-98131295D02*
X202194666Y-98131295D01*
X202194666Y-98131295D02*
X202461332Y-98436057D01*
X202461332Y-98436057D02*
X202347047Y-98436057D01*
X202347047Y-98436057D02*
X202270856Y-98474152D01*
X202270856Y-98474152D02*
X202232761Y-98512247D01*
X202232761Y-98512247D02*
X202194666Y-98588438D01*
X202194666Y-98588438D02*
X202194666Y-98778914D01*
X202194666Y-98778914D02*
X202232761Y-98855104D01*
X202232761Y-98855104D02*
X202270856Y-98893200D01*
X202270856Y-98893200D02*
X202347047Y-98931295D01*
X202347047Y-98931295D02*
X202575618Y-98931295D01*
X202575618Y-98931295D02*
X202651809Y-98893200D01*
X202651809Y-98893200D02*
X202689904Y-98855104D01*
X202232523Y-90006295D02*
X201775380Y-90006295D01*
X202003952Y-90806295D02*
X202003952Y-90006295D01*
X201508713Y-90806295D02*
X201508713Y-90006295D01*
X201508713Y-90006295D02*
X201203951Y-90006295D01*
X201203951Y-90006295D02*
X201127761Y-90044390D01*
X201127761Y-90044390D02*
X201089666Y-90082485D01*
X201089666Y-90082485D02*
X201051570Y-90158676D01*
X201051570Y-90158676D02*
X201051570Y-90272961D01*
X201051570Y-90272961D02*
X201089666Y-90349152D01*
X201089666Y-90349152D02*
X201127761Y-90387247D01*
X201127761Y-90387247D02*
X201203951Y-90425342D01*
X201203951Y-90425342D02*
X201508713Y-90425342D01*
X200365856Y-90272961D02*
X200365856Y-90806295D01*
X200556332Y-89968200D02*
X200746809Y-90539628D01*
X200746809Y-90539628D02*
X200251570Y-90539628D01*
X207389295Y-75569333D02*
X207960723Y-75569333D01*
X207960723Y-75569333D02*
X208075009Y-75531238D01*
X208075009Y-75531238D02*
X208151200Y-75455047D01*
X208151200Y-75455047D02*
X208189295Y-75340762D01*
X208189295Y-75340762D02*
X208189295Y-75264571D01*
X207389295Y-75874095D02*
X207389295Y-76369333D01*
X207389295Y-76369333D02*
X207694057Y-76102667D01*
X207694057Y-76102667D02*
X207694057Y-76216952D01*
X207694057Y-76216952D02*
X207732152Y-76293143D01*
X207732152Y-76293143D02*
X207770247Y-76331238D01*
X207770247Y-76331238D02*
X207846438Y-76369333D01*
X207846438Y-76369333D02*
X208036914Y-76369333D01*
X208036914Y-76369333D02*
X208113104Y-76331238D01*
X208113104Y-76331238D02*
X208151200Y-76293143D01*
X208151200Y-76293143D02*
X208189295Y-76216952D01*
X208189295Y-76216952D02*
X208189295Y-75988381D01*
X208189295Y-75988381D02*
X208151200Y-75912190D01*
X208151200Y-75912190D02*
X208113104Y-75874095D01*
X206334666Y-111466295D02*
X206334666Y-112037723D01*
X206334666Y-112037723D02*
X206372761Y-112152009D01*
X206372761Y-112152009D02*
X206448952Y-112228200D01*
X206448952Y-112228200D02*
X206563237Y-112266295D01*
X206563237Y-112266295D02*
X206639428Y-112266295D01*
X205953713Y-112266295D02*
X205953713Y-111466295D01*
X205953713Y-111466295D02*
X205648951Y-111466295D01*
X205648951Y-111466295D02*
X205572761Y-111504390D01*
X205572761Y-111504390D02*
X205534666Y-111542485D01*
X205534666Y-111542485D02*
X205496570Y-111618676D01*
X205496570Y-111618676D02*
X205496570Y-111732961D01*
X205496570Y-111732961D02*
X205534666Y-111809152D01*
X205534666Y-111809152D02*
X205572761Y-111847247D01*
X205572761Y-111847247D02*
X205648951Y-111885342D01*
X205648951Y-111885342D02*
X205953713Y-111885342D01*
X204810856Y-111732961D02*
X204810856Y-112266295D01*
X205001332Y-111428200D02*
X205191809Y-111999628D01*
X205191809Y-111999628D02*
X204696570Y-111999628D01*
X206169523Y-105881295D02*
X205712380Y-105881295D01*
X205940952Y-106681295D02*
X205940952Y-105881295D01*
X205445713Y-106681295D02*
X205445713Y-105881295D01*
X205445713Y-105881295D02*
X205140951Y-105881295D01*
X205140951Y-105881295D02*
X205064761Y-105919390D01*
X205064761Y-105919390D02*
X205026666Y-105957485D01*
X205026666Y-105957485D02*
X204988570Y-106033676D01*
X204988570Y-106033676D02*
X204988570Y-106147961D01*
X204988570Y-106147961D02*
X205026666Y-106224152D01*
X205026666Y-106224152D02*
X205064761Y-106262247D01*
X205064761Y-106262247D02*
X205140951Y-106300342D01*
X205140951Y-106300342D02*
X205445713Y-106300342D01*
X204683809Y-105957485D02*
X204645713Y-105919390D01*
X204645713Y-105919390D02*
X204569523Y-105881295D01*
X204569523Y-105881295D02*
X204379047Y-105881295D01*
X204379047Y-105881295D02*
X204302856Y-105919390D01*
X204302856Y-105919390D02*
X204264761Y-105957485D01*
X204264761Y-105957485D02*
X204226666Y-106033676D01*
X204226666Y-106033676D02*
X204226666Y-106109866D01*
X204226666Y-106109866D02*
X204264761Y-106224152D01*
X204264761Y-106224152D02*
X204721904Y-106681295D01*
X204721904Y-106681295D02*
X204226666Y-106681295D01*
X201089523Y-102198295D02*
X200632380Y-102198295D01*
X200860952Y-102998295D02*
X200860952Y-102198295D01*
X200365713Y-102998295D02*
X200365713Y-102198295D01*
X200365713Y-102198295D02*
X200060951Y-102198295D01*
X200060951Y-102198295D02*
X199984761Y-102236390D01*
X199984761Y-102236390D02*
X199946666Y-102274485D01*
X199946666Y-102274485D02*
X199908570Y-102350676D01*
X199908570Y-102350676D02*
X199908570Y-102464961D01*
X199908570Y-102464961D02*
X199946666Y-102541152D01*
X199946666Y-102541152D02*
X199984761Y-102579247D01*
X199984761Y-102579247D02*
X200060951Y-102617342D01*
X200060951Y-102617342D02*
X200365713Y-102617342D01*
X199641904Y-102198295D02*
X199108570Y-102198295D01*
X199108570Y-102198295D02*
X199451428Y-102998295D01*
X196536666Y-55542295D02*
X196536666Y-56113723D01*
X196536666Y-56113723D02*
X196574761Y-56228009D01*
X196574761Y-56228009D02*
X196650952Y-56304200D01*
X196650952Y-56304200D02*
X196765237Y-56342295D01*
X196765237Y-56342295D02*
X196841428Y-56342295D01*
X195736666Y-56342295D02*
X196193809Y-56342295D01*
X195965237Y-56342295D02*
X195965237Y-55542295D01*
X195965237Y-55542295D02*
X196041428Y-55656580D01*
X196041428Y-55656580D02*
X196117618Y-55732771D01*
X196117618Y-55732771D02*
X196193809Y-55770866D01*
X204772523Y-90006295D02*
X204315380Y-90006295D01*
X204543952Y-90806295D02*
X204543952Y-90006295D01*
X204048713Y-90806295D02*
X204048713Y-90006295D01*
X204048713Y-90006295D02*
X203743951Y-90006295D01*
X203743951Y-90006295D02*
X203667761Y-90044390D01*
X203667761Y-90044390D02*
X203629666Y-90082485D01*
X203629666Y-90082485D02*
X203591570Y-90158676D01*
X203591570Y-90158676D02*
X203591570Y-90272961D01*
X203591570Y-90272961D02*
X203629666Y-90349152D01*
X203629666Y-90349152D02*
X203667761Y-90387247D01*
X203667761Y-90387247D02*
X203743951Y-90425342D01*
X203743951Y-90425342D02*
X204048713Y-90425342D01*
X203324904Y-90006295D02*
X202829666Y-90006295D01*
X202829666Y-90006295D02*
X203096332Y-90311057D01*
X203096332Y-90311057D02*
X202982047Y-90311057D01*
X202982047Y-90311057D02*
X202905856Y-90349152D01*
X202905856Y-90349152D02*
X202867761Y-90387247D01*
X202867761Y-90387247D02*
X202829666Y-90463438D01*
X202829666Y-90463438D02*
X202829666Y-90653914D01*
X202829666Y-90653914D02*
X202867761Y-90730104D01*
X202867761Y-90730104D02*
X202905856Y-90768200D01*
X202905856Y-90768200D02*
X202982047Y-90806295D01*
X202982047Y-90806295D02*
X203210618Y-90806295D01*
X203210618Y-90806295D02*
X203286809Y-90768200D01*
X203286809Y-90768200D02*
X203324904Y-90730104D01*
X211249523Y-105881295D02*
X210792380Y-105881295D01*
X211020952Y-106681295D02*
X211020952Y-105881295D01*
X210525713Y-106681295D02*
X210525713Y-105881295D01*
X210525713Y-105881295D02*
X210220951Y-105881295D01*
X210220951Y-105881295D02*
X210144761Y-105919390D01*
X210144761Y-105919390D02*
X210106666Y-105957485D01*
X210106666Y-105957485D02*
X210068570Y-106033676D01*
X210068570Y-106033676D02*
X210068570Y-106147961D01*
X210068570Y-106147961D02*
X210106666Y-106224152D01*
X210106666Y-106224152D02*
X210144761Y-106262247D01*
X210144761Y-106262247D02*
X210220951Y-106300342D01*
X210220951Y-106300342D02*
X210525713Y-106300342D01*
X209306666Y-106681295D02*
X209763809Y-106681295D01*
X209535237Y-106681295D02*
X209535237Y-105881295D01*
X209535237Y-105881295D02*
X209611428Y-105995580D01*
X209611428Y-105995580D02*
X209687618Y-106071771D01*
X209687618Y-106071771D02*
X209763809Y-106109866D01*
X203629523Y-102198295D02*
X203172380Y-102198295D01*
X203400952Y-102998295D02*
X203400952Y-102198295D01*
X202905713Y-102998295D02*
X202905713Y-102198295D01*
X202905713Y-102198295D02*
X202600951Y-102198295D01*
X202600951Y-102198295D02*
X202524761Y-102236390D01*
X202524761Y-102236390D02*
X202486666Y-102274485D01*
X202486666Y-102274485D02*
X202448570Y-102350676D01*
X202448570Y-102350676D02*
X202448570Y-102464961D01*
X202448570Y-102464961D02*
X202486666Y-102541152D01*
X202486666Y-102541152D02*
X202524761Y-102579247D01*
X202524761Y-102579247D02*
X202600951Y-102617342D01*
X202600951Y-102617342D02*
X202905713Y-102617342D01*
X201762856Y-102198295D02*
X201915237Y-102198295D01*
X201915237Y-102198295D02*
X201991428Y-102236390D01*
X201991428Y-102236390D02*
X202029523Y-102274485D01*
X202029523Y-102274485D02*
X202105713Y-102388771D01*
X202105713Y-102388771D02*
X202143809Y-102541152D01*
X202143809Y-102541152D02*
X202143809Y-102845914D01*
X202143809Y-102845914D02*
X202105713Y-102922104D01*
X202105713Y-102922104D02*
X202067618Y-102960200D01*
X202067618Y-102960200D02*
X201991428Y-102998295D01*
X201991428Y-102998295D02*
X201839047Y-102998295D01*
X201839047Y-102998295D02*
X201762856Y-102960200D01*
X201762856Y-102960200D02*
X201724761Y-102922104D01*
X201724761Y-102922104D02*
X201686666Y-102845914D01*
X201686666Y-102845914D02*
X201686666Y-102655438D01*
X201686666Y-102655438D02*
X201724761Y-102579247D01*
X201724761Y-102579247D02*
X201762856Y-102541152D01*
X201762856Y-102541152D02*
X201839047Y-102503057D01*
X201839047Y-102503057D02*
X201991428Y-102503057D01*
X201991428Y-102503057D02*
X202067618Y-102541152D01*
X202067618Y-102541152D02*
X202105713Y-102579247D01*
X202105713Y-102579247D02*
X202143809Y-102655438D01*
X208709523Y-105881295D02*
X208252380Y-105881295D01*
X208480952Y-106681295D02*
X208480952Y-105881295D01*
X207985713Y-106681295D02*
X207985713Y-105881295D01*
X207985713Y-105881295D02*
X207680951Y-105881295D01*
X207680951Y-105881295D02*
X207604761Y-105919390D01*
X207604761Y-105919390D02*
X207566666Y-105957485D01*
X207566666Y-105957485D02*
X207528570Y-106033676D01*
X207528570Y-106033676D02*
X207528570Y-106147961D01*
X207528570Y-106147961D02*
X207566666Y-106224152D01*
X207566666Y-106224152D02*
X207604761Y-106262247D01*
X207604761Y-106262247D02*
X207680951Y-106300342D01*
X207680951Y-106300342D02*
X207985713Y-106300342D01*
X206804761Y-105881295D02*
X207185713Y-105881295D01*
X207185713Y-105881295D02*
X207223809Y-106262247D01*
X207223809Y-106262247D02*
X207185713Y-106224152D01*
X207185713Y-106224152D02*
X207109523Y-106186057D01*
X207109523Y-106186057D02*
X206919047Y-106186057D01*
X206919047Y-106186057D02*
X206842856Y-106224152D01*
X206842856Y-106224152D02*
X206804761Y-106262247D01*
X206804761Y-106262247D02*
X206766666Y-106338438D01*
X206766666Y-106338438D02*
X206766666Y-106528914D01*
X206766666Y-106528914D02*
X206804761Y-106605104D01*
X206804761Y-106605104D02*
X206842856Y-106643200D01*
X206842856Y-106643200D02*
X206919047Y-106681295D01*
X206919047Y-106681295D02*
X207109523Y-106681295D01*
X207109523Y-106681295D02*
X207185713Y-106643200D01*
X207185713Y-106643200D02*
X207223809Y-106605104D01*
D11*
X217800000Y-59580000D02*
X220460000Y-59580000D01*
X217800000Y-112980000D02*
X217800000Y-59580000D01*
X217800000Y-112980000D02*
X220460000Y-112980000D01*
X219130000Y-56980000D02*
X220460000Y-56980000D01*
X220460000Y-56980000D02*
X220460000Y-58310000D01*
X220460000Y-112980000D02*
X220460000Y-59580000D01*
X199080000Y-97110000D02*
X199080000Y-95710000D01*
X199780000Y-95010000D02*
X200380000Y-95010000D01*
X200380000Y-97810000D02*
X199780000Y-97810000D01*
X201080000Y-95710000D02*
X201080000Y-97110000D01*
X199080000Y-95710000D02*
G75*
G02*
X199780000Y-95010000I699999J1D01*
G01*
X199780000Y-97810000D02*
G75*
G02*
X199080000Y-97110000I0J700000D01*
G01*
X200380000Y-95010000D02*
G75*
G02*
X201080000Y-95710000I1J-699999D01*
G01*
X201080000Y-97110000D02*
G75*
G02*
X200380000Y-97810000I-700000J0D01*
G01*
X208317000Y-113855000D02*
X208317000Y-113255000D01*
X209017000Y-112555000D02*
X210417000Y-112555000D01*
X210417000Y-114555000D02*
X209017000Y-114555000D01*
X211117000Y-113255000D02*
X211117000Y-113855000D01*
X208317000Y-113255000D02*
G75*
G02*
X209017000Y-112555000I700000J0D01*
G01*
X209017000Y-114555000D02*
G75*
G02*
X208317000Y-113855000I0J700000D01*
G01*
X210417000Y-112555000D02*
G75*
G02*
X211117000Y-113255000I1J-699999D01*
G01*
X211117000Y-113855000D02*
G75*
G02*
X210417000Y-114555000I-699999J-1D01*
G01*
X209799000Y-74071000D02*
X209799000Y-77601000D01*
X209799000Y-74071000D02*
X209864000Y-74071000D01*
X209799000Y-77601000D02*
X209864000Y-77601000D01*
X213664000Y-74071000D02*
X213729000Y-74071000D01*
X213664000Y-77601000D02*
X213664000Y-78926000D01*
X213664000Y-77601000D02*
X213729000Y-77601000D01*
X213729000Y-74071000D02*
X213729000Y-77601000D01*
X212037000Y-50535000D02*
X213027000Y-50535000D01*
X213027000Y-49485000D02*
X215527000Y-49485000D01*
X213027000Y-50535000D02*
X213027000Y-49485000D01*
X213027000Y-54655000D02*
X213027000Y-55705000D01*
X213027000Y-55705000D02*
X215527000Y-55705000D01*
X217497000Y-54535000D02*
X217497000Y-50655000D01*
X197903000Y-50656400D02*
X197903000Y-54536400D01*
X202373000Y-49486400D02*
X199873000Y-49486400D01*
X202373000Y-50536400D02*
X202373000Y-49486400D01*
X202373000Y-54656400D02*
X202373000Y-55706400D01*
X202373000Y-55706400D02*
X199873000Y-55706400D01*
X203363000Y-54656400D02*
X202373000Y-54656400D01*
X211653000Y-97110000D02*
X211653000Y-95710000D01*
X212353000Y-95010000D02*
X212953000Y-95010000D01*
X212953000Y-97810000D02*
X212353000Y-97810000D01*
X213653000Y-95710000D02*
X213653000Y-97110000D01*
X211653000Y-95710000D02*
G75*
G02*
X212353000Y-95010000I699999J1D01*
G01*
X212353000Y-97810000D02*
G75*
G02*
X211653000Y-97110000I0J700000D01*
G01*
X212953000Y-95010000D02*
G75*
G02*
X213653000Y-95710000I1J-699999D01*
G01*
X213653000Y-97110000D02*
G75*
G02*
X212953000Y-97810000I-700000J0D01*
G01*
X202128000Y-97110000D02*
X202128000Y-95710000D01*
X202828000Y-95010000D02*
X203428000Y-95010000D01*
X203428000Y-97810000D02*
X202828000Y-97810000D01*
X204128000Y-95710000D02*
X204128000Y-97110000D01*
X202128000Y-95710000D02*
G75*
G02*
X202828000Y-95010000I699999J1D01*
G01*
X202828000Y-97810000D02*
G75*
G02*
X202128000Y-97110000I0J700000D01*
G01*
X203428000Y-95010000D02*
G75*
G02*
X204128000Y-95710000I1J-699999D01*
G01*
X204128000Y-97110000D02*
G75*
G02*
X203428000Y-97810000I-700000J0D01*
G01*
X202173000Y-92092000D02*
G75*
G02*
X200273000Y-92092000I-950000J0D01*
G01*
X200273000Y-92092000D02*
G75*
G02*
X202173000Y-92092000I950000J0D01*
G01*
X200655000Y-74071000D02*
X200655000Y-77601000D01*
X200655000Y-74071000D02*
X200720000Y-74071000D01*
X200655000Y-77601000D02*
X200720000Y-77601000D01*
X207060000Y-74071000D02*
X207125000Y-74071000D01*
X207060000Y-77601000D02*
X207060000Y-78926000D01*
X207060000Y-77601000D02*
X207125000Y-77601000D01*
X207125000Y-74071000D02*
X207125000Y-77601000D01*
X204268000Y-113855000D02*
X204268000Y-113255000D01*
X204968000Y-112555000D02*
X206368000Y-112555000D01*
X206368000Y-114555000D02*
X204968000Y-114555000D01*
X207068000Y-113255000D02*
X207068000Y-113855000D01*
X204268000Y-113255000D02*
G75*
G02*
X204968000Y-112555000I699999J1D01*
G01*
X204968000Y-114555000D02*
G75*
G02*
X204268000Y-113855000I-1J699999D01*
G01*
X206368000Y-112555000D02*
G75*
G02*
X207068000Y-113255000I0J-700000D01*
G01*
X207068000Y-113855000D02*
G75*
G02*
X206368000Y-114555000I-700000J0D01*
G01*
X206110000Y-107967000D02*
G75*
G02*
X204210000Y-107967000I-950000J0D01*
G01*
X204210000Y-107967000D02*
G75*
G02*
X206110000Y-107967000I950000J0D01*
G01*
X201030000Y-104284000D02*
G75*
G02*
X199130000Y-104284000I-950000J0D01*
G01*
X199130000Y-104284000D02*
G75*
G02*
X201030000Y-104284000I950000J0D01*
G01*
X194940000Y-59580000D02*
X197600000Y-59580000D01*
X194940000Y-112980000D02*
X194940000Y-59580000D01*
X194940000Y-112980000D02*
X197600000Y-112980000D01*
X196270000Y-56980000D02*
X197600000Y-56980000D01*
X197600000Y-56980000D02*
X197600000Y-58310000D01*
X197600000Y-112980000D02*
X197600000Y-59580000D01*
X204713000Y-92092000D02*
G75*
G02*
X202813000Y-92092000I-950000J0D01*
G01*
X202813000Y-92092000D02*
G75*
G02*
X204713000Y-92092000I950000J0D01*
G01*
X211190000Y-107967000D02*
G75*
G02*
X209290000Y-107967000I-950000J0D01*
G01*
X209290000Y-107967000D02*
G75*
G02*
X211190000Y-107967000I950000J0D01*
G01*
X203570000Y-104284000D02*
G75*
G02*
X201670000Y-104284000I-950000J0D01*
G01*
X201670000Y-104284000D02*
G75*
G02*
X203570000Y-104284000I950000J0D01*
G01*
X208650000Y-107967000D02*
G75*
G02*
X206750000Y-107967000I-950000J0D01*
G01*
X206750000Y-107967000D02*
G75*
G02*
X208650000Y-107967000I950000J0D01*
G01*
%LPC*%
D12*
X197825000Y-117935000D03*
X203605000Y-117935000D03*
D13*
X196395000Y-117415000D03*
D14*
X196395000Y-121615000D03*
D13*
X205035000Y-117415000D03*
D14*
X205035000Y-121615000D03*
D12*
X211795000Y-117935000D03*
X217575000Y-117935000D03*
D13*
X210365000Y-117415000D03*
D14*
X210365000Y-121615000D03*
D13*
X219005000Y-117415000D03*
D14*
X219005000Y-121615000D03*
D15*
X219130000Y-58310000D03*
D16*
X219130000Y-60850000D03*
X219130000Y-63390000D03*
X219130000Y-65930000D03*
X219130000Y-68470000D03*
X219130000Y-71010000D03*
X219130000Y-73550000D03*
X219130000Y-76090000D03*
X219130000Y-78630000D03*
X219130000Y-81170000D03*
X219130000Y-83710000D03*
X219130000Y-86250000D03*
X219130000Y-88790000D03*
X219130000Y-91330000D03*
X219130000Y-93870000D03*
X219130000Y-96410000D03*
X219130000Y-98950000D03*
X219130000Y-101490000D03*
X219130000Y-104030000D03*
X219130000Y-106570000D03*
X219130000Y-109110000D03*
X219130000Y-111650000D03*
D17*
X200080000Y-95760000D03*
D18*
X200080000Y-97060000D03*
D19*
X210367000Y-113555000D03*
D20*
X209067000Y-113555000D03*
D21*
X213034000Y-77786000D03*
X213034000Y-73886000D03*
X211764000Y-77786000D03*
X211764000Y-73886000D03*
X210494000Y-77786000D03*
X210494000Y-73886000D03*
D22*
X212812000Y-51095000D03*
X212812000Y-52095000D03*
X212812000Y-53095000D03*
X212812000Y-54095000D03*
D23*
X216687000Y-49795000D03*
X216687000Y-55395000D03*
D24*
X202588000Y-54096400D03*
X202588000Y-53096400D03*
X202588000Y-52096400D03*
X202588000Y-51096400D03*
D25*
X198713000Y-55396400D03*
X198713000Y-49796400D03*
D17*
X212653000Y-95760000D03*
D18*
X212653000Y-97060000D03*
D17*
X203128000Y-95760000D03*
D18*
X203128000Y-97060000D03*
D26*
X201223000Y-92092000D03*
D21*
X206430000Y-77786000D03*
X206430000Y-73886000D03*
X205160000Y-77786000D03*
X205160000Y-73886000D03*
X203890000Y-77786000D03*
X203890000Y-73886000D03*
X202620000Y-77786000D03*
X202620000Y-73886000D03*
X201350000Y-77786000D03*
X201350000Y-73886000D03*
D27*
X205018000Y-113555000D03*
D28*
X206318000Y-113555000D03*
D26*
X205160000Y-107967000D03*
X200080000Y-104284000D03*
D15*
X196270000Y-58310000D03*
D16*
X196270000Y-60850000D03*
X196270000Y-63390000D03*
X196270000Y-65930000D03*
X196270000Y-68470000D03*
X196270000Y-71010000D03*
X196270000Y-73550000D03*
X196270000Y-76090000D03*
X196270000Y-78630000D03*
X196270000Y-81170000D03*
X196270000Y-83710000D03*
X196270000Y-86250000D03*
X196270000Y-88790000D03*
X196270000Y-91330000D03*
X196270000Y-93870000D03*
X196270000Y-96410000D03*
X196270000Y-98950000D03*
X196270000Y-101490000D03*
X196270000Y-104030000D03*
X196270000Y-106570000D03*
X196270000Y-109110000D03*
X196270000Y-111650000D03*
D26*
X203763000Y-92092000D03*
X210240000Y-107967000D03*
X202620000Y-104284000D03*
X207700000Y-107967000D03*
%LPD*%
M02*
