G04 #@! TF.GenerationSoftware,KiCad,Pcbnew,8.99.0-1829-g5db4d10c86*
G04 #@! TF.CreationDate,2024-08-04T21:37:52+02:00*
G04 #@! TF.ProjectId,fiit-esp32-kit-pcb,66696974-2d65-4737-9033-322d6b69742d,0.1*
G04 #@! TF.SameCoordinates,Original*
G04 #@! TF.FileFunction,Copper,L4,Bot*
G04 #@! TF.FilePolarity,Positive*
%FSLAX46Y46*%
G04 Gerber Fmt 4.6, Leading zero omitted, Abs format (unit mm)*
G04 Created by KiCad (PCBNEW 8.99.0-1829-g5db4d10c86) date 2024-08-04 21:37:52*
%MOMM*%
%LPD*%
G01*
G04 APERTURE LIST*
G04 Aperture macros list*
%AMRoundRect*
0 Rectangle with rounded corners*
0 $1 Rounding radius*
0 $2 $3 $4 $5 $6 $7 $8 $9 X,Y pos of 4 corners*
0 Add a 4 corners polygon primitive as box body*
4,1,4,$2,$3,$4,$5,$6,$7,$8,$9,$2,$3,0*
0 Add four circle primitives for the rounded corners*
1,1,$1+$1,$2,$3*
1,1,$1+$1,$4,$5*
1,1,$1+$1,$6,$7*
1,1,$1+$1,$8,$9*
0 Add four rect primitives between the rounded corners*
20,1,$1+$1,$2,$3,$4,$5,0*
20,1,$1+$1,$4,$5,$6,$7,0*
20,1,$1+$1,$6,$7,$8,$9,0*
20,1,$1+$1,$8,$9,$2,$3,0*%
%AMFreePoly0*
4,1,19,0.500000,-0.750000,0.000000,-0.750000,0.000000,-0.744911,-0.071157,-0.744911,-0.207708,-0.704816,-0.327430,-0.627875,-0.420627,-0.520320,-0.479746,-0.390866,-0.500000,-0.250000,-0.500000,0.250000,-0.479746,0.390866,-0.420627,0.520320,-0.327430,0.627875,-0.207708,0.704816,-0.071157,0.744911,0.000000,0.744911,0.000000,0.750000,0.500000,0.750000,0.500000,-0.750000,0.500000,-0.750000,
$1*%
%AMFreePoly1*
4,1,19,0.000000,0.744911,0.071157,0.744911,0.207708,0.704816,0.327430,0.627875,0.420627,0.520320,0.479746,0.390866,0.500000,0.250000,0.500000,-0.250000,0.479746,-0.390866,0.420627,-0.520320,0.327430,-0.627875,0.207708,-0.704816,0.071157,-0.744911,0.000000,-0.744911,0.000000,-0.750000,-0.500000,-0.750000,-0.500000,0.750000,0.000000,0.750000,0.000000,0.744911,0.000000,0.744911,
$1*%
G04 Aperture macros list end*
G04 #@! TA.AperFunction,EtchedComponent*
%ADD10C,0.000000*%
G04 #@! TD*
G04 #@! TA.AperFunction,HeatsinkPad*
%ADD11C,0.600000*%
G04 #@! TD*
G04 #@! TA.AperFunction,ComponentPad*
%ADD12O,1.000000X2.100000*%
G04 #@! TD*
G04 #@! TA.AperFunction,ComponentPad*
%ADD13O,1.000000X1.800000*%
G04 #@! TD*
G04 #@! TA.AperFunction,ComponentPad*
%ADD14R,1.700000X1.700000*%
G04 #@! TD*
G04 #@! TA.AperFunction,ComponentPad*
%ADD15O,1.700000X1.700000*%
G04 #@! TD*
G04 #@! TA.AperFunction,SMDPad,CuDef*
%ADD16FreePoly0,270.000000*%
G04 #@! TD*
G04 #@! TA.AperFunction,SMDPad,CuDef*
%ADD17FreePoly1,270.000000*%
G04 #@! TD*
G04 #@! TA.AperFunction,SMDPad,CuDef*
%ADD18FreePoly0,180.000000*%
G04 #@! TD*
G04 #@! TA.AperFunction,SMDPad,CuDef*
%ADD19FreePoly1,180.000000*%
G04 #@! TD*
G04 #@! TA.AperFunction,SMDPad,CuDef*
%ADD20R,0.740000X2.400000*%
G04 #@! TD*
G04 #@! TA.AperFunction,SMDPad,CuDef*
%ADD21RoundRect,0.150000X-0.625000X0.150000X-0.625000X-0.150000X0.625000X-0.150000X0.625000X0.150000X0*%
G04 #@! TD*
G04 #@! TA.AperFunction,SMDPad,CuDef*
%ADD22RoundRect,0.250000X-0.650000X0.350000X-0.650000X-0.350000X0.650000X-0.350000X0.650000X0.350000X0*%
G04 #@! TD*
G04 #@! TA.AperFunction,SMDPad,CuDef*
%ADD23RoundRect,0.150000X0.625000X-0.150000X0.625000X0.150000X-0.625000X0.150000X-0.625000X-0.150000X0*%
G04 #@! TD*
G04 #@! TA.AperFunction,SMDPad,CuDef*
%ADD24RoundRect,0.250000X0.650000X-0.350000X0.650000X0.350000X-0.650000X0.350000X-0.650000X-0.350000X0*%
G04 #@! TD*
G04 #@! TA.AperFunction,SMDPad,CuDef*
%ADD25C,1.500000*%
G04 #@! TD*
G04 #@! TA.AperFunction,SMDPad,CuDef*
%ADD26FreePoly0,0.000000*%
G04 #@! TD*
G04 #@! TA.AperFunction,SMDPad,CuDef*
%ADD27FreePoly1,0.000000*%
G04 #@! TD*
G04 #@! TA.AperFunction,ViaPad*
%ADD28C,0.500000*%
G04 #@! TD*
G04 #@! TA.AperFunction,Conductor*
%ADD29C,0.200000*%
G04 #@! TD*
G04 #@! TA.AperFunction,Conductor*
%ADD30C,0.600000*%
G04 #@! TD*
G04 #@! TA.AperFunction,Conductor*
%ADD31C,0.400000*%
G04 #@! TD*
G04 APERTURE END LIST*
D10*
G04 #@! TA.AperFunction,EtchedComponent*
G36*
X200380000Y-96660000D02*
G01*
X199780000Y-96660000D01*
X199780000Y-96160000D01*
X200380000Y-96160000D01*
X200380000Y-96660000D01*
G37*
G04 #@! TD.AperFunction*
G04 #@! TA.AperFunction,EtchedComponent*
G36*
X209967000Y-113855000D02*
G01*
X209467000Y-113855000D01*
X209467000Y-113255000D01*
X209967000Y-113255000D01*
X209967000Y-113855000D01*
G37*
G04 #@! TD.AperFunction*
G04 #@! TA.AperFunction,EtchedComponent*
G36*
X212953000Y-96660000D02*
G01*
X212353000Y-96660000D01*
X212353000Y-96160000D01*
X212953000Y-96160000D01*
X212953000Y-96660000D01*
G37*
G04 #@! TD.AperFunction*
G04 #@! TA.AperFunction,EtchedComponent*
G36*
X203428000Y-96660000D02*
G01*
X202828000Y-96660000D01*
X202828000Y-96160000D01*
X203428000Y-96160000D01*
X203428000Y-96660000D01*
G37*
G04 #@! TD.AperFunction*
G04 #@! TA.AperFunction,EtchedComponent*
G36*
X205918000Y-113855000D02*
G01*
X205418000Y-113855000D01*
X205418000Y-113255000D01*
X205918000Y-113255000D01*
X205918000Y-113855000D01*
G37*
G04 #@! TD.AperFunction*
D11*
X204800000Y-56514000D03*
X204800000Y-57914000D03*
X205500000Y-55814000D03*
X205500000Y-57214000D03*
X205500000Y-58614000D03*
X206200000Y-56514000D03*
X206200000Y-57914000D03*
X206900000Y-55814000D03*
X206900000Y-57214000D03*
X206900000Y-58614000D03*
X207600000Y-56514000D03*
X207600000Y-57914000D03*
D12*
X196395000Y-117415000D03*
D13*
X196395000Y-121615000D03*
D12*
X205035000Y-117415000D03*
D13*
X205035000Y-121615000D03*
D12*
X210365000Y-117415000D03*
D13*
X210365000Y-121615000D03*
D12*
X219005000Y-117415000D03*
D13*
X219005000Y-121615000D03*
D14*
X219130000Y-58310000D03*
D15*
X219130000Y-60850000D03*
X219130000Y-63390000D03*
X219130000Y-65930000D03*
X219130000Y-68470000D03*
X219130000Y-71010000D03*
X219130000Y-73550000D03*
X219130000Y-76090000D03*
X219130000Y-78630000D03*
X219130000Y-81170000D03*
X219130000Y-83710000D03*
X219130000Y-86250000D03*
X219130000Y-88790000D03*
X219130000Y-91330000D03*
X219130000Y-93870000D03*
X219130000Y-96410000D03*
X219130000Y-98950000D03*
X219130000Y-101490000D03*
X219130000Y-104030000D03*
X219130000Y-106570000D03*
X219130000Y-109110000D03*
X219130000Y-111650000D03*
D16*
X200080000Y-95760000D03*
D17*
X200080000Y-97060000D03*
D18*
X210367000Y-113555000D03*
D19*
X209067000Y-113555000D03*
D20*
X213034000Y-77786000D03*
X213034000Y-73886000D03*
X211764000Y-77786000D03*
X211764000Y-73886000D03*
X210494000Y-77786000D03*
X210494000Y-73886000D03*
D21*
X212812000Y-51095000D03*
X212812000Y-52095000D03*
X212812000Y-53095000D03*
X212812000Y-54095000D03*
D22*
X216687000Y-49795000D03*
X216687000Y-55395000D03*
D23*
X202588000Y-54096400D03*
X202588000Y-53096400D03*
X202588000Y-52096400D03*
X202588000Y-51096400D03*
D24*
X198713000Y-55396400D03*
X198713000Y-49796400D03*
D16*
X212653000Y-95760000D03*
D17*
X212653000Y-97060000D03*
D16*
X203128000Y-95760000D03*
D17*
X203128000Y-97060000D03*
D25*
X201223000Y-92092000D03*
D20*
X206430000Y-77786000D03*
X206430000Y-73886000D03*
X205160000Y-77786000D03*
X205160000Y-73886000D03*
X203890000Y-77786000D03*
X203890000Y-73886000D03*
X202620000Y-77786000D03*
X202620000Y-73886000D03*
X201350000Y-77786000D03*
X201350000Y-73886000D03*
D26*
X205018000Y-113555000D03*
D27*
X206318000Y-113555000D03*
D25*
X205160000Y-107967000D03*
X200080000Y-104284000D03*
D14*
X196270000Y-58310000D03*
D15*
X196270000Y-60850000D03*
X196270000Y-63390000D03*
X196270000Y-65930000D03*
X196270000Y-68470000D03*
X196270000Y-71010000D03*
X196270000Y-73550000D03*
X196270000Y-76090000D03*
X196270000Y-78630000D03*
X196270000Y-81170000D03*
X196270000Y-83710000D03*
X196270000Y-86250000D03*
X196270000Y-88790000D03*
X196270000Y-91330000D03*
X196270000Y-93870000D03*
X196270000Y-96410000D03*
X196270000Y-98950000D03*
X196270000Y-101490000D03*
X196270000Y-104030000D03*
X196270000Y-106570000D03*
X196270000Y-109110000D03*
X196270000Y-111650000D03*
D25*
X203763000Y-92092000D03*
X210240000Y-107967000D03*
X202620000Y-104284000D03*
X207700000Y-107967000D03*
D28*
X219130000Y-51325000D03*
X219130000Y-55135000D03*
X201350000Y-60215000D03*
X196778000Y-92600000D03*
X206303000Y-85615000D03*
X214304000Y-68851000D03*
X209732000Y-115206000D03*
X199826000Y-94251000D03*
X218622000Y-82440000D03*
X218622000Y-72280000D03*
X218622000Y-74820000D03*
X218622000Y-77360000D03*
X218622000Y-79900000D03*
X211510000Y-64025000D03*
X218495000Y-67200000D03*
X210875000Y-53941200D03*
X215116800Y-53941200D03*
X199445000Y-101871000D03*
X199191000Y-107713000D03*
X203255000Y-85615000D03*
X196778000Y-79900000D03*
X196778000Y-77360000D03*
X202747000Y-91203000D03*
X211129000Y-90187000D03*
X207700000Y-121175000D03*
X198175000Y-119905000D03*
X203255000Y-119905000D03*
X200715000Y-119905000D03*
X212145000Y-119905000D03*
X217225000Y-119905000D03*
X214685000Y-119905000D03*
X204271000Y-103268000D03*
X213161000Y-99331000D03*
X211510000Y-95013000D03*
X213288000Y-93997000D03*
X198302000Y-102760000D03*
X204271000Y-100347000D03*
X206430000Y-98061000D03*
X207700000Y-102379000D03*
X209351000Y-106951000D03*
X209351000Y-105300000D03*
X209351000Y-104030000D03*
X202620000Y-110761000D03*
X208589000Y-110888000D03*
X217352000Y-110126000D03*
X217352000Y-107713000D03*
X217352000Y-105300000D03*
X217352000Y-102760000D03*
X217352000Y-90060000D03*
X217352000Y-92473000D03*
X217352000Y-95013000D03*
X217352000Y-100220000D03*
X217352000Y-97807000D03*
X206430000Y-95140000D03*
X206430000Y-92854000D03*
X212780000Y-90187000D03*
X211510000Y-85615000D03*
X211510000Y-82821000D03*
X212780000Y-86885000D03*
X216717000Y-82821000D03*
X216717000Y-81170000D03*
X211510000Y-72468000D03*
X202112000Y-80535000D03*
X201858000Y-71772000D03*
X213923000Y-72153000D03*
X207700000Y-64025000D03*
X204525000Y-64025000D03*
X201350000Y-64025000D03*
X195762000Y-51960000D03*
X207065000Y-49420000D03*
X210240000Y-49420000D03*
X203255000Y-55770000D03*
X214050000Y-60850000D03*
X214050000Y-58945000D03*
X214050000Y-57040000D03*
X210875000Y-58945000D03*
X210875000Y-55135000D03*
X210875000Y-57040000D03*
X208970000Y-57040000D03*
X205795000Y-53865000D03*
X207700000Y-60215000D03*
X204525000Y-60215000D03*
X214191000Y-92473000D03*
X198683000Y-86123000D03*
X198683000Y-93616000D03*
X205160000Y-103649000D03*
X214191000Y-88155000D03*
X200842000Y-51579000D03*
X203382000Y-108983000D03*
X213034000Y-105427000D03*
X205160000Y-81883500D03*
X211510000Y-51095000D03*
X202493000Y-92854000D03*
X211891000Y-109758000D03*
X200588000Y-106697000D03*
X200461000Y-49494000D03*
X196905000Y-56659000D03*
X215941000Y-88790000D03*
X202112000Y-113428000D03*
X203255000Y-69918000D03*
X203890000Y-54096400D03*
X216336000Y-113174000D03*
X207096000Y-76141000D03*
X203255000Y-106697000D03*
X207700000Y-117415000D03*
X211510000Y-76141000D03*
X208081000Y-114649000D03*
X211383000Y-105427000D03*
X206430000Y-91254000D03*
X208589000Y-108983000D03*
X205668000Y-109872000D03*
X216082000Y-95775000D03*
X210240000Y-97807000D03*
X211510000Y-69918000D03*
X198937000Y-97680000D03*
X212526000Y-111904000D03*
X214939000Y-49494000D03*
X199699000Y-88790000D03*
X216082000Y-99077000D03*
X213669000Y-109758000D03*
X199191000Y-109872000D03*
X213034000Y-92854000D03*
X197794000Y-52034000D03*
X205414000Y-80535000D03*
X209986000Y-109262400D03*
X207319000Y-112793000D03*
X201985000Y-95775000D03*
X200148997Y-112478000D03*
X202493000Y-108602000D03*
X202493000Y-109237000D03*
X200776000Y-112478000D03*
X204017000Y-112793000D03*
X211383000Y-112793000D03*
X213796000Y-65527000D03*
X214558000Y-113047000D03*
X215320000Y-113047000D03*
X214558000Y-66004000D03*
X215320000Y-60924000D03*
X200988000Y-82821000D03*
X200080000Y-55844000D03*
X213514000Y-84599000D03*
X215320000Y-50764000D03*
X202493000Y-89552000D03*
X200080000Y-63464000D03*
X200715000Y-68470000D03*
X202874000Y-88155000D03*
X203128000Y-80535000D03*
X201746000Y-99966000D03*
X214558000Y-65168000D03*
X204652000Y-80535000D03*
X198321790Y-104772210D03*
X205160000Y-49420000D03*
X200080000Y-54574000D03*
X200188000Y-82821000D03*
X205160000Y-50182000D03*
X198302000Y-105427000D03*
X203890000Y-80535000D03*
X200080000Y-53304000D03*
X199388000Y-82821000D03*
X204525000Y-68470000D03*
X200080000Y-57114000D03*
X201788000Y-82821000D03*
X216590000Y-84599000D03*
X215320000Y-52034000D03*
X203255000Y-68470000D03*
X205795000Y-68470000D03*
X201985000Y-68470000D03*
X212145000Y-68470000D03*
X212787997Y-84599000D03*
X203890000Y-72153000D03*
X215320000Y-58384000D03*
X204525000Y-70502000D03*
X215320000Y-55844000D03*
X213457000Y-63517000D03*
X213457000Y-68470000D03*
X215828000Y-84599000D03*
X215320000Y-62194000D03*
X211002000Y-60924000D03*
X215320000Y-63464000D03*
X201604000Y-52096400D03*
X202493000Y-93616000D03*
X210113000Y-93362000D03*
X211002000Y-62194000D03*
X204525000Y-72141000D03*
X215320000Y-59654000D03*
X207065000Y-68470000D03*
X209097000Y-68470000D03*
X208335000Y-68470000D03*
X200588000Y-93616000D03*
X211129000Y-93362000D03*
X201604000Y-51096400D03*
X211383000Y-68470000D03*
X203262997Y-72153000D03*
X215320000Y-57114000D03*
X215320000Y-64734000D03*
X211256000Y-95760000D03*
X201223000Y-95775000D03*
D29*
X205414000Y-80535000D02*
X212018000Y-80535000D01*
X212018000Y-80535000D02*
X212780000Y-80535000D01*
X212018000Y-91838000D02*
X212018000Y-80535000D01*
X213034000Y-92854000D02*
X212018000Y-91838000D01*
X212780000Y-80535000D02*
X213034000Y-80281000D01*
X213034000Y-80281000D02*
X213034000Y-77786000D01*
D30*
X200080000Y-97060000D02*
X203128000Y-97060000D01*
X203128000Y-97060000D02*
X205160000Y-97060000D01*
X200842000Y-58818000D02*
X200842000Y-53103000D01*
X196270000Y-63390000D02*
X200842000Y-58818000D01*
X204144000Y-108983000D02*
X203382000Y-108983000D01*
X198683000Y-93616000D02*
X198683000Y-96418000D01*
X198683000Y-70883000D02*
X198683000Y-75836000D01*
X205160000Y-97060000D02*
X212653000Y-97060000D01*
X199325000Y-97060000D02*
X200080000Y-97060000D01*
X214191000Y-96650000D02*
X214191000Y-92473000D01*
X211264000Y-52095000D02*
X212812000Y-52095000D01*
X202588000Y-53096400D02*
X210262600Y-53096400D01*
X205160000Y-103649000D02*
X205160000Y-97060000D01*
X214191000Y-88155000D02*
X214191000Y-74326000D01*
X198683000Y-96418000D02*
X199325000Y-97060000D01*
X198683000Y-75836000D02*
X205634000Y-75836000D01*
X198683000Y-86123000D02*
X198683000Y-93616000D01*
X213751000Y-73886000D02*
X213034000Y-73886000D01*
X198683000Y-75836000D02*
X198683000Y-86123000D01*
X213781000Y-97060000D02*
X214191000Y-96650000D01*
X196270000Y-63390000D02*
X196270000Y-65930000D01*
X196270000Y-68470000D02*
X198683000Y-70883000D01*
X205160000Y-107967000D02*
X205160000Y-103649000D01*
X196270000Y-65930000D02*
X196270000Y-68470000D01*
X214191000Y-74326000D02*
X213751000Y-73886000D01*
X212653000Y-97060000D02*
X213781000Y-97060000D01*
X200848600Y-53096400D02*
X200842000Y-53103000D01*
X202588000Y-53096400D02*
X200848600Y-53096400D01*
X214191000Y-92473000D02*
X214191000Y-88155000D01*
X206430000Y-76632000D02*
X206430000Y-77786000D01*
X205634000Y-75836000D02*
X206430000Y-76632000D01*
X210262600Y-53096400D02*
X211264000Y-52095000D01*
X205160000Y-107967000D02*
X204144000Y-108983000D01*
X200842000Y-53103000D02*
X200842000Y-51579000D01*
D31*
X211510000Y-51095000D02*
X212812000Y-51095000D01*
D30*
X201985000Y-79646000D02*
X201350000Y-79011000D01*
X203890000Y-79011000D02*
X203255000Y-79646000D01*
X203890000Y-77786000D02*
X205160000Y-77786000D01*
D31*
X203890000Y-54096400D02*
X202588000Y-54096400D01*
D30*
X201350000Y-79011000D02*
X201350000Y-77786000D01*
X203890000Y-77786000D02*
X203890000Y-79011000D01*
X203255000Y-79646000D02*
X201985000Y-79646000D01*
X207319000Y-114698000D02*
X207319000Y-113555000D01*
X207319000Y-113555000D02*
X207319000Y-112793000D01*
X210240000Y-107967000D02*
X210240000Y-109008400D01*
X197625000Y-72365000D02*
X197625000Y-110911426D01*
X207319000Y-113555000D02*
X206318000Y-113555000D01*
X210240000Y-109008400D02*
X209986000Y-109262400D01*
X206938000Y-115079000D02*
X207319000Y-114698000D01*
X197625000Y-110911426D02*
X201792574Y-115079000D01*
X209067000Y-113555000D02*
X207319000Y-113555000D01*
X201792574Y-115079000D02*
X206938000Y-115079000D01*
X196270000Y-71010000D02*
X197625000Y-72365000D01*
D29*
X203113000Y-95775000D02*
X203128000Y-95760000D01*
X201985000Y-95775000D02*
X203113000Y-95775000D01*
X202453420Y-108602000D02*
X200148997Y-110906423D01*
X200148997Y-110906423D02*
X200148997Y-112478000D01*
X202493000Y-108602000D02*
X202453420Y-108602000D01*
X202493000Y-109237000D02*
X200776000Y-110954000D01*
X200776000Y-110954000D02*
X200776000Y-112478000D01*
D30*
X205018000Y-113555000D02*
X204779000Y-113555000D01*
X204779000Y-113555000D02*
X204017000Y-112793000D01*
X210621000Y-113555000D02*
X211383000Y-112793000D01*
X210367000Y-113555000D02*
X210621000Y-113555000D01*
D29*
X214993000Y-67254000D02*
X213796000Y-66057000D01*
X214993000Y-112612000D02*
X214993000Y-67254000D01*
X213796000Y-66057000D02*
X213796000Y-65527000D01*
X214558000Y-113047000D02*
X214993000Y-112612000D01*
X214558000Y-66004000D02*
X215320000Y-66766000D01*
X215320000Y-66766000D02*
X215320000Y-113047000D01*
X212980000Y-69122580D02*
X212980000Y-65603000D01*
X214321580Y-64931580D02*
X214558000Y-65168000D01*
X208843000Y-79392000D02*
X209478000Y-78757000D01*
X204271000Y-79392000D02*
X208843000Y-79392000D01*
X209478000Y-73931000D02*
X209478000Y-72624580D01*
X203128000Y-80535000D02*
X204271000Y-79392000D01*
X210494000Y-73886000D02*
X209523000Y-73886000D01*
X212980000Y-65603000D02*
X213651420Y-64931580D01*
X213651420Y-64931580D02*
X214321580Y-64931580D01*
X209478000Y-78757000D02*
X209478000Y-73931000D01*
X209478000Y-72624580D02*
X212980000Y-69122580D01*
X209523000Y-73886000D02*
X209478000Y-73931000D01*
X211764000Y-79773000D02*
X211764000Y-77786000D01*
X198810000Y-104284000D02*
X200080000Y-104284000D01*
X198321790Y-104772210D02*
X198810000Y-104284000D01*
X211491000Y-80046000D02*
X211764000Y-79773000D01*
X205141000Y-80046000D02*
X211491000Y-80046000D01*
X204652000Y-80535000D02*
X205141000Y-80046000D01*
X204706000Y-79719000D02*
X210167000Y-79719000D01*
X201477000Y-105427000D02*
X202620000Y-104284000D01*
X210167000Y-79719000D02*
X210494000Y-79392000D01*
X198302000Y-105427000D02*
X201477000Y-105427000D01*
X210494000Y-79392000D02*
X210494000Y-77786000D01*
X203890000Y-80535000D02*
X204706000Y-79719000D01*
X212692000Y-64240000D02*
X212145000Y-64787000D01*
X219130000Y-63390000D02*
X218280000Y-64240000D01*
X218280000Y-64240000D02*
X212692000Y-64240000D01*
X212145000Y-64787000D02*
X212145000Y-68470000D01*
X203890000Y-73886000D02*
X203890000Y-72153000D01*
X206430000Y-71264000D02*
X206430000Y-73886000D01*
X205668000Y-70502000D02*
X206430000Y-71264000D01*
X204525000Y-70502000D02*
X205668000Y-70502000D01*
X213987000Y-62987000D02*
X213457000Y-63517000D01*
X216993000Y-62987000D02*
X213987000Y-62987000D01*
X219130000Y-60850000D02*
X216993000Y-62987000D01*
X214050000Y-50817000D02*
X213615000Y-50382000D01*
X203763000Y-93616000D02*
X209859000Y-93616000D01*
X202493000Y-93616000D02*
X203763000Y-93616000D01*
X209859000Y-93616000D02*
X210113000Y-93362000D01*
X213615000Y-50382000D02*
X211183000Y-50382000D01*
X209468600Y-52096400D02*
X202588000Y-52096400D01*
X203763000Y-92092000D02*
X203763000Y-93616000D01*
X213804000Y-53095000D02*
X214050000Y-52849000D01*
X211183000Y-50382000D02*
X209468600Y-52096400D01*
X201604000Y-52096400D02*
X202588000Y-52096400D01*
X214050000Y-52849000D02*
X214050000Y-50817000D01*
X212812000Y-53095000D02*
X213804000Y-53095000D01*
X205160000Y-73886000D02*
X205160000Y-72776000D01*
X205160000Y-72776000D02*
X204525000Y-72141000D01*
X214377000Y-53538000D02*
X213820000Y-54095000D01*
X201223000Y-92092000D02*
X201223000Y-93616000D01*
X201223000Y-93870000D02*
X201446000Y-94093000D01*
X200588000Y-93616000D02*
X201223000Y-93616000D01*
X201223000Y-93616000D02*
X201223000Y-93870000D01*
X210398000Y-94093000D02*
X211129000Y-93362000D01*
X214377000Y-50681552D02*
X214377000Y-53538000D01*
X211047552Y-50055000D02*
X213750448Y-50055000D01*
X202588000Y-51096400D02*
X210006152Y-51096400D01*
X213750448Y-50055000D02*
X214377000Y-50681552D01*
X201604000Y-51096400D02*
X202588000Y-51096400D01*
X201446000Y-94093000D02*
X210398000Y-94093000D01*
X213820000Y-54095000D02*
X212812000Y-54095000D01*
X210006152Y-51096400D02*
X211047552Y-50055000D01*
X202620000Y-72795997D02*
X203262997Y-72153000D01*
X202620000Y-73886000D02*
X202620000Y-72795997D01*
D30*
X211256000Y-95760000D02*
X212653000Y-95760000D01*
D29*
X201223000Y-95775000D02*
X200095000Y-95775000D01*
X200095000Y-95775000D02*
X200080000Y-95760000D01*
G04 #@! TA.AperFunction,Conductor*
G36*
X219953875Y-64161330D02*
G01*
X219992690Y-64208627D01*
X219999500Y-64244710D01*
X219999500Y-65075289D01*
X219980593Y-65133480D01*
X219931093Y-65169444D01*
X219869907Y-65169444D01*
X219837695Y-65151817D01*
X219716452Y-65052317D01*
X219716452Y-65052316D01*
X219533954Y-64954768D01*
X219335934Y-64894699D01*
X219335929Y-64894698D01*
X219130003Y-64874417D01*
X219129997Y-64874417D01*
X218924070Y-64894698D01*
X218924065Y-64894699D01*
X218726045Y-64954768D01*
X218543547Y-65052316D01*
X218383595Y-65183585D01*
X218383585Y-65183595D01*
X218252316Y-65343547D01*
X218154768Y-65526045D01*
X218094699Y-65724065D01*
X218094698Y-65724070D01*
X218074417Y-65929996D01*
X218074417Y-65930003D01*
X218094698Y-66135929D01*
X218094699Y-66135934D01*
X218154768Y-66333954D01*
X218252316Y-66516452D01*
X218361926Y-66650012D01*
X218383590Y-66676410D01*
X218383595Y-66676414D01*
X218543547Y-66807683D01*
X218543548Y-66807683D01*
X218543550Y-66807685D01*
X218726046Y-66905232D01*
X218863997Y-66947078D01*
X218924065Y-66965300D01*
X218924070Y-66965301D01*
X219129997Y-66985583D01*
X219130000Y-66985583D01*
X219130003Y-66985583D01*
X219335929Y-66965301D01*
X219335934Y-66965300D01*
X219533954Y-66905232D01*
X219716450Y-66807685D01*
X219837695Y-66708181D01*
X219894672Y-66685882D01*
X219953875Y-66701330D01*
X219992690Y-66748627D01*
X219999500Y-66784710D01*
X219999500Y-67615289D01*
X219980593Y-67673480D01*
X219931093Y-67709444D01*
X219869907Y-67709444D01*
X219837695Y-67691817D01*
X219716452Y-67592317D01*
X219716452Y-67592316D01*
X219533954Y-67494768D01*
X219335934Y-67434699D01*
X219335929Y-67434698D01*
X219130003Y-67414417D01*
X219129997Y-67414417D01*
X218924070Y-67434698D01*
X218924065Y-67434699D01*
X218726045Y-67494768D01*
X218543547Y-67592316D01*
X218383595Y-67723585D01*
X218383585Y-67723595D01*
X218252316Y-67883547D01*
X218154768Y-68066045D01*
X218094699Y-68264065D01*
X218094698Y-68264070D01*
X218074417Y-68469996D01*
X218074417Y-68470003D01*
X218094698Y-68675929D01*
X218094699Y-68675934D01*
X218154768Y-68873954D01*
X218252316Y-69056452D01*
X218339055Y-69162144D01*
X218383590Y-69216410D01*
X218383595Y-69216414D01*
X218543547Y-69347683D01*
X218543548Y-69347683D01*
X218543550Y-69347685D01*
X218726046Y-69445232D01*
X218863997Y-69487078D01*
X218924065Y-69505300D01*
X218924070Y-69505301D01*
X219129997Y-69525583D01*
X219130000Y-69525583D01*
X219130003Y-69525583D01*
X219335929Y-69505301D01*
X219335934Y-69505300D01*
X219368458Y-69495434D01*
X219533954Y-69445232D01*
X219716450Y-69347685D01*
X219837695Y-69248181D01*
X219894672Y-69225882D01*
X219953875Y-69241330D01*
X219992690Y-69288627D01*
X219999500Y-69324710D01*
X219999500Y-70155289D01*
X219980593Y-70213480D01*
X219931093Y-70249444D01*
X219869907Y-70249444D01*
X219837695Y-70231817D01*
X219716452Y-70132317D01*
X219716452Y-70132316D01*
X219533954Y-70034768D01*
X219335934Y-69974699D01*
X219335929Y-69974698D01*
X219130003Y-69954417D01*
X219129997Y-69954417D01*
X218924070Y-69974698D01*
X218924065Y-69974699D01*
X218726045Y-70034768D01*
X218543547Y-70132316D01*
X218383595Y-70263585D01*
X218383585Y-70263595D01*
X218252316Y-70423547D01*
X218154768Y-70606045D01*
X218094699Y-70804065D01*
X218094698Y-70804070D01*
X218074417Y-71009996D01*
X218074417Y-71010003D01*
X218094698Y-71215929D01*
X218094699Y-71215930D01*
X218094699Y-71215932D01*
X218094700Y-71215934D01*
X218122990Y-71309195D01*
X218154768Y-71413954D01*
X218252316Y-71596452D01*
X218359452Y-71726998D01*
X218383590Y-71756410D01*
X218383595Y-71756414D01*
X218543547Y-71887683D01*
X218543548Y-71887683D01*
X218543550Y-71887685D01*
X218726046Y-71985232D01*
X218856400Y-72024774D01*
X218924065Y-72045300D01*
X218924070Y-72045301D01*
X219129997Y-72065583D01*
X219130000Y-72065583D01*
X219130003Y-72065583D01*
X219335929Y-72045301D01*
X219335934Y-72045300D01*
X219368458Y-72035434D01*
X219533954Y-71985232D01*
X219716450Y-71887685D01*
X219837695Y-71788181D01*
X219894672Y-71765882D01*
X219953875Y-71781330D01*
X219992690Y-71828627D01*
X219999500Y-71864710D01*
X219999500Y-72695289D01*
X219980593Y-72753480D01*
X219931093Y-72789444D01*
X219869907Y-72789444D01*
X219837695Y-72771817D01*
X219716452Y-72672317D01*
X219716452Y-72672316D01*
X219533954Y-72574768D01*
X219335934Y-72514699D01*
X219335929Y-72514698D01*
X219130003Y-72494417D01*
X219129997Y-72494417D01*
X218924070Y-72514698D01*
X218924065Y-72514699D01*
X218726045Y-72574768D01*
X218543547Y-72672316D01*
X218383595Y-72803585D01*
X218383585Y-72803595D01*
X218252316Y-72963547D01*
X218154768Y-73146045D01*
X218094699Y-73344065D01*
X218094698Y-73344070D01*
X218074417Y-73549996D01*
X218074417Y-73550003D01*
X218094698Y-73755929D01*
X218094699Y-73755934D01*
X218154768Y-73953954D01*
X218252316Y-74136452D01*
X218353798Y-74260108D01*
X218383590Y-74296410D01*
X218383595Y-74296414D01*
X218543547Y-74427683D01*
X218543548Y-74427683D01*
X218543550Y-74427685D01*
X218726046Y-74525232D01*
X218863997Y-74567078D01*
X218924065Y-74585300D01*
X218924070Y-74585301D01*
X219129997Y-74605583D01*
X219130000Y-74605583D01*
X219130003Y-74605583D01*
X219335929Y-74585301D01*
X219335934Y-74585300D01*
X219533954Y-74525232D01*
X219716450Y-74427685D01*
X219837695Y-74328181D01*
X219894672Y-74305882D01*
X219953875Y-74321330D01*
X219992690Y-74368627D01*
X219999500Y-74404710D01*
X219999500Y-75235289D01*
X219980593Y-75293480D01*
X219931093Y-75329444D01*
X219869907Y-75329444D01*
X219837695Y-75311817D01*
X219754052Y-75243174D01*
X219716452Y-75212316D01*
X219533954Y-75114768D01*
X219335934Y-75054699D01*
X219335929Y-75054698D01*
X219130003Y-75034417D01*
X219129997Y-75034417D01*
X218924070Y-75054698D01*
X218924065Y-75054699D01*
X218726045Y-75114768D01*
X218543547Y-75212316D01*
X218383595Y-75343585D01*
X218383585Y-75343595D01*
X218252316Y-75503547D01*
X218154768Y-75686045D01*
X218094699Y-75884065D01*
X218094698Y-75884070D01*
X218074417Y-76089996D01*
X218074417Y-76090003D01*
X218094698Y-76295929D01*
X218094699Y-76295934D01*
X218154768Y-76493954D01*
X218252316Y-76676452D01*
X218328526Y-76769314D01*
X218383590Y-76836410D01*
X218383595Y-76836414D01*
X218543547Y-76967683D01*
X218543548Y-76967683D01*
X218543550Y-76967685D01*
X218726046Y-77065232D01*
X218863997Y-77107078D01*
X218924065Y-77125300D01*
X218924070Y-77125301D01*
X219129997Y-77145583D01*
X219130000Y-77145583D01*
X219130003Y-77145583D01*
X219335929Y-77125301D01*
X219335934Y-77125300D01*
X219533954Y-77065232D01*
X219716450Y-76967685D01*
X219837695Y-76868181D01*
X219894672Y-76845882D01*
X219953875Y-76861330D01*
X219992690Y-76908627D01*
X219999500Y-76944710D01*
X219999500Y-77775289D01*
X219980593Y-77833480D01*
X219931093Y-77869444D01*
X219869907Y-77869444D01*
X219837695Y-77851817D01*
X219761378Y-77789186D01*
X219716452Y-77752316D01*
X219533954Y-77654768D01*
X219335934Y-77594699D01*
X219335929Y-77594698D01*
X219130003Y-77574417D01*
X219129997Y-77574417D01*
X218924070Y-77594698D01*
X218924065Y-77594699D01*
X218726045Y-77654768D01*
X218543547Y-77752316D01*
X218383595Y-77883585D01*
X218383585Y-77883595D01*
X218252316Y-78043547D01*
X218154768Y-78226045D01*
X218094699Y-78424065D01*
X218094698Y-78424070D01*
X218074417Y-78629996D01*
X218074417Y-78630003D01*
X218094698Y-78835929D01*
X218094699Y-78835934D01*
X218154768Y-79033954D01*
X218252316Y-79216452D01*
X218358401Y-79345717D01*
X218383590Y-79376410D01*
X218383595Y-79376414D01*
X218543547Y-79507683D01*
X218543548Y-79507683D01*
X218543550Y-79507685D01*
X218726046Y-79605232D01*
X218863997Y-79647078D01*
X218924065Y-79665300D01*
X218924070Y-79665301D01*
X219129997Y-79685583D01*
X219130000Y-79685583D01*
X219130003Y-79685583D01*
X219335929Y-79665301D01*
X219335934Y-79665300D01*
X219533954Y-79605232D01*
X219716450Y-79507685D01*
X219837695Y-79408181D01*
X219894672Y-79385882D01*
X219953875Y-79401330D01*
X219992690Y-79448627D01*
X219999500Y-79484710D01*
X219999500Y-80315289D01*
X219980593Y-80373480D01*
X219931093Y-80409444D01*
X219869907Y-80409444D01*
X219837695Y-80391817D01*
X219716452Y-80292317D01*
X219716452Y-80292316D01*
X219533954Y-80194768D01*
X219335934Y-80134699D01*
X219335929Y-80134698D01*
X219130003Y-80114417D01*
X219129997Y-80114417D01*
X218924070Y-80134698D01*
X218924065Y-80134699D01*
X218726045Y-80194768D01*
X218543547Y-80292316D01*
X218383595Y-80423585D01*
X218383585Y-80423595D01*
X218252316Y-80583547D01*
X218154768Y-80766045D01*
X218094699Y-80964065D01*
X218094698Y-80964070D01*
X218074417Y-81169996D01*
X218074417Y-81170003D01*
X218094698Y-81375929D01*
X218094699Y-81375934D01*
X218154768Y-81573954D01*
X218252316Y-81756452D01*
X218383585Y-81916404D01*
X218383590Y-81916410D01*
X218383595Y-81916414D01*
X218543547Y-82047683D01*
X218543548Y-82047683D01*
X218543550Y-82047685D01*
X218726046Y-82145232D01*
X218863997Y-82187078D01*
X218924065Y-82205300D01*
X218924070Y-82205301D01*
X219129997Y-82225583D01*
X219130000Y-82225583D01*
X219130003Y-82225583D01*
X219335929Y-82205301D01*
X219335934Y-82205300D01*
X219533954Y-82145232D01*
X219716450Y-82047685D01*
X219837695Y-81948181D01*
X219894672Y-81925882D01*
X219953875Y-81941330D01*
X219992690Y-81988627D01*
X219999500Y-82024710D01*
X219999500Y-82855289D01*
X219980593Y-82913480D01*
X219931093Y-82949444D01*
X219869907Y-82949444D01*
X219837695Y-82931817D01*
X219716452Y-82832317D01*
X219716452Y-82832316D01*
X219533954Y-82734768D01*
X219335934Y-82674699D01*
X219335929Y-82674698D01*
X219130003Y-82654417D01*
X219129997Y-82654417D01*
X218924070Y-82674698D01*
X218924065Y-82674699D01*
X218726045Y-82734768D01*
X218543547Y-82832316D01*
X218383595Y-82963585D01*
X218383585Y-82963595D01*
X218252316Y-83123547D01*
X218154768Y-83306045D01*
X218094699Y-83504065D01*
X218094698Y-83504070D01*
X218074417Y-83709996D01*
X218074417Y-83710003D01*
X218094698Y-83915929D01*
X218094699Y-83915934D01*
X218154768Y-84113954D01*
X218252316Y-84296452D01*
X218298672Y-84352937D01*
X218383590Y-84456410D01*
X218383595Y-84456414D01*
X218543547Y-84587683D01*
X218543548Y-84587683D01*
X218543550Y-84587685D01*
X218726046Y-84685232D01*
X218863997Y-84727078D01*
X218924065Y-84745300D01*
X218924070Y-84745301D01*
X219129997Y-84765583D01*
X219130000Y-84765583D01*
X219130003Y-84765583D01*
X219335929Y-84745301D01*
X219335934Y-84745300D01*
X219533954Y-84685232D01*
X219716450Y-84587685D01*
X219837695Y-84488181D01*
X219894672Y-84465882D01*
X219953875Y-84481330D01*
X219992690Y-84528627D01*
X219999500Y-84564710D01*
X219999500Y-85395289D01*
X219980593Y-85453480D01*
X219931093Y-85489444D01*
X219869907Y-85489444D01*
X219837695Y-85471817D01*
X219716452Y-85372317D01*
X219716452Y-85372316D01*
X219533954Y-85274768D01*
X219335934Y-85214699D01*
X219335929Y-85214698D01*
X219130003Y-85194417D01*
X219129997Y-85194417D01*
X218924070Y-85214698D01*
X218924065Y-85214699D01*
X218726045Y-85274768D01*
X218543547Y-85372316D01*
X218383595Y-85503585D01*
X218383585Y-85503595D01*
X218252316Y-85663547D01*
X218154768Y-85846045D01*
X218094699Y-86044065D01*
X218094698Y-86044070D01*
X218074417Y-86249996D01*
X218074417Y-86250003D01*
X218094698Y-86455929D01*
X218094699Y-86455934D01*
X218154768Y-86653954D01*
X218252316Y-86836452D01*
X218383585Y-86996404D01*
X218383590Y-86996410D01*
X218383595Y-86996414D01*
X218543547Y-87127683D01*
X218543548Y-87127683D01*
X218543550Y-87127685D01*
X218726046Y-87225232D01*
X218863997Y-87267078D01*
X218924065Y-87285300D01*
X218924070Y-87285301D01*
X219129997Y-87305583D01*
X219130000Y-87305583D01*
X219130003Y-87305583D01*
X219335929Y-87285301D01*
X219335934Y-87285300D01*
X219533954Y-87225232D01*
X219716450Y-87127685D01*
X219837695Y-87028181D01*
X219894672Y-87005882D01*
X219953875Y-87021330D01*
X219992690Y-87068627D01*
X219999500Y-87104710D01*
X219999500Y-87935289D01*
X219980593Y-87993480D01*
X219931093Y-88029444D01*
X219869907Y-88029444D01*
X219837695Y-88011817D01*
X219716452Y-87912317D01*
X219716452Y-87912316D01*
X219533954Y-87814768D01*
X219335934Y-87754699D01*
X219335929Y-87754698D01*
X219130003Y-87734417D01*
X219129997Y-87734417D01*
X218924070Y-87754698D01*
X218924065Y-87754699D01*
X218726045Y-87814768D01*
X218543547Y-87912316D01*
X218383595Y-88043585D01*
X218383585Y-88043595D01*
X218252316Y-88203547D01*
X218154768Y-88386045D01*
X218094699Y-88584065D01*
X218094698Y-88584070D01*
X218074417Y-88789996D01*
X218074417Y-88790003D01*
X218094698Y-88995929D01*
X218094699Y-88995934D01*
X218154768Y-89193954D01*
X218252316Y-89376452D01*
X218383585Y-89536404D01*
X218383590Y-89536410D01*
X218383595Y-89536414D01*
X218543547Y-89667683D01*
X218543548Y-89667683D01*
X218543550Y-89667685D01*
X218726046Y-89765232D01*
X218834270Y-89798061D01*
X218924065Y-89825300D01*
X218924070Y-89825301D01*
X219129997Y-89845583D01*
X219130000Y-89845583D01*
X219130003Y-89845583D01*
X219335929Y-89825301D01*
X219335934Y-89825300D01*
X219533954Y-89765232D01*
X219716450Y-89667685D01*
X219837695Y-89568181D01*
X219894672Y-89545882D01*
X219953875Y-89561330D01*
X219992690Y-89608627D01*
X219999500Y-89644710D01*
X219999500Y-90475289D01*
X219980593Y-90533480D01*
X219931093Y-90569444D01*
X219869907Y-90569444D01*
X219837695Y-90551817D01*
X219716452Y-90452317D01*
X219716452Y-90452316D01*
X219533954Y-90354768D01*
X219335934Y-90294699D01*
X219335929Y-90294698D01*
X219130003Y-90274417D01*
X219129997Y-90274417D01*
X218924070Y-90294698D01*
X218924065Y-90294699D01*
X218726045Y-90354768D01*
X218543547Y-90452316D01*
X218383595Y-90583585D01*
X218383585Y-90583595D01*
X218252316Y-90743547D01*
X218154768Y-90926045D01*
X218094699Y-91124065D01*
X218094698Y-91124070D01*
X218074417Y-91329996D01*
X218074417Y-91330003D01*
X218094698Y-91535929D01*
X218094699Y-91535934D01*
X218154768Y-91733954D01*
X218252316Y-91916452D01*
X218339284Y-92022423D01*
X218383590Y-92076410D01*
X218410132Y-92098192D01*
X218543547Y-92207683D01*
X218543548Y-92207683D01*
X218543550Y-92207685D01*
X218726046Y-92305232D01*
X218863997Y-92347078D01*
X218924065Y-92365300D01*
X218924070Y-92365301D01*
X219129997Y-92385583D01*
X219130000Y-92385583D01*
X219130003Y-92385583D01*
X219335929Y-92365301D01*
X219335934Y-92365300D01*
X219533954Y-92305232D01*
X219716450Y-92207685D01*
X219837695Y-92108181D01*
X219894672Y-92085882D01*
X219953875Y-92101330D01*
X219992690Y-92148627D01*
X219999500Y-92184710D01*
X219999500Y-93015289D01*
X219980593Y-93073480D01*
X219931093Y-93109444D01*
X219869907Y-93109444D01*
X219837695Y-93091817D01*
X219729444Y-93002979D01*
X219716452Y-92992316D01*
X219533954Y-92894768D01*
X219335934Y-92834699D01*
X219335929Y-92834698D01*
X219130003Y-92814417D01*
X219129997Y-92814417D01*
X218924070Y-92834698D01*
X218924065Y-92834699D01*
X218726045Y-92894768D01*
X218543547Y-92992316D01*
X218383595Y-93123585D01*
X218383585Y-93123595D01*
X218252316Y-93283547D01*
X218154768Y-93466045D01*
X218094699Y-93664065D01*
X218094698Y-93664070D01*
X218074417Y-93869996D01*
X218074417Y-93870003D01*
X218094698Y-94075929D01*
X218094699Y-94075934D01*
X218154768Y-94273954D01*
X218252316Y-94456452D01*
X218383585Y-94616404D01*
X218383590Y-94616410D01*
X218383595Y-94616414D01*
X218543547Y-94747683D01*
X218543548Y-94747683D01*
X218543550Y-94747685D01*
X218726046Y-94845232D01*
X218863997Y-94887078D01*
X218924065Y-94905300D01*
X218924070Y-94905301D01*
X219129997Y-94925583D01*
X219130000Y-94925583D01*
X219130003Y-94925583D01*
X219335929Y-94905301D01*
X219335934Y-94905300D01*
X219533954Y-94845232D01*
X219716450Y-94747685D01*
X219837695Y-94648181D01*
X219894672Y-94625882D01*
X219953875Y-94641330D01*
X219992690Y-94688627D01*
X219999500Y-94724710D01*
X219999500Y-95555289D01*
X219980593Y-95613480D01*
X219931093Y-95649444D01*
X219869907Y-95649444D01*
X219837695Y-95631817D01*
X219716452Y-95532317D01*
X219716452Y-95532316D01*
X219533954Y-95434768D01*
X219335934Y-95374699D01*
X219335929Y-95374698D01*
X219130003Y-95354417D01*
X219129997Y-95354417D01*
X218924070Y-95374698D01*
X218924065Y-95374699D01*
X218726045Y-95434768D01*
X218543547Y-95532316D01*
X218383595Y-95663585D01*
X218383585Y-95663595D01*
X218252316Y-95823547D01*
X218154768Y-96006045D01*
X218094699Y-96204065D01*
X218094698Y-96204070D01*
X218074417Y-96409996D01*
X218074417Y-96410003D01*
X218094698Y-96615929D01*
X218094699Y-96615934D01*
X218154768Y-96813954D01*
X218252316Y-96996452D01*
X218333456Y-97095321D01*
X218383590Y-97156410D01*
X218383595Y-97156414D01*
X218543547Y-97287683D01*
X218543548Y-97287683D01*
X218543550Y-97287685D01*
X218726046Y-97385232D01*
X218863997Y-97427078D01*
X218924065Y-97445300D01*
X218924070Y-97445301D01*
X219129997Y-97465583D01*
X219130000Y-97465583D01*
X219130003Y-97465583D01*
X219335929Y-97445301D01*
X219335934Y-97445300D01*
X219533954Y-97385232D01*
X219716450Y-97287685D01*
X219837695Y-97188181D01*
X219894672Y-97165882D01*
X219953875Y-97181330D01*
X219992690Y-97228627D01*
X219999500Y-97264710D01*
X219999500Y-98095289D01*
X219980593Y-98153480D01*
X219931093Y-98189444D01*
X219869907Y-98189444D01*
X219837695Y-98171817D01*
X219716452Y-98072317D01*
X219716452Y-98072316D01*
X219533954Y-97974768D01*
X219335934Y-97914699D01*
X219335929Y-97914698D01*
X219130003Y-97894417D01*
X219129997Y-97894417D01*
X218924070Y-97914698D01*
X218924065Y-97914699D01*
X218726045Y-97974768D01*
X218543547Y-98072316D01*
X218383595Y-98203585D01*
X218383585Y-98203595D01*
X218252316Y-98363547D01*
X218154768Y-98546045D01*
X218094699Y-98744065D01*
X218094698Y-98744070D01*
X218074417Y-98949996D01*
X218074417Y-98950003D01*
X218094698Y-99155929D01*
X218094699Y-99155934D01*
X218154768Y-99353954D01*
X218252316Y-99536452D01*
X218383585Y-99696404D01*
X218383590Y-99696410D01*
X218383595Y-99696414D01*
X218543547Y-99827683D01*
X218543548Y-99827683D01*
X218543550Y-99827685D01*
X218726046Y-99925232D01*
X218860432Y-99965997D01*
X218924065Y-99985300D01*
X218924070Y-99985301D01*
X219129997Y-100005583D01*
X219130000Y-100005583D01*
X219130003Y-100005583D01*
X219335929Y-99985301D01*
X219335934Y-99985300D01*
X219533954Y-99925232D01*
X219716450Y-99827685D01*
X219837695Y-99728181D01*
X219894672Y-99705882D01*
X219953875Y-99721330D01*
X219992690Y-99768627D01*
X219999500Y-99804710D01*
X219999500Y-100635289D01*
X219980593Y-100693480D01*
X219931093Y-100729444D01*
X219869907Y-100729444D01*
X219837695Y-100711817D01*
X219716452Y-100612317D01*
X219716452Y-100612316D01*
X219533954Y-100514768D01*
X219335934Y-100454699D01*
X219335929Y-100454698D01*
X219130003Y-100434417D01*
X219129997Y-100434417D01*
X218924070Y-100454698D01*
X218924065Y-100454699D01*
X218726045Y-100514768D01*
X218543547Y-100612316D01*
X218383595Y-100743585D01*
X218383585Y-100743595D01*
X218252316Y-100903547D01*
X218154768Y-101086045D01*
X218094699Y-101284065D01*
X218094698Y-101284070D01*
X218074417Y-101489996D01*
X218074417Y-101490003D01*
X218094698Y-101695929D01*
X218094699Y-101695934D01*
X218154768Y-101893954D01*
X218252316Y-102076452D01*
X218383585Y-102236404D01*
X218383590Y-102236410D01*
X218383595Y-102236414D01*
X218543547Y-102367683D01*
X218543548Y-102367683D01*
X218543550Y-102367685D01*
X218726046Y-102465232D01*
X218863997Y-102507078D01*
X218924065Y-102525300D01*
X218924070Y-102525301D01*
X219129997Y-102545583D01*
X219130000Y-102545583D01*
X219130003Y-102545583D01*
X219335929Y-102525301D01*
X219335934Y-102525300D01*
X219533954Y-102465232D01*
X219716450Y-102367685D01*
X219837695Y-102268181D01*
X219894672Y-102245882D01*
X219953875Y-102261330D01*
X219992690Y-102308627D01*
X219999500Y-102344710D01*
X219999500Y-103175289D01*
X219980593Y-103233480D01*
X219931093Y-103269444D01*
X219869907Y-103269444D01*
X219837695Y-103251817D01*
X219716452Y-103152317D01*
X219716452Y-103152316D01*
X219533954Y-103054768D01*
X219335934Y-102994699D01*
X219335929Y-102994698D01*
X219130003Y-102974417D01*
X219129997Y-102974417D01*
X218924070Y-102994698D01*
X218924065Y-102994699D01*
X218726045Y-103054768D01*
X218543547Y-103152316D01*
X218383595Y-103283585D01*
X218383585Y-103283595D01*
X218252316Y-103443547D01*
X218154768Y-103626045D01*
X218094699Y-103824065D01*
X218094698Y-103824070D01*
X218074417Y-104029996D01*
X218074417Y-104030000D01*
X218094698Y-104235929D01*
X218094699Y-104235934D01*
X218154768Y-104433954D01*
X218252316Y-104616452D01*
X218380143Y-104772210D01*
X218383590Y-104776410D01*
X218383595Y-104776414D01*
X218543547Y-104907683D01*
X218543548Y-104907683D01*
X218543550Y-104907685D01*
X218726046Y-105005232D01*
X218863997Y-105047078D01*
X218924065Y-105065300D01*
X218924070Y-105065301D01*
X219129997Y-105085583D01*
X219130000Y-105085583D01*
X219130003Y-105085583D01*
X219335929Y-105065301D01*
X219335934Y-105065300D01*
X219533954Y-105005232D01*
X219716450Y-104907685D01*
X219837695Y-104808181D01*
X219894672Y-104785882D01*
X219953875Y-104801330D01*
X219992690Y-104848627D01*
X219999500Y-104884710D01*
X219999500Y-105715289D01*
X219980593Y-105773480D01*
X219931093Y-105809444D01*
X219869907Y-105809444D01*
X219837695Y-105791817D01*
X219716452Y-105692317D01*
X219716452Y-105692316D01*
X219533954Y-105594768D01*
X219335934Y-105534699D01*
X219335929Y-105534698D01*
X219130003Y-105514417D01*
X219129997Y-105514417D01*
X218924070Y-105534698D01*
X218924065Y-105534699D01*
X218726045Y-105594768D01*
X218543547Y-105692316D01*
X218383595Y-105823585D01*
X218383585Y-105823595D01*
X218252316Y-105983547D01*
X218154768Y-106166045D01*
X218094699Y-106364065D01*
X218094698Y-106364070D01*
X218074417Y-106569996D01*
X218074417Y-106570003D01*
X218094698Y-106775929D01*
X218094699Y-106775934D01*
X218154768Y-106973954D01*
X218252316Y-107156452D01*
X218383585Y-107316404D01*
X218383590Y-107316410D01*
X218383595Y-107316414D01*
X218543547Y-107447683D01*
X218543548Y-107447683D01*
X218543550Y-107447685D01*
X218726046Y-107545232D01*
X218863997Y-107587078D01*
X218924065Y-107605300D01*
X218924070Y-107605301D01*
X219129997Y-107625583D01*
X219130000Y-107625583D01*
X219130003Y-107625583D01*
X219335929Y-107605301D01*
X219335934Y-107605300D01*
X219348464Y-107601499D01*
X219533954Y-107545232D01*
X219716450Y-107447685D01*
X219837695Y-107348181D01*
X219894672Y-107325882D01*
X219953875Y-107341330D01*
X219992690Y-107388627D01*
X219999500Y-107424710D01*
X219999500Y-108255289D01*
X219980593Y-108313480D01*
X219931093Y-108349444D01*
X219869907Y-108349444D01*
X219837695Y-108331817D01*
X219716452Y-108232317D01*
X219716452Y-108232316D01*
X219533954Y-108134768D01*
X219335934Y-108074699D01*
X219335929Y-108074698D01*
X219130003Y-108054417D01*
X219129997Y-108054417D01*
X218924070Y-108074698D01*
X218924065Y-108074699D01*
X218726045Y-108134768D01*
X218543547Y-108232316D01*
X218383595Y-108363585D01*
X218383585Y-108363595D01*
X218252316Y-108523547D01*
X218154768Y-108706045D01*
X218094699Y-108904065D01*
X218094698Y-108904070D01*
X218074417Y-109109996D01*
X218074417Y-109110003D01*
X218094698Y-109315929D01*
X218094699Y-109315934D01*
X218154768Y-109513954D01*
X218252316Y-109696452D01*
X218383585Y-109856404D01*
X218383590Y-109856410D01*
X218383595Y-109856414D01*
X218543547Y-109987683D01*
X218543548Y-109987683D01*
X218543550Y-109987685D01*
X218726046Y-110085232D01*
X218863997Y-110127078D01*
X218924065Y-110145300D01*
X218924070Y-110145301D01*
X219129997Y-110165583D01*
X219130000Y-110165583D01*
X219130003Y-110165583D01*
X219335929Y-110145301D01*
X219335934Y-110145300D01*
X219533954Y-110085232D01*
X219716450Y-109987685D01*
X219837695Y-109888181D01*
X219894672Y-109865882D01*
X219953875Y-109881330D01*
X219992690Y-109928627D01*
X219999500Y-109964710D01*
X219999500Y-110795935D01*
X219980593Y-110854126D01*
X219931093Y-110890090D01*
X219869907Y-110890090D01*
X219837695Y-110872463D01*
X219716170Y-110772731D01*
X219716160Y-110772724D01*
X219533767Y-110675234D01*
X219533762Y-110675232D01*
X219335836Y-110615191D01*
X219335830Y-110615190D01*
X219255000Y-110607229D01*
X219255000Y-111165855D01*
X219195826Y-111150000D01*
X219064174Y-111150000D01*
X219005000Y-111165855D01*
X219005000Y-110607229D01*
X219004999Y-110607229D01*
X218924169Y-110615190D01*
X218924163Y-110615191D01*
X218726237Y-110675232D01*
X218726232Y-110675234D01*
X218543839Y-110772724D01*
X218543829Y-110772731D01*
X218383949Y-110903940D01*
X218383940Y-110903949D01*
X218252731Y-111063829D01*
X218252724Y-111063839D01*
X218155234Y-111246232D01*
X218155232Y-111246237D01*
X218095191Y-111444163D01*
X218095190Y-111444169D01*
X218087229Y-111524999D01*
X218087230Y-111525000D01*
X218645856Y-111525000D01*
X218630000Y-111584174D01*
X218630000Y-111715826D01*
X218645856Y-111775000D01*
X218087229Y-111775000D01*
X218095190Y-111855830D01*
X218095191Y-111855836D01*
X218155232Y-112053762D01*
X218155234Y-112053767D01*
X218252724Y-112236160D01*
X218252731Y-112236170D01*
X218383940Y-112396050D01*
X218383949Y-112396059D01*
X218543829Y-112527268D01*
X218543839Y-112527275D01*
X218726232Y-112624765D01*
X218726237Y-112624767D01*
X218924166Y-112684808D01*
X219004998Y-112692769D01*
X219005000Y-112692768D01*
X219005000Y-112134144D01*
X219064174Y-112150000D01*
X219195826Y-112150000D01*
X219255000Y-112134144D01*
X219255000Y-112692768D01*
X219255001Y-112692769D01*
X219335833Y-112684808D01*
X219533762Y-112624767D01*
X219533767Y-112624765D01*
X219716160Y-112527275D01*
X219716170Y-112527268D01*
X219837695Y-112427536D01*
X219894672Y-112405236D01*
X219953875Y-112420685D01*
X219992690Y-112467981D01*
X219999500Y-112504064D01*
X219999500Y-122650500D01*
X219980593Y-122708691D01*
X219931093Y-122744655D01*
X219900500Y-122749500D01*
X219492070Y-122749500D01*
X219433879Y-122730593D01*
X219397915Y-122681093D01*
X219397915Y-122619907D01*
X219433879Y-122570407D01*
X219437069Y-122568184D01*
X219451220Y-122558728D01*
X219548728Y-122461220D01*
X219625333Y-122346571D01*
X219678098Y-122219183D01*
X219704999Y-122083944D01*
X219705000Y-122083942D01*
X219705000Y-121740001D01*
X219704999Y-121740000D01*
X219305000Y-121740000D01*
X219305000Y-121490000D01*
X219704999Y-121490000D01*
X219705000Y-121489999D01*
X219705000Y-121146057D01*
X219704999Y-121146055D01*
X219678098Y-121010816D01*
X219625333Y-120883428D01*
X219548728Y-120768779D01*
X219451220Y-120671271D01*
X219336571Y-120594666D01*
X219209182Y-120541901D01*
X219130000Y-120526150D01*
X219130000Y-120940757D01*
X219120796Y-120935444D01*
X219044496Y-120915000D01*
X218965504Y-120915000D01*
X218889204Y-120935444D01*
X218880000Y-120940757D01*
X218880000Y-120526150D01*
X218800817Y-120541901D01*
X218673428Y-120594666D01*
X218558779Y-120671271D01*
X218461271Y-120768779D01*
X218384666Y-120883428D01*
X218331901Y-121010816D01*
X218305000Y-121146055D01*
X218305000Y-121489999D01*
X218305001Y-121490000D01*
X218705000Y-121490000D01*
X218705000Y-121740000D01*
X218305001Y-121740000D01*
X218305000Y-121740001D01*
X218305000Y-122083944D01*
X218331901Y-122219183D01*
X218384666Y-122346571D01*
X218461271Y-122461220D01*
X218558779Y-122558728D01*
X218572931Y-122568184D01*
X218610811Y-122616234D01*
X218613213Y-122677372D01*
X218579221Y-122728246D01*
X218521817Y-122749424D01*
X218517930Y-122749500D01*
X210852070Y-122749500D01*
X210793879Y-122730593D01*
X210757915Y-122681093D01*
X210757915Y-122619907D01*
X210793879Y-122570407D01*
X210797069Y-122568184D01*
X210811220Y-122558728D01*
X210908728Y-122461220D01*
X210985333Y-122346571D01*
X211038098Y-122219183D01*
X211064999Y-122083944D01*
X211065000Y-122083942D01*
X211065000Y-121740001D01*
X211064999Y-121740000D01*
X210665000Y-121740000D01*
X210665000Y-121490000D01*
X211064999Y-121490000D01*
X211065000Y-121489999D01*
X211065000Y-121146057D01*
X211064999Y-121146055D01*
X211038098Y-121010816D01*
X210985333Y-120883428D01*
X210908728Y-120768779D01*
X210811220Y-120671271D01*
X210696571Y-120594666D01*
X210569182Y-120541901D01*
X210490000Y-120526150D01*
X210490000Y-120940757D01*
X210480796Y-120935444D01*
X210404496Y-120915000D01*
X210325504Y-120915000D01*
X210249204Y-120935444D01*
X210240000Y-120940757D01*
X210240000Y-120526150D01*
X210160817Y-120541901D01*
X210033428Y-120594666D01*
X209918779Y-120671271D01*
X209821271Y-120768779D01*
X209744666Y-120883428D01*
X209691901Y-121010816D01*
X209665000Y-121146055D01*
X209665000Y-121489999D01*
X209665001Y-121490000D01*
X210065000Y-121490000D01*
X210065000Y-121740000D01*
X209665001Y-121740000D01*
X209665000Y-121740001D01*
X209665000Y-122083944D01*
X209691901Y-122219183D01*
X209744666Y-122346571D01*
X209821271Y-122461220D01*
X209918779Y-122558728D01*
X209932931Y-122568184D01*
X209970811Y-122616234D01*
X209973213Y-122677372D01*
X209939221Y-122728246D01*
X209881817Y-122749424D01*
X209877930Y-122749500D01*
X205522070Y-122749500D01*
X205463879Y-122730593D01*
X205427915Y-122681093D01*
X205427915Y-122619907D01*
X205463879Y-122570407D01*
X205467069Y-122568184D01*
X205481220Y-122558728D01*
X205578728Y-122461220D01*
X205655333Y-122346571D01*
X205708098Y-122219183D01*
X205734999Y-122083944D01*
X205735000Y-122083942D01*
X205735000Y-121740001D01*
X205734999Y-121740000D01*
X205335000Y-121740000D01*
X205335000Y-121490000D01*
X205734999Y-121490000D01*
X205735000Y-121489999D01*
X205735000Y-121146057D01*
X205734999Y-121146055D01*
X205708098Y-121010816D01*
X205655333Y-120883428D01*
X205578728Y-120768779D01*
X205481220Y-120671271D01*
X205366571Y-120594666D01*
X205239182Y-120541901D01*
X205160000Y-120526150D01*
X205160000Y-120940757D01*
X205150796Y-120935444D01*
X205074496Y-120915000D01*
X204995504Y-120915000D01*
X204919204Y-120935444D01*
X204910000Y-120940757D01*
X204910000Y-120526150D01*
X204830817Y-120541901D01*
X204703428Y-120594666D01*
X204588779Y-120671271D01*
X204491271Y-120768779D01*
X204414666Y-120883428D01*
X204361901Y-121010816D01*
X204335000Y-121146055D01*
X204335000Y-121489999D01*
X204335001Y-121490000D01*
X204735000Y-121490000D01*
X204735000Y-121740000D01*
X204335001Y-121740000D01*
X204335000Y-121740001D01*
X204335000Y-122083944D01*
X204361901Y-122219183D01*
X204414666Y-122346571D01*
X204491271Y-122461220D01*
X204588779Y-122558728D01*
X204602931Y-122568184D01*
X204640811Y-122616234D01*
X204643213Y-122677372D01*
X204609221Y-122728246D01*
X204551817Y-122749424D01*
X204547930Y-122749500D01*
X196882070Y-122749500D01*
X196823879Y-122730593D01*
X196787915Y-122681093D01*
X196787915Y-122619907D01*
X196823879Y-122570407D01*
X196827069Y-122568184D01*
X196841220Y-122558728D01*
X196938728Y-122461220D01*
X197015333Y-122346571D01*
X197068098Y-122219183D01*
X197094999Y-122083944D01*
X197095000Y-122083942D01*
X197095000Y-121740001D01*
X197094999Y-121740000D01*
X196695000Y-121740000D01*
X196695000Y-121490000D01*
X197094999Y-121490000D01*
X197095000Y-121489999D01*
X197095000Y-121146057D01*
X197094999Y-121146055D01*
X197068098Y-121010816D01*
X197015333Y-120883428D01*
X196938728Y-120768779D01*
X196841220Y-120671271D01*
X196726571Y-120594666D01*
X196599182Y-120541901D01*
X196520000Y-120526150D01*
X196520000Y-120940757D01*
X196510796Y-120935444D01*
X196434496Y-120915000D01*
X196355504Y-120915000D01*
X196279204Y-120935444D01*
X196270000Y-120940757D01*
X196270000Y-120526150D01*
X196190817Y-120541901D01*
X196063428Y-120594666D01*
X195948779Y-120671271D01*
X195851271Y-120768779D01*
X195774666Y-120883428D01*
X195721901Y-121010816D01*
X195695000Y-121146055D01*
X195695000Y-121489999D01*
X195695001Y-121490000D01*
X196095000Y-121490000D01*
X196095000Y-121740000D01*
X195695001Y-121740000D01*
X195695000Y-121740001D01*
X195695000Y-122083944D01*
X195721901Y-122219183D01*
X195774666Y-122346571D01*
X195851271Y-122461220D01*
X195948779Y-122558728D01*
X195962931Y-122568184D01*
X196000811Y-122616234D01*
X196003213Y-122677372D01*
X195969221Y-122728246D01*
X195911817Y-122749424D01*
X195907930Y-122749500D01*
X195499500Y-122749500D01*
X195441309Y-122730593D01*
X195405345Y-122681093D01*
X195400500Y-122650500D01*
X195400500Y-116796055D01*
X195695000Y-116796055D01*
X195695000Y-117289999D01*
X195695001Y-117290000D01*
X196095000Y-117290000D01*
X196095000Y-117540000D01*
X195695001Y-117540000D01*
X195695000Y-117540001D01*
X195695000Y-118033944D01*
X195721901Y-118169183D01*
X195774666Y-118296571D01*
X195851271Y-118411220D01*
X195948779Y-118508728D01*
X196063428Y-118585333D01*
X196190816Y-118638098D01*
X196190819Y-118638099D01*
X196269999Y-118653848D01*
X196270000Y-118653848D01*
X196270000Y-118239242D01*
X196279204Y-118244556D01*
X196355504Y-118265000D01*
X196434496Y-118265000D01*
X196510796Y-118244556D01*
X196520000Y-118239242D01*
X196520000Y-118653848D01*
X196599180Y-118638099D01*
X196599183Y-118638098D01*
X196726571Y-118585333D01*
X196841220Y-118508728D01*
X196938728Y-118411220D01*
X197015333Y-118296571D01*
X197068098Y-118169183D01*
X197068098Y-118169181D01*
X197078875Y-118115007D01*
X197108772Y-118061623D01*
X197164337Y-118036007D01*
X197224347Y-118047944D01*
X197265879Y-118092874D01*
X197271599Y-118108697D01*
X197284991Y-118158677D01*
X197284993Y-118158681D01*
X197361281Y-118290816D01*
X197361283Y-118290818D01*
X197361285Y-118290821D01*
X197469179Y-118398715D01*
X197469181Y-118398716D01*
X197469183Y-118398718D01*
X197601318Y-118475006D01*
X197601319Y-118475006D01*
X197601322Y-118475008D01*
X197748707Y-118514500D01*
X197748708Y-118514500D01*
X197901292Y-118514500D01*
X197901293Y-118514500D01*
X198048678Y-118475008D01*
X198048680Y-118475006D01*
X198048682Y-118475006D01*
X198180816Y-118398718D01*
X198180816Y-118398717D01*
X198180821Y-118398715D01*
X198288715Y-118290821D01*
X198315426Y-118244556D01*
X198365006Y-118158682D01*
X198365006Y-118158680D01*
X198365008Y-118158678D01*
X198404500Y-118011293D01*
X198404500Y-117858707D01*
X203025500Y-117858707D01*
X203025500Y-118011293D01*
X203047360Y-118092874D01*
X203064993Y-118158682D01*
X203141281Y-118290816D01*
X203141283Y-118290818D01*
X203141285Y-118290821D01*
X203249179Y-118398715D01*
X203249181Y-118398716D01*
X203249183Y-118398718D01*
X203381318Y-118475006D01*
X203381319Y-118475006D01*
X203381322Y-118475008D01*
X203528707Y-118514500D01*
X203528708Y-118514500D01*
X203681292Y-118514500D01*
X203681293Y-118514500D01*
X203828678Y-118475008D01*
X203828680Y-118475006D01*
X203828682Y-118475006D01*
X203960816Y-118398718D01*
X203960816Y-118398717D01*
X203960821Y-118398715D01*
X204068715Y-118290821D01*
X204145008Y-118158678D01*
X204158400Y-118108696D01*
X204191723Y-118057384D01*
X204248844Y-118035457D01*
X204307944Y-118051292D01*
X204346450Y-118098842D01*
X204351123Y-118115005D01*
X204361899Y-118169175D01*
X204361901Y-118169183D01*
X204414666Y-118296571D01*
X204491271Y-118411220D01*
X204588779Y-118508728D01*
X204703428Y-118585333D01*
X204830816Y-118638098D01*
X204830819Y-118638099D01*
X204909999Y-118653848D01*
X204910000Y-118653848D01*
X204910000Y-118239242D01*
X204919204Y-118244556D01*
X204995504Y-118265000D01*
X205074496Y-118265000D01*
X205150796Y-118244556D01*
X205160000Y-118239242D01*
X205160000Y-118653848D01*
X205239180Y-118638099D01*
X205239183Y-118638098D01*
X205366571Y-118585333D01*
X205481220Y-118508728D01*
X205578728Y-118411220D01*
X205655333Y-118296571D01*
X205708098Y-118169183D01*
X205734999Y-118033944D01*
X205735000Y-118033942D01*
X205735000Y-117540001D01*
X205734999Y-117540000D01*
X205335000Y-117540000D01*
X205335000Y-117290000D01*
X205734999Y-117290000D01*
X205735000Y-117289999D01*
X205735000Y-116796057D01*
X205734999Y-116796055D01*
X209665000Y-116796055D01*
X209665000Y-117289999D01*
X209665001Y-117290000D01*
X210065000Y-117290000D01*
X210065000Y-117540000D01*
X209665001Y-117540000D01*
X209665000Y-117540001D01*
X209665000Y-118033944D01*
X209691901Y-118169183D01*
X209744666Y-118296571D01*
X209821271Y-118411220D01*
X209918779Y-118508728D01*
X210033428Y-118585333D01*
X210160816Y-118638098D01*
X210160819Y-118638099D01*
X210239999Y-118653848D01*
X210240000Y-118653848D01*
X210240000Y-118239242D01*
X210249204Y-118244556D01*
X210325504Y-118265000D01*
X210404496Y-118265000D01*
X210480796Y-118244556D01*
X210490000Y-118239242D01*
X210490000Y-118653848D01*
X210569180Y-118638099D01*
X210569183Y-118638098D01*
X210696571Y-118585333D01*
X210811220Y-118508728D01*
X210908728Y-118411220D01*
X210985333Y-118296571D01*
X211038098Y-118169183D01*
X211038098Y-118169181D01*
X211048875Y-118115007D01*
X211078772Y-118061623D01*
X211134337Y-118036007D01*
X211194347Y-118047944D01*
X211235879Y-118092874D01*
X211241599Y-118108697D01*
X211254991Y-118158677D01*
X211254993Y-118158681D01*
X211331281Y-118290816D01*
X211331283Y-118290818D01*
X211331285Y-118290821D01*
X211439179Y-118398715D01*
X211439181Y-118398716D01*
X211439183Y-118398718D01*
X211571318Y-118475006D01*
X211571319Y-118475006D01*
X211571322Y-118475008D01*
X211718707Y-118514500D01*
X211718708Y-118514500D01*
X211871292Y-118514500D01*
X211871293Y-118514500D01*
X212018678Y-118475008D01*
X212018680Y-118475006D01*
X212018682Y-118475006D01*
X212150816Y-118398718D01*
X212150816Y-118398717D01*
X212150821Y-118398715D01*
X212258715Y-118290821D01*
X212285426Y-118244556D01*
X212335006Y-118158682D01*
X212335006Y-118158680D01*
X212335008Y-118158678D01*
X212374500Y-118011293D01*
X212374500Y-117858707D01*
X216995500Y-117858707D01*
X216995500Y-118011293D01*
X217017360Y-118092874D01*
X217034993Y-118158682D01*
X217111281Y-118290816D01*
X217111283Y-118290818D01*
X217111285Y-118290821D01*
X217219179Y-118398715D01*
X217219181Y-118398716D01*
X217219183Y-118398718D01*
X217351318Y-118475006D01*
X217351319Y-118475006D01*
X217351322Y-118475008D01*
X217498707Y-118514500D01*
X217498708Y-118514500D01*
X217651292Y-118514500D01*
X217651293Y-118514500D01*
X217798678Y-118475008D01*
X217798680Y-118475006D01*
X217798682Y-118475006D01*
X217930816Y-118398718D01*
X217930816Y-118398717D01*
X217930821Y-118398715D01*
X218038715Y-118290821D01*
X218115008Y-118158678D01*
X218128400Y-118108696D01*
X218161723Y-118057384D01*
X218218844Y-118035457D01*
X218277944Y-118051292D01*
X218316450Y-118098842D01*
X218321123Y-118115005D01*
X218331899Y-118169175D01*
X218331901Y-118169183D01*
X218384666Y-118296571D01*
X218461271Y-118411220D01*
X218558779Y-118508728D01*
X218673428Y-118585333D01*
X218800816Y-118638098D01*
X218800819Y-118638099D01*
X218879999Y-118653848D01*
X218880000Y-118653848D01*
X218880000Y-118239242D01*
X218889204Y-118244556D01*
X218965504Y-118265000D01*
X219044496Y-118265000D01*
X219120796Y-118244556D01*
X219130000Y-118239242D01*
X219130000Y-118653848D01*
X219209180Y-118638099D01*
X219209183Y-118638098D01*
X219336571Y-118585333D01*
X219451220Y-118508728D01*
X219548728Y-118411220D01*
X219625333Y-118296571D01*
X219678098Y-118169183D01*
X219704999Y-118033944D01*
X219705000Y-118033942D01*
X219705000Y-117540001D01*
X219704999Y-117540000D01*
X219305000Y-117540000D01*
X219305000Y-117290000D01*
X219704999Y-117290000D01*
X219705000Y-117289999D01*
X219705000Y-116796057D01*
X219704999Y-116796055D01*
X219678098Y-116660816D01*
X219625333Y-116533428D01*
X219548728Y-116418779D01*
X219451220Y-116321271D01*
X219336571Y-116244666D01*
X219209182Y-116191901D01*
X219130000Y-116176150D01*
X219130000Y-116590757D01*
X219120796Y-116585444D01*
X219044496Y-116565000D01*
X218965504Y-116565000D01*
X218889204Y-116585444D01*
X218880000Y-116590757D01*
X218880000Y-116176150D01*
X218800817Y-116191901D01*
X218673428Y-116244666D01*
X218558779Y-116321271D01*
X218461271Y-116418779D01*
X218384666Y-116533428D01*
X218331901Y-116660816D01*
X218305000Y-116796055D01*
X218305000Y-117289999D01*
X218305001Y-117290000D01*
X218705000Y-117290000D01*
X218705000Y-117540000D01*
X218305001Y-117540000D01*
X218305000Y-117540001D01*
X218305000Y-117672296D01*
X218286093Y-117730487D01*
X218236593Y-117766451D01*
X218175407Y-117766451D01*
X218125907Y-117730487D01*
X218118304Y-117716911D01*
X218118253Y-117716941D01*
X218038718Y-117579183D01*
X218038716Y-117579181D01*
X218038715Y-117579179D01*
X217930821Y-117471285D01*
X217930818Y-117471283D01*
X217930816Y-117471281D01*
X217798681Y-117394993D01*
X217798682Y-117394993D01*
X217767532Y-117386646D01*
X217651293Y-117355500D01*
X217498707Y-117355500D01*
X217433720Y-117372913D01*
X217351317Y-117394993D01*
X217219183Y-117471281D01*
X217111281Y-117579183D01*
X217034993Y-117711317D01*
X216995500Y-117858707D01*
X212374500Y-117858707D01*
X212335008Y-117711322D01*
X212335006Y-117711319D01*
X212335006Y-117711317D01*
X212258718Y-117579183D01*
X212258716Y-117579181D01*
X212258715Y-117579179D01*
X212150821Y-117471285D01*
X212150818Y-117471283D01*
X212150816Y-117471281D01*
X212018681Y-117394993D01*
X212018682Y-117394993D01*
X211987532Y-117386646D01*
X211871293Y-117355500D01*
X211718707Y-117355500D01*
X211653720Y-117372913D01*
X211571317Y-117394993D01*
X211439183Y-117471281D01*
X211331281Y-117579183D01*
X211251747Y-117716941D01*
X211250370Y-117716146D01*
X211215727Y-117756707D01*
X211156233Y-117770991D01*
X211099705Y-117747576D01*
X211067735Y-117695407D01*
X211065000Y-117672296D01*
X211065000Y-117540001D01*
X211064999Y-117540000D01*
X210665000Y-117540000D01*
X210665000Y-117290000D01*
X211064999Y-117290000D01*
X211065000Y-117289999D01*
X211065000Y-116796057D01*
X211064999Y-116796055D01*
X211038098Y-116660816D01*
X210985333Y-116533428D01*
X210908728Y-116418779D01*
X210811220Y-116321271D01*
X210696571Y-116244666D01*
X210569182Y-116191901D01*
X210490000Y-116176150D01*
X210490000Y-116590757D01*
X210480796Y-116585444D01*
X210404496Y-116565000D01*
X210325504Y-116565000D01*
X210249204Y-116585444D01*
X210240000Y-116590757D01*
X210240000Y-116176150D01*
X210160817Y-116191901D01*
X210033428Y-116244666D01*
X209918779Y-116321271D01*
X209821271Y-116418779D01*
X209744666Y-116533428D01*
X209691901Y-116660816D01*
X209665000Y-116796055D01*
X205734999Y-116796055D01*
X205708098Y-116660816D01*
X205655333Y-116533428D01*
X205578728Y-116418779D01*
X205481220Y-116321271D01*
X205366571Y-116244666D01*
X205239182Y-116191901D01*
X205160000Y-116176150D01*
X205160000Y-116590757D01*
X205150796Y-116585444D01*
X205074496Y-116565000D01*
X204995504Y-116565000D01*
X204919204Y-116585444D01*
X204910000Y-116590757D01*
X204910000Y-116176150D01*
X204830817Y-116191901D01*
X204703428Y-116244666D01*
X204588779Y-116321271D01*
X204491271Y-116418779D01*
X204414666Y-116533428D01*
X204361901Y-116660816D01*
X204335000Y-116796055D01*
X204335000Y-117289999D01*
X204335001Y-117290000D01*
X204735000Y-117290000D01*
X204735000Y-117540000D01*
X204335001Y-117540000D01*
X204335000Y-117540001D01*
X204335000Y-117672296D01*
X204316093Y-117730487D01*
X204266593Y-117766451D01*
X204205407Y-117766451D01*
X204155907Y-117730487D01*
X204148304Y-117716911D01*
X204148253Y-117716941D01*
X204068718Y-117579183D01*
X204068716Y-117579181D01*
X204068715Y-117579179D01*
X203960821Y-117471285D01*
X203960818Y-117471283D01*
X203960816Y-117471281D01*
X203828681Y-117394993D01*
X203828682Y-117394993D01*
X203797532Y-117386646D01*
X203681293Y-117355500D01*
X203528707Y-117355500D01*
X203463720Y-117372913D01*
X203381317Y-117394993D01*
X203249183Y-117471281D01*
X203141281Y-117579183D01*
X203064993Y-117711317D01*
X203025500Y-117858707D01*
X198404500Y-117858707D01*
X198365008Y-117711322D01*
X198365006Y-117711319D01*
X198365006Y-117711317D01*
X198288718Y-117579183D01*
X198288716Y-117579181D01*
X198288715Y-117579179D01*
X198180821Y-117471285D01*
X198180818Y-117471283D01*
X198180816Y-117471281D01*
X198048681Y-117394993D01*
X198048682Y-117394993D01*
X198017532Y-117386646D01*
X197901293Y-117355500D01*
X197748707Y-117355500D01*
X197683720Y-117372913D01*
X197601317Y-117394993D01*
X197469183Y-117471281D01*
X197361281Y-117579183D01*
X197281747Y-117716941D01*
X197280370Y-117716146D01*
X197245727Y-117756707D01*
X197186233Y-117770991D01*
X197129705Y-117747576D01*
X197097735Y-117695407D01*
X197095000Y-117672296D01*
X197095000Y-117540001D01*
X197094999Y-117540000D01*
X196695000Y-117540000D01*
X196695000Y-117290000D01*
X197094999Y-117290000D01*
X197095000Y-117289999D01*
X197095000Y-116796057D01*
X197094999Y-116796055D01*
X197068098Y-116660816D01*
X197015333Y-116533428D01*
X196938728Y-116418779D01*
X196841220Y-116321271D01*
X196726571Y-116244666D01*
X196599182Y-116191901D01*
X196520000Y-116176150D01*
X196520000Y-116590757D01*
X196510796Y-116585444D01*
X196434496Y-116565000D01*
X196355504Y-116565000D01*
X196279204Y-116585444D01*
X196270000Y-116590757D01*
X196270000Y-116176150D01*
X196190817Y-116191901D01*
X196063428Y-116244666D01*
X195948779Y-116321271D01*
X195851271Y-116418779D01*
X195774666Y-116533428D01*
X195721901Y-116660816D01*
X195695000Y-116796055D01*
X195400500Y-116796055D01*
X195400500Y-112504064D01*
X195419407Y-112445873D01*
X195468907Y-112409909D01*
X195530093Y-112409909D01*
X195562305Y-112427536D01*
X195683829Y-112527268D01*
X195683839Y-112527275D01*
X195866232Y-112624765D01*
X195866237Y-112624767D01*
X196064166Y-112684808D01*
X196144998Y-112692769D01*
X196145000Y-112692768D01*
X196145000Y-112134144D01*
X196204174Y-112150000D01*
X196335826Y-112150000D01*
X196395000Y-112134144D01*
X196395000Y-112692768D01*
X196395001Y-112692769D01*
X196475833Y-112684808D01*
X196673762Y-112624767D01*
X196673767Y-112624765D01*
X196856160Y-112527275D01*
X196856170Y-112527268D01*
X197016050Y-112396059D01*
X197016059Y-112396050D01*
X197147268Y-112236170D01*
X197147275Y-112236160D01*
X197244765Y-112053767D01*
X197244767Y-112053762D01*
X197304808Y-111855836D01*
X197304809Y-111855830D01*
X197312771Y-111775000D01*
X196754144Y-111775000D01*
X196770000Y-111715826D01*
X196770000Y-111584174D01*
X196754144Y-111525000D01*
X197312770Y-111525000D01*
X197326842Y-111509474D01*
X197329187Y-111498787D01*
X197374923Y-111458144D01*
X197435814Y-111452146D01*
X197484602Y-111478842D01*
X201392074Y-115386314D01*
X201392073Y-115386314D01*
X201485259Y-115479499D01*
X201485264Y-115479503D01*
X201599384Y-115545390D01*
X201599382Y-115545390D01*
X201599386Y-115545391D01*
X201599388Y-115545392D01*
X201726682Y-115579500D01*
X201726684Y-115579500D01*
X207003890Y-115579500D01*
X207003892Y-115579500D01*
X207131186Y-115545392D01*
X207131188Y-115545390D01*
X207131190Y-115545390D01*
X207245309Y-115479503D01*
X207245309Y-115479502D01*
X207245314Y-115479500D01*
X207719499Y-115005315D01*
X207785392Y-114891186D01*
X207819500Y-114763893D01*
X207819500Y-114632108D01*
X207819500Y-114154500D01*
X207838407Y-114096309D01*
X207887907Y-114060345D01*
X207918500Y-114055500D01*
X208342188Y-114055500D01*
X208400379Y-114074407D01*
X208432242Y-114113374D01*
X208455117Y-114163464D01*
X208455124Y-114163477D01*
X208486735Y-114212665D01*
X208486744Y-114212678D01*
X208580886Y-114321324D01*
X208580895Y-114321334D01*
X208613301Y-114349414D01*
X208625103Y-114359641D01*
X208625108Y-114359644D01*
X208746045Y-114437365D01*
X208746050Y-114437368D01*
X208746055Y-114437371D01*
X208799260Y-114461669D01*
X208937215Y-114502176D01*
X208954541Y-114504667D01*
X208995107Y-114510500D01*
X208995111Y-114510500D01*
X209566999Y-114510500D01*
X209567000Y-114510500D01*
X209612728Y-114505348D01*
X209671509Y-114477039D01*
X209732139Y-114468827D01*
X209776188Y-114488835D01*
X209777835Y-114490148D01*
X209777836Y-114490149D01*
X209867000Y-114510500D01*
X210438893Y-114510500D01*
X210471972Y-114505743D01*
X210496785Y-114502176D01*
X210634740Y-114461669D01*
X210687945Y-114437371D01*
X210808899Y-114359639D01*
X210853105Y-114321334D01*
X210947259Y-114212673D01*
X210978881Y-114163468D01*
X211038609Y-114032683D01*
X211055088Y-113976561D01*
X211075224Y-113836516D01*
X211102220Y-113781608D01*
X211103145Y-113780668D01*
X211783500Y-113100314D01*
X211809951Y-113054500D01*
X211849390Y-112986190D01*
X211849390Y-112986188D01*
X211849392Y-112986186D01*
X211883500Y-112858892D01*
X211883500Y-112727107D01*
X211849392Y-112599814D01*
X211849390Y-112599810D01*
X211849390Y-112599809D01*
X211783503Y-112485690D01*
X211783501Y-112485688D01*
X211783500Y-112485686D01*
X211690314Y-112392500D01*
X211690311Y-112392498D01*
X211690309Y-112392496D01*
X211576189Y-112326609D01*
X211576191Y-112326609D01*
X211511834Y-112309365D01*
X211448893Y-112292500D01*
X211317108Y-112292500D01*
X211239200Y-112313375D01*
X211189809Y-112326609D01*
X211075690Y-112392496D01*
X211075685Y-112392500D01*
X210809867Y-112658317D01*
X210755351Y-112686094D01*
X210694919Y-112676522D01*
X210691054Y-112674303D01*
X210691045Y-112674322D01*
X210687937Y-112672624D01*
X210645093Y-112653059D01*
X210634740Y-112648331D01*
X210634737Y-112648330D01*
X210634736Y-112648329D01*
X210496786Y-112607824D01*
X210496782Y-112607823D01*
X210438893Y-112599500D01*
X210438889Y-112599500D01*
X209867000Y-112599500D01*
X209866998Y-112599500D01*
X209821272Y-112604651D01*
X209762491Y-112632960D01*
X209701859Y-112641173D01*
X209657807Y-112621162D01*
X209656162Y-112619850D01*
X209567000Y-112599500D01*
X208995111Y-112599500D01*
X208995107Y-112599500D01*
X208937217Y-112607823D01*
X208937213Y-112607824D01*
X208799265Y-112648329D01*
X208799261Y-112648330D01*
X208799260Y-112648331D01*
X208777394Y-112658317D01*
X208746052Y-112672630D01*
X208746045Y-112672634D01*
X208625108Y-112750355D01*
X208625103Y-112750358D01*
X208580897Y-112788664D01*
X208580886Y-112788675D01*
X208486744Y-112897321D01*
X208486735Y-112897334D01*
X208455124Y-112946522D01*
X208455117Y-112946535D01*
X208451023Y-112955500D01*
X208432726Y-112995567D01*
X208432242Y-112996626D01*
X208390870Y-113041704D01*
X208342188Y-113054500D01*
X207918500Y-113054500D01*
X207860309Y-113035593D01*
X207824345Y-112986093D01*
X207819500Y-112955500D01*
X207819500Y-112727109D01*
X207819500Y-112727108D01*
X207785392Y-112599814D01*
X207785390Y-112599810D01*
X207785390Y-112599809D01*
X207719503Y-112485690D01*
X207719501Y-112485688D01*
X207719500Y-112485686D01*
X207626314Y-112392500D01*
X207626311Y-112392498D01*
X207626309Y-112392496D01*
X207512189Y-112326609D01*
X207512191Y-112326609D01*
X207462799Y-112313375D01*
X207384892Y-112292500D01*
X207253108Y-112292500D01*
X207175200Y-112313375D01*
X207125809Y-112326609D01*
X207011690Y-112392496D01*
X206918496Y-112485690D01*
X206852609Y-112599810D01*
X206852607Y-112599814D01*
X206839666Y-112648111D01*
X206806342Y-112699425D01*
X206749220Y-112721351D01*
X206690517Y-112705772D01*
X206638945Y-112672629D01*
X206632501Y-112669686D01*
X206585740Y-112648331D01*
X206585735Y-112648329D01*
X206585734Y-112648329D01*
X206447786Y-112607824D01*
X206447782Y-112607823D01*
X206389893Y-112599500D01*
X206389889Y-112599500D01*
X205818000Y-112599500D01*
X205817998Y-112599500D01*
X205772272Y-112604651D01*
X205713491Y-112632960D01*
X205652859Y-112641173D01*
X205608807Y-112621162D01*
X205607162Y-112619850D01*
X205518000Y-112599500D01*
X204946111Y-112599500D01*
X204946107Y-112599500D01*
X204888217Y-112607823D01*
X204888213Y-112607824D01*
X204750263Y-112648329D01*
X204750262Y-112648330D01*
X204696002Y-112673109D01*
X204635215Y-112680083D01*
X204584874Y-112653059D01*
X204324314Y-112392500D01*
X204324309Y-112392496D01*
X204210189Y-112326609D01*
X204210191Y-112326609D01*
X204160799Y-112313375D01*
X204082892Y-112292500D01*
X203951108Y-112292500D01*
X203873200Y-112313375D01*
X203823809Y-112326609D01*
X203709690Y-112392496D01*
X203616496Y-112485690D01*
X203550609Y-112599809D01*
X203537608Y-112648330D01*
X203516500Y-112727108D01*
X203516500Y-112858892D01*
X203526873Y-112897604D01*
X203550609Y-112986190D01*
X203616496Y-113100309D01*
X203616498Y-113100311D01*
X203616500Y-113100314D01*
X204280455Y-113764269D01*
X204308231Y-113818784D01*
X204309171Y-113830727D01*
X204309198Y-113830726D01*
X204309449Y-113834248D01*
X204329911Y-113976558D01*
X204329912Y-113976561D01*
X204346391Y-114032683D01*
X204383242Y-114113374D01*
X204406117Y-114163464D01*
X204406124Y-114163477D01*
X204437735Y-114212665D01*
X204437744Y-114212678D01*
X204531886Y-114321324D01*
X204531895Y-114321334D01*
X204564301Y-114349414D01*
X204576103Y-114359641D01*
X204576108Y-114359644D01*
X204633015Y-114396216D01*
X204671746Y-114443582D01*
X204675240Y-114504667D01*
X204642161Y-114556140D01*
X204585144Y-114578339D01*
X204579492Y-114578500D01*
X202040896Y-114578500D01*
X201982705Y-114559593D01*
X201970892Y-114549504D01*
X200471472Y-113050084D01*
X200443695Y-112995567D01*
X200453266Y-112935135D01*
X200496531Y-112891870D01*
X200556963Y-112882299D01*
X200582606Y-112890028D01*
X200586923Y-112891999D01*
X200586931Y-112892004D01*
X200711228Y-112928500D01*
X200711230Y-112928500D01*
X200840770Y-112928500D01*
X200840772Y-112928500D01*
X200965069Y-112892004D01*
X201074049Y-112821967D01*
X201158882Y-112724063D01*
X201212697Y-112606226D01*
X201225594Y-112516525D01*
X201231133Y-112478002D01*
X201231133Y-112477997D01*
X201212697Y-112349774D01*
X201202117Y-112326608D01*
X201158882Y-112231937D01*
X201100679Y-112164766D01*
X201076863Y-112108408D01*
X201076500Y-112099937D01*
X201076500Y-111119479D01*
X201095407Y-111061288D01*
X201105496Y-111049475D01*
X202438475Y-109716496D01*
X202492992Y-109688719D01*
X202508479Y-109687500D01*
X202557770Y-109687500D01*
X202557772Y-109687500D01*
X202682069Y-109651004D01*
X202791049Y-109580967D01*
X202875882Y-109483063D01*
X202910191Y-109407938D01*
X202951563Y-109362861D01*
X203011530Y-109350710D01*
X203067186Y-109376128D01*
X203070224Y-109379038D01*
X203074686Y-109383500D01*
X203074688Y-109383501D01*
X203074690Y-109383503D01*
X203188810Y-109449390D01*
X203188808Y-109449390D01*
X203188812Y-109449391D01*
X203188814Y-109449392D01*
X203316108Y-109483500D01*
X203316110Y-109483500D01*
X204209890Y-109483500D01*
X204209892Y-109483500D01*
X204337186Y-109449392D01*
X204337188Y-109449390D01*
X204337190Y-109449390D01*
X204451309Y-109383503D01*
X204451309Y-109383502D01*
X204451314Y-109383500D01*
X204901777Y-108933035D01*
X204956292Y-108905259D01*
X204981483Y-108904517D01*
X205159997Y-108922099D01*
X205160000Y-108922099D01*
X205160004Y-108922099D01*
X205346325Y-108903748D01*
X205346326Y-108903747D01*
X205346331Y-108903747D01*
X205525501Y-108849396D01*
X205690625Y-108761136D01*
X205738697Y-108721684D01*
X207122091Y-108721684D01*
X207169654Y-108760718D01*
X207334691Y-108848932D01*
X207513766Y-108903255D01*
X207513772Y-108903256D01*
X207699997Y-108921597D01*
X207700003Y-108921597D01*
X207886227Y-108903256D01*
X207886233Y-108903255D01*
X208065308Y-108848932D01*
X208230344Y-108760718D01*
X208230345Y-108760717D01*
X208277907Y-108721684D01*
X207699999Y-108143776D01*
X207122091Y-108721684D01*
X205738697Y-108721684D01*
X205835357Y-108642357D01*
X205954136Y-108497625D01*
X206042396Y-108332501D01*
X206096747Y-108153331D01*
X206096758Y-108153227D01*
X206115099Y-107967004D01*
X206115099Y-107966996D01*
X206745403Y-107966996D01*
X206745403Y-107967003D01*
X206763743Y-108153227D01*
X206763744Y-108153233D01*
X206818067Y-108332308D01*
X206906282Y-108497346D01*
X206906284Y-108497348D01*
X206945314Y-108544907D01*
X207523222Y-107966999D01*
X207876776Y-107966999D01*
X208454684Y-108544907D01*
X208493717Y-108497345D01*
X208493718Y-108497344D01*
X208581932Y-108332308D01*
X208636255Y-108153233D01*
X208636256Y-108153227D01*
X208654597Y-107967003D01*
X208654597Y-107966996D01*
X208654597Y-107966995D01*
X209284901Y-107966995D01*
X209284901Y-107967004D01*
X209303251Y-108153325D01*
X209303252Y-108153328D01*
X209303253Y-108153331D01*
X209357545Y-108332308D01*
X209357605Y-108332504D01*
X209357606Y-108332506D01*
X209445859Y-108497617D01*
X209445862Y-108497622D01*
X209445864Y-108497625D01*
X209484668Y-108544907D01*
X209564638Y-108642352D01*
X209564647Y-108642361D01*
X209663427Y-108723427D01*
X209696414Y-108774958D01*
X209692812Y-108836037D01*
X209670626Y-108869958D01*
X209585500Y-108955084D01*
X209585496Y-108955090D01*
X209519609Y-109069209D01*
X209508679Y-109110003D01*
X209485500Y-109196508D01*
X209485500Y-109328292D01*
X209500293Y-109383499D01*
X209519609Y-109455590D01*
X209585496Y-109569709D01*
X209585498Y-109569711D01*
X209585500Y-109569714D01*
X209678686Y-109662900D01*
X209678688Y-109662901D01*
X209678690Y-109662903D01*
X209792810Y-109728790D01*
X209792808Y-109728790D01*
X209792812Y-109728791D01*
X209792814Y-109728792D01*
X209920108Y-109762900D01*
X209920110Y-109762900D01*
X210051890Y-109762900D01*
X210051892Y-109762900D01*
X210179186Y-109728792D01*
X210179188Y-109728790D01*
X210179190Y-109728790D01*
X210293314Y-109662900D01*
X210386504Y-109569709D01*
X210547312Y-109408900D01*
X210547314Y-109408900D01*
X210640500Y-109315714D01*
X210706392Y-109201586D01*
X210707753Y-109196508D01*
X210740500Y-109074293D01*
X210740500Y-108942508D01*
X210740500Y-108832681D01*
X210759407Y-108774490D01*
X210776693Y-108756155D01*
X210874746Y-108675686D01*
X210915348Y-108642365D01*
X210915351Y-108642361D01*
X210915357Y-108642357D01*
X211034136Y-108497625D01*
X211122396Y-108332501D01*
X211176747Y-108153331D01*
X211176758Y-108153227D01*
X211195099Y-107967004D01*
X211195099Y-107966995D01*
X211176748Y-107780674D01*
X211176747Y-107780671D01*
X211176747Y-107780669D01*
X211122396Y-107601499D01*
X211092321Y-107545232D01*
X211034140Y-107436382D01*
X211034138Y-107436380D01*
X211034136Y-107436375D01*
X210953559Y-107338192D01*
X210915361Y-107291647D01*
X210915352Y-107291638D01*
X210776694Y-107177845D01*
X210770625Y-107172864D01*
X210770622Y-107172862D01*
X210770617Y-107172859D01*
X210605506Y-107084606D01*
X210605504Y-107084605D01*
X210426328Y-107030252D01*
X210426325Y-107030251D01*
X210240004Y-107011901D01*
X210239996Y-107011901D01*
X210053674Y-107030251D01*
X210053671Y-107030252D01*
X209874495Y-107084605D01*
X209874493Y-107084606D01*
X209709382Y-107172859D01*
X209709376Y-107172863D01*
X209564647Y-107291638D01*
X209564638Y-107291647D01*
X209445863Y-107436376D01*
X209445859Y-107436382D01*
X209357606Y-107601493D01*
X209357605Y-107601495D01*
X209303252Y-107780671D01*
X209303251Y-107780674D01*
X209284901Y-107966995D01*
X208654597Y-107966995D01*
X208636256Y-107780772D01*
X208636255Y-107780766D01*
X208581932Y-107601691D01*
X208493718Y-107436654D01*
X208454684Y-107389091D01*
X207876776Y-107966999D01*
X207523222Y-107966999D01*
X206945314Y-107389091D01*
X206906285Y-107436649D01*
X206906278Y-107436660D01*
X206818069Y-107601686D01*
X206818067Y-107601691D01*
X206763744Y-107780766D01*
X206763743Y-107780772D01*
X206745403Y-107966996D01*
X206115099Y-107966996D01*
X206115099Y-107966995D01*
X206096748Y-107780674D01*
X206096747Y-107780671D01*
X206096747Y-107780669D01*
X206042396Y-107601499D01*
X206012321Y-107545232D01*
X205954140Y-107436382D01*
X205954138Y-107436380D01*
X205954136Y-107436375D01*
X205873559Y-107338192D01*
X205835361Y-107291647D01*
X205835352Y-107291638D01*
X205738696Y-107212314D01*
X207122091Y-107212314D01*
X207699999Y-107790222D01*
X208277907Y-107212314D01*
X208230348Y-107173284D01*
X208230346Y-107173282D01*
X208065308Y-107085067D01*
X207886233Y-107030744D01*
X207886227Y-107030743D01*
X207700003Y-107012403D01*
X207699997Y-107012403D01*
X207513772Y-107030743D01*
X207513766Y-107030744D01*
X207334691Y-107085067D01*
X207334686Y-107085069D01*
X207169660Y-107173278D01*
X207169649Y-107173285D01*
X207122091Y-107212314D01*
X205738696Y-107212314D01*
X205696695Y-107177845D01*
X205663708Y-107126314D01*
X205660500Y-107101317D01*
X205660500Y-97659500D01*
X205679407Y-97601309D01*
X205728907Y-97565345D01*
X205759500Y-97560500D01*
X211866354Y-97560500D01*
X211924545Y-97579407D01*
X211931179Y-97584675D01*
X211995327Y-97640259D01*
X211995329Y-97640260D01*
X211995330Y-97640261D01*
X211995334Y-97640264D01*
X212044522Y-97671875D01*
X212044526Y-97671877D01*
X212044532Y-97671881D01*
X212175317Y-97731609D01*
X212231439Y-97748088D01*
X212278877Y-97754908D01*
X212373750Y-97768550D01*
X212373754Y-97768550D01*
X212432248Y-97768550D01*
X212446448Y-97766508D01*
X212460539Y-97765500D01*
X212845461Y-97765500D01*
X212859552Y-97766508D01*
X212873752Y-97768550D01*
X212873755Y-97768550D01*
X212932250Y-97768550D01*
X213013568Y-97756857D01*
X213074561Y-97748088D01*
X213130683Y-97731609D01*
X213261468Y-97671881D01*
X213310673Y-97640259D01*
X213374815Y-97584679D01*
X213431175Y-97560863D01*
X213439646Y-97560500D01*
X213846890Y-97560500D01*
X213846892Y-97560500D01*
X213974186Y-97526392D01*
X213974188Y-97526390D01*
X213974190Y-97526390D01*
X214088309Y-97460503D01*
X214088309Y-97460502D01*
X214088314Y-97460500D01*
X214523498Y-97025315D01*
X214578013Y-96997540D01*
X214638445Y-97007111D01*
X214681710Y-97050376D01*
X214692500Y-97095321D01*
X214692500Y-112446521D01*
X214673593Y-112504712D01*
X214663504Y-112516525D01*
X214612525Y-112567504D01*
X214558008Y-112595281D01*
X214542521Y-112596500D01*
X214493225Y-112596500D01*
X214368933Y-112632995D01*
X214368926Y-112632998D01*
X214259952Y-112703031D01*
X214175117Y-112800938D01*
X214121302Y-112918774D01*
X214102867Y-113046997D01*
X214102867Y-113047002D01*
X214121302Y-113175225D01*
X214175117Y-113293061D01*
X214175118Y-113293063D01*
X214251821Y-113381584D01*
X214259952Y-113390968D01*
X214368926Y-113461001D01*
X214368931Y-113461004D01*
X214493228Y-113497500D01*
X214493230Y-113497500D01*
X214622770Y-113497500D01*
X214622772Y-113497500D01*
X214747069Y-113461004D01*
X214856049Y-113390967D01*
X214864179Y-113381583D01*
X214916574Y-113349987D01*
X214977535Y-113355221D01*
X215013820Y-113381583D01*
X215021951Y-113390967D01*
X215130931Y-113461004D01*
X215255228Y-113497500D01*
X215255230Y-113497500D01*
X215384770Y-113497500D01*
X215384772Y-113497500D01*
X215509069Y-113461004D01*
X215618049Y-113390967D01*
X215702882Y-113293063D01*
X215756697Y-113175226D01*
X215775133Y-113047000D01*
X215767890Y-112996626D01*
X215756697Y-112918774D01*
X215747029Y-112897604D01*
X215702882Y-112800937D01*
X215644679Y-112733766D01*
X215620863Y-112677408D01*
X215620500Y-112668937D01*
X215620500Y-85139840D01*
X215639407Y-85081649D01*
X215688907Y-85045685D01*
X215747391Y-85044850D01*
X215763228Y-85049500D01*
X215763230Y-85049500D01*
X215892770Y-85049500D01*
X215892772Y-85049500D01*
X216017069Y-85013004D01*
X216126049Y-84942967D01*
X216134179Y-84933583D01*
X216186574Y-84901987D01*
X216247535Y-84907221D01*
X216283821Y-84933584D01*
X216291951Y-84942967D01*
X216382499Y-85001159D01*
X216400931Y-85013004D01*
X216525228Y-85049500D01*
X216525230Y-85049500D01*
X216654770Y-85049500D01*
X216654772Y-85049500D01*
X216779069Y-85013004D01*
X216888049Y-84942967D01*
X216972882Y-84845063D01*
X217026697Y-84727226D01*
X217045133Y-84599000D01*
X217043506Y-84587685D01*
X217026697Y-84470774D01*
X216972882Y-84352938D01*
X216972882Y-84352937D01*
X216888049Y-84255033D01*
X216888048Y-84255032D01*
X216888047Y-84255031D01*
X216779073Y-84184998D01*
X216779070Y-84184996D01*
X216779069Y-84184996D01*
X216779066Y-84184995D01*
X216654774Y-84148500D01*
X216654772Y-84148500D01*
X216525228Y-84148500D01*
X216525225Y-84148500D01*
X216400933Y-84184995D01*
X216400926Y-84184998D01*
X216291951Y-84255032D01*
X216291949Y-84255034D01*
X216283819Y-84264417D01*
X216231423Y-84296013D01*
X216170462Y-84290777D01*
X216134181Y-84264417D01*
X216126050Y-84255034D01*
X216126048Y-84255032D01*
X216017073Y-84184998D01*
X216017070Y-84184996D01*
X216017069Y-84184996D01*
X216017066Y-84184995D01*
X215892774Y-84148500D01*
X215892772Y-84148500D01*
X215763228Y-84148500D01*
X215763226Y-84148500D01*
X215763222Y-84148501D01*
X215747387Y-84153150D01*
X215686227Y-84151400D01*
X215637776Y-84114035D01*
X215620500Y-84058159D01*
X215620500Y-66726439D01*
X215620500Y-66726438D01*
X215607095Y-66676410D01*
X215607093Y-66676404D01*
X215600023Y-66650015D01*
X215600022Y-66650014D01*
X215600022Y-66650012D01*
X215560460Y-66581489D01*
X215041496Y-66062525D01*
X215013719Y-66008008D01*
X215013508Y-66006609D01*
X214994698Y-65875775D01*
X214965459Y-65811753D01*
X214940882Y-65757937D01*
X214856049Y-65660033D01*
X214856048Y-65660032D01*
X214851412Y-65654682D01*
X214852624Y-65653631D01*
X214825362Y-65608431D01*
X214830593Y-65547469D01*
X214852079Y-65517896D01*
X214851412Y-65517318D01*
X214856049Y-65511967D01*
X214940882Y-65414063D01*
X214994697Y-65296226D01*
X215004403Y-65228713D01*
X215031398Y-65173808D01*
X215085512Y-65145254D01*
X215130286Y-65147814D01*
X215130929Y-65148002D01*
X215130931Y-65148004D01*
X215255228Y-65184500D01*
X215255230Y-65184500D01*
X215384770Y-65184500D01*
X215384772Y-65184500D01*
X215509069Y-65148004D01*
X215618049Y-65077967D01*
X215702882Y-64980063D01*
X215756697Y-64862226D01*
X215773201Y-64747438D01*
X215775133Y-64734002D01*
X215775133Y-64733997D01*
X215763572Y-64653589D01*
X215774005Y-64593300D01*
X215817883Y-64550658D01*
X215861564Y-64540500D01*
X218319563Y-64540500D01*
X218319563Y-64540499D01*
X218395989Y-64520021D01*
X218464511Y-64480460D01*
X218520460Y-64424511D01*
X218578783Y-64366186D01*
X218633297Y-64338409D01*
X218693730Y-64347980D01*
X218695432Y-64348868D01*
X218726046Y-64365232D01*
X218863997Y-64407078D01*
X218924065Y-64425300D01*
X218924070Y-64425301D01*
X219129997Y-64445583D01*
X219130000Y-64445583D01*
X219130003Y-64445583D01*
X219335929Y-64425301D01*
X219335934Y-64425300D01*
X219338538Y-64424510D01*
X219533954Y-64365232D01*
X219716450Y-64267685D01*
X219837695Y-64168181D01*
X219894672Y-64145882D01*
X219953875Y-64161330D01*
G37*
G04 #@! TD.AperFunction*
G04 #@! TA.AperFunction,Conductor*
G36*
X198294501Y-96737315D02*
G01*
X199017686Y-97460500D01*
X199017688Y-97460501D01*
X199017690Y-97460503D01*
X199131810Y-97526390D01*
X199131808Y-97526390D01*
X199131812Y-97526391D01*
X199131814Y-97526392D01*
X199259107Y-97560500D01*
X199259108Y-97560500D01*
X199293354Y-97560500D01*
X199351545Y-97579407D01*
X199358179Y-97584675D01*
X199422327Y-97640259D01*
X199422329Y-97640260D01*
X199422330Y-97640261D01*
X199422334Y-97640264D01*
X199471522Y-97671875D01*
X199471526Y-97671877D01*
X199471532Y-97671881D01*
X199602317Y-97731609D01*
X199658439Y-97748088D01*
X199705877Y-97754908D01*
X199800750Y-97768550D01*
X199800754Y-97768550D01*
X199859248Y-97768550D01*
X199873448Y-97766508D01*
X199887539Y-97765500D01*
X200272461Y-97765500D01*
X200286552Y-97766508D01*
X200300752Y-97768550D01*
X200300755Y-97768550D01*
X200359250Y-97768550D01*
X200440568Y-97756857D01*
X200501561Y-97748088D01*
X200557683Y-97731609D01*
X200688468Y-97671881D01*
X200737673Y-97640259D01*
X200801815Y-97584679D01*
X200858175Y-97560863D01*
X200866646Y-97560500D01*
X202341354Y-97560500D01*
X202399545Y-97579407D01*
X202406179Y-97584675D01*
X202470327Y-97640259D01*
X202470329Y-97640260D01*
X202470330Y-97640261D01*
X202470334Y-97640264D01*
X202519522Y-97671875D01*
X202519526Y-97671877D01*
X202519532Y-97671881D01*
X202650317Y-97731609D01*
X202706439Y-97748088D01*
X202753877Y-97754908D01*
X202848750Y-97768550D01*
X202848754Y-97768550D01*
X202907248Y-97768550D01*
X202921448Y-97766508D01*
X202935539Y-97765500D01*
X203320461Y-97765500D01*
X203334552Y-97766508D01*
X203348752Y-97768550D01*
X203348755Y-97768550D01*
X203407250Y-97768550D01*
X203488568Y-97756857D01*
X203549561Y-97748088D01*
X203605683Y-97731609D01*
X203736468Y-97671881D01*
X203785673Y-97640259D01*
X203849815Y-97584679D01*
X203906175Y-97560863D01*
X203914646Y-97560500D01*
X204560500Y-97560500D01*
X204618691Y-97579407D01*
X204654655Y-97628907D01*
X204659500Y-97659500D01*
X204659500Y-107101317D01*
X204640593Y-107159508D01*
X204623305Y-107177845D01*
X204484647Y-107291638D01*
X204484638Y-107291647D01*
X204365863Y-107436376D01*
X204365859Y-107436382D01*
X204277606Y-107601493D01*
X204277605Y-107601495D01*
X204223252Y-107780671D01*
X204223251Y-107780674D01*
X204204901Y-107966995D01*
X204204901Y-107967004D01*
X204222482Y-108145515D01*
X204209369Y-108205278D01*
X204193963Y-108225221D01*
X203965683Y-108453503D01*
X203911166Y-108481281D01*
X203895679Y-108482500D01*
X203316108Y-108482500D01*
X203260694Y-108497348D01*
X203188812Y-108516608D01*
X203081920Y-108578323D01*
X203022071Y-108591044D01*
X202966176Y-108566157D01*
X202935583Y-108513169D01*
X202934428Y-108506675D01*
X202929697Y-108473774D01*
X202879377Y-108363590D01*
X202875882Y-108355937D01*
X202791049Y-108258033D01*
X202791048Y-108258032D01*
X202791047Y-108258031D01*
X202682073Y-108187998D01*
X202682070Y-108187996D01*
X202682069Y-108187996D01*
X202675329Y-108186017D01*
X202557774Y-108151500D01*
X202557772Y-108151500D01*
X202428228Y-108151500D01*
X202428225Y-108151500D01*
X202303933Y-108187995D01*
X202303926Y-108187998D01*
X202194952Y-108258031D01*
X202110117Y-108355938D01*
X202056302Y-108473774D01*
X202044137Y-108558384D01*
X202017141Y-108613291D01*
X202016149Y-108614298D01*
X199964486Y-110665963D01*
X199964485Y-110665962D01*
X199908536Y-110721912D01*
X199868977Y-110790430D01*
X199868975Y-110790434D01*
X199848497Y-110866858D01*
X199848497Y-112099936D01*
X199829590Y-112158127D01*
X199824317Y-112164766D01*
X199783388Y-112212002D01*
X199730993Y-112243599D01*
X199670032Y-112238364D01*
X199638564Y-112217176D01*
X198154496Y-110733108D01*
X198126719Y-110678591D01*
X198125500Y-110663104D01*
X198125500Y-105975688D01*
X198144407Y-105917497D01*
X198193907Y-105881533D01*
X198230147Y-105878421D01*
X198230147Y-105877500D01*
X198366770Y-105877500D01*
X198366772Y-105877500D01*
X198491069Y-105841004D01*
X198600049Y-105770967D01*
X198608105Y-105761670D01*
X198660500Y-105730073D01*
X198682925Y-105727500D01*
X201516563Y-105727500D01*
X201516563Y-105727499D01*
X201592989Y-105707021D01*
X201661511Y-105667460D01*
X201689485Y-105639485D01*
X201717461Y-105611511D01*
X201919129Y-105409841D01*
X202142724Y-105186245D01*
X202197239Y-105158469D01*
X202250607Y-105164784D01*
X202254493Y-105166393D01*
X202254499Y-105166396D01*
X202433669Y-105220747D01*
X202433671Y-105220747D01*
X202433674Y-105220748D01*
X202619996Y-105239099D01*
X202620000Y-105239099D01*
X202620004Y-105239099D01*
X202806325Y-105220748D01*
X202806326Y-105220747D01*
X202806331Y-105220747D01*
X202985501Y-105166396D01*
X203150625Y-105078136D01*
X203295357Y-104959357D01*
X203414136Y-104814625D01*
X203502396Y-104649501D01*
X203556747Y-104470331D01*
X203567334Y-104362846D01*
X203575099Y-104284004D01*
X203575099Y-104283995D01*
X203556748Y-104097674D01*
X203556747Y-104097671D01*
X203556747Y-104097669D01*
X203502396Y-103918499D01*
X203451921Y-103824066D01*
X203414140Y-103753382D01*
X203414138Y-103753380D01*
X203414136Y-103753375D01*
X203350755Y-103676145D01*
X203295361Y-103608647D01*
X203295352Y-103608638D01*
X203210978Y-103539395D01*
X203150625Y-103489864D01*
X203150622Y-103489862D01*
X203150617Y-103489859D01*
X202985506Y-103401606D01*
X202985504Y-103401605D01*
X202806328Y-103347252D01*
X202806325Y-103347251D01*
X202620004Y-103328901D01*
X202619996Y-103328901D01*
X202433674Y-103347251D01*
X202433671Y-103347252D01*
X202254495Y-103401605D01*
X202254493Y-103401606D01*
X202089382Y-103489859D01*
X202089376Y-103489863D01*
X201944647Y-103608638D01*
X201944638Y-103608647D01*
X201825863Y-103753376D01*
X201825859Y-103753382D01*
X201737606Y-103918493D01*
X201737605Y-103918495D01*
X201683252Y-104097671D01*
X201683251Y-104097674D01*
X201664901Y-104283995D01*
X201664901Y-104284004D01*
X201683251Y-104470325D01*
X201683252Y-104470328D01*
X201737605Y-104649504D01*
X201739214Y-104653388D01*
X201744013Y-104714385D01*
X201717753Y-104761274D01*
X201381526Y-105097503D01*
X201327009Y-105125281D01*
X201311522Y-105126500D01*
X200827222Y-105126500D01*
X200769031Y-105107593D01*
X200733067Y-105058093D01*
X200733067Y-104996907D01*
X200753271Y-104963936D01*
X200752272Y-104963117D01*
X200797765Y-104907683D01*
X200874136Y-104814625D01*
X200962396Y-104649501D01*
X201016747Y-104470331D01*
X201027334Y-104362846D01*
X201035099Y-104284004D01*
X201035099Y-104283995D01*
X201016748Y-104097674D01*
X201016747Y-104097671D01*
X201016747Y-104097669D01*
X200962396Y-103918499D01*
X200911921Y-103824066D01*
X200874140Y-103753382D01*
X200874138Y-103753380D01*
X200874136Y-103753375D01*
X200810755Y-103676145D01*
X200755361Y-103608647D01*
X200755352Y-103608638D01*
X200670978Y-103539395D01*
X200610625Y-103489864D01*
X200610622Y-103489862D01*
X200610617Y-103489859D01*
X200445506Y-103401606D01*
X200445504Y-103401605D01*
X200266328Y-103347252D01*
X200266325Y-103347251D01*
X200080004Y-103328901D01*
X200079996Y-103328901D01*
X199893674Y-103347251D01*
X199893671Y-103347252D01*
X199714495Y-103401605D01*
X199714493Y-103401606D01*
X199549382Y-103489859D01*
X199549376Y-103489863D01*
X199404647Y-103608638D01*
X199404638Y-103608647D01*
X199285863Y-103753376D01*
X199285859Y-103753382D01*
X199197603Y-103918498D01*
X199195994Y-103922385D01*
X199156258Y-103968911D01*
X199104530Y-103983500D01*
X198770435Y-103983500D01*
X198694014Y-104003977D01*
X198694009Y-104003979D01*
X198648940Y-104030000D01*
X198625489Y-104043539D01*
X198376314Y-104292714D01*
X198321798Y-104320491D01*
X198306311Y-104321710D01*
X198257014Y-104321710D01*
X198252388Y-104323069D01*
X198191227Y-104321319D01*
X198142776Y-104283955D01*
X198125500Y-104228078D01*
X198125500Y-99965997D01*
X201290867Y-99965997D01*
X201290867Y-99966002D01*
X201309302Y-100094225D01*
X201363117Y-100212061D01*
X201363118Y-100212063D01*
X201447951Y-100309967D01*
X201447952Y-100309968D01*
X201556926Y-100380001D01*
X201556931Y-100380004D01*
X201681228Y-100416500D01*
X201681230Y-100416500D01*
X201810770Y-100416500D01*
X201810772Y-100416500D01*
X201935069Y-100380004D01*
X202044049Y-100309967D01*
X202128882Y-100212063D01*
X202182697Y-100094226D01*
X202201133Y-99966000D01*
X202195271Y-99925232D01*
X202182697Y-99837774D01*
X202151118Y-99768627D01*
X202128882Y-99719937D01*
X202044049Y-99622033D01*
X202044048Y-99622032D01*
X202044047Y-99622031D01*
X201935073Y-99551998D01*
X201935070Y-99551996D01*
X201935069Y-99551996D01*
X201916089Y-99546423D01*
X201810774Y-99515500D01*
X201810772Y-99515500D01*
X201681228Y-99515500D01*
X201681225Y-99515500D01*
X201556933Y-99551995D01*
X201556926Y-99551998D01*
X201447952Y-99622031D01*
X201363117Y-99719938D01*
X201309302Y-99837774D01*
X201290867Y-99965997D01*
X198125500Y-99965997D01*
X198125500Y-96807321D01*
X198144407Y-96749130D01*
X198193907Y-96713166D01*
X198255093Y-96713166D01*
X198294501Y-96737315D01*
G37*
G04 #@! TD.AperFunction*
G04 #@! TA.AperFunction,Conductor*
G36*
X195562303Y-109888181D02*
G01*
X195611587Y-109928627D01*
X195683547Y-109987683D01*
X195683548Y-109987683D01*
X195683550Y-109987685D01*
X195866046Y-110085232D01*
X196003997Y-110127078D01*
X196064065Y-110145300D01*
X196064070Y-110145301D01*
X196269997Y-110165583D01*
X196270000Y-110165583D01*
X196270003Y-110165583D01*
X196475929Y-110145301D01*
X196475934Y-110145300D01*
X196673954Y-110085232D01*
X196856450Y-109987685D01*
X196962696Y-109900491D01*
X197019672Y-109878192D01*
X197078875Y-109893640D01*
X197117690Y-109940937D01*
X197124500Y-109977020D01*
X197124500Y-110783625D01*
X197105593Y-110841816D01*
X197056093Y-110877780D01*
X196994907Y-110877780D01*
X196962695Y-110860153D01*
X196856170Y-110772731D01*
X196856160Y-110772724D01*
X196673767Y-110675234D01*
X196673762Y-110675232D01*
X196475836Y-110615191D01*
X196475830Y-110615190D01*
X196395000Y-110607229D01*
X196395000Y-111165855D01*
X196335826Y-111150000D01*
X196204174Y-111150000D01*
X196145000Y-111165855D01*
X196145000Y-110607229D01*
X196144999Y-110607229D01*
X196064169Y-110615190D01*
X196064163Y-110615191D01*
X195866237Y-110675232D01*
X195866232Y-110675234D01*
X195683839Y-110772724D01*
X195683829Y-110772731D01*
X195562305Y-110872463D01*
X195505328Y-110894763D01*
X195446125Y-110879314D01*
X195407310Y-110832017D01*
X195400500Y-110795935D01*
X195400500Y-109964710D01*
X195419407Y-109906519D01*
X195468907Y-109870555D01*
X195530093Y-109870555D01*
X195562303Y-109888181D01*
G37*
G04 #@! TD.AperFunction*
G04 #@! TA.AperFunction,Conductor*
G36*
X200779147Y-76355407D02*
G01*
X200815111Y-76404907D01*
X200815111Y-76466093D01*
X200803272Y-76490501D01*
X200791603Y-76507963D01*
X200780000Y-76566299D01*
X200780000Y-77660999D01*
X200780001Y-77661000D01*
X201251000Y-77661000D01*
X201309191Y-77679907D01*
X201345155Y-77729407D01*
X201350000Y-77760000D01*
X201350000Y-77786000D01*
X201376000Y-77786000D01*
X201434191Y-77804907D01*
X201470155Y-77854407D01*
X201475000Y-77885000D01*
X201475000Y-79185999D01*
X201475001Y-79186000D01*
X201739697Y-79186000D01*
X201739700Y-79185999D01*
X201798036Y-79174396D01*
X201864189Y-79130193D01*
X201864192Y-79130190D01*
X201902383Y-79073034D01*
X201950433Y-79035154D01*
X202011571Y-79032752D01*
X202062445Y-79066744D01*
X202067014Y-79073033D01*
X202105205Y-79130189D01*
X202105448Y-79130552D01*
X202171769Y-79174867D01*
X202207735Y-79182021D01*
X202230241Y-79186498D01*
X202230246Y-79186498D01*
X202230252Y-79186500D01*
X202230253Y-79186500D01*
X203009747Y-79186500D01*
X203009748Y-79186500D01*
X203068231Y-79174867D01*
X203134552Y-79130552D01*
X203172986Y-79073032D01*
X203221035Y-79035154D01*
X203282173Y-79032752D01*
X203333046Y-79066745D01*
X203337615Y-79073033D01*
X203375805Y-79130188D01*
X203375810Y-79130193D01*
X203441963Y-79174396D01*
X203500299Y-79185999D01*
X203500303Y-79186000D01*
X203764999Y-79186000D01*
X203765000Y-79185999D01*
X203765000Y-77885000D01*
X203783907Y-77826809D01*
X203833407Y-77790845D01*
X203864000Y-77786000D01*
X203890000Y-77786000D01*
X203890000Y-77760000D01*
X203908907Y-77701809D01*
X203958407Y-77665845D01*
X203989000Y-77661000D01*
X204464815Y-77661000D01*
X204509513Y-77638226D01*
X204569945Y-77647797D01*
X204588118Y-77661000D01*
X205061000Y-77661000D01*
X205119191Y-77679907D01*
X205155155Y-77729407D01*
X205160000Y-77760000D01*
X205160000Y-77812000D01*
X205141093Y-77870191D01*
X205091593Y-77906155D01*
X205061000Y-77911000D01*
X204585185Y-77911000D01*
X204540487Y-77933774D01*
X204480055Y-77924203D01*
X204461882Y-77911000D01*
X204015000Y-77911000D01*
X204015000Y-79182021D01*
X203996093Y-79240212D01*
X203986004Y-79252025D01*
X203182525Y-80055504D01*
X203128008Y-80083281D01*
X203112521Y-80084500D01*
X203063225Y-80084500D01*
X202938933Y-80120995D01*
X202938926Y-80120998D01*
X202829952Y-80191031D01*
X202745117Y-80288938D01*
X202691302Y-80406774D01*
X202672867Y-80534997D01*
X202672867Y-80535002D01*
X202691302Y-80663225D01*
X202738259Y-80766045D01*
X202745118Y-80781063D01*
X202808670Y-80854407D01*
X202829952Y-80878968D01*
X202916362Y-80934500D01*
X202938931Y-80949004D01*
X203063228Y-80985500D01*
X203063230Y-80985500D01*
X203192770Y-80985500D01*
X203192772Y-80985500D01*
X203317069Y-80949004D01*
X203426049Y-80878967D01*
X203434179Y-80869583D01*
X203486574Y-80837987D01*
X203547535Y-80843221D01*
X203583820Y-80869583D01*
X203589648Y-80876309D01*
X203591951Y-80878967D01*
X203630758Y-80903907D01*
X203700931Y-80949004D01*
X203825228Y-80985500D01*
X203825230Y-80985500D01*
X203954770Y-80985500D01*
X203954772Y-80985500D01*
X204079069Y-80949004D01*
X204188049Y-80878967D01*
X204196179Y-80869583D01*
X204248574Y-80837987D01*
X204309535Y-80843221D01*
X204345820Y-80869583D01*
X204351648Y-80876309D01*
X204353951Y-80878967D01*
X204392758Y-80903907D01*
X204462931Y-80949004D01*
X204587228Y-80985500D01*
X204587230Y-80985500D01*
X204716770Y-80985500D01*
X204716772Y-80985500D01*
X204841069Y-80949004D01*
X204950049Y-80878967D01*
X204958179Y-80869583D01*
X205010574Y-80837987D01*
X205071535Y-80843221D01*
X205107820Y-80869583D01*
X205113648Y-80876309D01*
X205115951Y-80878967D01*
X205154758Y-80903907D01*
X205224931Y-80949004D01*
X205349228Y-80985500D01*
X205349230Y-80985500D01*
X205478770Y-80985500D01*
X205478772Y-80985500D01*
X205603069Y-80949004D01*
X205712049Y-80878967D01*
X205720105Y-80869670D01*
X205772500Y-80838073D01*
X205794925Y-80835500D01*
X211618500Y-80835500D01*
X211676691Y-80854407D01*
X211712655Y-80903907D01*
X211717500Y-80934500D01*
X211717500Y-91877564D01*
X211737978Y-91953988D01*
X211737979Y-91953989D01*
X211776941Y-92021473D01*
X211777474Y-92022423D01*
X211777537Y-92022507D01*
X211777538Y-92022508D01*
X211777540Y-92022511D01*
X212195024Y-92439995D01*
X212550503Y-92795474D01*
X212578280Y-92849991D01*
X212578491Y-92851389D01*
X212597302Y-92982225D01*
X212628881Y-93051371D01*
X212651118Y-93100063D01*
X212707819Y-93165500D01*
X212735952Y-93197968D01*
X212825160Y-93255298D01*
X212844931Y-93268004D01*
X212969228Y-93304500D01*
X212969230Y-93304500D01*
X213098770Y-93304500D01*
X213098772Y-93304500D01*
X213223069Y-93268004D01*
X213332049Y-93197967D01*
X213416882Y-93100063D01*
X213470697Y-92982226D01*
X213480866Y-92911500D01*
X213489133Y-92854002D01*
X213489133Y-92853997D01*
X213470697Y-92725774D01*
X213416882Y-92607937D01*
X213332049Y-92510033D01*
X213332048Y-92510032D01*
X213332047Y-92510031D01*
X213223073Y-92439998D01*
X213223070Y-92439996D01*
X213223069Y-92439996D01*
X213223066Y-92439995D01*
X213098774Y-92403500D01*
X213098772Y-92403500D01*
X213049479Y-92403500D01*
X212991288Y-92384593D01*
X212979475Y-92374504D01*
X212347496Y-91742525D01*
X212319719Y-91688008D01*
X212318500Y-91672521D01*
X212318500Y-85010535D01*
X212337407Y-84952344D01*
X212386907Y-84916380D01*
X212448093Y-84916380D01*
X212483354Y-84939760D01*
X212484595Y-84938329D01*
X212489948Y-84942967D01*
X212580496Y-85001159D01*
X212598928Y-85013004D01*
X212723225Y-85049500D01*
X212723227Y-85049500D01*
X212852767Y-85049500D01*
X212852769Y-85049500D01*
X212977066Y-85013004D01*
X213086046Y-84942967D01*
X213086053Y-84942958D01*
X213086163Y-84942865D01*
X213086286Y-84942812D01*
X213092003Y-84939139D01*
X213092638Y-84940128D01*
X213142521Y-84919045D01*
X213202117Y-84932900D01*
X213215826Y-84942859D01*
X213215951Y-84942967D01*
X213306499Y-85001159D01*
X213324931Y-85013004D01*
X213449228Y-85049500D01*
X213449230Y-85049500D01*
X213585853Y-85049500D01*
X213585853Y-85051157D01*
X213637699Y-85060128D01*
X213680342Y-85104006D01*
X213690500Y-85147688D01*
X213690500Y-95343276D01*
X213671593Y-95401467D01*
X213622093Y-95437431D01*
X213560907Y-95437431D01*
X213511407Y-95401467D01*
X213508216Y-95396799D01*
X213457644Y-95318108D01*
X213457641Y-95318103D01*
X213436416Y-95293609D01*
X213419334Y-95273895D01*
X213419326Y-95273888D01*
X213419322Y-95273884D01*
X213310678Y-95179744D01*
X213310665Y-95179735D01*
X213261477Y-95148124D01*
X213261464Y-95148117D01*
X213236656Y-95136788D01*
X213130683Y-95088391D01*
X213130678Y-95088389D01*
X213130677Y-95088389D01*
X213074562Y-95071912D01*
X213074558Y-95071911D01*
X212932250Y-95051450D01*
X212932246Y-95051450D01*
X212873755Y-95051450D01*
X212873752Y-95051450D01*
X212859552Y-95053492D01*
X212845461Y-95054500D01*
X212460539Y-95054500D01*
X212446448Y-95053492D01*
X212432248Y-95051450D01*
X212432245Y-95051450D01*
X212373754Y-95051450D01*
X212373750Y-95051450D01*
X212231441Y-95071911D01*
X212231437Y-95071912D01*
X212175322Y-95088389D01*
X212175318Y-95088390D01*
X212175317Y-95088391D01*
X212134735Y-95106924D01*
X212044535Y-95148117D01*
X212044522Y-95148124D01*
X211995334Y-95179735D01*
X211995330Y-95179738D01*
X211931185Y-95235320D01*
X211874825Y-95259137D01*
X211866354Y-95259500D01*
X211190108Y-95259500D01*
X211136355Y-95273903D01*
X211062809Y-95293609D01*
X210948690Y-95359496D01*
X210855496Y-95452690D01*
X210789609Y-95566809D01*
X210789608Y-95566814D01*
X210755500Y-95694108D01*
X210755500Y-95825892D01*
X210785579Y-95938151D01*
X210789609Y-95953190D01*
X210855496Y-96067309D01*
X210855498Y-96067311D01*
X210855500Y-96067314D01*
X210948686Y-96160500D01*
X210948688Y-96160501D01*
X210948690Y-96160503D01*
X211062810Y-96226390D01*
X211062808Y-96226390D01*
X211062812Y-96226391D01*
X211062814Y-96226392D01*
X211190108Y-96260500D01*
X211618666Y-96260500D01*
X211676857Y-96279407D01*
X211707860Y-96316542D01*
X211730960Y-96364509D01*
X211739173Y-96425140D01*
X211719168Y-96469185D01*
X211717850Y-96470836D01*
X211715182Y-96482530D01*
X211683800Y-96535054D01*
X211627538Y-96559101D01*
X211618664Y-96559500D01*
X204162334Y-96559500D01*
X204104143Y-96540593D01*
X204073138Y-96503454D01*
X204050040Y-96455490D01*
X204041827Y-96394858D01*
X204061838Y-96350807D01*
X204061950Y-96350665D01*
X204063149Y-96349163D01*
X204083500Y-96260000D01*
X204083500Y-95688111D01*
X204083500Y-95688106D01*
X204075176Y-95630217D01*
X204075175Y-95630213D01*
X204034669Y-95492260D01*
X204010371Y-95439055D01*
X204010365Y-95439045D01*
X203932644Y-95318108D01*
X203932641Y-95318103D01*
X203911416Y-95293609D01*
X203894334Y-95273895D01*
X203894326Y-95273888D01*
X203894322Y-95273884D01*
X203785678Y-95179744D01*
X203785665Y-95179735D01*
X203736477Y-95148124D01*
X203736464Y-95148117D01*
X203711656Y-95136788D01*
X203605683Y-95088391D01*
X203605678Y-95088389D01*
X203605677Y-95088389D01*
X203549562Y-95071912D01*
X203549558Y-95071911D01*
X203407250Y-95051450D01*
X203407246Y-95051450D01*
X203348755Y-95051450D01*
X203348752Y-95051450D01*
X203334552Y-95053492D01*
X203320461Y-95054500D01*
X202935539Y-95054500D01*
X202921448Y-95053492D01*
X202907248Y-95051450D01*
X202907245Y-95051450D01*
X202848754Y-95051450D01*
X202848750Y-95051450D01*
X202706441Y-95071911D01*
X202706437Y-95071912D01*
X202650322Y-95088389D01*
X202650318Y-95088390D01*
X202650317Y-95088391D01*
X202609735Y-95106924D01*
X202519535Y-95148117D01*
X202519522Y-95148124D01*
X202470334Y-95179735D01*
X202470321Y-95179744D01*
X202361678Y-95273884D01*
X202361658Y-95273903D01*
X202323365Y-95318096D01*
X202323357Y-95318106D01*
X202313737Y-95333076D01*
X202266370Y-95371806D01*
X202205284Y-95375298D01*
X202176935Y-95362838D01*
X202174068Y-95360995D01*
X202049774Y-95324500D01*
X202049772Y-95324500D01*
X201920228Y-95324500D01*
X201920225Y-95324500D01*
X201795933Y-95360995D01*
X201795926Y-95360998D01*
X201686951Y-95431032D01*
X201686949Y-95431034D01*
X201678819Y-95440417D01*
X201626423Y-95472013D01*
X201565462Y-95466777D01*
X201529181Y-95440417D01*
X201521050Y-95431034D01*
X201521048Y-95431032D01*
X201412073Y-95360998D01*
X201412070Y-95360996D01*
X201412069Y-95360996D01*
X201406974Y-95359500D01*
X201287774Y-95324500D01*
X201287772Y-95324500D01*
X201158228Y-95324500D01*
X201158225Y-95324500D01*
X201033929Y-95360996D01*
X201033928Y-95360997D01*
X201031060Y-95362840D01*
X201028310Y-95363562D01*
X201027488Y-95363938D01*
X201027422Y-95363795D01*
X200971883Y-95378388D01*
X200914869Y-95356184D01*
X200894259Y-95333071D01*
X200884640Y-95318103D01*
X200884639Y-95318101D01*
X200846334Y-95273895D01*
X200846326Y-95273888D01*
X200846322Y-95273884D01*
X200737678Y-95179744D01*
X200737665Y-95179735D01*
X200688477Y-95148124D01*
X200688464Y-95148117D01*
X200663656Y-95136788D01*
X200557683Y-95088391D01*
X200557678Y-95088389D01*
X200557677Y-95088389D01*
X200501562Y-95071912D01*
X200501558Y-95071911D01*
X200359250Y-95051450D01*
X200359246Y-95051450D01*
X200300755Y-95051450D01*
X200300752Y-95051450D01*
X200286552Y-95053492D01*
X200272461Y-95054500D01*
X199887539Y-95054500D01*
X199873448Y-95053492D01*
X199859248Y-95051450D01*
X199859245Y-95051450D01*
X199800754Y-95051450D01*
X199800750Y-95051450D01*
X199658441Y-95071911D01*
X199658437Y-95071912D01*
X199602322Y-95088389D01*
X199602318Y-95088390D01*
X199602317Y-95088391D01*
X199561735Y-95106924D01*
X199471535Y-95148117D01*
X199471522Y-95148124D01*
X199422334Y-95179735D01*
X199422330Y-95179738D01*
X199389204Y-95208442D01*
X199347329Y-95244725D01*
X199290971Y-95268542D01*
X199231376Y-95254683D01*
X199191309Y-95208442D01*
X199183500Y-95169905D01*
X199183500Y-93615997D01*
X200132867Y-93615997D01*
X200132867Y-93616002D01*
X200151302Y-93744225D01*
X200195725Y-93841496D01*
X200205118Y-93862063D01*
X200289951Y-93959967D01*
X200289952Y-93959968D01*
X200330442Y-93985989D01*
X200398931Y-94030004D01*
X200523228Y-94066500D01*
X200523230Y-94066500D01*
X200652770Y-94066500D01*
X200652772Y-94066500D01*
X200777069Y-94030004D01*
X200829268Y-93996457D01*
X200888442Y-93980902D01*
X200945458Y-94003100D01*
X200968527Y-94030240D01*
X200982540Y-94054511D01*
X201261489Y-94333460D01*
X201261491Y-94333461D01*
X201261493Y-94333463D01*
X201330008Y-94373020D01*
X201330006Y-94373020D01*
X201330010Y-94373021D01*
X201330012Y-94373022D01*
X201406438Y-94393500D01*
X201406440Y-94393500D01*
X210437563Y-94393500D01*
X210437563Y-94393499D01*
X210513989Y-94373021D01*
X210582511Y-94333460D01*
X210638460Y-94277511D01*
X211074475Y-93841496D01*
X211128992Y-93813719D01*
X211144479Y-93812500D01*
X211193770Y-93812500D01*
X211193772Y-93812500D01*
X211318069Y-93776004D01*
X211427049Y-93705967D01*
X211511882Y-93608063D01*
X211565697Y-93490226D01*
X211584133Y-93362000D01*
X211577447Y-93315500D01*
X211565697Y-93233774D01*
X211515377Y-93123590D01*
X211511882Y-93115937D01*
X211427049Y-93018033D01*
X211427048Y-93018032D01*
X211427047Y-93018031D01*
X211318073Y-92947998D01*
X211318070Y-92947996D01*
X211318069Y-92947996D01*
X211318066Y-92947995D01*
X211193774Y-92911500D01*
X211193772Y-92911500D01*
X211064228Y-92911500D01*
X211064225Y-92911500D01*
X210939933Y-92947995D01*
X210939926Y-92947998D01*
X210830952Y-93018031D01*
X210746117Y-93115938D01*
X210711053Y-93192717D01*
X210669681Y-93237794D01*
X210609714Y-93249945D01*
X210554058Y-93224527D01*
X210530947Y-93192717D01*
X210499377Y-93123590D01*
X210495882Y-93115937D01*
X210411049Y-93018033D01*
X210411048Y-93018032D01*
X210411047Y-93018031D01*
X210302073Y-92947998D01*
X210302070Y-92947996D01*
X210302069Y-92947996D01*
X210302066Y-92947995D01*
X210177774Y-92911500D01*
X210177772Y-92911500D01*
X210048228Y-92911500D01*
X210048225Y-92911500D01*
X209923933Y-92947995D01*
X209923926Y-92947998D01*
X209814952Y-93018031D01*
X209730117Y-93115938D01*
X209676303Y-93233772D01*
X209674308Y-93240568D01*
X209672165Y-93239938D01*
X209649758Y-93285503D01*
X209595641Y-93314051D01*
X209578768Y-93315500D01*
X204162500Y-93315500D01*
X204104309Y-93296593D01*
X204068345Y-93247093D01*
X204063500Y-93216500D01*
X204063500Y-93067470D01*
X204082407Y-93009279D01*
X204124615Y-92976006D01*
X204128501Y-92974396D01*
X204293625Y-92886136D01*
X204438357Y-92767357D01*
X204557136Y-92622625D01*
X204645396Y-92457501D01*
X204699747Y-92278331D01*
X204706706Y-92207683D01*
X204718099Y-92092004D01*
X204718099Y-92091995D01*
X204699748Y-91905674D01*
X204699747Y-91905671D01*
X204699747Y-91905669D01*
X204645396Y-91726499D01*
X204645393Y-91726493D01*
X204557140Y-91561382D01*
X204557138Y-91561380D01*
X204557136Y-91561375D01*
X204493755Y-91484145D01*
X204438361Y-91416647D01*
X204438352Y-91416638D01*
X204332786Y-91330003D01*
X204293625Y-91297864D01*
X204293622Y-91297862D01*
X204293617Y-91297859D01*
X204128506Y-91209606D01*
X204128504Y-91209605D01*
X203949328Y-91155252D01*
X203949325Y-91155251D01*
X203763004Y-91136901D01*
X203762996Y-91136901D01*
X203576674Y-91155251D01*
X203576671Y-91155252D01*
X203397495Y-91209605D01*
X203397493Y-91209606D01*
X203232382Y-91297859D01*
X203232376Y-91297863D01*
X203087647Y-91416638D01*
X203087638Y-91416647D01*
X202968863Y-91561376D01*
X202968859Y-91561382D01*
X202880606Y-91726493D01*
X202880605Y-91726495D01*
X202826252Y-91905671D01*
X202826251Y-91905674D01*
X202807901Y-92091995D01*
X202807901Y-92092004D01*
X202826251Y-92278325D01*
X202826252Y-92278328D01*
X202826253Y-92278331D01*
X202875294Y-92439998D01*
X202880605Y-92457504D01*
X202880606Y-92457506D01*
X202968859Y-92622617D01*
X202968862Y-92622622D01*
X202968864Y-92622625D01*
X203018395Y-92682978D01*
X203087638Y-92767352D01*
X203087647Y-92767361D01*
X203155145Y-92822755D01*
X203232375Y-92886136D01*
X203232380Y-92886138D01*
X203232382Y-92886140D01*
X203397498Y-92974396D01*
X203401385Y-92976006D01*
X203447911Y-93015742D01*
X203462500Y-93067470D01*
X203462500Y-93216500D01*
X203443593Y-93274691D01*
X203394093Y-93310655D01*
X203363500Y-93315500D01*
X202873925Y-93315500D01*
X202815734Y-93296593D01*
X202799105Y-93281330D01*
X202791049Y-93272033D01*
X202791048Y-93272032D01*
X202682073Y-93201998D01*
X202682070Y-93201996D01*
X202682069Y-93201996D01*
X202668351Y-93197968D01*
X202557774Y-93165500D01*
X202557772Y-93165500D01*
X202428228Y-93165500D01*
X202428225Y-93165500D01*
X202303933Y-93201995D01*
X202303926Y-93201998D01*
X202194952Y-93272031D01*
X202110117Y-93369938D01*
X202056302Y-93487774D01*
X202037867Y-93615997D01*
X202037867Y-93616004D01*
X202046983Y-93679412D01*
X202036549Y-93739701D01*
X201992671Y-93782343D01*
X201948991Y-93792500D01*
X201622500Y-93792500D01*
X201564309Y-93773593D01*
X201528345Y-93724093D01*
X201523500Y-93693500D01*
X201523500Y-93067470D01*
X201542407Y-93009279D01*
X201584615Y-92976006D01*
X201588501Y-92974396D01*
X201753625Y-92886136D01*
X201898357Y-92767357D01*
X202017136Y-92622625D01*
X202105396Y-92457501D01*
X202159747Y-92278331D01*
X202166706Y-92207683D01*
X202178099Y-92092004D01*
X202178099Y-92091995D01*
X202159748Y-91905674D01*
X202159747Y-91905671D01*
X202159747Y-91905669D01*
X202105396Y-91726499D01*
X202105393Y-91726493D01*
X202017140Y-91561382D01*
X202017138Y-91561380D01*
X202017136Y-91561375D01*
X201953755Y-91484145D01*
X201898361Y-91416647D01*
X201898352Y-91416638D01*
X201792786Y-91330003D01*
X201753625Y-91297864D01*
X201753622Y-91297862D01*
X201753617Y-91297859D01*
X201588506Y-91209606D01*
X201588504Y-91209605D01*
X201409328Y-91155252D01*
X201409325Y-91155251D01*
X201223004Y-91136901D01*
X201222996Y-91136901D01*
X201036674Y-91155251D01*
X201036671Y-91155252D01*
X200857495Y-91209605D01*
X200857493Y-91209606D01*
X200692382Y-91297859D01*
X200692376Y-91297863D01*
X200547647Y-91416638D01*
X200547638Y-91416647D01*
X200428863Y-91561376D01*
X200428859Y-91561382D01*
X200340606Y-91726493D01*
X200340605Y-91726495D01*
X200286252Y-91905671D01*
X200286251Y-91905674D01*
X200267901Y-92091995D01*
X200267901Y-92092004D01*
X200286251Y-92278325D01*
X200286252Y-92278328D01*
X200286253Y-92278331D01*
X200335294Y-92439998D01*
X200340605Y-92457504D01*
X200340606Y-92457506D01*
X200428859Y-92622617D01*
X200428862Y-92622622D01*
X200428864Y-92622625D01*
X200478395Y-92682978D01*
X200547638Y-92767352D01*
X200547647Y-92767361D01*
X200615145Y-92822755D01*
X200692375Y-92886136D01*
X200692380Y-92886138D01*
X200692382Y-92886140D01*
X200857498Y-92974396D01*
X200861385Y-92976006D01*
X200907911Y-93015742D01*
X200922500Y-93067470D01*
X200922500Y-93114365D01*
X200903593Y-93172556D01*
X200854093Y-93208520D01*
X200792907Y-93208520D01*
X200782375Y-93204419D01*
X200777070Y-93201996D01*
X200652774Y-93165500D01*
X200652772Y-93165500D01*
X200523228Y-93165500D01*
X200523225Y-93165500D01*
X200398933Y-93201995D01*
X200398926Y-93201998D01*
X200289952Y-93272031D01*
X200205117Y-93369938D01*
X200151302Y-93487774D01*
X200132867Y-93615997D01*
X199183500Y-93615997D01*
X199183500Y-89551997D01*
X202037867Y-89551997D01*
X202037867Y-89552002D01*
X202056302Y-89680225D01*
X202095124Y-89765231D01*
X202110118Y-89798063D01*
X202151294Y-89845583D01*
X202194952Y-89895968D01*
X202303926Y-89966001D01*
X202303931Y-89966004D01*
X202428228Y-90002500D01*
X202428230Y-90002500D01*
X202557770Y-90002500D01*
X202557772Y-90002500D01*
X202682069Y-89966004D01*
X202791049Y-89895967D01*
X202875882Y-89798063D01*
X202929697Y-89680226D01*
X202943170Y-89586519D01*
X202948133Y-89552002D01*
X202948133Y-89551997D01*
X202929697Y-89423774D01*
X202875882Y-89305937D01*
X202791049Y-89208033D01*
X202791048Y-89208032D01*
X202791047Y-89208031D01*
X202682073Y-89137998D01*
X202682070Y-89137996D01*
X202682069Y-89137996D01*
X202682066Y-89137995D01*
X202557774Y-89101500D01*
X202557772Y-89101500D01*
X202428228Y-89101500D01*
X202428225Y-89101500D01*
X202303933Y-89137995D01*
X202303926Y-89137998D01*
X202194952Y-89208031D01*
X202110117Y-89305938D01*
X202056302Y-89423774D01*
X202037867Y-89551997D01*
X199183500Y-89551997D01*
X199183500Y-88154997D01*
X202418867Y-88154997D01*
X202418867Y-88155002D01*
X202437302Y-88283225D01*
X202484259Y-88386045D01*
X202491118Y-88401063D01*
X202575951Y-88498967D01*
X202575952Y-88498968D01*
X202684926Y-88569001D01*
X202684931Y-88569004D01*
X202809228Y-88605500D01*
X202809230Y-88605500D01*
X202938770Y-88605500D01*
X202938772Y-88605500D01*
X203063069Y-88569004D01*
X203172049Y-88498967D01*
X203256882Y-88401063D01*
X203310697Y-88283226D01*
X203329133Y-88155000D01*
X203313115Y-88043595D01*
X203310697Y-88026774D01*
X203306995Y-88018668D01*
X203256882Y-87908937D01*
X203172049Y-87811033D01*
X203172048Y-87811032D01*
X203172047Y-87811031D01*
X203063073Y-87740998D01*
X203063070Y-87740996D01*
X203063069Y-87740996D01*
X203063066Y-87740995D01*
X202938774Y-87704500D01*
X202938772Y-87704500D01*
X202809228Y-87704500D01*
X202809225Y-87704500D01*
X202684933Y-87740995D01*
X202684926Y-87740998D01*
X202575952Y-87811031D01*
X202491117Y-87908938D01*
X202437302Y-88026774D01*
X202418867Y-88154997D01*
X199183500Y-88154997D01*
X199183500Y-83362720D01*
X199202407Y-83304529D01*
X199251907Y-83268565D01*
X199310391Y-83267731D01*
X199323228Y-83271500D01*
X199323230Y-83271500D01*
X199452770Y-83271500D01*
X199452772Y-83271500D01*
X199577069Y-83235004D01*
X199686049Y-83164967D01*
X199713180Y-83133656D01*
X199765576Y-83102059D01*
X199826537Y-83107294D01*
X199862820Y-83133656D01*
X199889951Y-83164967D01*
X199998931Y-83235004D01*
X200123228Y-83271500D01*
X200123230Y-83271500D01*
X200252770Y-83271500D01*
X200252772Y-83271500D01*
X200377069Y-83235004D01*
X200486049Y-83164967D01*
X200513180Y-83133656D01*
X200565576Y-83102059D01*
X200626537Y-83107294D01*
X200662820Y-83133656D01*
X200689951Y-83164967D01*
X200798931Y-83235004D01*
X200923228Y-83271500D01*
X200923230Y-83271500D01*
X201052770Y-83271500D01*
X201052772Y-83271500D01*
X201177069Y-83235004D01*
X201286049Y-83164967D01*
X201313180Y-83133656D01*
X201365576Y-83102059D01*
X201426537Y-83107294D01*
X201462820Y-83133656D01*
X201489951Y-83164967D01*
X201598931Y-83235004D01*
X201723228Y-83271500D01*
X201723230Y-83271500D01*
X201852770Y-83271500D01*
X201852772Y-83271500D01*
X201977069Y-83235004D01*
X202086049Y-83164967D01*
X202170882Y-83067063D01*
X202224697Y-82949226D01*
X202243133Y-82821000D01*
X202224697Y-82692774D01*
X202170882Y-82574937D01*
X202086049Y-82477033D01*
X202086048Y-82477032D01*
X202086047Y-82477031D01*
X201977073Y-82406998D01*
X201977070Y-82406996D01*
X201977069Y-82406996D01*
X201977066Y-82406995D01*
X201852774Y-82370500D01*
X201852772Y-82370500D01*
X201723228Y-82370500D01*
X201723225Y-82370500D01*
X201598933Y-82406995D01*
X201598926Y-82406998D01*
X201489951Y-82477032D01*
X201489949Y-82477034D01*
X201462819Y-82508344D01*
X201410423Y-82539940D01*
X201349462Y-82534704D01*
X201313181Y-82508344D01*
X201286050Y-82477034D01*
X201286048Y-82477032D01*
X201177073Y-82406998D01*
X201177070Y-82406996D01*
X201177069Y-82406996D01*
X201177066Y-82406995D01*
X201052774Y-82370500D01*
X201052772Y-82370500D01*
X200923228Y-82370500D01*
X200923225Y-82370500D01*
X200798933Y-82406995D01*
X200798926Y-82406998D01*
X200689951Y-82477032D01*
X200689949Y-82477034D01*
X200662819Y-82508344D01*
X200610423Y-82539940D01*
X200549462Y-82534704D01*
X200513181Y-82508344D01*
X200486050Y-82477034D01*
X200486048Y-82477032D01*
X200377073Y-82406998D01*
X200377070Y-82406996D01*
X200377069Y-82406996D01*
X200377066Y-82406995D01*
X200252774Y-82370500D01*
X200252772Y-82370500D01*
X200123228Y-82370500D01*
X200123225Y-82370500D01*
X199998933Y-82406995D01*
X199998926Y-82406998D01*
X199889951Y-82477032D01*
X199889949Y-82477034D01*
X199862819Y-82508344D01*
X199810423Y-82539940D01*
X199749462Y-82534704D01*
X199713181Y-82508344D01*
X199686050Y-82477034D01*
X199686048Y-82477032D01*
X199577073Y-82406998D01*
X199577070Y-82406996D01*
X199577069Y-82406996D01*
X199577066Y-82406995D01*
X199452774Y-82370500D01*
X199452772Y-82370500D01*
X199323228Y-82370500D01*
X199323225Y-82370500D01*
X199310391Y-82374269D01*
X199249230Y-82372521D01*
X199200778Y-82335158D01*
X199183500Y-82279279D01*
X199183500Y-77911001D01*
X200780000Y-77911001D01*
X200780000Y-79005700D01*
X200791603Y-79064036D01*
X200835806Y-79130189D01*
X200835810Y-79130193D01*
X200901963Y-79174396D01*
X200960299Y-79185999D01*
X200960303Y-79186000D01*
X201224999Y-79186000D01*
X201225000Y-79185999D01*
X201225000Y-77911000D01*
X200780001Y-77911000D01*
X200780000Y-77911001D01*
X199183500Y-77911001D01*
X199183500Y-76435500D01*
X199202407Y-76377309D01*
X199251907Y-76341345D01*
X199282500Y-76336500D01*
X200720956Y-76336500D01*
X200779147Y-76355407D01*
G37*
G04 #@! TD.AperFunction*
G04 #@! TA.AperFunction,Conductor*
G36*
X195562303Y-92108181D02*
G01*
X195611587Y-92148627D01*
X195683547Y-92207683D01*
X195683548Y-92207683D01*
X195683550Y-92207685D01*
X195866046Y-92305232D01*
X196003997Y-92347078D01*
X196064065Y-92365300D01*
X196064070Y-92365301D01*
X196269997Y-92385583D01*
X196270000Y-92385583D01*
X196270003Y-92385583D01*
X196475929Y-92365301D01*
X196475934Y-92365300D01*
X196673954Y-92305232D01*
X196856450Y-92207685D01*
X196962696Y-92120491D01*
X197019672Y-92098192D01*
X197078875Y-92113640D01*
X197117690Y-92160937D01*
X197124500Y-92197020D01*
X197124500Y-93002979D01*
X197105593Y-93061170D01*
X197056093Y-93097134D01*
X196994907Y-93097134D01*
X196962695Y-93079507D01*
X196869444Y-93002979D01*
X196856452Y-92992316D01*
X196673954Y-92894768D01*
X196475934Y-92834699D01*
X196475929Y-92834698D01*
X196270003Y-92814417D01*
X196269997Y-92814417D01*
X196064070Y-92834698D01*
X196064065Y-92834699D01*
X195866045Y-92894768D01*
X195683547Y-92992316D01*
X195683547Y-92992317D01*
X195562305Y-93091817D01*
X195505328Y-93114117D01*
X195446125Y-93098668D01*
X195407310Y-93051371D01*
X195400500Y-93015289D01*
X195400500Y-92184710D01*
X195419407Y-92126519D01*
X195468907Y-92090555D01*
X195530093Y-92090555D01*
X195562303Y-92108181D01*
G37*
G04 #@! TD.AperFunction*
G04 #@! TA.AperFunction,Conductor*
G36*
X195562303Y-79408181D02*
G01*
X195590796Y-79431564D01*
X195683547Y-79507683D01*
X195683548Y-79507683D01*
X195683550Y-79507685D01*
X195866046Y-79605232D01*
X196003997Y-79647078D01*
X196064065Y-79665300D01*
X196064070Y-79665301D01*
X196269997Y-79685583D01*
X196270000Y-79685583D01*
X196270003Y-79685583D01*
X196475929Y-79665301D01*
X196475934Y-79665300D01*
X196673954Y-79605232D01*
X196856450Y-79507685D01*
X196962696Y-79420491D01*
X197019672Y-79398192D01*
X197078875Y-79413640D01*
X197117690Y-79460937D01*
X197124500Y-79497020D01*
X197124500Y-80302979D01*
X197105593Y-80361170D01*
X197056093Y-80397134D01*
X196994907Y-80397134D01*
X196962695Y-80379507D01*
X196856452Y-80292317D01*
X196856452Y-80292316D01*
X196673954Y-80194768D01*
X196475934Y-80134699D01*
X196475929Y-80134698D01*
X196270003Y-80114417D01*
X196269997Y-80114417D01*
X196064070Y-80134698D01*
X196064065Y-80134699D01*
X195866045Y-80194768D01*
X195683547Y-80292316D01*
X195683547Y-80292317D01*
X195562305Y-80391817D01*
X195505328Y-80414117D01*
X195446125Y-80398668D01*
X195407310Y-80351371D01*
X195400500Y-80315289D01*
X195400500Y-79484710D01*
X195419407Y-79426519D01*
X195468907Y-79390555D01*
X195530093Y-79390555D01*
X195562303Y-79408181D01*
G37*
G04 #@! TD.AperFunction*
G04 #@! TA.AperFunction,Conductor*
G36*
X217863234Y-48550712D02*
G01*
X218132789Y-48568379D01*
X218145617Y-48570068D01*
X218407392Y-48622138D01*
X218419881Y-48625485D01*
X218672614Y-48711276D01*
X218684562Y-48716225D01*
X218923944Y-48834275D01*
X218935132Y-48840735D01*
X219157056Y-48989020D01*
X219167319Y-48996896D01*
X219312545Y-49124255D01*
X219367976Y-49172866D01*
X219377133Y-49182023D01*
X219553102Y-49382678D01*
X219560981Y-49392945D01*
X219709261Y-49614862D01*
X219715726Y-49626060D01*
X219808673Y-49814538D01*
X219833770Y-49865429D01*
X219838726Y-49877394D01*
X219924511Y-50130109D01*
X219927863Y-50142617D01*
X219979930Y-50404377D01*
X219981620Y-50417216D01*
X219999288Y-50686765D01*
X219999500Y-50693240D01*
X219999500Y-57161000D01*
X219980593Y-57219191D01*
X219931093Y-57255155D01*
X219900500Y-57260000D01*
X219255001Y-57260000D01*
X219255000Y-57260001D01*
X219255000Y-57825855D01*
X219195826Y-57810000D01*
X219064174Y-57810000D01*
X219005000Y-57825855D01*
X219005000Y-57260001D01*
X219004999Y-57260000D01*
X218260299Y-57260000D01*
X218201963Y-57271603D01*
X218135810Y-57315806D01*
X218135806Y-57315810D01*
X218091603Y-57381963D01*
X218080000Y-57440299D01*
X218080000Y-58184999D01*
X218080001Y-58185000D01*
X218645856Y-58185000D01*
X218630000Y-58244174D01*
X218630000Y-58375826D01*
X218645856Y-58435000D01*
X218080001Y-58435000D01*
X218080000Y-58435001D01*
X218080000Y-59179700D01*
X218091603Y-59238036D01*
X218135806Y-59304189D01*
X218135810Y-59304193D01*
X218201963Y-59348396D01*
X218260299Y-59359999D01*
X218260303Y-59360000D01*
X219004999Y-59360000D01*
X219005000Y-59359999D01*
X219005000Y-58794144D01*
X219064174Y-58810000D01*
X219195826Y-58810000D01*
X219255000Y-58794144D01*
X219255000Y-59359999D01*
X219255001Y-59360000D01*
X219900500Y-59360000D01*
X219958691Y-59378907D01*
X219994655Y-59428407D01*
X219999500Y-59459000D01*
X219999500Y-59995289D01*
X219980593Y-60053480D01*
X219931093Y-60089444D01*
X219869907Y-60089444D01*
X219837695Y-60071817D01*
X219744444Y-59995289D01*
X219716452Y-59972316D01*
X219533954Y-59874768D01*
X219335934Y-59814699D01*
X219335929Y-59814698D01*
X219130003Y-59794417D01*
X219129997Y-59794417D01*
X218924070Y-59814698D01*
X218924065Y-59814699D01*
X218726045Y-59874768D01*
X218543547Y-59972316D01*
X218383595Y-60103585D01*
X218383585Y-60103595D01*
X218252316Y-60263547D01*
X218154768Y-60446045D01*
X218094699Y-60644065D01*
X218094698Y-60644070D01*
X218074417Y-60849996D01*
X218074417Y-60850003D01*
X218094698Y-61055929D01*
X218094699Y-61055934D01*
X218129320Y-61170063D01*
X218154768Y-61253954D01*
X218171118Y-61284543D01*
X218181874Y-61344775D01*
X218155173Y-61399826D01*
X218153812Y-61401215D01*
X216897525Y-62657504D01*
X216843008Y-62685281D01*
X216827521Y-62686500D01*
X215706124Y-62686500D01*
X215647933Y-62667593D01*
X215611969Y-62618093D01*
X215611969Y-62556907D01*
X215631302Y-62522670D01*
X215702882Y-62440063D01*
X215756697Y-62322226D01*
X215775133Y-62194000D01*
X215756697Y-62065774D01*
X215702882Y-61947937D01*
X215618049Y-61850033D01*
X215618048Y-61850032D01*
X215618047Y-61850031D01*
X215509073Y-61779998D01*
X215509070Y-61779996D01*
X215509069Y-61779996D01*
X215509066Y-61779995D01*
X215384774Y-61743500D01*
X215384772Y-61743500D01*
X215255228Y-61743500D01*
X215255225Y-61743500D01*
X215130933Y-61779995D01*
X215130926Y-61779998D01*
X215021952Y-61850031D01*
X214937117Y-61947938D01*
X214883302Y-62065774D01*
X214864867Y-62193997D01*
X214864867Y-62194002D01*
X214883302Y-62322225D01*
X214911053Y-62382990D01*
X214937118Y-62440063D01*
X215008696Y-62522670D01*
X215032513Y-62579029D01*
X215018654Y-62638624D01*
X214972413Y-62678692D01*
X214933876Y-62686500D01*
X213947435Y-62686500D01*
X213871011Y-62706978D01*
X213871007Y-62706980D01*
X213802489Y-62746539D01*
X213511524Y-63037504D01*
X213457008Y-63065281D01*
X213441521Y-63066500D01*
X213392225Y-63066500D01*
X213267933Y-63102995D01*
X213267926Y-63102998D01*
X213158952Y-63173031D01*
X213074117Y-63270938D01*
X213020302Y-63388774D01*
X213001867Y-63516997D01*
X213001867Y-63517002D01*
X213020302Y-63645225D01*
X213049913Y-63710063D01*
X213074118Y-63763063D01*
X213085041Y-63775669D01*
X213108859Y-63832028D01*
X213095001Y-63891623D01*
X213048760Y-63931691D01*
X213010222Y-63939500D01*
X212652435Y-63939500D01*
X212576011Y-63959978D01*
X212576007Y-63959980D01*
X212507491Y-63999538D01*
X211960489Y-64546540D01*
X211960488Y-64546539D01*
X211904539Y-64602489D01*
X211864980Y-64671007D01*
X211864978Y-64671011D01*
X211844500Y-64747435D01*
X211844500Y-68050884D01*
X211825593Y-68109075D01*
X211776093Y-68145039D01*
X211714907Y-68145039D01*
X211687278Y-68129436D01*
X211687006Y-68129861D01*
X211572073Y-68055998D01*
X211572070Y-68055996D01*
X211572069Y-68055996D01*
X211572066Y-68055995D01*
X211447774Y-68019500D01*
X211447772Y-68019500D01*
X211318228Y-68019500D01*
X211318225Y-68019500D01*
X211193933Y-68055995D01*
X211193926Y-68055998D01*
X211084952Y-68126031D01*
X211000117Y-68223938D01*
X210946302Y-68341774D01*
X210927867Y-68469997D01*
X210927867Y-68470002D01*
X210946302Y-68598225D01*
X211000117Y-68716061D01*
X211000118Y-68716063D01*
X211076821Y-68804584D01*
X211084952Y-68813968D01*
X211193926Y-68884001D01*
X211193931Y-68884004D01*
X211318228Y-68920500D01*
X211318230Y-68920500D01*
X211447770Y-68920500D01*
X211447772Y-68920500D01*
X211572069Y-68884004D01*
X211681049Y-68813967D01*
X211689179Y-68804583D01*
X211741574Y-68772987D01*
X211802535Y-68778221D01*
X211838820Y-68804583D01*
X211846951Y-68813967D01*
X211955931Y-68884004D01*
X212080228Y-68920500D01*
X212080230Y-68920500D01*
X212209770Y-68920500D01*
X212209772Y-68920500D01*
X212334069Y-68884004D01*
X212443049Y-68813967D01*
X212505680Y-68741686D01*
X212558076Y-68710089D01*
X212619037Y-68715324D01*
X212665278Y-68755392D01*
X212679500Y-68806516D01*
X212679500Y-68957101D01*
X212660593Y-69015292D01*
X212650504Y-69027105D01*
X209293489Y-72384120D01*
X209293488Y-72384119D01*
X209237539Y-72440069D01*
X209197980Y-72508587D01*
X209197978Y-72508591D01*
X209177500Y-72585015D01*
X209177500Y-78591521D01*
X209158593Y-78649712D01*
X209148504Y-78661525D01*
X208747525Y-79062504D01*
X208693008Y-79090281D01*
X208677521Y-79091500D01*
X207099500Y-79091500D01*
X207041309Y-79072593D01*
X207005345Y-79023093D01*
X207000500Y-78992500D01*
X207000500Y-76566253D01*
X207000498Y-76566241D01*
X206994561Y-76536396D01*
X206988867Y-76507769D01*
X206944552Y-76441448D01*
X206935650Y-76435500D01*
X206898482Y-76410664D01*
X206887811Y-76403534D01*
X206857078Y-76370720D01*
X206830500Y-76324686D01*
X206737314Y-76231499D01*
X206737314Y-76231500D01*
X205960870Y-75455056D01*
X205933095Y-75400542D01*
X205942666Y-75340110D01*
X205985931Y-75296845D01*
X206035388Y-75287514D01*
X206035388Y-75286500D01*
X206819747Y-75286500D01*
X206819748Y-75286500D01*
X206878231Y-75274867D01*
X206944552Y-75230552D01*
X206988867Y-75164231D01*
X207000500Y-75105748D01*
X207000500Y-72666252D01*
X206988867Y-72607769D01*
X206986014Y-72603500D01*
X206944554Y-72541451D01*
X206944552Y-72541448D01*
X206924495Y-72528046D01*
X206878233Y-72497134D01*
X206878231Y-72497133D01*
X206878228Y-72497132D01*
X206878227Y-72497132D01*
X206814977Y-72484550D01*
X206815188Y-72483488D01*
X206763739Y-72460984D01*
X206732800Y-72408197D01*
X206730500Y-72386981D01*
X206730500Y-71224438D01*
X206728221Y-71215934D01*
X206728220Y-71215930D01*
X206727327Y-71212600D01*
X206710022Y-71148012D01*
X206710019Y-71148006D01*
X206670463Y-71079493D01*
X206670461Y-71079491D01*
X206670460Y-71079489D01*
X205852511Y-70261540D01*
X205842049Y-70255500D01*
X205842049Y-70255499D01*
X205842047Y-70255499D01*
X205801029Y-70231817D01*
X205783988Y-70221978D01*
X205707564Y-70201500D01*
X205707562Y-70201500D01*
X204905925Y-70201500D01*
X204847734Y-70182593D01*
X204831105Y-70167330D01*
X204823049Y-70158033D01*
X204823048Y-70158032D01*
X204714073Y-70087998D01*
X204714070Y-70087996D01*
X204714069Y-70087996D01*
X204714066Y-70087995D01*
X204589774Y-70051500D01*
X204589772Y-70051500D01*
X204460228Y-70051500D01*
X204460225Y-70051500D01*
X204335933Y-70087995D01*
X204335926Y-70087998D01*
X204226952Y-70158031D01*
X204142117Y-70255938D01*
X204088302Y-70373774D01*
X204069867Y-70501997D01*
X204069867Y-70502002D01*
X204088302Y-70630225D01*
X204098526Y-70652612D01*
X204142118Y-70748063D01*
X204190645Y-70804067D01*
X204226952Y-70845968D01*
X204335926Y-70916001D01*
X204335931Y-70916004D01*
X204460228Y-70952500D01*
X204460230Y-70952500D01*
X204589770Y-70952500D01*
X204589772Y-70952500D01*
X204714069Y-70916004D01*
X204823049Y-70845967D01*
X204831105Y-70836670D01*
X204883500Y-70805073D01*
X204905925Y-70802500D01*
X205502521Y-70802500D01*
X205560712Y-70821407D01*
X205572525Y-70831496D01*
X206100504Y-71359475D01*
X206128281Y-71413992D01*
X206129500Y-71429479D01*
X206129500Y-72386981D01*
X206110593Y-72445172D01*
X206061093Y-72481136D01*
X206045012Y-72484498D01*
X206045023Y-72484550D01*
X205981772Y-72497132D01*
X205981766Y-72497134D01*
X205915451Y-72541445D01*
X205915445Y-72541451D01*
X205877315Y-72598517D01*
X205829265Y-72636396D01*
X205768127Y-72638798D01*
X205717253Y-72604805D01*
X205712685Y-72598517D01*
X205674554Y-72541451D01*
X205674552Y-72541448D01*
X205654495Y-72528046D01*
X205608233Y-72497134D01*
X205608231Y-72497133D01*
X205608228Y-72497132D01*
X205608227Y-72497132D01*
X205549758Y-72485501D01*
X205549748Y-72485500D01*
X205549747Y-72485500D01*
X205335479Y-72485500D01*
X205277288Y-72466593D01*
X205265475Y-72456504D01*
X205008496Y-72199525D01*
X204980719Y-72145008D01*
X204980508Y-72143609D01*
X204961698Y-72012775D01*
X204932459Y-71948753D01*
X204907882Y-71894937D01*
X204823049Y-71797033D01*
X204823048Y-71797032D01*
X204823047Y-71797031D01*
X204714073Y-71726998D01*
X204714070Y-71726996D01*
X204714069Y-71726996D01*
X204714066Y-71726995D01*
X204589774Y-71690500D01*
X204589772Y-71690500D01*
X204460228Y-71690500D01*
X204460225Y-71690500D01*
X204335933Y-71726995D01*
X204335927Y-71726997D01*
X204251685Y-71781136D01*
X204192510Y-71796689D01*
X204144640Y-71781135D01*
X204079073Y-71738998D01*
X204079070Y-71738996D01*
X204079069Y-71738996D01*
X204038207Y-71726998D01*
X203954774Y-71702500D01*
X203954772Y-71702500D01*
X203825228Y-71702500D01*
X203825225Y-71702500D01*
X203700933Y-71738995D01*
X203700926Y-71738998D01*
X203630021Y-71784566D01*
X203570845Y-71800121D01*
X203522975Y-71784566D01*
X203452070Y-71738998D01*
X203452067Y-71738996D01*
X203452066Y-71738996D01*
X203411204Y-71726998D01*
X203327771Y-71702500D01*
X203327769Y-71702500D01*
X203198225Y-71702500D01*
X203198222Y-71702500D01*
X203073930Y-71738995D01*
X203073923Y-71738998D01*
X202964949Y-71809031D01*
X202880114Y-71906938D01*
X202826299Y-72024774D01*
X202807488Y-72155610D01*
X202780492Y-72210518D01*
X202779500Y-72211524D01*
X202534523Y-72456503D01*
X202480006Y-72484281D01*
X202464519Y-72485500D01*
X202230252Y-72485500D01*
X202230251Y-72485500D01*
X202230241Y-72485501D01*
X202171772Y-72497132D01*
X202171766Y-72497134D01*
X202105451Y-72541445D01*
X202105445Y-72541451D01*
X202067315Y-72598517D01*
X202019265Y-72636396D01*
X201958127Y-72638798D01*
X201907253Y-72604805D01*
X201902685Y-72598517D01*
X201864554Y-72541451D01*
X201864552Y-72541448D01*
X201844495Y-72528046D01*
X201798233Y-72497134D01*
X201798231Y-72497133D01*
X201798228Y-72497132D01*
X201798227Y-72497132D01*
X201739758Y-72485501D01*
X201739748Y-72485500D01*
X200960252Y-72485500D01*
X200960251Y-72485500D01*
X200960241Y-72485501D01*
X200901772Y-72497132D01*
X200901766Y-72497134D01*
X200835451Y-72541445D01*
X200835445Y-72541451D01*
X200791134Y-72607766D01*
X200791132Y-72607772D01*
X200779501Y-72666241D01*
X200779500Y-72666253D01*
X200779500Y-75105746D01*
X200779501Y-75105758D01*
X200784871Y-75132752D01*
X200791133Y-75164231D01*
X200802671Y-75181499D01*
X200819280Y-75240385D01*
X200798103Y-75297789D01*
X200747230Y-75331783D01*
X200720356Y-75335500D01*
X199282500Y-75335500D01*
X199224309Y-75316593D01*
X199188345Y-75267093D01*
X199183500Y-75236500D01*
X199183500Y-70817108D01*
X199180005Y-70804067D01*
X199180004Y-70804063D01*
X199164999Y-70748063D01*
X199149392Y-70689814D01*
X199127912Y-70652610D01*
X199127911Y-70652608D01*
X199127911Y-70652607D01*
X199101028Y-70606045D01*
X199083500Y-70575686D01*
X198990314Y-70482500D01*
X198990311Y-70482498D01*
X197318967Y-68811153D01*
X197291190Y-68756636D01*
X197294235Y-68712409D01*
X197305299Y-68675936D01*
X197305301Y-68675929D01*
X197325583Y-68470003D01*
X197325583Y-68469997D01*
X200259867Y-68469997D01*
X200259867Y-68470002D01*
X200278302Y-68598225D01*
X200332117Y-68716061D01*
X200332118Y-68716063D01*
X200408821Y-68804584D01*
X200416952Y-68813968D01*
X200525926Y-68884001D01*
X200525931Y-68884004D01*
X200650228Y-68920500D01*
X200650230Y-68920500D01*
X200779770Y-68920500D01*
X200779772Y-68920500D01*
X200904069Y-68884004D01*
X201013049Y-68813967D01*
X201097882Y-68716063D01*
X201151697Y-68598226D01*
X201170133Y-68470000D01*
X201170132Y-68469997D01*
X201529867Y-68469997D01*
X201529867Y-68470002D01*
X201548302Y-68598225D01*
X201602117Y-68716061D01*
X201602118Y-68716063D01*
X201678821Y-68804584D01*
X201686952Y-68813968D01*
X201795926Y-68884001D01*
X201795931Y-68884004D01*
X201920228Y-68920500D01*
X201920230Y-68920500D01*
X202049770Y-68920500D01*
X202049772Y-68920500D01*
X202174069Y-68884004D01*
X202283049Y-68813967D01*
X202367882Y-68716063D01*
X202421697Y-68598226D01*
X202440133Y-68470000D01*
X202440132Y-68469997D01*
X202799867Y-68469997D01*
X202799867Y-68470002D01*
X202818302Y-68598225D01*
X202872117Y-68716061D01*
X202872118Y-68716063D01*
X202948821Y-68804584D01*
X202956952Y-68813968D01*
X203065926Y-68884001D01*
X203065931Y-68884004D01*
X203190228Y-68920500D01*
X203190230Y-68920500D01*
X203319770Y-68920500D01*
X203319772Y-68920500D01*
X203444069Y-68884004D01*
X203553049Y-68813967D01*
X203637882Y-68716063D01*
X203691697Y-68598226D01*
X203710133Y-68470000D01*
X203710132Y-68469997D01*
X204069867Y-68469997D01*
X204069867Y-68470002D01*
X204088302Y-68598225D01*
X204142117Y-68716061D01*
X204142118Y-68716063D01*
X204218821Y-68804584D01*
X204226952Y-68813968D01*
X204335926Y-68884001D01*
X204335931Y-68884004D01*
X204460228Y-68920500D01*
X204460230Y-68920500D01*
X204589770Y-68920500D01*
X204589772Y-68920500D01*
X204714069Y-68884004D01*
X204823049Y-68813967D01*
X204907882Y-68716063D01*
X204961697Y-68598226D01*
X204980133Y-68470000D01*
X204980132Y-68469997D01*
X205339867Y-68469997D01*
X205339867Y-68470002D01*
X205358302Y-68598225D01*
X205412117Y-68716061D01*
X205412118Y-68716063D01*
X205488821Y-68804584D01*
X205496952Y-68813968D01*
X205605926Y-68884001D01*
X205605931Y-68884004D01*
X205730228Y-68920500D01*
X205730230Y-68920500D01*
X205859770Y-68920500D01*
X205859772Y-68920500D01*
X205984069Y-68884004D01*
X206093049Y-68813967D01*
X206177882Y-68716063D01*
X206231697Y-68598226D01*
X206250133Y-68470000D01*
X206250132Y-68469997D01*
X206609867Y-68469997D01*
X206609867Y-68470002D01*
X206628302Y-68598225D01*
X206682117Y-68716061D01*
X206682118Y-68716063D01*
X206758821Y-68804584D01*
X206766952Y-68813968D01*
X206875926Y-68884001D01*
X206875931Y-68884004D01*
X207000228Y-68920500D01*
X207000230Y-68920500D01*
X207129770Y-68920500D01*
X207129772Y-68920500D01*
X207254069Y-68884004D01*
X207363049Y-68813967D01*
X207447882Y-68716063D01*
X207501697Y-68598226D01*
X207520133Y-68470000D01*
X207520132Y-68469997D01*
X207879867Y-68469997D01*
X207879867Y-68470002D01*
X207898302Y-68598225D01*
X207952117Y-68716061D01*
X207952118Y-68716063D01*
X208028821Y-68804584D01*
X208036952Y-68813968D01*
X208145926Y-68884001D01*
X208145931Y-68884004D01*
X208270228Y-68920500D01*
X208270230Y-68920500D01*
X208399770Y-68920500D01*
X208399772Y-68920500D01*
X208524069Y-68884004D01*
X208633049Y-68813967D01*
X208641179Y-68804583D01*
X208693574Y-68772987D01*
X208754535Y-68778221D01*
X208790820Y-68804583D01*
X208798951Y-68813967D01*
X208907931Y-68884004D01*
X209032228Y-68920500D01*
X209032230Y-68920500D01*
X209161770Y-68920500D01*
X209161772Y-68920500D01*
X209286069Y-68884004D01*
X209395049Y-68813967D01*
X209479882Y-68716063D01*
X209533697Y-68598226D01*
X209552133Y-68470000D01*
X209552132Y-68469996D01*
X209533697Y-68341774D01*
X209498210Y-68264070D01*
X209479882Y-68223937D01*
X209395049Y-68126033D01*
X209395048Y-68126032D01*
X209395047Y-68126031D01*
X209286073Y-68055998D01*
X209286070Y-68055996D01*
X209286069Y-68055996D01*
X209286066Y-68055995D01*
X209161774Y-68019500D01*
X209161772Y-68019500D01*
X209032228Y-68019500D01*
X209032225Y-68019500D01*
X208907933Y-68055995D01*
X208907926Y-68055998D01*
X208798951Y-68126032D01*
X208798949Y-68126034D01*
X208790819Y-68135417D01*
X208738423Y-68167013D01*
X208677462Y-68161777D01*
X208641181Y-68135417D01*
X208633050Y-68126034D01*
X208633048Y-68126032D01*
X208524073Y-68055998D01*
X208524070Y-68055996D01*
X208524069Y-68055996D01*
X208524066Y-68055995D01*
X208399774Y-68019500D01*
X208399772Y-68019500D01*
X208270228Y-68019500D01*
X208270225Y-68019500D01*
X208145933Y-68055995D01*
X208145926Y-68055998D01*
X208036952Y-68126031D01*
X207952117Y-68223938D01*
X207898302Y-68341774D01*
X207879867Y-68469997D01*
X207520132Y-68469997D01*
X207520132Y-68469996D01*
X207501697Y-68341774D01*
X207466210Y-68264070D01*
X207447882Y-68223937D01*
X207363049Y-68126033D01*
X207363048Y-68126032D01*
X207363047Y-68126031D01*
X207254073Y-68055998D01*
X207254070Y-68055996D01*
X207254069Y-68055996D01*
X207254066Y-68055995D01*
X207129774Y-68019500D01*
X207129772Y-68019500D01*
X207000228Y-68019500D01*
X207000225Y-68019500D01*
X206875933Y-68055995D01*
X206875926Y-68055998D01*
X206766952Y-68126031D01*
X206682117Y-68223938D01*
X206628302Y-68341774D01*
X206609867Y-68469997D01*
X206250132Y-68469997D01*
X206250132Y-68469996D01*
X206231697Y-68341774D01*
X206196210Y-68264070D01*
X206177882Y-68223937D01*
X206093049Y-68126033D01*
X206093048Y-68126032D01*
X206093047Y-68126031D01*
X205984073Y-68055998D01*
X205984070Y-68055996D01*
X205984069Y-68055996D01*
X205984066Y-68055995D01*
X205859774Y-68019500D01*
X205859772Y-68019500D01*
X205730228Y-68019500D01*
X205730225Y-68019500D01*
X205605933Y-68055995D01*
X205605926Y-68055998D01*
X205496952Y-68126031D01*
X205412117Y-68223938D01*
X205358302Y-68341774D01*
X205339867Y-68469997D01*
X204980132Y-68469997D01*
X204980132Y-68469996D01*
X204961697Y-68341774D01*
X204926210Y-68264070D01*
X204907882Y-68223937D01*
X204823049Y-68126033D01*
X204823048Y-68126032D01*
X204823047Y-68126031D01*
X204714073Y-68055998D01*
X204714070Y-68055996D01*
X204714069Y-68055996D01*
X204714066Y-68055995D01*
X204589774Y-68019500D01*
X204589772Y-68019500D01*
X204460228Y-68019500D01*
X204460225Y-68019500D01*
X204335933Y-68055995D01*
X204335926Y-68055998D01*
X204226952Y-68126031D01*
X204142117Y-68223938D01*
X204088302Y-68341774D01*
X204069867Y-68469997D01*
X203710132Y-68469997D01*
X203710132Y-68469996D01*
X203691697Y-68341774D01*
X203656210Y-68264070D01*
X203637882Y-68223937D01*
X203553049Y-68126033D01*
X203553048Y-68126032D01*
X203553047Y-68126031D01*
X203444073Y-68055998D01*
X203444070Y-68055996D01*
X203444069Y-68055996D01*
X203444066Y-68055995D01*
X203319774Y-68019500D01*
X203319772Y-68019500D01*
X203190228Y-68019500D01*
X203190225Y-68019500D01*
X203065933Y-68055995D01*
X203065926Y-68055998D01*
X202956952Y-68126031D01*
X202872117Y-68223938D01*
X202818302Y-68341774D01*
X202799867Y-68469997D01*
X202440132Y-68469997D01*
X202440132Y-68469996D01*
X202421697Y-68341774D01*
X202386210Y-68264070D01*
X202367882Y-68223937D01*
X202283049Y-68126033D01*
X202283048Y-68126032D01*
X202283047Y-68126031D01*
X202174073Y-68055998D01*
X202174070Y-68055996D01*
X202174069Y-68055996D01*
X202174066Y-68055995D01*
X202049774Y-68019500D01*
X202049772Y-68019500D01*
X201920228Y-68019500D01*
X201920225Y-68019500D01*
X201795933Y-68055995D01*
X201795926Y-68055998D01*
X201686952Y-68126031D01*
X201602117Y-68223938D01*
X201548302Y-68341774D01*
X201529867Y-68469997D01*
X201170132Y-68469997D01*
X201170132Y-68469996D01*
X201151697Y-68341774D01*
X201116210Y-68264070D01*
X201097882Y-68223937D01*
X201013049Y-68126033D01*
X201013048Y-68126032D01*
X201013047Y-68126031D01*
X200904073Y-68055998D01*
X200904070Y-68055996D01*
X200904069Y-68055996D01*
X200904066Y-68055995D01*
X200779774Y-68019500D01*
X200779772Y-68019500D01*
X200650228Y-68019500D01*
X200650225Y-68019500D01*
X200525933Y-68055995D01*
X200525926Y-68055998D01*
X200416952Y-68126031D01*
X200332117Y-68223938D01*
X200278302Y-68341774D01*
X200259867Y-68469997D01*
X197325583Y-68469997D01*
X197325583Y-68469996D01*
X197305301Y-68264070D01*
X197305300Y-68264065D01*
X197283341Y-68191675D01*
X197245232Y-68066046D01*
X197147685Y-67883550D01*
X197016410Y-67723590D01*
X196856450Y-67592315D01*
X196856448Y-67592314D01*
X196856447Y-67592313D01*
X196822830Y-67574344D01*
X196780424Y-67530238D01*
X196770500Y-67487035D01*
X196770500Y-66912964D01*
X196789407Y-66854773D01*
X196822831Y-66825654D01*
X196856450Y-66807685D01*
X197016410Y-66676410D01*
X197147685Y-66516450D01*
X197245232Y-66333954D01*
X197305300Y-66135934D01*
X197305301Y-66135929D01*
X197325583Y-65930003D01*
X197325583Y-65929996D01*
X197305301Y-65724070D01*
X197305300Y-65724065D01*
X197270223Y-65608431D01*
X197245232Y-65526046D01*
X197147685Y-65343550D01*
X197108848Y-65296227D01*
X197016414Y-65183595D01*
X197016410Y-65183590D01*
X196856450Y-65052315D01*
X196856448Y-65052314D01*
X196856447Y-65052313D01*
X196822830Y-65034344D01*
X196780424Y-64990238D01*
X196770500Y-64947035D01*
X196770500Y-64372964D01*
X196789407Y-64314773D01*
X196822831Y-64285654D01*
X196856450Y-64267685D01*
X197016410Y-64136410D01*
X197147685Y-63976450D01*
X197245232Y-63793954D01*
X197305300Y-63595934D01*
X197305301Y-63595929D01*
X197318295Y-63463997D01*
X199624867Y-63463997D01*
X199624867Y-63464002D01*
X199643302Y-63592225D01*
X199697117Y-63710061D01*
X199697118Y-63710063D01*
X199774075Y-63798877D01*
X199781952Y-63807968D01*
X199880177Y-63871093D01*
X199890931Y-63878004D01*
X200015228Y-63914500D01*
X200015230Y-63914500D01*
X200144770Y-63914500D01*
X200144772Y-63914500D01*
X200269069Y-63878004D01*
X200378049Y-63807967D01*
X200462882Y-63710063D01*
X200516697Y-63592226D01*
X200527888Y-63514388D01*
X200535133Y-63464002D01*
X200535133Y-63463997D01*
X200516697Y-63335774D01*
X200487087Y-63270938D01*
X200462882Y-63217937D01*
X200378049Y-63120033D01*
X200378048Y-63120032D01*
X200378047Y-63120031D01*
X200269073Y-63049998D01*
X200269070Y-63049996D01*
X200269069Y-63049996D01*
X200265149Y-63048845D01*
X200144774Y-63013500D01*
X200144772Y-63013500D01*
X200015228Y-63013500D01*
X200015225Y-63013500D01*
X199890933Y-63049995D01*
X199890926Y-63049998D01*
X199781952Y-63120031D01*
X199697117Y-63217938D01*
X199643302Y-63335774D01*
X199624867Y-63463997D01*
X197318295Y-63463997D01*
X197325583Y-63390003D01*
X197325583Y-63389996D01*
X197305301Y-63184070D01*
X197305300Y-63184069D01*
X197305300Y-63184066D01*
X197294234Y-63147586D01*
X197295435Y-63086415D01*
X197318965Y-63048847D01*
X198173815Y-62193997D01*
X210546867Y-62193997D01*
X210546867Y-62194002D01*
X210565302Y-62322225D01*
X210593053Y-62382990D01*
X210619118Y-62440063D01*
X210701631Y-62535289D01*
X210703952Y-62537968D01*
X210790331Y-62593480D01*
X210812931Y-62608004D01*
X210937228Y-62644500D01*
X210937230Y-62644500D01*
X211066770Y-62644500D01*
X211066772Y-62644500D01*
X211191069Y-62608004D01*
X211300049Y-62537967D01*
X211384882Y-62440063D01*
X211438697Y-62322226D01*
X211457133Y-62194000D01*
X211438697Y-62065774D01*
X211384882Y-61947937D01*
X211300049Y-61850033D01*
X211300048Y-61850032D01*
X211300047Y-61850031D01*
X211191073Y-61779998D01*
X211191070Y-61779996D01*
X211191069Y-61779996D01*
X211191066Y-61779995D01*
X211066774Y-61743500D01*
X211066772Y-61743500D01*
X210937228Y-61743500D01*
X210937225Y-61743500D01*
X210812933Y-61779995D01*
X210812926Y-61779998D01*
X210703952Y-61850031D01*
X210619117Y-61947938D01*
X210565302Y-62065774D01*
X210546867Y-62193997D01*
X198173815Y-62193997D01*
X199443816Y-60923997D01*
X210546867Y-60923997D01*
X210546867Y-60924002D01*
X210565302Y-61052225D01*
X210566994Y-61055929D01*
X210619118Y-61170063D01*
X210691647Y-61253767D01*
X210703952Y-61267968D01*
X210729742Y-61284542D01*
X210812931Y-61338004D01*
X210937228Y-61374500D01*
X210937230Y-61374500D01*
X211066770Y-61374500D01*
X211066772Y-61374500D01*
X211191069Y-61338004D01*
X211300049Y-61267967D01*
X211384882Y-61170063D01*
X211438697Y-61052226D01*
X211457133Y-60924000D01*
X211457133Y-60923997D01*
X214864867Y-60923997D01*
X214864867Y-60924002D01*
X214883302Y-61052225D01*
X214884994Y-61055929D01*
X214937118Y-61170063D01*
X215009647Y-61253767D01*
X215021952Y-61267968D01*
X215047742Y-61284542D01*
X215130931Y-61338004D01*
X215255228Y-61374500D01*
X215255230Y-61374500D01*
X215384770Y-61374500D01*
X215384772Y-61374500D01*
X215509069Y-61338004D01*
X215618049Y-61267967D01*
X215702882Y-61170063D01*
X215756697Y-61052226D01*
X215775133Y-60924000D01*
X215764493Y-60850000D01*
X215756697Y-60795774D01*
X215724375Y-60725000D01*
X215702882Y-60677937D01*
X215618049Y-60580033D01*
X215618048Y-60580032D01*
X215618047Y-60580031D01*
X215509073Y-60509998D01*
X215509070Y-60509996D01*
X215509069Y-60509996D01*
X215509066Y-60509995D01*
X215384774Y-60473500D01*
X215384772Y-60473500D01*
X215255228Y-60473500D01*
X215255225Y-60473500D01*
X215130933Y-60509995D01*
X215130926Y-60509998D01*
X215021952Y-60580031D01*
X214937117Y-60677938D01*
X214883302Y-60795774D01*
X214864867Y-60923997D01*
X211457133Y-60923997D01*
X211446493Y-60850000D01*
X211438697Y-60795774D01*
X211406375Y-60725000D01*
X211384882Y-60677937D01*
X211300049Y-60580033D01*
X211300048Y-60580032D01*
X211300047Y-60580031D01*
X211191073Y-60509998D01*
X211191070Y-60509996D01*
X211191069Y-60509996D01*
X211191066Y-60509995D01*
X211066774Y-60473500D01*
X211066772Y-60473500D01*
X210937228Y-60473500D01*
X210937225Y-60473500D01*
X210812933Y-60509995D01*
X210812926Y-60509998D01*
X210703952Y-60580031D01*
X210619117Y-60677938D01*
X210565302Y-60795774D01*
X210546867Y-60923997D01*
X199443816Y-60923997D01*
X200713817Y-59653997D01*
X214864867Y-59653997D01*
X214864867Y-59654002D01*
X214883302Y-59782225D01*
X214925566Y-59874768D01*
X214937118Y-59900063D01*
X215019631Y-59995289D01*
X215021952Y-59997968D01*
X215074934Y-60032017D01*
X215130931Y-60068004D01*
X215255228Y-60104500D01*
X215255230Y-60104500D01*
X215384770Y-60104500D01*
X215384772Y-60104500D01*
X215509069Y-60068004D01*
X215618049Y-59997967D01*
X215702882Y-59900063D01*
X215756697Y-59782226D01*
X215775133Y-59654000D01*
X215756697Y-59525774D01*
X215702882Y-59407937D01*
X215618049Y-59310033D01*
X215618048Y-59310032D01*
X215618047Y-59310031D01*
X215509073Y-59239998D01*
X215509070Y-59239996D01*
X215509069Y-59239996D01*
X215502394Y-59238036D01*
X215384774Y-59203500D01*
X215384772Y-59203500D01*
X215255228Y-59203500D01*
X215255225Y-59203500D01*
X215130933Y-59239995D01*
X215130926Y-59239998D01*
X215021952Y-59310031D01*
X214937117Y-59407938D01*
X214883302Y-59525774D01*
X214864867Y-59653997D01*
X200713817Y-59653997D01*
X201242499Y-59125315D01*
X201288880Y-59044982D01*
X205245794Y-59044982D01*
X205290158Y-59073493D01*
X205428109Y-59113999D01*
X205428112Y-59114000D01*
X205571888Y-59114000D01*
X205571890Y-59113999D01*
X205709843Y-59073492D01*
X205709844Y-59073492D01*
X205754206Y-59044982D01*
X206645794Y-59044982D01*
X206690158Y-59073493D01*
X206828109Y-59113999D01*
X206828112Y-59114000D01*
X206971888Y-59114000D01*
X206971890Y-59113999D01*
X207109843Y-59073492D01*
X207109844Y-59073492D01*
X207154206Y-59044982D01*
X206900000Y-58790776D01*
X206645794Y-59044982D01*
X205754206Y-59044982D01*
X205500000Y-58790776D01*
X205245794Y-59044982D01*
X201288880Y-59044982D01*
X201308392Y-59011186D01*
X201342500Y-58883893D01*
X201342500Y-58752108D01*
X201342500Y-58344982D01*
X204545794Y-58344982D01*
X204590158Y-58373493D01*
X204728109Y-58413999D01*
X204728112Y-58414000D01*
X204871888Y-58414000D01*
X204871892Y-58413999D01*
X204882491Y-58410887D01*
X204943651Y-58412633D01*
X204992105Y-58449994D01*
X205009345Y-58508701D01*
X205008377Y-58519964D01*
X204994858Y-58613995D01*
X204994858Y-58614002D01*
X205015318Y-58756309D01*
X205015319Y-58756312D01*
X205067233Y-58869988D01*
X205323222Y-58614000D01*
X205303331Y-58594109D01*
X205400000Y-58594109D01*
X205400000Y-58633891D01*
X205415224Y-58670645D01*
X205443355Y-58698776D01*
X205480109Y-58714000D01*
X205519891Y-58714000D01*
X205556645Y-58698776D01*
X205584776Y-58670645D01*
X205600000Y-58633891D01*
X205600000Y-58613999D01*
X205676776Y-58613999D01*
X205932765Y-58869988D01*
X205984680Y-58756313D01*
X206005142Y-58614002D01*
X206005142Y-58613997D01*
X205991622Y-58519965D01*
X206002055Y-58459676D01*
X206045933Y-58417034D01*
X206106495Y-58408326D01*
X206117506Y-58410886D01*
X206128109Y-58413999D01*
X206128112Y-58414000D01*
X206271888Y-58414000D01*
X206271892Y-58413999D01*
X206282491Y-58410887D01*
X206343651Y-58412633D01*
X206392105Y-58449994D01*
X206409345Y-58508701D01*
X206408377Y-58519964D01*
X206394858Y-58613995D01*
X206394858Y-58614002D01*
X206415318Y-58756309D01*
X206415319Y-58756312D01*
X206467233Y-58869988D01*
X206723222Y-58614000D01*
X206703331Y-58594109D01*
X206800000Y-58594109D01*
X206800000Y-58633891D01*
X206815224Y-58670645D01*
X206843355Y-58698776D01*
X206880109Y-58714000D01*
X206919891Y-58714000D01*
X206956645Y-58698776D01*
X206984776Y-58670645D01*
X207000000Y-58633891D01*
X207000000Y-58613999D01*
X207076776Y-58613999D01*
X207332765Y-58869988D01*
X207384680Y-58756313D01*
X207405142Y-58614002D01*
X207405142Y-58613997D01*
X207391622Y-58519965D01*
X207402055Y-58459676D01*
X207445933Y-58417034D01*
X207506495Y-58408326D01*
X207517506Y-58410886D01*
X207528109Y-58413999D01*
X207528112Y-58414000D01*
X207671888Y-58414000D01*
X207671890Y-58413999D01*
X207774067Y-58383997D01*
X214864867Y-58383997D01*
X214864867Y-58384002D01*
X214883302Y-58512225D01*
X214937117Y-58630061D01*
X214937118Y-58630063D01*
X215006469Y-58710099D01*
X215021952Y-58727968D01*
X215066058Y-58756313D01*
X215130931Y-58798004D01*
X215255228Y-58834500D01*
X215255230Y-58834500D01*
X215384770Y-58834500D01*
X215384772Y-58834500D01*
X215509069Y-58798004D01*
X215618049Y-58727967D01*
X215702882Y-58630063D01*
X215756697Y-58512226D01*
X215767800Y-58435000D01*
X215775133Y-58384002D01*
X215775133Y-58383997D01*
X215756697Y-58255774D01*
X215734242Y-58206606D01*
X215702882Y-58137937D01*
X215618049Y-58040033D01*
X215618048Y-58040032D01*
X215618047Y-58040031D01*
X215509073Y-57969998D01*
X215509070Y-57969996D01*
X215509069Y-57969996D01*
X215509066Y-57969995D01*
X215384774Y-57933500D01*
X215384772Y-57933500D01*
X215255228Y-57933500D01*
X215255225Y-57933500D01*
X215130933Y-57969995D01*
X215130926Y-57969998D01*
X215021952Y-58040031D01*
X214937117Y-58137938D01*
X214883302Y-58255774D01*
X214864867Y-58383997D01*
X207774067Y-58383997D01*
X207809843Y-58373492D01*
X207809844Y-58373492D01*
X207854206Y-58344982D01*
X207600000Y-58090776D01*
X207387195Y-58303579D01*
X207387190Y-58303586D01*
X207312300Y-58378475D01*
X207076776Y-58613999D01*
X207000000Y-58613999D01*
X207000000Y-58594109D01*
X206984776Y-58557355D01*
X206956645Y-58529224D01*
X206919891Y-58514000D01*
X206880109Y-58514000D01*
X206843355Y-58529224D01*
X206815224Y-58557355D01*
X206800000Y-58594109D01*
X206703331Y-58594109D01*
X206437447Y-58328225D01*
X206437447Y-58328224D01*
X206383812Y-58274588D01*
X206383812Y-58274589D01*
X206199999Y-58090776D01*
X205987195Y-58303579D01*
X205987190Y-58303586D01*
X205912300Y-58378475D01*
X205676776Y-58613999D01*
X205600000Y-58613999D01*
X205600000Y-58594109D01*
X205584776Y-58557355D01*
X205556645Y-58529224D01*
X205519891Y-58514000D01*
X205480109Y-58514000D01*
X205443355Y-58529224D01*
X205415224Y-58557355D01*
X205400000Y-58594109D01*
X205303331Y-58594109D01*
X205037447Y-58328225D01*
X205037447Y-58328224D01*
X204983812Y-58274588D01*
X204983812Y-58274589D01*
X204800000Y-58090777D01*
X204545794Y-58344982D01*
X201342500Y-58344982D01*
X201342500Y-57913997D01*
X204294858Y-57913997D01*
X204294858Y-57914002D01*
X204315318Y-58056309D01*
X204315319Y-58056312D01*
X204367233Y-58169988D01*
X204623222Y-57914000D01*
X204603331Y-57894109D01*
X204700000Y-57894109D01*
X204700000Y-57933891D01*
X204715224Y-57970645D01*
X204743355Y-57998776D01*
X204780109Y-58014000D01*
X204819891Y-58014000D01*
X204856645Y-57998776D01*
X204884776Y-57970645D01*
X204900000Y-57933891D01*
X204900000Y-57913999D01*
X204976776Y-57913999D01*
X205269381Y-58206604D01*
X205269384Y-58206606D01*
X205500000Y-58437222D01*
X206023222Y-57914000D01*
X206003331Y-57894109D01*
X206100000Y-57894109D01*
X206100000Y-57933891D01*
X206115224Y-57970645D01*
X206143355Y-57998776D01*
X206180109Y-58014000D01*
X206219891Y-58014000D01*
X206256645Y-57998776D01*
X206284776Y-57970645D01*
X206300000Y-57933891D01*
X206300000Y-57913999D01*
X206376776Y-57913999D01*
X206669381Y-58206604D01*
X206669384Y-58206606D01*
X206900000Y-58437222D01*
X207423222Y-57914000D01*
X207403331Y-57894109D01*
X207500000Y-57894109D01*
X207500000Y-57933891D01*
X207515224Y-57970645D01*
X207543355Y-57998776D01*
X207580109Y-58014000D01*
X207619891Y-58014000D01*
X207656645Y-57998776D01*
X207684776Y-57970645D01*
X207700000Y-57933891D01*
X207700000Y-57914000D01*
X207776776Y-57914000D01*
X208032765Y-58169988D01*
X208084680Y-58056313D01*
X208105142Y-57914002D01*
X208105142Y-57913997D01*
X208084680Y-57771685D01*
X208084680Y-57771683D01*
X208032766Y-57658010D01*
X207776776Y-57914000D01*
X207700000Y-57914000D01*
X207700000Y-57894109D01*
X207684776Y-57857355D01*
X207656645Y-57829224D01*
X207619891Y-57814000D01*
X207580109Y-57814000D01*
X207543355Y-57829224D01*
X207515224Y-57857355D01*
X207500000Y-57894109D01*
X207403331Y-57894109D01*
X207137447Y-57628225D01*
X207137447Y-57628224D01*
X207083812Y-57574588D01*
X207083812Y-57574589D01*
X206899999Y-57390776D01*
X206687195Y-57603579D01*
X206687190Y-57603586D01*
X206612300Y-57678475D01*
X206376776Y-57913999D01*
X206300000Y-57913999D01*
X206300000Y-57894109D01*
X206284776Y-57857355D01*
X206256645Y-57829224D01*
X206219891Y-57814000D01*
X206180109Y-57814000D01*
X206143355Y-57829224D01*
X206115224Y-57857355D01*
X206100000Y-57894109D01*
X206003331Y-57894109D01*
X205737447Y-57628225D01*
X205737447Y-57628224D01*
X205683812Y-57574588D01*
X205683812Y-57574589D01*
X205499999Y-57390776D01*
X205287195Y-57603579D01*
X205287190Y-57603586D01*
X205212300Y-57678475D01*
X204976776Y-57913999D01*
X204900000Y-57913999D01*
X204900000Y-57894109D01*
X204884776Y-57857355D01*
X204856645Y-57829224D01*
X204819891Y-57814000D01*
X204780109Y-57814000D01*
X204743355Y-57829224D01*
X204715224Y-57857355D01*
X204700000Y-57894109D01*
X204603331Y-57894109D01*
X204367233Y-57658011D01*
X204315319Y-57771687D01*
X204315318Y-57771690D01*
X204294858Y-57913997D01*
X201342500Y-57913997D01*
X201342500Y-57483015D01*
X204545793Y-57483015D01*
X204800000Y-57737222D01*
X205323222Y-57214000D01*
X205303331Y-57194109D01*
X205400000Y-57194109D01*
X205400000Y-57233891D01*
X205415224Y-57270645D01*
X205443355Y-57298776D01*
X205480109Y-57314000D01*
X205519891Y-57314000D01*
X205556645Y-57298776D01*
X205584776Y-57270645D01*
X205600000Y-57233891D01*
X205600000Y-57213999D01*
X205676776Y-57213999D01*
X205969381Y-57506604D01*
X205969384Y-57506606D01*
X206200000Y-57737222D01*
X206723222Y-57214000D01*
X206703331Y-57194109D01*
X206800000Y-57194109D01*
X206800000Y-57233891D01*
X206815224Y-57270645D01*
X206843355Y-57298776D01*
X206880109Y-57314000D01*
X206919891Y-57314000D01*
X206956645Y-57298776D01*
X206984776Y-57270645D01*
X207000000Y-57233891D01*
X207000000Y-57213999D01*
X207076776Y-57213999D01*
X207369381Y-57506604D01*
X207369384Y-57506606D01*
X207600000Y-57737222D01*
X207854205Y-57483016D01*
X207854205Y-57483015D01*
X207809847Y-57454508D01*
X207671890Y-57414000D01*
X207528112Y-57414000D01*
X207528104Y-57414001D01*
X207517501Y-57417114D01*
X207456341Y-57415364D01*
X207407890Y-57377999D01*
X207390654Y-57319292D01*
X207391622Y-57308033D01*
X207405142Y-57214001D01*
X207405142Y-57213997D01*
X207391622Y-57119965D01*
X207392655Y-57113997D01*
X214864867Y-57113997D01*
X214864867Y-57114002D01*
X214883302Y-57242225D01*
X214896719Y-57271603D01*
X214937118Y-57360063D01*
X215018953Y-57454507D01*
X215021952Y-57457968D01*
X215097635Y-57506606D01*
X215130931Y-57528004D01*
X215255228Y-57564500D01*
X215255230Y-57564500D01*
X215384770Y-57564500D01*
X215384772Y-57564500D01*
X215509069Y-57528004D01*
X215618049Y-57457967D01*
X215702882Y-57360063D01*
X215756697Y-57242226D01*
X215763977Y-57191593D01*
X215775133Y-57114002D01*
X215775133Y-57113997D01*
X215756697Y-56985774D01*
X215730414Y-56928224D01*
X215702882Y-56867937D01*
X215618049Y-56770033D01*
X215618048Y-56770032D01*
X215618047Y-56770031D01*
X215509073Y-56699998D01*
X215509070Y-56699996D01*
X215509069Y-56699996D01*
X215509066Y-56699995D01*
X215384774Y-56663500D01*
X215384772Y-56663500D01*
X215255228Y-56663500D01*
X215255225Y-56663500D01*
X215130933Y-56699995D01*
X215130926Y-56699998D01*
X215021952Y-56770031D01*
X214937117Y-56867938D01*
X214883302Y-56985774D01*
X214864867Y-57113997D01*
X207392655Y-57113997D01*
X207402055Y-57059676D01*
X207445933Y-57017034D01*
X207506495Y-57008326D01*
X207517506Y-57010886D01*
X207528109Y-57013999D01*
X207528112Y-57014000D01*
X207671888Y-57014000D01*
X207671890Y-57013999D01*
X207809843Y-56973492D01*
X207809844Y-56973492D01*
X207854206Y-56944982D01*
X207600000Y-56690776D01*
X207387195Y-56903579D01*
X207387190Y-56903586D01*
X207312300Y-56978475D01*
X207076776Y-57213999D01*
X207000000Y-57213999D01*
X207000000Y-57194109D01*
X206984776Y-57157355D01*
X206956645Y-57129224D01*
X206919891Y-57114000D01*
X206880109Y-57114000D01*
X206843355Y-57129224D01*
X206815224Y-57157355D01*
X206800000Y-57194109D01*
X206703331Y-57194109D01*
X206437447Y-56928225D01*
X206437447Y-56928224D01*
X206383812Y-56874588D01*
X206383812Y-56874589D01*
X206199999Y-56690776D01*
X205987195Y-56903579D01*
X205987190Y-56903586D01*
X205912300Y-56978475D01*
X205676776Y-57213999D01*
X205600000Y-57213999D01*
X205600000Y-57194109D01*
X205584776Y-57157355D01*
X205556645Y-57129224D01*
X205519891Y-57114000D01*
X205480109Y-57114000D01*
X205443355Y-57129224D01*
X205415224Y-57157355D01*
X205400000Y-57194109D01*
X205303331Y-57194109D01*
X205037447Y-56928225D01*
X205037447Y-56928224D01*
X204983812Y-56874588D01*
X204983812Y-56874589D01*
X204800000Y-56690777D01*
X204545794Y-56944982D01*
X204590158Y-56973493D01*
X204728109Y-57013999D01*
X204728112Y-57014000D01*
X204871888Y-57014000D01*
X204871892Y-57013999D01*
X204882491Y-57010887D01*
X204943651Y-57012633D01*
X204992105Y-57049994D01*
X205009345Y-57108701D01*
X205008377Y-57119964D01*
X204994858Y-57213995D01*
X204994858Y-57214003D01*
X205008377Y-57308034D01*
X204997944Y-57368324D01*
X204954065Y-57410966D01*
X204893503Y-57419673D01*
X204882496Y-57417114D01*
X204871891Y-57414000D01*
X204728109Y-57414000D01*
X204590156Y-57454507D01*
X204590154Y-57454508D01*
X204545793Y-57483015D01*
X201342500Y-57483015D01*
X201342500Y-56513997D01*
X204294858Y-56513997D01*
X204294858Y-56514002D01*
X204315318Y-56656309D01*
X204315319Y-56656312D01*
X204367233Y-56769988D01*
X204623222Y-56514000D01*
X204603331Y-56494109D01*
X204700000Y-56494109D01*
X204700000Y-56533891D01*
X204715224Y-56570645D01*
X204743355Y-56598776D01*
X204780109Y-56614000D01*
X204819891Y-56614000D01*
X204856645Y-56598776D01*
X204884776Y-56570645D01*
X204900000Y-56533891D01*
X204900000Y-56513999D01*
X204976776Y-56513999D01*
X205269381Y-56806604D01*
X205269384Y-56806606D01*
X205500000Y-57037222D01*
X206023222Y-56514000D01*
X206003331Y-56494109D01*
X206100000Y-56494109D01*
X206100000Y-56533891D01*
X206115224Y-56570645D01*
X206143355Y-56598776D01*
X206180109Y-56614000D01*
X206219891Y-56614000D01*
X206256645Y-56598776D01*
X206284776Y-56570645D01*
X206300000Y-56533891D01*
X206300000Y-56513999D01*
X206376776Y-56513999D01*
X206669381Y-56806604D01*
X206669384Y-56806606D01*
X206900000Y-57037222D01*
X207423222Y-56514000D01*
X207403331Y-56494109D01*
X207500000Y-56494109D01*
X207500000Y-56533891D01*
X207515224Y-56570645D01*
X207543355Y-56598776D01*
X207580109Y-56614000D01*
X207619891Y-56614000D01*
X207656645Y-56598776D01*
X207684776Y-56570645D01*
X207700000Y-56533891D01*
X207700000Y-56514000D01*
X207776776Y-56514000D01*
X208032765Y-56769988D01*
X208084680Y-56656313D01*
X208105142Y-56514002D01*
X208105142Y-56513997D01*
X208084680Y-56371685D01*
X208084680Y-56371683D01*
X208032766Y-56258010D01*
X207776776Y-56514000D01*
X207700000Y-56514000D01*
X207700000Y-56494109D01*
X207684776Y-56457355D01*
X207656645Y-56429224D01*
X207619891Y-56414000D01*
X207580109Y-56414000D01*
X207543355Y-56429224D01*
X207515224Y-56457355D01*
X207500000Y-56494109D01*
X207403331Y-56494109D01*
X207137447Y-56228225D01*
X207137447Y-56228224D01*
X207083812Y-56174588D01*
X207083812Y-56174589D01*
X206899999Y-55990776D01*
X206687195Y-56203579D01*
X206687190Y-56203586D01*
X206612300Y-56278475D01*
X206376776Y-56513999D01*
X206300000Y-56513999D01*
X206300000Y-56494109D01*
X206284776Y-56457355D01*
X206256645Y-56429224D01*
X206219891Y-56414000D01*
X206180109Y-56414000D01*
X206143355Y-56429224D01*
X206115224Y-56457355D01*
X206100000Y-56494109D01*
X206003331Y-56494109D01*
X205737447Y-56228225D01*
X205737447Y-56228224D01*
X205683812Y-56174588D01*
X205683812Y-56174589D01*
X205499999Y-55990776D01*
X205287195Y-56203579D01*
X205287190Y-56203586D01*
X205212300Y-56278475D01*
X204976776Y-56513999D01*
X204900000Y-56513999D01*
X204900000Y-56494109D01*
X204884776Y-56457355D01*
X204856645Y-56429224D01*
X204819891Y-56414000D01*
X204780109Y-56414000D01*
X204743355Y-56429224D01*
X204715224Y-56457355D01*
X204700000Y-56494109D01*
X204603331Y-56494109D01*
X204367233Y-56258011D01*
X204315319Y-56371687D01*
X204315318Y-56371690D01*
X204294858Y-56513997D01*
X201342500Y-56513997D01*
X201342500Y-56083015D01*
X204545793Y-56083015D01*
X204800000Y-56337222D01*
X205323222Y-55814000D01*
X205303331Y-55794109D01*
X205400000Y-55794109D01*
X205400000Y-55833891D01*
X205415224Y-55870645D01*
X205443355Y-55898776D01*
X205480109Y-55914000D01*
X205519891Y-55914000D01*
X205556645Y-55898776D01*
X205584776Y-55870645D01*
X205600000Y-55833891D01*
X205600000Y-55814000D01*
X205676776Y-55814000D01*
X205860588Y-55997811D01*
X205969381Y-56106604D01*
X205969384Y-56106606D01*
X206200000Y-56337222D01*
X206723222Y-55814000D01*
X206703331Y-55794109D01*
X206800000Y-55794109D01*
X206800000Y-55833891D01*
X206815224Y-55870645D01*
X206843355Y-55898776D01*
X206880109Y-55914000D01*
X206919891Y-55914000D01*
X206956645Y-55898776D01*
X206984776Y-55870645D01*
X207000000Y-55833891D01*
X207000000Y-55814000D01*
X207076776Y-55814000D01*
X207260588Y-55997811D01*
X207369381Y-56106604D01*
X207369384Y-56106606D01*
X207600000Y-56337222D01*
X207854205Y-56083016D01*
X207854205Y-56083015D01*
X207809847Y-56054508D01*
X207671890Y-56014000D01*
X207528112Y-56014000D01*
X207528104Y-56014001D01*
X207517501Y-56017114D01*
X207456341Y-56015364D01*
X207407890Y-55977999D01*
X207390654Y-55919292D01*
X207391622Y-55908033D01*
X207400829Y-55843997D01*
X214864867Y-55843997D01*
X214864867Y-55844002D01*
X214883302Y-55972225D01*
X214920880Y-56054507D01*
X214937118Y-56090063D01*
X214987140Y-56147792D01*
X215021952Y-56187968D01*
X215130926Y-56258001D01*
X215130931Y-56258004D01*
X215255228Y-56294500D01*
X215255230Y-56294500D01*
X215384770Y-56294500D01*
X215384772Y-56294500D01*
X215509069Y-56258004D01*
X215618049Y-56187967D01*
X215659710Y-56139887D01*
X215712106Y-56108290D01*
X215773067Y-56113525D01*
X215793316Y-56125060D01*
X215824118Y-56147793D01*
X215952301Y-56192646D01*
X215982725Y-56195499D01*
X215982727Y-56195500D01*
X215982734Y-56195500D01*
X217391273Y-56195500D01*
X217391273Y-56195499D01*
X217421699Y-56192646D01*
X217549882Y-56147793D01*
X217659150Y-56067150D01*
X217739793Y-55957882D01*
X217784646Y-55829699D01*
X217787499Y-55799273D01*
X217787500Y-55799273D01*
X217787500Y-54990727D01*
X217787499Y-54990725D01*
X217787244Y-54988004D01*
X217784646Y-54960301D01*
X217739793Y-54832118D01*
X217660183Y-54724250D01*
X217659154Y-54722855D01*
X217659152Y-54722853D01*
X217659150Y-54722850D01*
X217659146Y-54722847D01*
X217659144Y-54722845D01*
X217549883Y-54642207D01*
X217421703Y-54597355D01*
X217421694Y-54597353D01*
X217391274Y-54594500D01*
X217391266Y-54594500D01*
X215982734Y-54594500D01*
X215982725Y-54594500D01*
X215952305Y-54597353D01*
X215952296Y-54597355D01*
X215824116Y-54642207D01*
X215714855Y-54722845D01*
X215714845Y-54722855D01*
X215634207Y-54832116D01*
X215589355Y-54960296D01*
X215589353Y-54960305D01*
X215586500Y-54990725D01*
X215586500Y-55320483D01*
X215567593Y-55378674D01*
X215518093Y-55414638D01*
X215459610Y-55415473D01*
X215384777Y-55393501D01*
X215384773Y-55393500D01*
X215384772Y-55393500D01*
X215255228Y-55393500D01*
X215255225Y-55393500D01*
X215130933Y-55429995D01*
X215130926Y-55429998D01*
X215021952Y-55500031D01*
X214937117Y-55597938D01*
X214883302Y-55715774D01*
X214864867Y-55843997D01*
X207400829Y-55843997D01*
X207405142Y-55814001D01*
X207405142Y-55813997D01*
X207384680Y-55671685D01*
X207384680Y-55671683D01*
X207332766Y-55558010D01*
X207076776Y-55814000D01*
X207000000Y-55814000D01*
X207000000Y-55794109D01*
X206984776Y-55757355D01*
X206956645Y-55729224D01*
X206919891Y-55714000D01*
X206880109Y-55714000D01*
X206843355Y-55729224D01*
X206815224Y-55757355D01*
X206800000Y-55794109D01*
X206703331Y-55794109D01*
X206467233Y-55558011D01*
X206415319Y-55671687D01*
X206415318Y-55671690D01*
X206394858Y-55813997D01*
X206394858Y-55814003D01*
X206408377Y-55908034D01*
X206397944Y-55968324D01*
X206354065Y-56010966D01*
X206293503Y-56019673D01*
X206282496Y-56017114D01*
X206271891Y-56014000D01*
X206128112Y-56014000D01*
X206128104Y-56014001D01*
X206117501Y-56017114D01*
X206056341Y-56015364D01*
X206007890Y-55977999D01*
X205990654Y-55919292D01*
X205991622Y-55908033D01*
X206005142Y-55814001D01*
X206005142Y-55813997D01*
X205984680Y-55671685D01*
X205984680Y-55671683D01*
X205932766Y-55558010D01*
X205676776Y-55814000D01*
X205600000Y-55814000D01*
X205600000Y-55794109D01*
X205584776Y-55757355D01*
X205556645Y-55729224D01*
X205519891Y-55714000D01*
X205480109Y-55714000D01*
X205443355Y-55729224D01*
X205415224Y-55757355D01*
X205400000Y-55794109D01*
X205303331Y-55794109D01*
X205067233Y-55558011D01*
X205015319Y-55671687D01*
X205015318Y-55671690D01*
X204994858Y-55813997D01*
X204994858Y-55814003D01*
X205008377Y-55908034D01*
X204997944Y-55968324D01*
X204954065Y-56010966D01*
X204893503Y-56019673D01*
X204882496Y-56017114D01*
X204871891Y-56014000D01*
X204728109Y-56014000D01*
X204590156Y-56054507D01*
X204590154Y-56054508D01*
X204545793Y-56083015D01*
X201342500Y-56083015D01*
X201342500Y-55383015D01*
X205245793Y-55383015D01*
X205500000Y-55637222D01*
X205754205Y-55383016D01*
X205754205Y-55383015D01*
X206645793Y-55383015D01*
X206900000Y-55637222D01*
X207154205Y-55383016D01*
X207154205Y-55383015D01*
X207109847Y-55354508D01*
X206971890Y-55314000D01*
X206828109Y-55314000D01*
X206690156Y-55354507D01*
X206690154Y-55354508D01*
X206645793Y-55383015D01*
X205754205Y-55383015D01*
X205709847Y-55354508D01*
X205571890Y-55314000D01*
X205428109Y-55314000D01*
X205290156Y-55354507D01*
X205290154Y-55354508D01*
X205245793Y-55383015D01*
X201342500Y-55383015D01*
X201342500Y-54221401D01*
X201613001Y-54221401D01*
X201613001Y-54279616D01*
X201622912Y-54347650D01*
X201674214Y-54452588D01*
X201756812Y-54535186D01*
X201861751Y-54586487D01*
X201929784Y-54596399D01*
X202462998Y-54596399D01*
X202463000Y-54596398D01*
X202463000Y-54221401D01*
X202713000Y-54221401D01*
X202713000Y-54596398D01*
X202713001Y-54596399D01*
X203246213Y-54596399D01*
X203246216Y-54596398D01*
X203314250Y-54586487D01*
X203419188Y-54535185D01*
X203501786Y-54452587D01*
X203553087Y-54347648D01*
X203563000Y-54279615D01*
X203563000Y-54221401D01*
X203562999Y-54221400D01*
X202713001Y-54221400D01*
X202713000Y-54221401D01*
X202463000Y-54221401D01*
X202462999Y-54221400D01*
X201613002Y-54221400D01*
X201613001Y-54221401D01*
X201342500Y-54221401D01*
X201342500Y-53695900D01*
X201361407Y-53637709D01*
X201410907Y-53601745D01*
X201441500Y-53596900D01*
X201585679Y-53596900D01*
X201643870Y-53615807D01*
X201679834Y-53665307D01*
X201679834Y-53726493D01*
X201674620Y-53739380D01*
X201622912Y-53845151D01*
X201613000Y-53913184D01*
X201613000Y-53971399D01*
X201613001Y-53971400D01*
X203562998Y-53971400D01*
X203562999Y-53971399D01*
X203562999Y-53913186D01*
X203562998Y-53913183D01*
X203553087Y-53845149D01*
X203501380Y-53739381D01*
X203492809Y-53678798D01*
X203521484Y-53624749D01*
X203576453Y-53597876D01*
X203590321Y-53596900D01*
X210328490Y-53596900D01*
X210328492Y-53596900D01*
X210455786Y-53562792D01*
X210455788Y-53562790D01*
X210455790Y-53562790D01*
X210569909Y-53496903D01*
X210569909Y-53496902D01*
X210569914Y-53496900D01*
X211442318Y-52624496D01*
X211496835Y-52596719D01*
X211512322Y-52595500D01*
X211809124Y-52595500D01*
X211867315Y-52614407D01*
X211903279Y-52663907D01*
X211903279Y-52725093D01*
X211898065Y-52737981D01*
X211897803Y-52738515D01*
X211897802Y-52738517D01*
X211878004Y-52779015D01*
X211846427Y-52843605D01*
X211842456Y-52870860D01*
X211836500Y-52911740D01*
X211836500Y-53278260D01*
X211840251Y-53304002D01*
X211846427Y-53346395D01*
X211888387Y-53432225D01*
X211897802Y-53451483D01*
X211971317Y-53524998D01*
X211999093Y-53579513D01*
X211989522Y-53639945D01*
X211971318Y-53665000D01*
X211918318Y-53718001D01*
X211897801Y-53738518D01*
X211846427Y-53843604D01*
X211846427Y-53843607D01*
X211836500Y-53911740D01*
X211836500Y-54278260D01*
X211836698Y-54279616D01*
X211846427Y-54346395D01*
X211897376Y-54450612D01*
X211897802Y-54451483D01*
X211980517Y-54534198D01*
X212034285Y-54560483D01*
X212085604Y-54585572D01*
X212085605Y-54585572D01*
X212085607Y-54585573D01*
X212153740Y-54595500D01*
X212153743Y-54595500D01*
X213470257Y-54595500D01*
X213470260Y-54595500D01*
X213538393Y-54585573D01*
X213643483Y-54534198D01*
X213726198Y-54451483D01*
X213726423Y-54451021D01*
X213726819Y-54450612D01*
X213730965Y-54444806D01*
X213731835Y-54445427D01*
X213768965Y-54407047D01*
X213815365Y-54395500D01*
X213859563Y-54395500D01*
X213859563Y-54395499D01*
X213935989Y-54375021D01*
X214004511Y-54335460D01*
X214060460Y-54279511D01*
X214617460Y-53722511D01*
X214655974Y-53655802D01*
X214657021Y-53653989D01*
X214677500Y-53577562D01*
X214677500Y-52115036D01*
X214696407Y-52056845D01*
X214726097Y-52035273D01*
X214724638Y-52033855D01*
X214824951Y-52033855D01*
X214856593Y-52056845D01*
X214874492Y-52100947D01*
X214883302Y-52162225D01*
X214937117Y-52280061D01*
X214937118Y-52280063D01*
X215021951Y-52377967D01*
X215021952Y-52377968D01*
X215130926Y-52448001D01*
X215130931Y-52448004D01*
X215255228Y-52484500D01*
X215255230Y-52484500D01*
X215384770Y-52484500D01*
X215384772Y-52484500D01*
X215509069Y-52448004D01*
X215618049Y-52377967D01*
X215702882Y-52280063D01*
X215756697Y-52162226D01*
X215765508Y-52100947D01*
X215775133Y-52034002D01*
X215775133Y-52033997D01*
X215756697Y-51905774D01*
X215702882Y-51787937D01*
X215618049Y-51690033D01*
X215618048Y-51690032D01*
X215618047Y-51690031D01*
X215509073Y-51619998D01*
X215509070Y-51619996D01*
X215509069Y-51619996D01*
X215481452Y-51611887D01*
X215384774Y-51583500D01*
X215384772Y-51583500D01*
X215255228Y-51583500D01*
X215255225Y-51583500D01*
X215130933Y-51619995D01*
X215130926Y-51619998D01*
X215021952Y-51690031D01*
X214937117Y-51787938D01*
X214883302Y-51905774D01*
X214874492Y-51967052D01*
X214847496Y-52021960D01*
X214824951Y-52033855D01*
X214724638Y-52033855D01*
X214688941Y-51999163D01*
X214677500Y-51952963D01*
X214677500Y-50845036D01*
X214696407Y-50786845D01*
X214726097Y-50765273D01*
X214724638Y-50763855D01*
X214824951Y-50763855D01*
X214856593Y-50786845D01*
X214874492Y-50830947D01*
X214883302Y-50892225D01*
X214927456Y-50988907D01*
X214937118Y-51010063D01*
X215011928Y-51096400D01*
X215021952Y-51107968D01*
X215130926Y-51178001D01*
X215130931Y-51178004D01*
X215255228Y-51214500D01*
X215255230Y-51214500D01*
X215384770Y-51214500D01*
X215384772Y-51214500D01*
X215509069Y-51178004D01*
X215618049Y-51107967D01*
X215702882Y-51010063D01*
X215756697Y-50892226D01*
X215765508Y-50830947D01*
X215775133Y-50764002D01*
X215775133Y-50763997D01*
X215763009Y-50679673D01*
X215773442Y-50619384D01*
X215817320Y-50576742D01*
X215877883Y-50568034D01*
X215893695Y-50572138D01*
X215906850Y-50576742D01*
X215952297Y-50592645D01*
X215952298Y-50592645D01*
X215952301Y-50592646D01*
X215982725Y-50595499D01*
X215982727Y-50595500D01*
X215982734Y-50595500D01*
X217391273Y-50595500D01*
X217391273Y-50595499D01*
X217421699Y-50592646D01*
X217549882Y-50547793D01*
X217659150Y-50467150D01*
X217739793Y-50357882D01*
X217784646Y-50229699D01*
X217787499Y-50199273D01*
X217787500Y-50199273D01*
X217787500Y-49390727D01*
X217787499Y-49390725D01*
X217787202Y-49387555D01*
X217784646Y-49360301D01*
X217739793Y-49232118D01*
X217702821Y-49182023D01*
X217659154Y-49122855D01*
X217659152Y-49122853D01*
X217659150Y-49122850D01*
X217659146Y-49122847D01*
X217659144Y-49122845D01*
X217549883Y-49042207D01*
X217421703Y-48997355D01*
X217421694Y-48997353D01*
X217391274Y-48994500D01*
X217391266Y-48994500D01*
X215982734Y-48994500D01*
X215982725Y-48994500D01*
X215952305Y-48997353D01*
X215952296Y-48997355D01*
X215824116Y-49042207D01*
X215714855Y-49122845D01*
X215714845Y-49122855D01*
X215634207Y-49232116D01*
X215589355Y-49360296D01*
X215589353Y-49360305D01*
X215586500Y-49390725D01*
X215586500Y-50199276D01*
X215589595Y-50232275D01*
X215576204Y-50291977D01*
X215530279Y-50332406D01*
X215469361Y-50338119D01*
X215463137Y-50336509D01*
X215384775Y-50313500D01*
X215384772Y-50313500D01*
X215255228Y-50313500D01*
X215255225Y-50313500D01*
X215130933Y-50349995D01*
X215130926Y-50349998D01*
X215021952Y-50420031D01*
X214937117Y-50517938D01*
X214883302Y-50635774D01*
X214874492Y-50697052D01*
X214847496Y-50751960D01*
X214824951Y-50763855D01*
X214724638Y-50763855D01*
X214688941Y-50729163D01*
X214677500Y-50682963D01*
X214677500Y-50641989D01*
X214677499Y-50641987D01*
X214671442Y-50619384D01*
X214657021Y-50565563D01*
X214617460Y-50497041D01*
X214561511Y-50441091D01*
X214561511Y-50441092D01*
X213934959Y-49814540D01*
X213934956Y-49814538D01*
X213866440Y-49774980D01*
X213866436Y-49774978D01*
X213790012Y-49754500D01*
X213790010Y-49754500D01*
X211007990Y-49754500D01*
X211007987Y-49754500D01*
X210931563Y-49774978D01*
X210931559Y-49774980D01*
X210863043Y-49814538D01*
X209910677Y-50766904D01*
X209856160Y-50794681D01*
X209840673Y-50795900D01*
X205356845Y-50795900D01*
X205298654Y-50776993D01*
X205262690Y-50727493D01*
X205262690Y-50666307D01*
X205298654Y-50616807D01*
X205328953Y-50601910D01*
X205349069Y-50596004D01*
X205458049Y-50525967D01*
X205542882Y-50428063D01*
X205596697Y-50310226D01*
X205608074Y-50231099D01*
X205615133Y-50182002D01*
X205615133Y-50181997D01*
X205596697Y-50053774D01*
X205542882Y-49935938D01*
X205542882Y-49935937D01*
X205482134Y-49865829D01*
X205458318Y-49809471D01*
X205472177Y-49749876D01*
X205482131Y-49736174D01*
X205542882Y-49666063D01*
X205596697Y-49548226D01*
X205615133Y-49420000D01*
X205611126Y-49392134D01*
X205596697Y-49291774D01*
X205570091Y-49233516D01*
X205542882Y-49173937D01*
X205458049Y-49076033D01*
X205458048Y-49076032D01*
X205458047Y-49076031D01*
X205349073Y-49005998D01*
X205349070Y-49005996D01*
X205349069Y-49005996D01*
X205349066Y-49005995D01*
X205224774Y-48969500D01*
X205224772Y-48969500D01*
X205095228Y-48969500D01*
X205095225Y-48969500D01*
X204970933Y-49005995D01*
X204970926Y-49005998D01*
X204861952Y-49076031D01*
X204777117Y-49173938D01*
X204723302Y-49291774D01*
X204704867Y-49419997D01*
X204704867Y-49420002D01*
X204723302Y-49548225D01*
X204777118Y-49666063D01*
X204837864Y-49736170D01*
X204861681Y-49792529D01*
X204847822Y-49852125D01*
X204837864Y-49865830D01*
X204777118Y-49935936D01*
X204723302Y-50053774D01*
X204704867Y-50181997D01*
X204704867Y-50182002D01*
X204723302Y-50310225D01*
X204766301Y-50404377D01*
X204777118Y-50428063D01*
X204836887Y-50497041D01*
X204861952Y-50525968D01*
X204970769Y-50595900D01*
X204970931Y-50596004D01*
X204991046Y-50601910D01*
X205041553Y-50636445D01*
X205062115Y-50694072D01*
X205044877Y-50752779D01*
X204996425Y-50790142D01*
X204963155Y-50795900D01*
X203591365Y-50795900D01*
X203533174Y-50776993D01*
X203507389Y-50746291D01*
X203506965Y-50746594D01*
X203503115Y-50741202D01*
X203502423Y-50740378D01*
X203502198Y-50739918D01*
X203502198Y-50739917D01*
X203419483Y-50657202D01*
X203403452Y-50649365D01*
X203314395Y-50605827D01*
X203287139Y-50601856D01*
X203246260Y-50595900D01*
X201929740Y-50595900D01*
X201895673Y-50600863D01*
X201861604Y-50605827D01*
X201772547Y-50649365D01*
X201711965Y-50657936D01*
X201701177Y-50655414D01*
X201668777Y-50645901D01*
X201668773Y-50645900D01*
X201668772Y-50645900D01*
X201539228Y-50645900D01*
X201539225Y-50645900D01*
X201414933Y-50682395D01*
X201414926Y-50682398D01*
X201305952Y-50752431D01*
X201221117Y-50850338D01*
X201167302Y-50968174D01*
X201158279Y-51030931D01*
X201131283Y-51085838D01*
X201077168Y-51114391D01*
X201034665Y-51112468D01*
X200935278Y-51085838D01*
X200907892Y-51078500D01*
X200776108Y-51078500D01*
X200709304Y-51096400D01*
X200648809Y-51112609D01*
X200534690Y-51178496D01*
X200441496Y-51271690D01*
X200375609Y-51385809D01*
X200341500Y-51513109D01*
X200341500Y-52779015D01*
X200322593Y-52837206D01*
X200273093Y-52873170D01*
X200214609Y-52874005D01*
X200144775Y-52853500D01*
X200144772Y-52853500D01*
X200015228Y-52853500D01*
X200015225Y-52853500D01*
X199890933Y-52889995D01*
X199890926Y-52889998D01*
X199781952Y-52960031D01*
X199697117Y-53057938D01*
X199643302Y-53175774D01*
X199624867Y-53303997D01*
X199624867Y-53304002D01*
X199643302Y-53432225D01*
X199697117Y-53550061D01*
X199697118Y-53550063D01*
X199736056Y-53595000D01*
X199781952Y-53647968D01*
X199818499Y-53671455D01*
X199890931Y-53718004D01*
X200015228Y-53754500D01*
X200015230Y-53754500D01*
X200144770Y-53754500D01*
X200144772Y-53754500D01*
X200214610Y-53733994D01*
X200275769Y-53735741D01*
X200324222Y-53773104D01*
X200341500Y-53828984D01*
X200341500Y-54049015D01*
X200322593Y-54107206D01*
X200273093Y-54143170D01*
X200214609Y-54144005D01*
X200144775Y-54123500D01*
X200144772Y-54123500D01*
X200015228Y-54123500D01*
X200015225Y-54123500D01*
X199890933Y-54159995D01*
X199890926Y-54159998D01*
X199781952Y-54230031D01*
X199697117Y-54327938D01*
X199643302Y-54445775D01*
X199630114Y-54537498D01*
X199603118Y-54592406D01*
X199549003Y-54620959D01*
X199499424Y-54616853D01*
X199447703Y-54598755D01*
X199447694Y-54598753D01*
X199417274Y-54595900D01*
X199417266Y-54595900D01*
X198008734Y-54595900D01*
X198008725Y-54595900D01*
X197978305Y-54598753D01*
X197978296Y-54598755D01*
X197850116Y-54643607D01*
X197740855Y-54724245D01*
X197740845Y-54724255D01*
X197660207Y-54833516D01*
X197615355Y-54961696D01*
X197615353Y-54961705D01*
X197612500Y-54992125D01*
X197612500Y-55800674D01*
X197615353Y-55831094D01*
X197615355Y-55831103D01*
X197660207Y-55959283D01*
X197740845Y-56068544D01*
X197740847Y-56068546D01*
X197740850Y-56068550D01*
X197740853Y-56068552D01*
X197740855Y-56068554D01*
X197850116Y-56149192D01*
X197850117Y-56149192D01*
X197850118Y-56149193D01*
X197978301Y-56194046D01*
X198008725Y-56196899D01*
X198008727Y-56196900D01*
X198008734Y-56196900D01*
X199417273Y-56196900D01*
X199417273Y-56196899D01*
X199447699Y-56194046D01*
X199575882Y-56149193D01*
X199575883Y-56149192D01*
X199575884Y-56149192D01*
X199607420Y-56125917D01*
X199665467Y-56106574D01*
X199723798Y-56125044D01*
X199741028Y-56140740D01*
X199781949Y-56187965D01*
X199781951Y-56187967D01*
X199795849Y-56196899D01*
X199890931Y-56258004D01*
X200015228Y-56294500D01*
X200015230Y-56294500D01*
X200144770Y-56294500D01*
X200144772Y-56294500D01*
X200214610Y-56273994D01*
X200275769Y-56275741D01*
X200324222Y-56313104D01*
X200341500Y-56368984D01*
X200341500Y-56589015D01*
X200322593Y-56647206D01*
X200273093Y-56683170D01*
X200214609Y-56684005D01*
X200144775Y-56663500D01*
X200144772Y-56663500D01*
X200015228Y-56663500D01*
X200015225Y-56663500D01*
X199890933Y-56699995D01*
X199890926Y-56699998D01*
X199781952Y-56770031D01*
X199697117Y-56867938D01*
X199643302Y-56985774D01*
X199624867Y-57113997D01*
X199624867Y-57114002D01*
X199643302Y-57242225D01*
X199656719Y-57271603D01*
X199697118Y-57360063D01*
X199778953Y-57454507D01*
X199781952Y-57457968D01*
X199857635Y-57506606D01*
X199890931Y-57528004D01*
X200015228Y-57564500D01*
X200015230Y-57564500D01*
X200144770Y-57564500D01*
X200144772Y-57564500D01*
X200214610Y-57543994D01*
X200275769Y-57545741D01*
X200324222Y-57583104D01*
X200341500Y-57638984D01*
X200341500Y-58569677D01*
X200322593Y-58627868D01*
X200312504Y-58639681D01*
X196611153Y-62341031D01*
X196556636Y-62368808D01*
X196512413Y-62365765D01*
X196475931Y-62354699D01*
X196475929Y-62354698D01*
X196270003Y-62334417D01*
X196269997Y-62334417D01*
X196064070Y-62354698D01*
X196064065Y-62354699D01*
X195866045Y-62414768D01*
X195683547Y-62512316D01*
X195683547Y-62512317D01*
X195562305Y-62611817D01*
X195505328Y-62634117D01*
X195446125Y-62618668D01*
X195407310Y-62571371D01*
X195400500Y-62535289D01*
X195400500Y-61704064D01*
X195419407Y-61645873D01*
X195468907Y-61609909D01*
X195530093Y-61609909D01*
X195562305Y-61627536D01*
X195683829Y-61727268D01*
X195683839Y-61727275D01*
X195866232Y-61824765D01*
X195866237Y-61824767D01*
X196064166Y-61884808D01*
X196144998Y-61892769D01*
X196145000Y-61892768D01*
X196145000Y-61334144D01*
X196204174Y-61350000D01*
X196335826Y-61350000D01*
X196395000Y-61334144D01*
X196395000Y-61892768D01*
X196395001Y-61892769D01*
X196475833Y-61884808D01*
X196673762Y-61824767D01*
X196673767Y-61824765D01*
X196856160Y-61727275D01*
X196856170Y-61727268D01*
X197016050Y-61596059D01*
X197016059Y-61596050D01*
X197147268Y-61436170D01*
X197147275Y-61436160D01*
X197244765Y-61253767D01*
X197244767Y-61253762D01*
X197304808Y-61055836D01*
X197304809Y-61055830D01*
X197312771Y-60975000D01*
X196754144Y-60975000D01*
X196770000Y-60915826D01*
X196770000Y-60784174D01*
X196754144Y-60725000D01*
X197312770Y-60725000D01*
X197312770Y-60724999D01*
X197304809Y-60644169D01*
X197304808Y-60644163D01*
X197244767Y-60446237D01*
X197244765Y-60446232D01*
X197147275Y-60263839D01*
X197147268Y-60263829D01*
X197016059Y-60103949D01*
X197016050Y-60103940D01*
X196856170Y-59972731D01*
X196856160Y-59972724D01*
X196673767Y-59875234D01*
X196673762Y-59875232D01*
X196475836Y-59815191D01*
X196475830Y-59815190D01*
X196395000Y-59807229D01*
X196395000Y-60365855D01*
X196335826Y-60350000D01*
X196204174Y-60350000D01*
X196145000Y-60365855D01*
X196145000Y-59807229D01*
X196144999Y-59807229D01*
X196064169Y-59815190D01*
X196064163Y-59815191D01*
X195866237Y-59875232D01*
X195866232Y-59875234D01*
X195683839Y-59972724D01*
X195683829Y-59972731D01*
X195562305Y-60072463D01*
X195505328Y-60094763D01*
X195446125Y-60079314D01*
X195407310Y-60032017D01*
X195400500Y-59995935D01*
X195400500Y-59459000D01*
X195419407Y-59400809D01*
X195468907Y-59364845D01*
X195499500Y-59360000D01*
X196144999Y-59360000D01*
X196145000Y-59359999D01*
X196145000Y-58794144D01*
X196204174Y-58810000D01*
X196335826Y-58810000D01*
X196395000Y-58794144D01*
X196395000Y-59359999D01*
X196395001Y-59360000D01*
X197139697Y-59360000D01*
X197139700Y-59359999D01*
X197198036Y-59348396D01*
X197264189Y-59304193D01*
X197264193Y-59304189D01*
X197308396Y-59238036D01*
X197319999Y-59179700D01*
X197320000Y-59179697D01*
X197320000Y-58435001D01*
X197319999Y-58435000D01*
X196754144Y-58435000D01*
X196770000Y-58375826D01*
X196770000Y-58244174D01*
X196754144Y-58185000D01*
X197319999Y-58185000D01*
X197320000Y-58184999D01*
X197320000Y-57440302D01*
X197319999Y-57440299D01*
X197308396Y-57381963D01*
X197264193Y-57315810D01*
X197264189Y-57315806D01*
X197198036Y-57271603D01*
X197139700Y-57260000D01*
X196395001Y-57260000D01*
X196395000Y-57260001D01*
X196395000Y-57825855D01*
X196335826Y-57810000D01*
X196204174Y-57810000D01*
X196145000Y-57825855D01*
X196145000Y-57260001D01*
X196144999Y-57260000D01*
X195499500Y-57260000D01*
X195441309Y-57241093D01*
X195405345Y-57191593D01*
X195400500Y-57161000D01*
X195400500Y-52033997D01*
X197338867Y-52033997D01*
X197338867Y-52034002D01*
X197357302Y-52162225D01*
X197411117Y-52280061D01*
X197411118Y-52280063D01*
X197495951Y-52377967D01*
X197495952Y-52377968D01*
X197604926Y-52448001D01*
X197604931Y-52448004D01*
X197729228Y-52484500D01*
X197729230Y-52484500D01*
X197858770Y-52484500D01*
X197858772Y-52484500D01*
X197983069Y-52448004D01*
X198092049Y-52377967D01*
X198176882Y-52280063D01*
X198230697Y-52162226D01*
X198239508Y-52100947D01*
X198249133Y-52034002D01*
X198249133Y-52033997D01*
X198230697Y-51905774D01*
X198176882Y-51787937D01*
X198092049Y-51690033D01*
X198092048Y-51690032D01*
X198092047Y-51690031D01*
X197983073Y-51619998D01*
X197983070Y-51619996D01*
X197983069Y-51619996D01*
X197955452Y-51611887D01*
X197858774Y-51583500D01*
X197858772Y-51583500D01*
X197729228Y-51583500D01*
X197729225Y-51583500D01*
X197604933Y-51619995D01*
X197604926Y-51619998D01*
X197495952Y-51690031D01*
X197411117Y-51787938D01*
X197357302Y-51905774D01*
X197338867Y-52033997D01*
X195400500Y-52033997D01*
X195400500Y-50693240D01*
X195400712Y-50686765D01*
X195403390Y-50645901D01*
X195418379Y-50417208D01*
X195420069Y-50404377D01*
X195429039Y-50359282D01*
X195472139Y-50142603D01*
X195475484Y-50130122D01*
X195561278Y-49877379D01*
X195566223Y-49865443D01*
X195684279Y-49626048D01*
X195690731Y-49614873D01*
X195839025Y-49392935D01*
X195839647Y-49392125D01*
X197612500Y-49392125D01*
X197612500Y-50200674D01*
X197615353Y-50231094D01*
X197615355Y-50231103D01*
X197660207Y-50359283D01*
X197740845Y-50468544D01*
X197740847Y-50468546D01*
X197740850Y-50468550D01*
X197740853Y-50468552D01*
X197740855Y-50468554D01*
X197850116Y-50549192D01*
X197850117Y-50549192D01*
X197850118Y-50549193D01*
X197978301Y-50594046D01*
X198008725Y-50596899D01*
X198008727Y-50596900D01*
X198008734Y-50596900D01*
X199417273Y-50596900D01*
X199417273Y-50596899D01*
X199447699Y-50594046D01*
X199575882Y-50549193D01*
X199685150Y-50468550D01*
X199765793Y-50359282D01*
X199810646Y-50231099D01*
X199813499Y-50200673D01*
X199813500Y-50200673D01*
X199813500Y-49392127D01*
X199813499Y-49392125D01*
X199813368Y-49390725D01*
X199810646Y-49361701D01*
X199765793Y-49233518D01*
X199764758Y-49232116D01*
X199685154Y-49124255D01*
X199685152Y-49124253D01*
X199685150Y-49124250D01*
X199685146Y-49124247D01*
X199685144Y-49124245D01*
X199575883Y-49043607D01*
X199447703Y-48998755D01*
X199447694Y-48998753D01*
X199417274Y-48995900D01*
X199417266Y-48995900D01*
X198008734Y-48995900D01*
X198008725Y-48995900D01*
X197978305Y-48998753D01*
X197978296Y-48998755D01*
X197850116Y-49043607D01*
X197740855Y-49124245D01*
X197740845Y-49124255D01*
X197660207Y-49233516D01*
X197615355Y-49361696D01*
X197615353Y-49361705D01*
X197612500Y-49392125D01*
X195839647Y-49392125D01*
X195846890Y-49382687D01*
X196022875Y-49182013D01*
X196032013Y-49172875D01*
X196232687Y-48996890D01*
X196242935Y-48989025D01*
X196464873Y-48840731D01*
X196476048Y-48834279D01*
X196715443Y-48716223D01*
X196727379Y-48711278D01*
X196980122Y-48625484D01*
X196992603Y-48622139D01*
X197254384Y-48570068D01*
X197267208Y-48568379D01*
X197536766Y-48550712D01*
X197543241Y-48550500D01*
X197597583Y-48550500D01*
X217802417Y-48550500D01*
X217856759Y-48550500D01*
X217863234Y-48550712D01*
G37*
G04 #@! TD.AperFunction*
G04 #@! TA.AperFunction,Conductor*
G36*
X195562303Y-76868181D02*
G01*
X195611587Y-76908627D01*
X195683547Y-76967683D01*
X195683548Y-76967683D01*
X195683550Y-76967685D01*
X195866046Y-77065232D01*
X196003997Y-77107078D01*
X196064065Y-77125300D01*
X196064070Y-77125301D01*
X196269997Y-77145583D01*
X196270000Y-77145583D01*
X196270003Y-77145583D01*
X196475929Y-77125301D01*
X196475934Y-77125300D01*
X196673954Y-77065232D01*
X196856450Y-76967685D01*
X196962696Y-76880491D01*
X197019672Y-76858192D01*
X197078875Y-76873640D01*
X197117690Y-76920937D01*
X197124500Y-76957020D01*
X197124500Y-77762979D01*
X197105593Y-77821170D01*
X197056093Y-77857134D01*
X196994907Y-77857134D01*
X196962695Y-77839507D01*
X196856452Y-77752317D01*
X196856452Y-77752316D01*
X196673954Y-77654768D01*
X196475934Y-77594699D01*
X196475929Y-77594698D01*
X196270003Y-77574417D01*
X196269997Y-77574417D01*
X196064070Y-77594698D01*
X196064065Y-77594699D01*
X195866045Y-77654768D01*
X195683547Y-77752316D01*
X195683547Y-77752317D01*
X195562305Y-77851817D01*
X195505328Y-77874117D01*
X195446125Y-77858668D01*
X195407310Y-77811371D01*
X195400500Y-77775289D01*
X195400500Y-76944710D01*
X195419407Y-76886519D01*
X195468907Y-76850555D01*
X195530093Y-76850555D01*
X195562303Y-76868181D01*
G37*
G04 #@! TD.AperFunction*
G04 #@! TA.AperFunction,Conductor*
G36*
X213454320Y-65820613D02*
G01*
X213462486Y-65830038D01*
X213471321Y-65840234D01*
X213495137Y-65896593D01*
X213495500Y-65905063D01*
X213495500Y-66096562D01*
X213506049Y-66135929D01*
X213515979Y-66172989D01*
X213515980Y-66172991D01*
X213524931Y-66188495D01*
X213524938Y-66188505D01*
X213524941Y-66188511D01*
X213555540Y-66241511D01*
X214663505Y-67349476D01*
X214691281Y-67403991D01*
X214692500Y-67419478D01*
X214692500Y-73880678D01*
X214673593Y-73938869D01*
X214624093Y-73974833D01*
X214562907Y-73974833D01*
X214523496Y-73950682D01*
X214498314Y-73925500D01*
X214498314Y-73925499D01*
X214058314Y-73485500D01*
X214058309Y-73485496D01*
X213944189Y-73419609D01*
X213944191Y-73419609D01*
X213894799Y-73406375D01*
X213816892Y-73385500D01*
X213816890Y-73385500D01*
X213703500Y-73385500D01*
X213645309Y-73366593D01*
X213609345Y-73317093D01*
X213604500Y-73286500D01*
X213604500Y-72666253D01*
X213604498Y-72666241D01*
X213598651Y-72636846D01*
X213592867Y-72607769D01*
X213590014Y-72603500D01*
X213548554Y-72541451D01*
X213548552Y-72541448D01*
X213528495Y-72528046D01*
X213482233Y-72497134D01*
X213482231Y-72497133D01*
X213482228Y-72497132D01*
X213482227Y-72497132D01*
X213423758Y-72485501D01*
X213423748Y-72485500D01*
X212644252Y-72485500D01*
X212644251Y-72485500D01*
X212644241Y-72485501D01*
X212585772Y-72497132D01*
X212585766Y-72497134D01*
X212519451Y-72541445D01*
X212519444Y-72541452D01*
X212481013Y-72598967D01*
X212432963Y-72636846D01*
X212371825Y-72639247D01*
X212320951Y-72605253D01*
X212316384Y-72598966D01*
X212278193Y-72541810D01*
X212278189Y-72541806D01*
X212212036Y-72497603D01*
X212153700Y-72486000D01*
X211889001Y-72486000D01*
X211889000Y-72486001D01*
X211889000Y-75285999D01*
X211889001Y-75286000D01*
X212153697Y-75286000D01*
X212153700Y-75285999D01*
X212212036Y-75274396D01*
X212278189Y-75230193D01*
X212278192Y-75230190D01*
X212316383Y-75173034D01*
X212364433Y-75135154D01*
X212425571Y-75132752D01*
X212476445Y-75166744D01*
X212481014Y-75173033D01*
X212519206Y-75230190D01*
X212519448Y-75230552D01*
X212585769Y-75274867D01*
X212630231Y-75283711D01*
X212644241Y-75286498D01*
X212644246Y-75286498D01*
X212644252Y-75286500D01*
X212644253Y-75286500D01*
X213423747Y-75286500D01*
X213423748Y-75286500D01*
X213482231Y-75274867D01*
X213536498Y-75238605D01*
X213595386Y-75221997D01*
X213652789Y-75243174D01*
X213686783Y-75294047D01*
X213690500Y-75320921D01*
X213690500Y-76351078D01*
X213671593Y-76409269D01*
X213622093Y-76445233D01*
X213560907Y-76445233D01*
X213536499Y-76433393D01*
X213482236Y-76397135D01*
X213482231Y-76397133D01*
X213482228Y-76397132D01*
X213482227Y-76397132D01*
X213423758Y-76385501D01*
X213423748Y-76385500D01*
X212644252Y-76385500D01*
X212644251Y-76385500D01*
X212644241Y-76385501D01*
X212585772Y-76397132D01*
X212585766Y-76397134D01*
X212519451Y-76441445D01*
X212519445Y-76441451D01*
X212481315Y-76498517D01*
X212433265Y-76536396D01*
X212372127Y-76538798D01*
X212321253Y-76504805D01*
X212316685Y-76498517D01*
X212278554Y-76441451D01*
X212278552Y-76441448D01*
X212278548Y-76441445D01*
X212212233Y-76397134D01*
X212212231Y-76397133D01*
X212212228Y-76397132D01*
X212212227Y-76397132D01*
X212153758Y-76385501D01*
X212153748Y-76385500D01*
X211374252Y-76385500D01*
X211374251Y-76385500D01*
X211374241Y-76385501D01*
X211315772Y-76397132D01*
X211315766Y-76397134D01*
X211249451Y-76441445D01*
X211249445Y-76441451D01*
X211211315Y-76498517D01*
X211163265Y-76536396D01*
X211102127Y-76538798D01*
X211051253Y-76504805D01*
X211046685Y-76498517D01*
X211008554Y-76441451D01*
X211008552Y-76441448D01*
X211008548Y-76441445D01*
X210942233Y-76397134D01*
X210942231Y-76397133D01*
X210942228Y-76397132D01*
X210942227Y-76397132D01*
X210883758Y-76385501D01*
X210883748Y-76385500D01*
X210104252Y-76385500D01*
X210104251Y-76385500D01*
X210104241Y-76385501D01*
X210045772Y-76397132D01*
X210045766Y-76397134D01*
X209979451Y-76441445D01*
X209979445Y-76441451D01*
X209959815Y-76470830D01*
X209911764Y-76508709D01*
X209850626Y-76511111D01*
X209799753Y-76477117D01*
X209778576Y-76419714D01*
X209778500Y-76415828D01*
X209778500Y-75256171D01*
X209797407Y-75197980D01*
X209846907Y-75162016D01*
X209908093Y-75162016D01*
X209957593Y-75197980D01*
X209959797Y-75201143D01*
X209979448Y-75230552D01*
X210045769Y-75274867D01*
X210090231Y-75283711D01*
X210104241Y-75286498D01*
X210104246Y-75286498D01*
X210104252Y-75286500D01*
X210104253Y-75286500D01*
X210883747Y-75286500D01*
X210883748Y-75286500D01*
X210942231Y-75274867D01*
X211008552Y-75230552D01*
X211046986Y-75173032D01*
X211095035Y-75135154D01*
X211156173Y-75132752D01*
X211207046Y-75166745D01*
X211211615Y-75173033D01*
X211249805Y-75230188D01*
X211249810Y-75230193D01*
X211315963Y-75274396D01*
X211374299Y-75285999D01*
X211374303Y-75286000D01*
X211638999Y-75286000D01*
X211639000Y-75285999D01*
X211639000Y-72486001D01*
X211638999Y-72486000D01*
X211374299Y-72486000D01*
X211315963Y-72497603D01*
X211249810Y-72541806D01*
X211249807Y-72541809D01*
X211211615Y-72598967D01*
X211163564Y-72636845D01*
X211102426Y-72639247D01*
X211051553Y-72605253D01*
X211046985Y-72598966D01*
X211008554Y-72541451D01*
X211008552Y-72541448D01*
X210988495Y-72528046D01*
X210942233Y-72497134D01*
X210942231Y-72497133D01*
X210942228Y-72497132D01*
X210942227Y-72497132D01*
X210883758Y-72485501D01*
X210883748Y-72485500D01*
X210281058Y-72485500D01*
X210222867Y-72466593D01*
X210186903Y-72417093D01*
X210186903Y-72355907D01*
X210211054Y-72316496D01*
X211575051Y-70952499D01*
X213220460Y-69307091D01*
X213260021Y-69238569D01*
X213280500Y-69162142D01*
X213280500Y-69018688D01*
X213299407Y-68960497D01*
X213348907Y-68924533D01*
X213385147Y-68921421D01*
X213385147Y-68920500D01*
X213521770Y-68920500D01*
X213521772Y-68920500D01*
X213646069Y-68884004D01*
X213755049Y-68813967D01*
X213839882Y-68716063D01*
X213893697Y-68598226D01*
X213912133Y-68470000D01*
X213912132Y-68469996D01*
X213893697Y-68341774D01*
X213858210Y-68264070D01*
X213839882Y-68223937D01*
X213755049Y-68126033D01*
X213755048Y-68126032D01*
X213755047Y-68126031D01*
X213646073Y-68055998D01*
X213646070Y-68055996D01*
X213646069Y-68055996D01*
X213646066Y-68055995D01*
X213521774Y-68019500D01*
X213521772Y-68019500D01*
X213392228Y-68019500D01*
X213385148Y-68019500D01*
X213385148Y-68017846D01*
X213333284Y-68008861D01*
X213290650Y-67964976D01*
X213280500Y-67921311D01*
X213280500Y-65885443D01*
X213299407Y-65827252D01*
X213348907Y-65791288D01*
X213410093Y-65791288D01*
X213454320Y-65820613D01*
G37*
G04 #@! TD.AperFunction*
G04 #@! TA.AperFunction,Conductor*
G36*
X211825339Y-50701407D02*
G01*
X211861303Y-50750907D01*
X211861303Y-50812093D01*
X211856089Y-50824980D01*
X211846912Y-50843751D01*
X211837000Y-50911784D01*
X211837000Y-50969999D01*
X211837001Y-50970000D01*
X212713000Y-50970000D01*
X212771191Y-50988907D01*
X212807155Y-51038407D01*
X212812000Y-51069000D01*
X212812000Y-51121000D01*
X212793093Y-51179191D01*
X212743593Y-51215155D01*
X212713000Y-51220000D01*
X211837002Y-51220000D01*
X211837001Y-51220001D01*
X211837001Y-51278216D01*
X211846912Y-51346250D01*
X211898620Y-51452019D01*
X211907191Y-51512602D01*
X211878516Y-51566651D01*
X211823547Y-51593524D01*
X211809679Y-51594500D01*
X211329892Y-51594500D01*
X211198107Y-51594500D01*
X211133218Y-51611887D01*
X211070809Y-51628609D01*
X210956690Y-51694496D01*
X210956684Y-51694500D01*
X210956685Y-51694501D01*
X210084282Y-52566904D01*
X210029765Y-52594681D01*
X210014278Y-52595900D01*
X203590876Y-52595900D01*
X203532685Y-52576993D01*
X203496721Y-52527493D01*
X203496721Y-52466307D01*
X203501940Y-52453410D01*
X203502429Y-52452410D01*
X203544977Y-52408441D01*
X203591365Y-52396900D01*
X209508163Y-52396900D01*
X209508163Y-52396899D01*
X209584589Y-52376421D01*
X209653111Y-52336860D01*
X209709060Y-52280911D01*
X211278475Y-50711496D01*
X211332992Y-50683719D01*
X211348479Y-50682500D01*
X211767148Y-50682500D01*
X211825339Y-50701407D01*
G37*
G04 #@! TD.AperFunction*
M02*
