G04 #@! TF.GenerationSoftware,KiCad,Pcbnew,8.99.0-1829-g5db4d10c86*
G04 #@! TF.CreationDate,2024-08-04T21:37:52+02:00*
G04 #@! TF.ProjectId,fiit-esp32-kit-pcb,66696974-2d65-4737-9033-322d6b69742d,0.1*
G04 #@! TF.SameCoordinates,Original*
G04 #@! TF.FileFunction,Copper,L3,Inr*
G04 #@! TF.FilePolarity,Positive*
%FSLAX46Y46*%
G04 Gerber Fmt 4.6, Leading zero omitted, Abs format (unit mm)*
G04 Created by KiCad (PCBNEW 8.99.0-1829-g5db4d10c86) date 2024-08-04 21:37:52*
%MOMM*%
%LPD*%
G01*
G04 APERTURE LIST*
G04 #@! TA.AperFunction,HeatsinkPad*
%ADD10C,0.600000*%
G04 #@! TD*
G04 #@! TA.AperFunction,ComponentPad*
%ADD11O,1.000000X2.100000*%
G04 #@! TD*
G04 #@! TA.AperFunction,ComponentPad*
%ADD12O,1.000000X1.800000*%
G04 #@! TD*
G04 #@! TA.AperFunction,ComponentPad*
%ADD13R,1.700000X1.700000*%
G04 #@! TD*
G04 #@! TA.AperFunction,ComponentPad*
%ADD14O,1.700000X1.700000*%
G04 #@! TD*
G04 #@! TA.AperFunction,ViaPad*
%ADD15C,0.500000*%
G04 #@! TD*
G04 #@! TA.AperFunction,Conductor*
%ADD16C,0.200000*%
G04 #@! TD*
G04 APERTURE END LIST*
D10*
X204800000Y-56514000D03*
X204800000Y-57914000D03*
X205500000Y-55814000D03*
X205500000Y-57214000D03*
X205500000Y-58614000D03*
X206200000Y-56514000D03*
X206200000Y-57914000D03*
X206900000Y-55814000D03*
X206900000Y-57214000D03*
X206900000Y-58614000D03*
X207600000Y-56514000D03*
X207600000Y-57914000D03*
D11*
X196395000Y-117415000D03*
D12*
X196395000Y-121615000D03*
D11*
X205035000Y-117415000D03*
D12*
X205035000Y-121615000D03*
D11*
X210365000Y-117415000D03*
D12*
X210365000Y-121615000D03*
D11*
X219005000Y-117415000D03*
D12*
X219005000Y-121615000D03*
D13*
X219130000Y-58310000D03*
D14*
X219130000Y-60850000D03*
X219130000Y-63390000D03*
X219130000Y-65930000D03*
X219130000Y-68470000D03*
X219130000Y-71010000D03*
X219130000Y-73550000D03*
X219130000Y-76090000D03*
X219130000Y-78630000D03*
X219130000Y-81170000D03*
X219130000Y-83710000D03*
X219130000Y-86250000D03*
X219130000Y-88790000D03*
X219130000Y-91330000D03*
X219130000Y-93870000D03*
X219130000Y-96410000D03*
X219130000Y-98950000D03*
X219130000Y-101490000D03*
X219130000Y-104030000D03*
X219130000Y-106570000D03*
X219130000Y-109110000D03*
X219130000Y-111650000D03*
D13*
X196270000Y-58310000D03*
D14*
X196270000Y-60850000D03*
X196270000Y-63390000D03*
X196270000Y-65930000D03*
X196270000Y-68470000D03*
X196270000Y-71010000D03*
X196270000Y-73550000D03*
X196270000Y-76090000D03*
X196270000Y-78630000D03*
X196270000Y-81170000D03*
X196270000Y-83710000D03*
X196270000Y-86250000D03*
X196270000Y-88790000D03*
X196270000Y-91330000D03*
X196270000Y-93870000D03*
X196270000Y-96410000D03*
X196270000Y-98950000D03*
X196270000Y-101490000D03*
X196270000Y-104030000D03*
X196270000Y-106570000D03*
X196270000Y-109110000D03*
X196270000Y-111650000D03*
D15*
X219130000Y-51325000D03*
X219130000Y-55135000D03*
X201350000Y-60215000D03*
X196778000Y-92600000D03*
X206303000Y-85615000D03*
X214304000Y-68851000D03*
X209732000Y-115206000D03*
X199826000Y-94251000D03*
X218622000Y-82440000D03*
X218622000Y-72280000D03*
X218622000Y-74820000D03*
X218622000Y-77360000D03*
X218622000Y-79900000D03*
X211510000Y-64025000D03*
X218495000Y-67200000D03*
X210875000Y-53941200D03*
X215116800Y-53941200D03*
X199445000Y-101871000D03*
X199191000Y-107713000D03*
X203255000Y-85615000D03*
X196778000Y-79900000D03*
X196778000Y-77360000D03*
X202747000Y-91203000D03*
X211129000Y-90187000D03*
X207700000Y-121175000D03*
X198175000Y-119905000D03*
X203255000Y-119905000D03*
X200715000Y-119905000D03*
X212145000Y-119905000D03*
X217225000Y-119905000D03*
X214685000Y-119905000D03*
X204271000Y-103268000D03*
X213161000Y-99331000D03*
X211510000Y-95013000D03*
X213288000Y-93997000D03*
X198302000Y-102760000D03*
X204271000Y-100347000D03*
X206430000Y-98061000D03*
X207700000Y-102379000D03*
X209351000Y-106951000D03*
X209351000Y-105300000D03*
X209351000Y-104030000D03*
X202620000Y-110761000D03*
X208589000Y-110888000D03*
X217352000Y-110126000D03*
X217352000Y-107713000D03*
X217352000Y-105300000D03*
X217352000Y-102760000D03*
X217352000Y-90060000D03*
X217352000Y-92473000D03*
X217352000Y-95013000D03*
X217352000Y-100220000D03*
X217352000Y-97807000D03*
X206430000Y-95140000D03*
X206430000Y-92854000D03*
X212780000Y-90187000D03*
X211510000Y-85615000D03*
X211510000Y-82821000D03*
X212780000Y-86885000D03*
X216717000Y-82821000D03*
X216717000Y-81170000D03*
X211510000Y-72468000D03*
X202112000Y-80535000D03*
X201858000Y-71772000D03*
X213923000Y-72153000D03*
X207700000Y-64025000D03*
X204525000Y-64025000D03*
X201350000Y-64025000D03*
X195762000Y-51960000D03*
X207065000Y-49420000D03*
X210240000Y-49420000D03*
X203255000Y-55770000D03*
X214050000Y-60850000D03*
X214050000Y-58945000D03*
X214050000Y-57040000D03*
X210875000Y-58945000D03*
X210875000Y-55135000D03*
X210875000Y-57040000D03*
X208970000Y-57040000D03*
X205795000Y-53865000D03*
X207700000Y-60215000D03*
X204525000Y-60215000D03*
X214191000Y-92473000D03*
X198683000Y-86123000D03*
X198683000Y-93616000D03*
X205160000Y-103649000D03*
X214191000Y-88155000D03*
X200842000Y-51579000D03*
X203382000Y-108983000D03*
X213034000Y-105427000D03*
X205160000Y-81883500D03*
X211510000Y-51095000D03*
X202493000Y-92854000D03*
X211891000Y-109758000D03*
X200588000Y-106697000D03*
X200461000Y-49494000D03*
X196905000Y-56659000D03*
X215941000Y-88790000D03*
X202112000Y-113428000D03*
X203255000Y-69918000D03*
X203890000Y-54096400D03*
X216336000Y-113174000D03*
X207096000Y-76141000D03*
X203255000Y-106697000D03*
X207700000Y-117415000D03*
X211510000Y-76141000D03*
X208081000Y-114649000D03*
X211383000Y-105427000D03*
X206430000Y-91254000D03*
X208589000Y-108983000D03*
X205668000Y-109872000D03*
X216082000Y-95775000D03*
X210240000Y-97807000D03*
X211510000Y-69918000D03*
X198937000Y-97680000D03*
X212526000Y-111904000D03*
X214939000Y-49494000D03*
X199699000Y-88790000D03*
X216082000Y-99077000D03*
X213669000Y-109758000D03*
X199191000Y-109872000D03*
X213034000Y-92854000D03*
X197794000Y-52034000D03*
X205414000Y-80535000D03*
X209986000Y-109262400D03*
X207319000Y-112793000D03*
X201985000Y-95775000D03*
X200148997Y-112478000D03*
X202493000Y-108602000D03*
X202493000Y-109237000D03*
X200776000Y-112478000D03*
X204017000Y-112793000D03*
X211383000Y-112793000D03*
X213796000Y-65527000D03*
X214558000Y-113047000D03*
X215320000Y-113047000D03*
X214558000Y-66004000D03*
X215320000Y-60924000D03*
X200988000Y-82821000D03*
X200080000Y-55844000D03*
X213514000Y-84599000D03*
X215320000Y-50764000D03*
X202493000Y-89552000D03*
X200080000Y-63464000D03*
X200715000Y-68470000D03*
X202874000Y-88155000D03*
X203128000Y-80535000D03*
X201746000Y-99966000D03*
X214558000Y-65168000D03*
X204652000Y-80535000D03*
X198321790Y-104772210D03*
X205160000Y-49420000D03*
X200080000Y-54574000D03*
X200188000Y-82821000D03*
X205160000Y-50182000D03*
X198302000Y-105427000D03*
X203890000Y-80535000D03*
X200080000Y-53304000D03*
X199388000Y-82821000D03*
X204525000Y-68470000D03*
X200080000Y-57114000D03*
X201788000Y-82821000D03*
X216590000Y-84599000D03*
X215320000Y-52034000D03*
X203255000Y-68470000D03*
X205795000Y-68470000D03*
X201985000Y-68470000D03*
X212145000Y-68470000D03*
X212787997Y-84599000D03*
X203890000Y-72153000D03*
X215320000Y-58384000D03*
X204525000Y-70502000D03*
X215320000Y-55844000D03*
X213457000Y-63517000D03*
X213457000Y-68470000D03*
X215828000Y-84599000D03*
X215320000Y-62194000D03*
X211002000Y-60924000D03*
X215320000Y-63464000D03*
X201604000Y-52096400D03*
X202493000Y-93616000D03*
X210113000Y-93362000D03*
X211002000Y-62194000D03*
X204525000Y-72141000D03*
X215320000Y-59654000D03*
X207065000Y-68470000D03*
X209097000Y-68470000D03*
X208335000Y-68470000D03*
X200588000Y-93616000D03*
X211129000Y-93362000D03*
X201604000Y-51096400D03*
X211383000Y-68470000D03*
X203262997Y-72153000D03*
X215320000Y-57114000D03*
X215320000Y-64734000D03*
X211256000Y-95760000D03*
X201223000Y-95775000D03*
D16*
X205414000Y-80535000D02*
X205414000Y-79646000D01*
X205414000Y-79646000D02*
X199318000Y-73550000D01*
X199318000Y-73550000D02*
X196270000Y-73550000D01*
X196397000Y-88790000D02*
X197032000Y-88155000D01*
X197032000Y-88155000D02*
X202874000Y-88155000D01*
X196270000Y-88790000D02*
X196397000Y-88790000D01*
X202493000Y-81170000D02*
X196270000Y-81170000D01*
X203128000Y-80535000D02*
X202493000Y-81170000D01*
X204652000Y-80535000D02*
X204652000Y-79646000D01*
X204652000Y-79646000D02*
X201096000Y-76090000D01*
X201096000Y-76090000D02*
X196270000Y-76090000D01*
X203890000Y-79646000D02*
X202874000Y-78630000D01*
X203890000Y-80535000D02*
X203890000Y-79646000D01*
X202874000Y-78630000D02*
X196270000Y-78630000D01*
X219130000Y-65930000D02*
X215306580Y-65930000D01*
X202462000Y-67993000D02*
X201985000Y-68470000D01*
X213243580Y-67993000D02*
X202462000Y-67993000D01*
X215306580Y-65930000D02*
X213243580Y-67993000D01*
X203890000Y-72153000D02*
X203890000Y-72101420D01*
X204327420Y-71664000D02*
X214704000Y-71664000D01*
X203890000Y-72101420D02*
X204327420Y-71664000D01*
X214704000Y-71664000D02*
X219130000Y-76090000D01*
X204525000Y-70502000D02*
X205033000Y-71010000D01*
X205033000Y-71010000D02*
X219130000Y-71010000D01*
X212491000Y-71991000D02*
X219130000Y-78630000D01*
X204525000Y-72141000D02*
X204675000Y-71991000D01*
X204675000Y-71991000D02*
X212491000Y-71991000D01*
X203649420Y-71337000D02*
X216917000Y-71337000D01*
X203262997Y-72153000D02*
X203262997Y-71723423D01*
X203262997Y-71723423D02*
X203649420Y-71337000D01*
X216917000Y-71337000D02*
X219130000Y-73550000D01*
G04 #@! TA.AperFunction,Conductor*
G36*
X217863234Y-48550712D02*
G01*
X218132789Y-48568379D01*
X218145617Y-48570068D01*
X218407392Y-48622138D01*
X218419881Y-48625485D01*
X218672614Y-48711276D01*
X218684562Y-48716225D01*
X218923944Y-48834275D01*
X218935132Y-48840735D01*
X219157056Y-48989020D01*
X219167319Y-48996896D01*
X219257558Y-49076033D01*
X219367976Y-49172866D01*
X219377133Y-49182023D01*
X219553102Y-49382678D01*
X219560981Y-49392945D01*
X219709261Y-49614862D01*
X219715726Y-49626060D01*
X219820260Y-49838033D01*
X219833770Y-49865429D01*
X219838726Y-49877394D01*
X219924511Y-50130109D01*
X219927863Y-50142617D01*
X219979930Y-50404377D01*
X219981620Y-50417216D01*
X219999288Y-50686765D01*
X219999500Y-50693240D01*
X219999500Y-57161000D01*
X219980593Y-57219191D01*
X219931093Y-57255155D01*
X219900500Y-57260000D01*
X219255001Y-57260000D01*
X219255000Y-57260001D01*
X219255000Y-57825855D01*
X219195826Y-57810000D01*
X219064174Y-57810000D01*
X219005000Y-57825855D01*
X219005000Y-57260001D01*
X219004999Y-57260000D01*
X218260299Y-57260000D01*
X218201963Y-57271603D01*
X218135810Y-57315806D01*
X218135806Y-57315810D01*
X218091603Y-57381963D01*
X218080000Y-57440299D01*
X218080000Y-58184999D01*
X218080001Y-58185000D01*
X218645856Y-58185000D01*
X218630000Y-58244174D01*
X218630000Y-58375826D01*
X218645856Y-58435000D01*
X218080001Y-58435000D01*
X218080000Y-58435001D01*
X218080000Y-59179700D01*
X218091603Y-59238036D01*
X218135806Y-59304189D01*
X218135810Y-59304193D01*
X218201963Y-59348396D01*
X218260299Y-59359999D01*
X218260303Y-59360000D01*
X219004999Y-59360000D01*
X219005000Y-59359999D01*
X219005000Y-58794144D01*
X219064174Y-58810000D01*
X219195826Y-58810000D01*
X219255000Y-58794144D01*
X219255000Y-59359999D01*
X219255001Y-59360000D01*
X219900500Y-59360000D01*
X219958691Y-59378907D01*
X219994655Y-59428407D01*
X219999500Y-59459000D01*
X219999500Y-59995289D01*
X219980593Y-60053480D01*
X219931093Y-60089444D01*
X219869907Y-60089444D01*
X219837695Y-60071817D01*
X219744444Y-59995289D01*
X219716452Y-59972316D01*
X219533954Y-59874768D01*
X219335934Y-59814699D01*
X219335929Y-59814698D01*
X219130003Y-59794417D01*
X219129997Y-59794417D01*
X218924070Y-59814698D01*
X218924065Y-59814699D01*
X218726045Y-59874768D01*
X218543547Y-59972316D01*
X218383595Y-60103585D01*
X218383585Y-60103595D01*
X218252316Y-60263547D01*
X218154768Y-60446045D01*
X218094699Y-60644065D01*
X218094698Y-60644070D01*
X218074417Y-60849996D01*
X218074417Y-60850003D01*
X218094698Y-61055929D01*
X218094699Y-61055934D01*
X218154768Y-61253954D01*
X218252316Y-61436452D01*
X218383302Y-61596059D01*
X218383590Y-61596410D01*
X218383595Y-61596414D01*
X218543547Y-61727683D01*
X218543548Y-61727683D01*
X218543550Y-61727685D01*
X218726046Y-61825232D01*
X218863997Y-61867078D01*
X218924065Y-61885300D01*
X218924070Y-61885301D01*
X219129997Y-61905583D01*
X219130000Y-61905583D01*
X219130003Y-61905583D01*
X219335929Y-61885301D01*
X219335934Y-61885300D01*
X219337556Y-61884808D01*
X219533954Y-61825232D01*
X219716450Y-61727685D01*
X219837695Y-61628181D01*
X219894672Y-61605882D01*
X219953875Y-61621330D01*
X219992690Y-61668627D01*
X219999500Y-61704710D01*
X219999500Y-62535289D01*
X219980593Y-62593480D01*
X219931093Y-62629444D01*
X219869907Y-62629444D01*
X219837695Y-62611817D01*
X219716452Y-62512317D01*
X219716452Y-62512316D01*
X219533954Y-62414768D01*
X219335934Y-62354699D01*
X219335929Y-62354698D01*
X219130003Y-62334417D01*
X219129997Y-62334417D01*
X218924070Y-62354698D01*
X218924065Y-62354699D01*
X218726045Y-62414768D01*
X218543547Y-62512316D01*
X218383595Y-62643585D01*
X218383585Y-62643595D01*
X218252316Y-62803547D01*
X218154768Y-62986045D01*
X218094699Y-63184065D01*
X218094698Y-63184070D01*
X218074417Y-63389996D01*
X218074417Y-63390003D01*
X218094698Y-63595929D01*
X218094699Y-63595934D01*
X218154768Y-63793954D01*
X218252316Y-63976452D01*
X218383585Y-64136404D01*
X218383590Y-64136410D01*
X218383595Y-64136414D01*
X218543547Y-64267683D01*
X218543548Y-64267683D01*
X218543550Y-64267685D01*
X218726046Y-64365232D01*
X218863997Y-64407078D01*
X218924065Y-64425300D01*
X218924070Y-64425301D01*
X219129997Y-64445583D01*
X219130000Y-64445583D01*
X219130003Y-64445583D01*
X219335929Y-64425301D01*
X219335934Y-64425300D01*
X219533954Y-64365232D01*
X219716450Y-64267685D01*
X219837695Y-64168181D01*
X219894672Y-64145882D01*
X219953875Y-64161330D01*
X219992690Y-64208627D01*
X219999500Y-64244710D01*
X219999500Y-65075289D01*
X219980593Y-65133480D01*
X219931093Y-65169444D01*
X219869907Y-65169444D01*
X219837695Y-65151817D01*
X219716452Y-65052317D01*
X219716452Y-65052316D01*
X219533954Y-64954768D01*
X219335934Y-64894699D01*
X219335929Y-64894698D01*
X219130003Y-64874417D01*
X219129997Y-64874417D01*
X218924070Y-64894698D01*
X218924065Y-64894699D01*
X218726045Y-64954768D01*
X218543547Y-65052316D01*
X218383595Y-65183585D01*
X218383585Y-65183595D01*
X218252316Y-65343547D01*
X218154768Y-65526045D01*
X218154767Y-65526047D01*
X218144700Y-65559237D01*
X218109716Y-65609434D01*
X218051908Y-65629481D01*
X218049963Y-65629500D01*
X215346142Y-65629500D01*
X215267018Y-65629500D01*
X215220241Y-65642033D01*
X215190587Y-65649979D01*
X215122073Y-65689536D01*
X215122068Y-65689540D01*
X215068432Y-65743176D01*
X215013915Y-65770953D01*
X214953483Y-65761381D01*
X214923609Y-65738003D01*
X214856049Y-65660033D01*
X214856048Y-65660032D01*
X214851412Y-65654682D01*
X214852624Y-65653631D01*
X214825362Y-65608431D01*
X214830593Y-65547469D01*
X214852079Y-65517896D01*
X214851412Y-65517318D01*
X214856049Y-65511967D01*
X214940882Y-65414063D01*
X214994697Y-65296226D01*
X215004403Y-65228713D01*
X215031398Y-65173808D01*
X215085512Y-65145254D01*
X215130286Y-65147814D01*
X215130929Y-65148002D01*
X215130931Y-65148004D01*
X215255228Y-65184500D01*
X215255230Y-65184500D01*
X215384770Y-65184500D01*
X215384772Y-65184500D01*
X215509069Y-65148004D01*
X215618049Y-65077967D01*
X215702882Y-64980063D01*
X215756697Y-64862226D01*
X215775133Y-64734000D01*
X215756697Y-64605774D01*
X215702882Y-64487937D01*
X215618049Y-64390033D01*
X215618048Y-64390032D01*
X215618047Y-64390031D01*
X215509073Y-64319998D01*
X215509070Y-64319996D01*
X215509069Y-64319996D01*
X215509066Y-64319995D01*
X215384774Y-64283500D01*
X215384772Y-64283500D01*
X215255228Y-64283500D01*
X215255225Y-64283500D01*
X215130933Y-64319995D01*
X215130926Y-64319998D01*
X215021952Y-64390031D01*
X214937117Y-64487938D01*
X214883302Y-64605774D01*
X214873595Y-64673285D01*
X214846598Y-64728193D01*
X214792484Y-64756745D01*
X214747712Y-64754185D01*
X214747069Y-64753996D01*
X214715643Y-64744768D01*
X214622774Y-64717500D01*
X214622772Y-64717500D01*
X214493228Y-64717500D01*
X214493225Y-64717500D01*
X214368933Y-64753995D01*
X214368926Y-64753998D01*
X214259952Y-64824031D01*
X214175117Y-64921938D01*
X214121301Y-65039775D01*
X214119307Y-65046569D01*
X214116973Y-65045883D01*
X214094853Y-65090873D01*
X214040738Y-65119425D01*
X213992395Y-65113178D01*
X213991863Y-65114991D01*
X213985065Y-65112995D01*
X213965138Y-65107144D01*
X213860774Y-65076500D01*
X213860772Y-65076500D01*
X213731228Y-65076500D01*
X213731225Y-65076500D01*
X213606933Y-65112995D01*
X213606926Y-65112998D01*
X213497952Y-65183031D01*
X213413117Y-65280938D01*
X213359302Y-65398774D01*
X213340867Y-65526997D01*
X213340867Y-65527002D01*
X213359302Y-65655225D01*
X213390743Y-65724070D01*
X213413118Y-65773063D01*
X213497951Y-65870967D01*
X213497952Y-65870968D01*
X213589802Y-65929996D01*
X213606931Y-65941004D01*
X213731228Y-65977500D01*
X213731230Y-65977500D01*
X213860770Y-65977500D01*
X213860772Y-65977500D01*
X213979783Y-65942556D01*
X214040941Y-65944303D01*
X214089394Y-65981666D01*
X214105664Y-66023457D01*
X214121302Y-66132225D01*
X214122994Y-66135929D01*
X214175118Y-66250063D01*
X214183292Y-66259496D01*
X214259951Y-66347967D01*
X214280601Y-66361238D01*
X214319332Y-66408605D01*
X214322824Y-66469691D01*
X214297081Y-66514526D01*
X213148105Y-67663504D01*
X213093588Y-67691281D01*
X213078101Y-67692500D01*
X202422435Y-67692500D01*
X202346011Y-67712978D01*
X202346007Y-67712980D01*
X202277489Y-67752539D01*
X202039524Y-67990504D01*
X201985008Y-68018281D01*
X201969521Y-68019500D01*
X201920225Y-68019500D01*
X201795933Y-68055995D01*
X201795926Y-68055998D01*
X201686952Y-68126031D01*
X201602117Y-68223938D01*
X201548302Y-68341774D01*
X201529867Y-68469997D01*
X201529867Y-68470002D01*
X201548302Y-68598225D01*
X201583789Y-68675929D01*
X201602118Y-68716063D01*
X201678821Y-68804584D01*
X201686952Y-68813968D01*
X201795926Y-68884001D01*
X201795931Y-68884004D01*
X201920228Y-68920500D01*
X201920230Y-68920500D01*
X202049770Y-68920500D01*
X202049772Y-68920500D01*
X202174069Y-68884004D01*
X202283049Y-68813967D01*
X202367882Y-68716063D01*
X202421697Y-68598226D01*
X202440133Y-68470000D01*
X202440133Y-68469997D01*
X202440508Y-68467388D01*
X202467503Y-68412480D01*
X202468410Y-68411559D01*
X202557475Y-68322496D01*
X202611992Y-68294719D01*
X202627478Y-68293500D01*
X202710991Y-68293500D01*
X202769182Y-68312407D01*
X202805146Y-68361907D01*
X202808983Y-68406588D01*
X202799867Y-68469995D01*
X202799867Y-68470002D01*
X202818302Y-68598225D01*
X202853789Y-68675929D01*
X202872118Y-68716063D01*
X202948821Y-68804584D01*
X202956952Y-68813968D01*
X203065926Y-68884001D01*
X203065931Y-68884004D01*
X203190228Y-68920500D01*
X203190230Y-68920500D01*
X203319770Y-68920500D01*
X203319772Y-68920500D01*
X203444069Y-68884004D01*
X203553049Y-68813967D01*
X203637882Y-68716063D01*
X203691697Y-68598226D01*
X203710133Y-68470000D01*
X203710133Y-68469997D01*
X203710133Y-68469995D01*
X203701017Y-68406588D01*
X203711451Y-68346299D01*
X203755329Y-68303657D01*
X203799009Y-68293500D01*
X203980991Y-68293500D01*
X204039182Y-68312407D01*
X204075146Y-68361907D01*
X204078983Y-68406588D01*
X204069867Y-68469995D01*
X204069867Y-68470002D01*
X204088302Y-68598225D01*
X204123789Y-68675929D01*
X204142118Y-68716063D01*
X204218821Y-68804584D01*
X204226952Y-68813968D01*
X204335926Y-68884001D01*
X204335931Y-68884004D01*
X204460228Y-68920500D01*
X204460230Y-68920500D01*
X204589770Y-68920500D01*
X204589772Y-68920500D01*
X204714069Y-68884004D01*
X204823049Y-68813967D01*
X204907882Y-68716063D01*
X204961697Y-68598226D01*
X204980133Y-68470000D01*
X204980133Y-68469997D01*
X204980133Y-68469995D01*
X204971017Y-68406588D01*
X204981451Y-68346299D01*
X205025329Y-68303657D01*
X205069009Y-68293500D01*
X205250991Y-68293500D01*
X205309182Y-68312407D01*
X205345146Y-68361907D01*
X205348983Y-68406588D01*
X205339867Y-68469995D01*
X205339867Y-68470002D01*
X205358302Y-68598225D01*
X205393789Y-68675929D01*
X205412118Y-68716063D01*
X205488821Y-68804584D01*
X205496952Y-68813968D01*
X205605926Y-68884001D01*
X205605931Y-68884004D01*
X205730228Y-68920500D01*
X205730230Y-68920500D01*
X205859770Y-68920500D01*
X205859772Y-68920500D01*
X205984069Y-68884004D01*
X206093049Y-68813967D01*
X206177882Y-68716063D01*
X206231697Y-68598226D01*
X206250133Y-68470000D01*
X206250133Y-68469997D01*
X206250133Y-68469995D01*
X206241017Y-68406588D01*
X206251451Y-68346299D01*
X206295329Y-68303657D01*
X206339009Y-68293500D01*
X206520991Y-68293500D01*
X206579182Y-68312407D01*
X206615146Y-68361907D01*
X206618983Y-68406588D01*
X206609867Y-68469995D01*
X206609867Y-68470002D01*
X206628302Y-68598225D01*
X206663789Y-68675929D01*
X206682118Y-68716063D01*
X206758821Y-68804584D01*
X206766952Y-68813968D01*
X206875926Y-68884001D01*
X206875931Y-68884004D01*
X207000228Y-68920500D01*
X207000230Y-68920500D01*
X207129770Y-68920500D01*
X207129772Y-68920500D01*
X207254069Y-68884004D01*
X207363049Y-68813967D01*
X207447882Y-68716063D01*
X207501697Y-68598226D01*
X207520133Y-68470000D01*
X207520133Y-68469997D01*
X207520133Y-68469995D01*
X207511017Y-68406588D01*
X207521451Y-68346299D01*
X207565329Y-68303657D01*
X207609009Y-68293500D01*
X207790991Y-68293500D01*
X207849182Y-68312407D01*
X207885146Y-68361907D01*
X207888983Y-68406588D01*
X207879867Y-68469995D01*
X207879867Y-68470002D01*
X207898302Y-68598225D01*
X207933789Y-68675929D01*
X207952118Y-68716063D01*
X208028821Y-68804584D01*
X208036952Y-68813968D01*
X208145926Y-68884001D01*
X208145931Y-68884004D01*
X208270228Y-68920500D01*
X208270230Y-68920500D01*
X208399770Y-68920500D01*
X208399772Y-68920500D01*
X208524069Y-68884004D01*
X208633049Y-68813967D01*
X208641179Y-68804583D01*
X208693574Y-68772987D01*
X208754535Y-68778221D01*
X208790820Y-68804583D01*
X208798951Y-68813967D01*
X208907931Y-68884004D01*
X209032228Y-68920500D01*
X209032230Y-68920500D01*
X209161770Y-68920500D01*
X209161772Y-68920500D01*
X209286069Y-68884004D01*
X209395049Y-68813967D01*
X209479882Y-68716063D01*
X209533697Y-68598226D01*
X209552133Y-68470000D01*
X209552133Y-68469997D01*
X209552133Y-68469995D01*
X209543017Y-68406588D01*
X209553451Y-68346299D01*
X209597329Y-68303657D01*
X209641009Y-68293500D01*
X210838991Y-68293500D01*
X210897182Y-68312407D01*
X210933146Y-68361907D01*
X210936983Y-68406588D01*
X210927867Y-68469995D01*
X210927867Y-68470002D01*
X210946302Y-68598225D01*
X210981789Y-68675929D01*
X211000118Y-68716063D01*
X211076821Y-68804584D01*
X211084952Y-68813968D01*
X211193926Y-68884001D01*
X211193931Y-68884004D01*
X211318228Y-68920500D01*
X211318230Y-68920500D01*
X211447770Y-68920500D01*
X211447772Y-68920500D01*
X211572069Y-68884004D01*
X211681049Y-68813967D01*
X211689179Y-68804583D01*
X211741574Y-68772987D01*
X211802535Y-68778221D01*
X211838820Y-68804583D01*
X211846951Y-68813967D01*
X211955931Y-68884004D01*
X212080228Y-68920500D01*
X212080230Y-68920500D01*
X212209770Y-68920500D01*
X212209772Y-68920500D01*
X212334069Y-68884004D01*
X212443049Y-68813967D01*
X212527882Y-68716063D01*
X212581697Y-68598226D01*
X212600133Y-68470000D01*
X212600133Y-68469997D01*
X212600133Y-68469995D01*
X212591017Y-68406588D01*
X212601451Y-68346299D01*
X212645329Y-68303657D01*
X212689009Y-68293500D01*
X212912991Y-68293500D01*
X212971182Y-68312407D01*
X213007146Y-68361907D01*
X213010983Y-68406588D01*
X213001867Y-68469995D01*
X213001867Y-68470002D01*
X213020302Y-68598225D01*
X213055789Y-68675929D01*
X213074118Y-68716063D01*
X213150821Y-68804584D01*
X213158952Y-68813968D01*
X213267926Y-68884001D01*
X213267931Y-68884004D01*
X213392228Y-68920500D01*
X213392230Y-68920500D01*
X213521770Y-68920500D01*
X213521772Y-68920500D01*
X213646069Y-68884004D01*
X213755049Y-68813967D01*
X213839882Y-68716063D01*
X213893697Y-68598226D01*
X213912133Y-68470000D01*
X213912132Y-68469996D01*
X213893697Y-68341774D01*
X213858210Y-68264070D01*
X213839882Y-68223937D01*
X213755049Y-68126033D01*
X213755048Y-68126032D01*
X213755047Y-68126031D01*
X213724753Y-68106562D01*
X213686023Y-68059195D01*
X213682531Y-67998110D01*
X213708272Y-67953277D01*
X215402055Y-66259496D01*
X215456572Y-66231719D01*
X215472059Y-66230500D01*
X218049963Y-66230500D01*
X218108154Y-66249407D01*
X218144118Y-66298907D01*
X218144700Y-66300763D01*
X218154767Y-66333952D01*
X218154768Y-66333954D01*
X218252316Y-66516452D01*
X218383585Y-66676404D01*
X218383590Y-66676410D01*
X218383595Y-66676414D01*
X218543547Y-66807683D01*
X218543548Y-66807683D01*
X218543550Y-66807685D01*
X218726046Y-66905232D01*
X218863997Y-66947078D01*
X218924065Y-66965300D01*
X218924070Y-66965301D01*
X219129997Y-66985583D01*
X219130000Y-66985583D01*
X219130003Y-66985583D01*
X219335929Y-66965301D01*
X219335934Y-66965300D01*
X219533954Y-66905232D01*
X219716450Y-66807685D01*
X219837695Y-66708181D01*
X219894672Y-66685882D01*
X219953875Y-66701330D01*
X219992690Y-66748627D01*
X219999500Y-66784710D01*
X219999500Y-67615289D01*
X219980593Y-67673480D01*
X219931093Y-67709444D01*
X219869907Y-67709444D01*
X219837695Y-67691817D01*
X219716452Y-67592317D01*
X219716452Y-67592316D01*
X219533954Y-67494768D01*
X219335934Y-67434699D01*
X219335929Y-67434698D01*
X219130003Y-67414417D01*
X219129997Y-67414417D01*
X218924070Y-67434698D01*
X218924065Y-67434699D01*
X218726045Y-67494768D01*
X218543547Y-67592316D01*
X218383595Y-67723585D01*
X218383585Y-67723595D01*
X218252316Y-67883547D01*
X218154768Y-68066045D01*
X218094699Y-68264065D01*
X218094698Y-68264070D01*
X218074417Y-68469996D01*
X218074417Y-68470003D01*
X218094698Y-68675929D01*
X218094699Y-68675934D01*
X218154768Y-68873954D01*
X218252316Y-69056452D01*
X218383585Y-69216404D01*
X218383590Y-69216410D01*
X218383595Y-69216414D01*
X218543547Y-69347683D01*
X218543548Y-69347683D01*
X218543550Y-69347685D01*
X218726046Y-69445232D01*
X218863997Y-69487078D01*
X218924065Y-69505300D01*
X218924070Y-69505301D01*
X219129997Y-69525583D01*
X219130000Y-69525583D01*
X219130003Y-69525583D01*
X219335929Y-69505301D01*
X219335934Y-69505300D01*
X219533954Y-69445232D01*
X219716450Y-69347685D01*
X219837695Y-69248181D01*
X219894672Y-69225882D01*
X219953875Y-69241330D01*
X219992690Y-69288627D01*
X219999500Y-69324710D01*
X219999500Y-70155289D01*
X219980593Y-70213480D01*
X219931093Y-70249444D01*
X219869907Y-70249444D01*
X219837695Y-70231817D01*
X219716452Y-70132317D01*
X219716452Y-70132316D01*
X219533954Y-70034768D01*
X219335934Y-69974699D01*
X219335929Y-69974698D01*
X219130003Y-69954417D01*
X219129997Y-69954417D01*
X218924070Y-69974698D01*
X218924065Y-69974699D01*
X218726045Y-70034768D01*
X218543547Y-70132316D01*
X218383595Y-70263585D01*
X218383585Y-70263595D01*
X218252316Y-70423547D01*
X218154768Y-70606045D01*
X218154767Y-70606047D01*
X218144700Y-70639237D01*
X218109716Y-70689434D01*
X218051908Y-70709481D01*
X218049963Y-70709500D01*
X205198479Y-70709500D01*
X205140288Y-70690593D01*
X205128475Y-70680504D01*
X205008496Y-70560525D01*
X204980719Y-70506008D01*
X204980508Y-70504609D01*
X204980132Y-70501997D01*
X204968854Y-70423550D01*
X204961698Y-70373775D01*
X204911377Y-70263590D01*
X204907882Y-70255937D01*
X204823049Y-70158033D01*
X204823048Y-70158032D01*
X204823047Y-70158031D01*
X204714073Y-70087998D01*
X204714070Y-70087996D01*
X204714069Y-70087996D01*
X204714066Y-70087995D01*
X204589774Y-70051500D01*
X204589772Y-70051500D01*
X204460228Y-70051500D01*
X204460225Y-70051500D01*
X204335933Y-70087995D01*
X204335926Y-70087998D01*
X204226952Y-70158031D01*
X204142117Y-70255938D01*
X204088302Y-70373774D01*
X204069867Y-70501997D01*
X204069867Y-70502002D01*
X204088302Y-70630225D01*
X204142117Y-70748061D01*
X204142118Y-70748063D01*
X204226951Y-70845967D01*
X204239787Y-70854216D01*
X204278518Y-70901582D01*
X204282010Y-70962668D01*
X204248931Y-71014140D01*
X204191914Y-71036339D01*
X204186263Y-71036500D01*
X203688982Y-71036500D01*
X203609858Y-71036500D01*
X203563081Y-71049033D01*
X203533427Y-71056979D01*
X203464913Y-71096536D01*
X203464908Y-71096540D01*
X203022536Y-71538912D01*
X202982977Y-71607430D01*
X202982975Y-71607434D01*
X202962497Y-71683858D01*
X202962497Y-71774937D01*
X202943590Y-71833128D01*
X202938317Y-71839767D01*
X202880115Y-71906936D01*
X202880113Y-71906940D01*
X202826299Y-72024774D01*
X202807864Y-72152997D01*
X202807864Y-72153002D01*
X202826299Y-72281225D01*
X202844234Y-72320496D01*
X202880115Y-72399063D01*
X202964948Y-72496967D01*
X202964949Y-72496968D01*
X203073923Y-72567001D01*
X203073928Y-72567004D01*
X203198225Y-72603500D01*
X203198227Y-72603500D01*
X203327767Y-72603500D01*
X203327769Y-72603500D01*
X203452066Y-72567004D01*
X203522977Y-72521432D01*
X203582149Y-72505878D01*
X203630019Y-72521432D01*
X203700931Y-72567004D01*
X203825228Y-72603500D01*
X203825230Y-72603500D01*
X203954770Y-72603500D01*
X203954772Y-72603500D01*
X204079069Y-72567004D01*
X204160456Y-72514700D01*
X204163313Y-72512864D01*
X204222488Y-72497309D01*
X204270359Y-72512864D01*
X204283693Y-72521433D01*
X204335931Y-72555004D01*
X204460228Y-72591500D01*
X204460230Y-72591500D01*
X204589770Y-72591500D01*
X204589772Y-72591500D01*
X204714069Y-72555004D01*
X204823049Y-72484967D01*
X204907882Y-72387063D01*
X204925095Y-72349373D01*
X204966467Y-72304296D01*
X205015148Y-72291500D01*
X212325521Y-72291500D01*
X212383712Y-72310407D01*
X212395525Y-72320496D01*
X218153812Y-78078783D01*
X218181589Y-78133300D01*
X218172018Y-78193732D01*
X218171120Y-78195453D01*
X218154769Y-78226044D01*
X218154766Y-78226052D01*
X218094699Y-78424065D01*
X218094698Y-78424070D01*
X218074417Y-78629996D01*
X218074417Y-78630003D01*
X218094698Y-78835929D01*
X218094699Y-78835934D01*
X218154768Y-79033954D01*
X218252316Y-79216452D01*
X218383585Y-79376404D01*
X218383590Y-79376410D01*
X218383595Y-79376414D01*
X218543547Y-79507683D01*
X218543548Y-79507683D01*
X218543550Y-79507685D01*
X218726046Y-79605232D01*
X218863997Y-79647078D01*
X218924065Y-79665300D01*
X218924070Y-79665301D01*
X219129997Y-79685583D01*
X219130000Y-79685583D01*
X219130003Y-79685583D01*
X219335929Y-79665301D01*
X219335934Y-79665300D01*
X219533954Y-79605232D01*
X219716450Y-79507685D01*
X219837695Y-79408181D01*
X219894672Y-79385882D01*
X219953875Y-79401330D01*
X219992690Y-79448627D01*
X219999500Y-79484710D01*
X219999500Y-80315289D01*
X219980593Y-80373480D01*
X219931093Y-80409444D01*
X219869907Y-80409444D01*
X219837695Y-80391817D01*
X219716452Y-80292317D01*
X219716452Y-80292316D01*
X219533954Y-80194768D01*
X219335934Y-80134699D01*
X219335929Y-80134698D01*
X219130003Y-80114417D01*
X219129997Y-80114417D01*
X218924070Y-80134698D01*
X218924065Y-80134699D01*
X218726045Y-80194768D01*
X218543547Y-80292316D01*
X218383595Y-80423585D01*
X218383585Y-80423595D01*
X218252316Y-80583547D01*
X218154768Y-80766045D01*
X218094699Y-80964065D01*
X218094698Y-80964070D01*
X218074417Y-81169996D01*
X218074417Y-81170003D01*
X218094698Y-81375929D01*
X218094699Y-81375934D01*
X218154768Y-81573954D01*
X218252316Y-81756452D01*
X218383585Y-81916404D01*
X218383590Y-81916410D01*
X218383595Y-81916414D01*
X218543547Y-82047683D01*
X218543548Y-82047683D01*
X218543550Y-82047685D01*
X218726046Y-82145232D01*
X218863997Y-82187078D01*
X218924065Y-82205300D01*
X218924070Y-82205301D01*
X219129997Y-82225583D01*
X219130000Y-82225583D01*
X219130003Y-82225583D01*
X219335929Y-82205301D01*
X219335934Y-82205300D01*
X219533954Y-82145232D01*
X219716450Y-82047685D01*
X219837695Y-81948181D01*
X219894672Y-81925882D01*
X219953875Y-81941330D01*
X219992690Y-81988627D01*
X219999500Y-82024710D01*
X219999500Y-82855289D01*
X219980593Y-82913480D01*
X219931093Y-82949444D01*
X219869907Y-82949444D01*
X219837695Y-82931817D01*
X219716452Y-82832317D01*
X219716452Y-82832316D01*
X219533954Y-82734768D01*
X219335934Y-82674699D01*
X219335929Y-82674698D01*
X219130003Y-82654417D01*
X219129997Y-82654417D01*
X218924070Y-82674698D01*
X218924065Y-82674699D01*
X218726045Y-82734768D01*
X218543547Y-82832316D01*
X218383595Y-82963585D01*
X218383585Y-82963595D01*
X218252316Y-83123547D01*
X218154768Y-83306045D01*
X218094699Y-83504065D01*
X218094698Y-83504070D01*
X218074417Y-83709996D01*
X218074417Y-83710003D01*
X218094698Y-83915929D01*
X218094699Y-83915934D01*
X218154768Y-84113954D01*
X218252316Y-84296452D01*
X218298672Y-84352937D01*
X218383590Y-84456410D01*
X218383595Y-84456414D01*
X218543547Y-84587683D01*
X218543548Y-84587683D01*
X218543550Y-84587685D01*
X218726046Y-84685232D01*
X218863997Y-84727078D01*
X218924065Y-84745300D01*
X218924070Y-84745301D01*
X219129997Y-84765583D01*
X219130000Y-84765583D01*
X219130003Y-84765583D01*
X219335929Y-84745301D01*
X219335934Y-84745300D01*
X219533954Y-84685232D01*
X219716450Y-84587685D01*
X219837695Y-84488181D01*
X219894672Y-84465882D01*
X219953875Y-84481330D01*
X219992690Y-84528627D01*
X219999500Y-84564710D01*
X219999500Y-85395289D01*
X219980593Y-85453480D01*
X219931093Y-85489444D01*
X219869907Y-85489444D01*
X219837695Y-85471817D01*
X219716452Y-85372317D01*
X219716452Y-85372316D01*
X219533954Y-85274768D01*
X219335934Y-85214699D01*
X219335929Y-85214698D01*
X219130003Y-85194417D01*
X219129997Y-85194417D01*
X218924070Y-85214698D01*
X218924065Y-85214699D01*
X218726045Y-85274768D01*
X218543547Y-85372316D01*
X218383595Y-85503585D01*
X218383585Y-85503595D01*
X218252316Y-85663547D01*
X218154768Y-85846045D01*
X218094699Y-86044065D01*
X218094698Y-86044070D01*
X218074417Y-86249996D01*
X218074417Y-86250003D01*
X218094698Y-86455929D01*
X218094699Y-86455934D01*
X218154768Y-86653954D01*
X218252316Y-86836452D01*
X218383585Y-86996404D01*
X218383590Y-86996410D01*
X218383595Y-86996414D01*
X218543547Y-87127683D01*
X218543548Y-87127683D01*
X218543550Y-87127685D01*
X218726046Y-87225232D01*
X218863997Y-87267078D01*
X218924065Y-87285300D01*
X218924070Y-87285301D01*
X219129997Y-87305583D01*
X219130000Y-87305583D01*
X219130003Y-87305583D01*
X219335929Y-87285301D01*
X219335934Y-87285300D01*
X219533954Y-87225232D01*
X219716450Y-87127685D01*
X219837695Y-87028181D01*
X219894672Y-87005882D01*
X219953875Y-87021330D01*
X219992690Y-87068627D01*
X219999500Y-87104710D01*
X219999500Y-87935289D01*
X219980593Y-87993480D01*
X219931093Y-88029444D01*
X219869907Y-88029444D01*
X219837695Y-88011817D01*
X219716452Y-87912317D01*
X219716452Y-87912316D01*
X219533954Y-87814768D01*
X219335934Y-87754699D01*
X219335929Y-87754698D01*
X219130003Y-87734417D01*
X219129997Y-87734417D01*
X218924070Y-87754698D01*
X218924065Y-87754699D01*
X218726045Y-87814768D01*
X218543547Y-87912316D01*
X218383595Y-88043585D01*
X218383585Y-88043595D01*
X218252316Y-88203547D01*
X218154768Y-88386045D01*
X218094699Y-88584065D01*
X218094698Y-88584070D01*
X218074417Y-88789996D01*
X218074417Y-88790003D01*
X218094698Y-88995929D01*
X218094699Y-88995934D01*
X218154768Y-89193954D01*
X218252316Y-89376452D01*
X218383585Y-89536404D01*
X218383590Y-89536410D01*
X218383595Y-89536414D01*
X218543547Y-89667683D01*
X218543548Y-89667683D01*
X218543550Y-89667685D01*
X218726046Y-89765232D01*
X218834270Y-89798061D01*
X218924065Y-89825300D01*
X218924070Y-89825301D01*
X219129997Y-89845583D01*
X219130000Y-89845583D01*
X219130003Y-89845583D01*
X219335929Y-89825301D01*
X219335934Y-89825300D01*
X219533954Y-89765232D01*
X219716450Y-89667685D01*
X219837695Y-89568181D01*
X219894672Y-89545882D01*
X219953875Y-89561330D01*
X219992690Y-89608627D01*
X219999500Y-89644710D01*
X219999500Y-90475289D01*
X219980593Y-90533480D01*
X219931093Y-90569444D01*
X219869907Y-90569444D01*
X219837695Y-90551817D01*
X219716452Y-90452317D01*
X219716452Y-90452316D01*
X219533954Y-90354768D01*
X219335934Y-90294699D01*
X219335929Y-90294698D01*
X219130003Y-90274417D01*
X219129997Y-90274417D01*
X218924070Y-90294698D01*
X218924065Y-90294699D01*
X218726045Y-90354768D01*
X218543547Y-90452316D01*
X218383595Y-90583585D01*
X218383585Y-90583595D01*
X218252316Y-90743547D01*
X218154768Y-90926045D01*
X218094699Y-91124065D01*
X218094698Y-91124070D01*
X218074417Y-91329996D01*
X218074417Y-91330003D01*
X218094698Y-91535929D01*
X218094699Y-91535934D01*
X218154768Y-91733954D01*
X218252316Y-91916452D01*
X218339347Y-92022500D01*
X218383590Y-92076410D01*
X218383595Y-92076414D01*
X218543547Y-92207683D01*
X218543548Y-92207683D01*
X218543550Y-92207685D01*
X218726046Y-92305232D01*
X218856400Y-92344774D01*
X218924065Y-92365300D01*
X218924070Y-92365301D01*
X219129997Y-92385583D01*
X219130000Y-92385583D01*
X219130003Y-92385583D01*
X219335929Y-92365301D01*
X219335934Y-92365300D01*
X219533954Y-92305232D01*
X219716450Y-92207685D01*
X219837695Y-92108181D01*
X219894672Y-92085882D01*
X219953875Y-92101330D01*
X219992690Y-92148627D01*
X219999500Y-92184710D01*
X219999500Y-93015289D01*
X219980593Y-93073480D01*
X219931093Y-93109444D01*
X219869907Y-93109444D01*
X219837695Y-93091817D01*
X219716452Y-92992317D01*
X219716452Y-92992316D01*
X219533954Y-92894768D01*
X219335934Y-92834699D01*
X219335929Y-92834698D01*
X219130003Y-92814417D01*
X219129997Y-92814417D01*
X218924070Y-92834698D01*
X218924065Y-92834699D01*
X218726045Y-92894768D01*
X218543547Y-92992316D01*
X218383595Y-93123585D01*
X218383585Y-93123595D01*
X218252316Y-93283547D01*
X218154768Y-93466045D01*
X218094699Y-93664065D01*
X218094698Y-93664070D01*
X218074417Y-93869996D01*
X218074417Y-93870003D01*
X218094698Y-94075929D01*
X218094699Y-94075934D01*
X218154768Y-94273954D01*
X218252316Y-94456452D01*
X218383585Y-94616404D01*
X218383590Y-94616410D01*
X218383595Y-94616414D01*
X218543547Y-94747683D01*
X218543548Y-94747683D01*
X218543550Y-94747685D01*
X218726046Y-94845232D01*
X218863997Y-94887078D01*
X218924065Y-94905300D01*
X218924070Y-94905301D01*
X219129997Y-94925583D01*
X219130000Y-94925583D01*
X219130003Y-94925583D01*
X219335929Y-94905301D01*
X219335934Y-94905300D01*
X219533954Y-94845232D01*
X219716450Y-94747685D01*
X219837695Y-94648181D01*
X219894672Y-94625882D01*
X219953875Y-94641330D01*
X219992690Y-94688627D01*
X219999500Y-94724710D01*
X219999500Y-95555289D01*
X219980593Y-95613480D01*
X219931093Y-95649444D01*
X219869907Y-95649444D01*
X219837695Y-95631817D01*
X219716452Y-95532317D01*
X219716452Y-95532316D01*
X219533954Y-95434768D01*
X219335934Y-95374699D01*
X219335929Y-95374698D01*
X219130003Y-95354417D01*
X219129997Y-95354417D01*
X218924070Y-95374698D01*
X218924065Y-95374699D01*
X218726045Y-95434768D01*
X218543547Y-95532316D01*
X218383595Y-95663585D01*
X218383585Y-95663595D01*
X218252316Y-95823547D01*
X218154768Y-96006045D01*
X218094699Y-96204065D01*
X218094698Y-96204070D01*
X218074417Y-96409996D01*
X218074417Y-96410003D01*
X218094698Y-96615929D01*
X218094699Y-96615934D01*
X218154768Y-96813954D01*
X218252316Y-96996452D01*
X218383585Y-97156404D01*
X218383590Y-97156410D01*
X218383595Y-97156414D01*
X218543547Y-97287683D01*
X218543548Y-97287683D01*
X218543550Y-97287685D01*
X218726046Y-97385232D01*
X218863997Y-97427078D01*
X218924065Y-97445300D01*
X218924070Y-97445301D01*
X219129997Y-97465583D01*
X219130000Y-97465583D01*
X219130003Y-97465583D01*
X219335929Y-97445301D01*
X219335934Y-97445300D01*
X219533954Y-97385232D01*
X219716450Y-97287685D01*
X219837695Y-97188181D01*
X219894672Y-97165882D01*
X219953875Y-97181330D01*
X219992690Y-97228627D01*
X219999500Y-97264710D01*
X219999500Y-98095289D01*
X219980593Y-98153480D01*
X219931093Y-98189444D01*
X219869907Y-98189444D01*
X219837695Y-98171817D01*
X219716452Y-98072317D01*
X219716452Y-98072316D01*
X219533954Y-97974768D01*
X219335934Y-97914699D01*
X219335929Y-97914698D01*
X219130003Y-97894417D01*
X219129997Y-97894417D01*
X218924070Y-97914698D01*
X218924065Y-97914699D01*
X218726045Y-97974768D01*
X218543547Y-98072316D01*
X218383595Y-98203585D01*
X218383585Y-98203595D01*
X218252316Y-98363547D01*
X218154768Y-98546045D01*
X218094699Y-98744065D01*
X218094698Y-98744070D01*
X218074417Y-98949996D01*
X218074417Y-98950003D01*
X218094698Y-99155929D01*
X218094699Y-99155934D01*
X218154768Y-99353954D01*
X218252316Y-99536452D01*
X218383585Y-99696404D01*
X218383590Y-99696410D01*
X218383595Y-99696414D01*
X218543547Y-99827683D01*
X218543548Y-99827683D01*
X218543550Y-99827685D01*
X218726046Y-99925232D01*
X218860432Y-99965997D01*
X218924065Y-99985300D01*
X218924070Y-99985301D01*
X219129997Y-100005583D01*
X219130000Y-100005583D01*
X219130003Y-100005583D01*
X219335929Y-99985301D01*
X219335934Y-99985300D01*
X219533954Y-99925232D01*
X219716450Y-99827685D01*
X219837695Y-99728181D01*
X219894672Y-99705882D01*
X219953875Y-99721330D01*
X219992690Y-99768627D01*
X219999500Y-99804710D01*
X219999500Y-100635289D01*
X219980593Y-100693480D01*
X219931093Y-100729444D01*
X219869907Y-100729444D01*
X219837695Y-100711817D01*
X219716452Y-100612317D01*
X219716452Y-100612316D01*
X219533954Y-100514768D01*
X219335934Y-100454699D01*
X219335929Y-100454698D01*
X219130003Y-100434417D01*
X219129997Y-100434417D01*
X218924070Y-100454698D01*
X218924065Y-100454699D01*
X218726045Y-100514768D01*
X218543547Y-100612316D01*
X218383595Y-100743585D01*
X218383585Y-100743595D01*
X218252316Y-100903547D01*
X218154768Y-101086045D01*
X218094699Y-101284065D01*
X218094698Y-101284070D01*
X218074417Y-101489996D01*
X218074417Y-101490003D01*
X218094698Y-101695929D01*
X218094699Y-101695934D01*
X218154768Y-101893954D01*
X218252316Y-102076452D01*
X218383585Y-102236404D01*
X218383590Y-102236410D01*
X218383595Y-102236414D01*
X218543547Y-102367683D01*
X218543548Y-102367683D01*
X218543550Y-102367685D01*
X218726046Y-102465232D01*
X218863997Y-102507078D01*
X218924065Y-102525300D01*
X218924070Y-102525301D01*
X219129997Y-102545583D01*
X219130000Y-102545583D01*
X219130003Y-102545583D01*
X219335929Y-102525301D01*
X219335934Y-102525300D01*
X219533954Y-102465232D01*
X219716450Y-102367685D01*
X219837695Y-102268181D01*
X219894672Y-102245882D01*
X219953875Y-102261330D01*
X219992690Y-102308627D01*
X219999500Y-102344710D01*
X219999500Y-103175289D01*
X219980593Y-103233480D01*
X219931093Y-103269444D01*
X219869907Y-103269444D01*
X219837695Y-103251817D01*
X219716452Y-103152317D01*
X219716452Y-103152316D01*
X219533954Y-103054768D01*
X219335934Y-102994699D01*
X219335929Y-102994698D01*
X219130003Y-102974417D01*
X219129997Y-102974417D01*
X218924070Y-102994698D01*
X218924065Y-102994699D01*
X218726045Y-103054768D01*
X218543547Y-103152316D01*
X218383595Y-103283585D01*
X218383585Y-103283595D01*
X218252316Y-103443547D01*
X218154768Y-103626045D01*
X218094699Y-103824065D01*
X218094698Y-103824070D01*
X218074417Y-104029996D01*
X218074417Y-104030003D01*
X218094698Y-104235929D01*
X218094699Y-104235934D01*
X218154768Y-104433954D01*
X218252316Y-104616452D01*
X218274911Y-104643984D01*
X218383590Y-104776410D01*
X218383595Y-104776414D01*
X218543547Y-104907683D01*
X218543548Y-104907683D01*
X218543550Y-104907685D01*
X218726046Y-105005232D01*
X218861075Y-105046192D01*
X218924065Y-105065300D01*
X218924070Y-105065301D01*
X219129997Y-105085583D01*
X219130000Y-105085583D01*
X219130003Y-105085583D01*
X219335929Y-105065301D01*
X219335934Y-105065300D01*
X219533954Y-105005232D01*
X219716450Y-104907685D01*
X219837695Y-104808181D01*
X219894672Y-104785882D01*
X219953875Y-104801330D01*
X219992690Y-104848627D01*
X219999500Y-104884710D01*
X219999500Y-105715289D01*
X219980593Y-105773480D01*
X219931093Y-105809444D01*
X219869907Y-105809444D01*
X219837695Y-105791817D01*
X219716452Y-105692317D01*
X219716452Y-105692316D01*
X219533954Y-105594768D01*
X219335934Y-105534699D01*
X219335929Y-105534698D01*
X219130003Y-105514417D01*
X219129997Y-105514417D01*
X218924070Y-105534698D01*
X218924065Y-105534699D01*
X218726045Y-105594768D01*
X218543547Y-105692316D01*
X218383595Y-105823585D01*
X218383585Y-105823595D01*
X218252316Y-105983547D01*
X218154768Y-106166045D01*
X218094699Y-106364065D01*
X218094698Y-106364070D01*
X218074417Y-106569996D01*
X218074417Y-106570003D01*
X218094698Y-106775929D01*
X218094699Y-106775934D01*
X218154768Y-106973954D01*
X218252316Y-107156452D01*
X218383585Y-107316404D01*
X218383590Y-107316410D01*
X218383595Y-107316414D01*
X218543547Y-107447683D01*
X218543548Y-107447683D01*
X218543550Y-107447685D01*
X218726046Y-107545232D01*
X218863997Y-107587078D01*
X218924065Y-107605300D01*
X218924070Y-107605301D01*
X219129997Y-107625583D01*
X219130000Y-107625583D01*
X219130003Y-107625583D01*
X219335929Y-107605301D01*
X219335934Y-107605300D01*
X219533954Y-107545232D01*
X219716450Y-107447685D01*
X219837695Y-107348181D01*
X219894672Y-107325882D01*
X219953875Y-107341330D01*
X219992690Y-107388627D01*
X219999500Y-107424710D01*
X219999500Y-108255289D01*
X219980593Y-108313480D01*
X219931093Y-108349444D01*
X219869907Y-108349444D01*
X219837695Y-108331817D01*
X219716452Y-108232317D01*
X219716452Y-108232316D01*
X219533954Y-108134768D01*
X219335934Y-108074699D01*
X219335929Y-108074698D01*
X219130003Y-108054417D01*
X219129997Y-108054417D01*
X218924070Y-108074698D01*
X218924065Y-108074699D01*
X218726045Y-108134768D01*
X218543547Y-108232316D01*
X218383595Y-108363585D01*
X218383585Y-108363595D01*
X218252316Y-108523547D01*
X218154768Y-108706045D01*
X218094699Y-108904065D01*
X218094698Y-108904070D01*
X218074417Y-109109996D01*
X218074417Y-109110003D01*
X218094698Y-109315929D01*
X218094699Y-109315934D01*
X218154768Y-109513954D01*
X218252316Y-109696452D01*
X218265814Y-109712899D01*
X218383590Y-109856410D01*
X218383595Y-109856414D01*
X218543547Y-109987683D01*
X218543548Y-109987683D01*
X218543550Y-109987685D01*
X218726046Y-110085232D01*
X218863997Y-110127078D01*
X218924065Y-110145300D01*
X218924070Y-110145301D01*
X219129997Y-110165583D01*
X219130000Y-110165583D01*
X219130003Y-110165583D01*
X219335929Y-110145301D01*
X219335934Y-110145300D01*
X219533954Y-110085232D01*
X219716450Y-109987685D01*
X219837695Y-109888181D01*
X219894672Y-109865882D01*
X219953875Y-109881330D01*
X219992690Y-109928627D01*
X219999500Y-109964710D01*
X219999500Y-110795935D01*
X219980593Y-110854126D01*
X219931093Y-110890090D01*
X219869907Y-110890090D01*
X219837695Y-110872463D01*
X219716170Y-110772731D01*
X219716160Y-110772724D01*
X219533767Y-110675234D01*
X219533762Y-110675232D01*
X219335836Y-110615191D01*
X219335830Y-110615190D01*
X219255000Y-110607229D01*
X219255000Y-111165855D01*
X219195826Y-111150000D01*
X219064174Y-111150000D01*
X219005000Y-111165855D01*
X219005000Y-110607229D01*
X219004999Y-110607229D01*
X218924169Y-110615190D01*
X218924163Y-110615191D01*
X218726237Y-110675232D01*
X218726232Y-110675234D01*
X218543839Y-110772724D01*
X218543829Y-110772731D01*
X218383949Y-110903940D01*
X218383940Y-110903949D01*
X218252731Y-111063829D01*
X218252724Y-111063839D01*
X218155234Y-111246232D01*
X218155232Y-111246237D01*
X218095191Y-111444163D01*
X218095190Y-111444169D01*
X218087229Y-111524999D01*
X218087230Y-111525000D01*
X218645856Y-111525000D01*
X218630000Y-111584174D01*
X218630000Y-111715826D01*
X218645856Y-111775000D01*
X218087229Y-111775000D01*
X218095190Y-111855830D01*
X218095191Y-111855836D01*
X218155232Y-112053762D01*
X218155234Y-112053767D01*
X218252724Y-112236160D01*
X218252731Y-112236170D01*
X218383940Y-112396050D01*
X218383949Y-112396059D01*
X218543829Y-112527268D01*
X218543839Y-112527275D01*
X218726232Y-112624765D01*
X218726237Y-112624767D01*
X218924166Y-112684808D01*
X219004998Y-112692769D01*
X219005000Y-112692768D01*
X219005000Y-112134144D01*
X219064174Y-112150000D01*
X219195826Y-112150000D01*
X219255000Y-112134144D01*
X219255000Y-112692768D01*
X219255001Y-112692769D01*
X219335833Y-112684808D01*
X219533762Y-112624767D01*
X219533767Y-112624765D01*
X219716160Y-112527275D01*
X219716170Y-112527268D01*
X219837695Y-112427536D01*
X219894672Y-112405236D01*
X219953875Y-112420685D01*
X219992690Y-112467981D01*
X219999500Y-112504064D01*
X219999500Y-122650500D01*
X219980593Y-122708691D01*
X219931093Y-122744655D01*
X219900500Y-122749500D01*
X219492070Y-122749500D01*
X219433879Y-122730593D01*
X219397915Y-122681093D01*
X219397915Y-122619907D01*
X219433879Y-122570407D01*
X219437069Y-122568184D01*
X219451220Y-122558728D01*
X219548728Y-122461220D01*
X219625333Y-122346571D01*
X219678098Y-122219183D01*
X219704999Y-122083944D01*
X219705000Y-122083942D01*
X219705000Y-121740001D01*
X219704999Y-121740000D01*
X219305000Y-121740000D01*
X219305000Y-121490000D01*
X219704999Y-121490000D01*
X219705000Y-121489999D01*
X219705000Y-121146057D01*
X219704999Y-121146055D01*
X219678098Y-121010816D01*
X219625333Y-120883428D01*
X219548728Y-120768779D01*
X219451220Y-120671271D01*
X219336571Y-120594666D01*
X219209182Y-120541901D01*
X219130000Y-120526150D01*
X219130000Y-120940757D01*
X219120796Y-120935444D01*
X219044496Y-120915000D01*
X218965504Y-120915000D01*
X218889204Y-120935444D01*
X218880000Y-120940757D01*
X218880000Y-120526150D01*
X218800817Y-120541901D01*
X218673428Y-120594666D01*
X218558779Y-120671271D01*
X218461271Y-120768779D01*
X218384666Y-120883428D01*
X218331901Y-121010816D01*
X218305000Y-121146055D01*
X218305000Y-121489999D01*
X218305001Y-121490000D01*
X218705000Y-121490000D01*
X218705000Y-121740000D01*
X218305001Y-121740000D01*
X218305000Y-121740001D01*
X218305000Y-122083944D01*
X218331901Y-122219183D01*
X218384666Y-122346571D01*
X218461271Y-122461220D01*
X218558779Y-122558728D01*
X218572931Y-122568184D01*
X218610811Y-122616234D01*
X218613213Y-122677372D01*
X218579221Y-122728246D01*
X218521817Y-122749424D01*
X218517930Y-122749500D01*
X210852070Y-122749500D01*
X210793879Y-122730593D01*
X210757915Y-122681093D01*
X210757915Y-122619907D01*
X210793879Y-122570407D01*
X210797069Y-122568184D01*
X210811220Y-122558728D01*
X210908728Y-122461220D01*
X210985333Y-122346571D01*
X211038098Y-122219183D01*
X211064999Y-122083944D01*
X211065000Y-122083942D01*
X211065000Y-121740001D01*
X211064999Y-121740000D01*
X210665000Y-121740000D01*
X210665000Y-121490000D01*
X211064999Y-121490000D01*
X211065000Y-121489999D01*
X211065000Y-121146057D01*
X211064999Y-121146055D01*
X211038098Y-121010816D01*
X210985333Y-120883428D01*
X210908728Y-120768779D01*
X210811220Y-120671271D01*
X210696571Y-120594666D01*
X210569182Y-120541901D01*
X210490000Y-120526150D01*
X210490000Y-120940757D01*
X210480796Y-120935444D01*
X210404496Y-120915000D01*
X210325504Y-120915000D01*
X210249204Y-120935444D01*
X210240000Y-120940757D01*
X210240000Y-120526150D01*
X210160817Y-120541901D01*
X210033428Y-120594666D01*
X209918779Y-120671271D01*
X209821271Y-120768779D01*
X209744666Y-120883428D01*
X209691901Y-121010816D01*
X209665000Y-121146055D01*
X209665000Y-121489999D01*
X209665001Y-121490000D01*
X210065000Y-121490000D01*
X210065000Y-121740000D01*
X209665001Y-121740000D01*
X209665000Y-121740001D01*
X209665000Y-122083944D01*
X209691901Y-122219183D01*
X209744666Y-122346571D01*
X209821271Y-122461220D01*
X209918779Y-122558728D01*
X209932931Y-122568184D01*
X209970811Y-122616234D01*
X209973213Y-122677372D01*
X209939221Y-122728246D01*
X209881817Y-122749424D01*
X209877930Y-122749500D01*
X205522070Y-122749500D01*
X205463879Y-122730593D01*
X205427915Y-122681093D01*
X205427915Y-122619907D01*
X205463879Y-122570407D01*
X205467069Y-122568184D01*
X205481220Y-122558728D01*
X205578728Y-122461220D01*
X205655333Y-122346571D01*
X205708098Y-122219183D01*
X205734999Y-122083944D01*
X205735000Y-122083942D01*
X205735000Y-121740001D01*
X205734999Y-121740000D01*
X205335000Y-121740000D01*
X205335000Y-121490000D01*
X205734999Y-121490000D01*
X205735000Y-121489999D01*
X205735000Y-121146057D01*
X205734999Y-121146055D01*
X205708098Y-121010816D01*
X205655333Y-120883428D01*
X205578728Y-120768779D01*
X205481220Y-120671271D01*
X205366571Y-120594666D01*
X205239182Y-120541901D01*
X205160000Y-120526150D01*
X205160000Y-120940757D01*
X205150796Y-120935444D01*
X205074496Y-120915000D01*
X204995504Y-120915000D01*
X204919204Y-120935444D01*
X204910000Y-120940757D01*
X204910000Y-120526150D01*
X204830817Y-120541901D01*
X204703428Y-120594666D01*
X204588779Y-120671271D01*
X204491271Y-120768779D01*
X204414666Y-120883428D01*
X204361901Y-121010816D01*
X204335000Y-121146055D01*
X204335000Y-121489999D01*
X204335001Y-121490000D01*
X204735000Y-121490000D01*
X204735000Y-121740000D01*
X204335001Y-121740000D01*
X204335000Y-121740001D01*
X204335000Y-122083944D01*
X204361901Y-122219183D01*
X204414666Y-122346571D01*
X204491271Y-122461220D01*
X204588779Y-122558728D01*
X204602931Y-122568184D01*
X204640811Y-122616234D01*
X204643213Y-122677372D01*
X204609221Y-122728246D01*
X204551817Y-122749424D01*
X204547930Y-122749500D01*
X196882070Y-122749500D01*
X196823879Y-122730593D01*
X196787915Y-122681093D01*
X196787915Y-122619907D01*
X196823879Y-122570407D01*
X196827069Y-122568184D01*
X196841220Y-122558728D01*
X196938728Y-122461220D01*
X197015333Y-122346571D01*
X197068098Y-122219183D01*
X197094999Y-122083944D01*
X197095000Y-122083942D01*
X197095000Y-121740001D01*
X197094999Y-121740000D01*
X196695000Y-121740000D01*
X196695000Y-121490000D01*
X197094999Y-121490000D01*
X197095000Y-121489999D01*
X197095000Y-121146057D01*
X197094999Y-121146055D01*
X197068098Y-121010816D01*
X197015333Y-120883428D01*
X196938728Y-120768779D01*
X196841220Y-120671271D01*
X196726571Y-120594666D01*
X196599182Y-120541901D01*
X196520000Y-120526150D01*
X196520000Y-120940757D01*
X196510796Y-120935444D01*
X196434496Y-120915000D01*
X196355504Y-120915000D01*
X196279204Y-120935444D01*
X196270000Y-120940757D01*
X196270000Y-120526150D01*
X196190817Y-120541901D01*
X196063428Y-120594666D01*
X195948779Y-120671271D01*
X195851271Y-120768779D01*
X195774666Y-120883428D01*
X195721901Y-121010816D01*
X195695000Y-121146055D01*
X195695000Y-121489999D01*
X195695001Y-121490000D01*
X196095000Y-121490000D01*
X196095000Y-121740000D01*
X195695001Y-121740000D01*
X195695000Y-121740001D01*
X195695000Y-122083944D01*
X195721901Y-122219183D01*
X195774666Y-122346571D01*
X195851271Y-122461220D01*
X195948779Y-122558728D01*
X195962931Y-122568184D01*
X196000811Y-122616234D01*
X196003213Y-122677372D01*
X195969221Y-122728246D01*
X195911817Y-122749424D01*
X195907930Y-122749500D01*
X195499500Y-122749500D01*
X195441309Y-122730593D01*
X195405345Y-122681093D01*
X195400500Y-122650500D01*
X195400500Y-116796055D01*
X195695000Y-116796055D01*
X195695000Y-117289999D01*
X195695001Y-117290000D01*
X196095000Y-117290000D01*
X196095000Y-117540000D01*
X195695001Y-117540000D01*
X195695000Y-117540001D01*
X195695000Y-118033944D01*
X195721901Y-118169183D01*
X195774666Y-118296571D01*
X195851271Y-118411220D01*
X195948779Y-118508728D01*
X196063428Y-118585333D01*
X196190816Y-118638098D01*
X196190819Y-118638099D01*
X196269999Y-118653848D01*
X196270000Y-118653848D01*
X196270000Y-118239242D01*
X196279204Y-118244556D01*
X196355504Y-118265000D01*
X196434496Y-118265000D01*
X196510796Y-118244556D01*
X196520000Y-118239242D01*
X196520000Y-118653848D01*
X196599180Y-118638099D01*
X196599183Y-118638098D01*
X196726571Y-118585333D01*
X196841220Y-118508728D01*
X196938728Y-118411220D01*
X197015333Y-118296571D01*
X197068098Y-118169183D01*
X197068098Y-118169181D01*
X197078875Y-118115007D01*
X197108772Y-118061623D01*
X197164337Y-118036007D01*
X197224347Y-118047944D01*
X197265879Y-118092874D01*
X197271599Y-118108697D01*
X197284991Y-118158677D01*
X197284993Y-118158681D01*
X197361281Y-118290816D01*
X197361283Y-118290818D01*
X197361285Y-118290821D01*
X197469179Y-118398715D01*
X197469181Y-118398716D01*
X197469183Y-118398718D01*
X197601318Y-118475006D01*
X197601319Y-118475006D01*
X197601322Y-118475008D01*
X197748707Y-118514500D01*
X197748708Y-118514500D01*
X197901292Y-118514500D01*
X197901293Y-118514500D01*
X198048678Y-118475008D01*
X198048680Y-118475006D01*
X198048682Y-118475006D01*
X198180816Y-118398718D01*
X198180816Y-118398717D01*
X198180821Y-118398715D01*
X198288715Y-118290821D01*
X198315426Y-118244556D01*
X198365006Y-118158682D01*
X198365006Y-118158680D01*
X198365008Y-118158678D01*
X198404500Y-118011293D01*
X198404500Y-117858707D01*
X203025500Y-117858707D01*
X203025500Y-118011293D01*
X203047360Y-118092874D01*
X203064993Y-118158682D01*
X203141281Y-118290816D01*
X203141283Y-118290818D01*
X203141285Y-118290821D01*
X203249179Y-118398715D01*
X203249181Y-118398716D01*
X203249183Y-118398718D01*
X203381318Y-118475006D01*
X203381319Y-118475006D01*
X203381322Y-118475008D01*
X203528707Y-118514500D01*
X203528708Y-118514500D01*
X203681292Y-118514500D01*
X203681293Y-118514500D01*
X203828678Y-118475008D01*
X203828680Y-118475006D01*
X203828682Y-118475006D01*
X203960816Y-118398718D01*
X203960816Y-118398717D01*
X203960821Y-118398715D01*
X204068715Y-118290821D01*
X204145008Y-118158678D01*
X204158400Y-118108696D01*
X204191723Y-118057384D01*
X204248844Y-118035457D01*
X204307944Y-118051292D01*
X204346450Y-118098842D01*
X204351123Y-118115005D01*
X204361899Y-118169175D01*
X204361901Y-118169183D01*
X204414666Y-118296571D01*
X204491271Y-118411220D01*
X204588779Y-118508728D01*
X204703428Y-118585333D01*
X204830816Y-118638098D01*
X204830819Y-118638099D01*
X204909999Y-118653848D01*
X204910000Y-118653848D01*
X204910000Y-118239242D01*
X204919204Y-118244556D01*
X204995504Y-118265000D01*
X205074496Y-118265000D01*
X205150796Y-118244556D01*
X205160000Y-118239242D01*
X205160000Y-118653848D01*
X205239180Y-118638099D01*
X205239183Y-118638098D01*
X205366571Y-118585333D01*
X205481220Y-118508728D01*
X205578728Y-118411220D01*
X205655333Y-118296571D01*
X205708098Y-118169183D01*
X205734999Y-118033944D01*
X205735000Y-118033942D01*
X205735000Y-117540001D01*
X205734999Y-117540000D01*
X205335000Y-117540000D01*
X205335000Y-117290000D01*
X205734999Y-117290000D01*
X205735000Y-117289999D01*
X205735000Y-116796057D01*
X205734999Y-116796055D01*
X209665000Y-116796055D01*
X209665000Y-117289999D01*
X209665001Y-117290000D01*
X210065000Y-117290000D01*
X210065000Y-117540000D01*
X209665001Y-117540000D01*
X209665000Y-117540001D01*
X209665000Y-118033944D01*
X209691901Y-118169183D01*
X209744666Y-118296571D01*
X209821271Y-118411220D01*
X209918779Y-118508728D01*
X210033428Y-118585333D01*
X210160816Y-118638098D01*
X210160819Y-118638099D01*
X210239999Y-118653848D01*
X210240000Y-118653848D01*
X210240000Y-118239242D01*
X210249204Y-118244556D01*
X210325504Y-118265000D01*
X210404496Y-118265000D01*
X210480796Y-118244556D01*
X210490000Y-118239242D01*
X210490000Y-118653848D01*
X210569180Y-118638099D01*
X210569183Y-118638098D01*
X210696571Y-118585333D01*
X210811220Y-118508728D01*
X210908728Y-118411220D01*
X210985333Y-118296571D01*
X211038098Y-118169183D01*
X211038098Y-118169181D01*
X211048875Y-118115007D01*
X211078772Y-118061623D01*
X211134337Y-118036007D01*
X211194347Y-118047944D01*
X211235879Y-118092874D01*
X211241599Y-118108697D01*
X211254991Y-118158677D01*
X211254993Y-118158681D01*
X211331281Y-118290816D01*
X211331283Y-118290818D01*
X211331285Y-118290821D01*
X211439179Y-118398715D01*
X211439181Y-118398716D01*
X211439183Y-118398718D01*
X211571318Y-118475006D01*
X211571319Y-118475006D01*
X211571322Y-118475008D01*
X211718707Y-118514500D01*
X211718708Y-118514500D01*
X211871292Y-118514500D01*
X211871293Y-118514500D01*
X212018678Y-118475008D01*
X212018680Y-118475006D01*
X212018682Y-118475006D01*
X212150816Y-118398718D01*
X212150816Y-118398717D01*
X212150821Y-118398715D01*
X212258715Y-118290821D01*
X212285426Y-118244556D01*
X212335006Y-118158682D01*
X212335006Y-118158680D01*
X212335008Y-118158678D01*
X212374500Y-118011293D01*
X212374500Y-117858707D01*
X216995500Y-117858707D01*
X216995500Y-118011293D01*
X217017360Y-118092874D01*
X217034993Y-118158682D01*
X217111281Y-118290816D01*
X217111283Y-118290818D01*
X217111285Y-118290821D01*
X217219179Y-118398715D01*
X217219181Y-118398716D01*
X217219183Y-118398718D01*
X217351318Y-118475006D01*
X217351319Y-118475006D01*
X217351322Y-118475008D01*
X217498707Y-118514500D01*
X217498708Y-118514500D01*
X217651292Y-118514500D01*
X217651293Y-118514500D01*
X217798678Y-118475008D01*
X217798680Y-118475006D01*
X217798682Y-118475006D01*
X217930816Y-118398718D01*
X217930816Y-118398717D01*
X217930821Y-118398715D01*
X218038715Y-118290821D01*
X218115008Y-118158678D01*
X218128400Y-118108696D01*
X218161723Y-118057384D01*
X218218844Y-118035457D01*
X218277944Y-118051292D01*
X218316450Y-118098842D01*
X218321123Y-118115005D01*
X218331899Y-118169175D01*
X218331901Y-118169183D01*
X218384666Y-118296571D01*
X218461271Y-118411220D01*
X218558779Y-118508728D01*
X218673428Y-118585333D01*
X218800816Y-118638098D01*
X218800819Y-118638099D01*
X218879999Y-118653848D01*
X218880000Y-118653848D01*
X218880000Y-118239242D01*
X218889204Y-118244556D01*
X218965504Y-118265000D01*
X219044496Y-118265000D01*
X219120796Y-118244556D01*
X219130000Y-118239242D01*
X219130000Y-118653848D01*
X219209180Y-118638099D01*
X219209183Y-118638098D01*
X219336571Y-118585333D01*
X219451220Y-118508728D01*
X219548728Y-118411220D01*
X219625333Y-118296571D01*
X219678098Y-118169183D01*
X219704999Y-118033944D01*
X219705000Y-118033942D01*
X219705000Y-117540001D01*
X219704999Y-117540000D01*
X219305000Y-117540000D01*
X219305000Y-117290000D01*
X219704999Y-117290000D01*
X219705000Y-117289999D01*
X219705000Y-116796057D01*
X219704999Y-116796055D01*
X219678098Y-116660816D01*
X219625333Y-116533428D01*
X219548728Y-116418779D01*
X219451220Y-116321271D01*
X219336571Y-116244666D01*
X219209182Y-116191901D01*
X219130000Y-116176150D01*
X219130000Y-116590757D01*
X219120796Y-116585444D01*
X219044496Y-116565000D01*
X218965504Y-116565000D01*
X218889204Y-116585444D01*
X218880000Y-116590757D01*
X218880000Y-116176150D01*
X218800817Y-116191901D01*
X218673428Y-116244666D01*
X218558779Y-116321271D01*
X218461271Y-116418779D01*
X218384666Y-116533428D01*
X218331901Y-116660816D01*
X218305000Y-116796055D01*
X218305000Y-117289999D01*
X218305001Y-117290000D01*
X218705000Y-117290000D01*
X218705000Y-117540000D01*
X218305001Y-117540000D01*
X218305000Y-117540001D01*
X218305000Y-117672296D01*
X218286093Y-117730487D01*
X218236593Y-117766451D01*
X218175407Y-117766451D01*
X218125907Y-117730487D01*
X218118304Y-117716911D01*
X218118253Y-117716941D01*
X218038718Y-117579183D01*
X218038716Y-117579181D01*
X218038715Y-117579179D01*
X217930821Y-117471285D01*
X217930818Y-117471283D01*
X217930816Y-117471281D01*
X217798681Y-117394993D01*
X217798682Y-117394993D01*
X217767532Y-117386646D01*
X217651293Y-117355500D01*
X217498707Y-117355500D01*
X217433720Y-117372913D01*
X217351317Y-117394993D01*
X217219183Y-117471281D01*
X217111281Y-117579183D01*
X217034993Y-117711317D01*
X216995500Y-117858707D01*
X212374500Y-117858707D01*
X212335008Y-117711322D01*
X212335006Y-117711319D01*
X212335006Y-117711317D01*
X212258718Y-117579183D01*
X212258716Y-117579181D01*
X212258715Y-117579179D01*
X212150821Y-117471285D01*
X212150818Y-117471283D01*
X212150816Y-117471281D01*
X212018681Y-117394993D01*
X212018682Y-117394993D01*
X211987532Y-117386646D01*
X211871293Y-117355500D01*
X211718707Y-117355500D01*
X211653720Y-117372913D01*
X211571317Y-117394993D01*
X211439183Y-117471281D01*
X211331281Y-117579183D01*
X211251747Y-117716941D01*
X211250370Y-117716146D01*
X211215727Y-117756707D01*
X211156233Y-117770991D01*
X211099705Y-117747576D01*
X211067735Y-117695407D01*
X211065000Y-117672296D01*
X211065000Y-117540001D01*
X211064999Y-117540000D01*
X210665000Y-117540000D01*
X210665000Y-117290000D01*
X211064999Y-117290000D01*
X211065000Y-117289999D01*
X211065000Y-116796057D01*
X211064999Y-116796055D01*
X211038098Y-116660816D01*
X210985333Y-116533428D01*
X210908728Y-116418779D01*
X210811220Y-116321271D01*
X210696571Y-116244666D01*
X210569182Y-116191901D01*
X210490000Y-116176150D01*
X210490000Y-116590757D01*
X210480796Y-116585444D01*
X210404496Y-116565000D01*
X210325504Y-116565000D01*
X210249204Y-116585444D01*
X210240000Y-116590757D01*
X210240000Y-116176150D01*
X210160817Y-116191901D01*
X210033428Y-116244666D01*
X209918779Y-116321271D01*
X209821271Y-116418779D01*
X209744666Y-116533428D01*
X209691901Y-116660816D01*
X209665000Y-116796055D01*
X205734999Y-116796055D01*
X205708098Y-116660816D01*
X205655333Y-116533428D01*
X205578728Y-116418779D01*
X205481220Y-116321271D01*
X205366571Y-116244666D01*
X205239182Y-116191901D01*
X205160000Y-116176150D01*
X205160000Y-116590757D01*
X205150796Y-116585444D01*
X205074496Y-116565000D01*
X204995504Y-116565000D01*
X204919204Y-116585444D01*
X204910000Y-116590757D01*
X204910000Y-116176150D01*
X204830817Y-116191901D01*
X204703428Y-116244666D01*
X204588779Y-116321271D01*
X204491271Y-116418779D01*
X204414666Y-116533428D01*
X204361901Y-116660816D01*
X204335000Y-116796055D01*
X204335000Y-117289999D01*
X204335001Y-117290000D01*
X204735000Y-117290000D01*
X204735000Y-117540000D01*
X204335001Y-117540000D01*
X204335000Y-117540001D01*
X204335000Y-117672296D01*
X204316093Y-117730487D01*
X204266593Y-117766451D01*
X204205407Y-117766451D01*
X204155907Y-117730487D01*
X204148304Y-117716911D01*
X204148253Y-117716941D01*
X204068718Y-117579183D01*
X204068716Y-117579181D01*
X204068715Y-117579179D01*
X203960821Y-117471285D01*
X203960818Y-117471283D01*
X203960816Y-117471281D01*
X203828681Y-117394993D01*
X203828682Y-117394993D01*
X203797532Y-117386646D01*
X203681293Y-117355500D01*
X203528707Y-117355500D01*
X203463720Y-117372913D01*
X203381317Y-117394993D01*
X203249183Y-117471281D01*
X203141281Y-117579183D01*
X203064993Y-117711317D01*
X203025500Y-117858707D01*
X198404500Y-117858707D01*
X198365008Y-117711322D01*
X198365006Y-117711319D01*
X198365006Y-117711317D01*
X198288718Y-117579183D01*
X198288716Y-117579181D01*
X198288715Y-117579179D01*
X198180821Y-117471285D01*
X198180818Y-117471283D01*
X198180816Y-117471281D01*
X198048681Y-117394993D01*
X198048682Y-117394993D01*
X198017532Y-117386646D01*
X197901293Y-117355500D01*
X197748707Y-117355500D01*
X197683720Y-117372913D01*
X197601317Y-117394993D01*
X197469183Y-117471281D01*
X197361281Y-117579183D01*
X197281747Y-117716941D01*
X197280370Y-117716146D01*
X197245727Y-117756707D01*
X197186233Y-117770991D01*
X197129705Y-117747576D01*
X197097735Y-117695407D01*
X197095000Y-117672296D01*
X197095000Y-117540001D01*
X197094999Y-117540000D01*
X196695000Y-117540000D01*
X196695000Y-117290000D01*
X197094999Y-117290000D01*
X197095000Y-117289999D01*
X197095000Y-116796057D01*
X197094999Y-116796055D01*
X197068098Y-116660816D01*
X197015333Y-116533428D01*
X196938728Y-116418779D01*
X196841220Y-116321271D01*
X196726571Y-116244666D01*
X196599182Y-116191901D01*
X196520000Y-116176150D01*
X196520000Y-116590757D01*
X196510796Y-116585444D01*
X196434496Y-116565000D01*
X196355504Y-116565000D01*
X196279204Y-116585444D01*
X196270000Y-116590757D01*
X196270000Y-116176150D01*
X196190817Y-116191901D01*
X196063428Y-116244666D01*
X195948779Y-116321271D01*
X195851271Y-116418779D01*
X195774666Y-116533428D01*
X195721901Y-116660816D01*
X195695000Y-116796055D01*
X195400500Y-116796055D01*
X195400500Y-112504064D01*
X195419407Y-112445873D01*
X195468907Y-112409909D01*
X195530093Y-112409909D01*
X195562305Y-112427536D01*
X195683829Y-112527268D01*
X195683839Y-112527275D01*
X195866232Y-112624765D01*
X195866237Y-112624767D01*
X196064166Y-112684808D01*
X196144998Y-112692769D01*
X196145000Y-112692768D01*
X196145000Y-112134144D01*
X196204174Y-112150000D01*
X196335826Y-112150000D01*
X196395000Y-112134144D01*
X196395000Y-112692768D01*
X196395001Y-112692769D01*
X196475833Y-112684808D01*
X196673762Y-112624767D01*
X196673767Y-112624765D01*
X196856160Y-112527275D01*
X196856170Y-112527268D01*
X196916207Y-112477997D01*
X199693864Y-112477997D01*
X199693864Y-112478002D01*
X199712299Y-112606225D01*
X199751823Y-112692768D01*
X199766115Y-112724063D01*
X199825850Y-112793002D01*
X199850949Y-112821968D01*
X199959923Y-112892001D01*
X199959928Y-112892004D01*
X200084225Y-112928500D01*
X200084227Y-112928500D01*
X200213767Y-112928500D01*
X200213769Y-112928500D01*
X200338066Y-112892004D01*
X200408977Y-112846432D01*
X200468149Y-112830878D01*
X200516019Y-112846432D01*
X200586931Y-112892004D01*
X200711228Y-112928500D01*
X200711230Y-112928500D01*
X200840770Y-112928500D01*
X200840772Y-112928500D01*
X200965069Y-112892004D01*
X201074049Y-112821967D01*
X201099151Y-112792997D01*
X203561867Y-112792997D01*
X203561867Y-112793002D01*
X203580302Y-112921225D01*
X203634117Y-113039061D01*
X203634118Y-113039063D01*
X203718951Y-113136967D01*
X203718952Y-113136968D01*
X203778483Y-113175226D01*
X203827931Y-113207004D01*
X203952228Y-113243500D01*
X203952230Y-113243500D01*
X204081770Y-113243500D01*
X204081772Y-113243500D01*
X204206069Y-113207004D01*
X204315049Y-113136967D01*
X204399882Y-113039063D01*
X204453697Y-112921226D01*
X204467968Y-112821967D01*
X204472133Y-112793002D01*
X204472133Y-112792997D01*
X206863867Y-112792997D01*
X206863867Y-112793002D01*
X206882302Y-112921225D01*
X206936117Y-113039061D01*
X206936118Y-113039063D01*
X207020951Y-113136967D01*
X207020952Y-113136968D01*
X207080483Y-113175226D01*
X207129931Y-113207004D01*
X207254228Y-113243500D01*
X207254230Y-113243500D01*
X207383770Y-113243500D01*
X207383772Y-113243500D01*
X207508069Y-113207004D01*
X207617049Y-113136967D01*
X207701882Y-113039063D01*
X207755697Y-112921226D01*
X207769968Y-112821967D01*
X207774133Y-112793002D01*
X207774133Y-112792997D01*
X210927867Y-112792997D01*
X210927867Y-112793002D01*
X210946302Y-112921225D01*
X211000117Y-113039061D01*
X211000118Y-113039063D01*
X211084951Y-113136967D01*
X211084952Y-113136968D01*
X211144483Y-113175226D01*
X211193931Y-113207004D01*
X211318228Y-113243500D01*
X211318230Y-113243500D01*
X211447770Y-113243500D01*
X211447772Y-113243500D01*
X211572069Y-113207004D01*
X211681049Y-113136967D01*
X211759007Y-113046997D01*
X214102867Y-113046997D01*
X214102867Y-113047002D01*
X214121302Y-113175225D01*
X214152483Y-113243500D01*
X214175118Y-113293063D01*
X214251821Y-113381584D01*
X214259952Y-113390968D01*
X214368926Y-113461001D01*
X214368931Y-113461004D01*
X214493228Y-113497500D01*
X214493230Y-113497500D01*
X214622770Y-113497500D01*
X214622772Y-113497500D01*
X214747069Y-113461004D01*
X214856049Y-113390967D01*
X214864179Y-113381583D01*
X214916574Y-113349987D01*
X214977535Y-113355221D01*
X215013820Y-113381583D01*
X215021951Y-113390967D01*
X215130931Y-113461004D01*
X215255228Y-113497500D01*
X215255230Y-113497500D01*
X215384770Y-113497500D01*
X215384772Y-113497500D01*
X215509069Y-113461004D01*
X215618049Y-113390967D01*
X215702882Y-113293063D01*
X215756697Y-113175226D01*
X215775133Y-113047000D01*
X215756697Y-112918774D01*
X215702882Y-112800937D01*
X215618049Y-112703033D01*
X215618048Y-112703032D01*
X215618047Y-112703031D01*
X215509073Y-112632998D01*
X215509070Y-112632996D01*
X215509069Y-112632996D01*
X215509066Y-112632995D01*
X215384774Y-112596500D01*
X215384772Y-112596500D01*
X215255228Y-112596500D01*
X215255225Y-112596500D01*
X215130933Y-112632995D01*
X215130926Y-112632998D01*
X215021951Y-112703032D01*
X215021949Y-112703034D01*
X215013819Y-112712417D01*
X214961423Y-112744013D01*
X214900462Y-112738777D01*
X214864181Y-112712417D01*
X214856050Y-112703034D01*
X214856048Y-112703032D01*
X214747073Y-112632998D01*
X214747070Y-112632996D01*
X214747069Y-112632996D01*
X214747066Y-112632995D01*
X214622774Y-112596500D01*
X214622772Y-112596500D01*
X214493228Y-112596500D01*
X214493225Y-112596500D01*
X214368933Y-112632995D01*
X214368926Y-112632998D01*
X214259952Y-112703031D01*
X214175117Y-112800938D01*
X214121302Y-112918774D01*
X214102867Y-113046997D01*
X211759007Y-113046997D01*
X211765882Y-113039063D01*
X211819697Y-112921226D01*
X211833968Y-112821967D01*
X211838133Y-112793002D01*
X211838133Y-112792997D01*
X211819697Y-112664774D01*
X211801425Y-112624765D01*
X211765882Y-112546937D01*
X211681049Y-112449033D01*
X211681048Y-112449032D01*
X211681047Y-112449031D01*
X211572073Y-112378998D01*
X211572070Y-112378996D01*
X211572069Y-112378996D01*
X211572066Y-112378995D01*
X211447774Y-112342500D01*
X211447772Y-112342500D01*
X211318228Y-112342500D01*
X211318225Y-112342500D01*
X211193933Y-112378995D01*
X211193926Y-112378998D01*
X211084952Y-112449031D01*
X211000117Y-112546938D01*
X210946302Y-112664774D01*
X210927867Y-112792997D01*
X207774133Y-112792997D01*
X207755697Y-112664774D01*
X207737425Y-112624765D01*
X207701882Y-112546937D01*
X207617049Y-112449033D01*
X207617048Y-112449032D01*
X207617047Y-112449031D01*
X207508073Y-112378998D01*
X207508070Y-112378996D01*
X207508069Y-112378996D01*
X207508066Y-112378995D01*
X207383774Y-112342500D01*
X207383772Y-112342500D01*
X207254228Y-112342500D01*
X207254225Y-112342500D01*
X207129933Y-112378995D01*
X207129926Y-112378998D01*
X207020952Y-112449031D01*
X206936117Y-112546938D01*
X206882302Y-112664774D01*
X206863867Y-112792997D01*
X204472133Y-112792997D01*
X204453697Y-112664774D01*
X204435425Y-112624765D01*
X204399882Y-112546937D01*
X204315049Y-112449033D01*
X204315048Y-112449032D01*
X204315047Y-112449031D01*
X204206073Y-112378998D01*
X204206070Y-112378996D01*
X204206069Y-112378996D01*
X204206066Y-112378995D01*
X204081774Y-112342500D01*
X204081772Y-112342500D01*
X203952228Y-112342500D01*
X203952225Y-112342500D01*
X203827933Y-112378995D01*
X203827926Y-112378998D01*
X203718952Y-112449031D01*
X203634117Y-112546938D01*
X203580302Y-112664774D01*
X203561867Y-112792997D01*
X201099151Y-112792997D01*
X201158882Y-112724063D01*
X201212697Y-112606226D01*
X201231133Y-112478000D01*
X201229692Y-112467981D01*
X201212697Y-112349774D01*
X201160815Y-112236170D01*
X201158882Y-112231937D01*
X201074049Y-112134033D01*
X201074048Y-112134032D01*
X201074047Y-112134031D01*
X200965073Y-112063998D01*
X200965070Y-112063996D01*
X200965069Y-112063996D01*
X200965066Y-112063995D01*
X200840774Y-112027500D01*
X200840772Y-112027500D01*
X200711228Y-112027500D01*
X200711225Y-112027500D01*
X200586933Y-112063995D01*
X200586926Y-112063998D01*
X200516021Y-112109566D01*
X200456845Y-112125121D01*
X200408975Y-112109566D01*
X200338070Y-112063998D01*
X200338067Y-112063996D01*
X200338066Y-112063996D01*
X200338063Y-112063995D01*
X200213771Y-112027500D01*
X200213769Y-112027500D01*
X200084225Y-112027500D01*
X200084222Y-112027500D01*
X199959930Y-112063995D01*
X199959923Y-112063998D01*
X199850949Y-112134031D01*
X199766114Y-112231938D01*
X199712299Y-112349774D01*
X199693864Y-112477997D01*
X196916207Y-112477997D01*
X197016050Y-112396059D01*
X197016059Y-112396050D01*
X197147268Y-112236170D01*
X197147275Y-112236160D01*
X197244765Y-112053767D01*
X197244767Y-112053762D01*
X197304808Y-111855836D01*
X197304809Y-111855830D01*
X197312771Y-111775000D01*
X196754144Y-111775000D01*
X196770000Y-111715826D01*
X196770000Y-111584174D01*
X196754144Y-111525000D01*
X197312770Y-111525000D01*
X197312770Y-111524999D01*
X197304809Y-111444169D01*
X197304808Y-111444163D01*
X197244767Y-111246237D01*
X197244765Y-111246232D01*
X197147275Y-111063839D01*
X197147268Y-111063829D01*
X197016059Y-110903949D01*
X197016050Y-110903940D01*
X196856170Y-110772731D01*
X196856160Y-110772724D01*
X196673767Y-110675234D01*
X196673762Y-110675232D01*
X196475836Y-110615191D01*
X196475830Y-110615190D01*
X196395000Y-110607229D01*
X196395000Y-111165855D01*
X196335826Y-111150000D01*
X196204174Y-111150000D01*
X196145000Y-111165855D01*
X196145000Y-110607229D01*
X196144999Y-110607229D01*
X196064169Y-110615190D01*
X196064163Y-110615191D01*
X195866237Y-110675232D01*
X195866232Y-110675234D01*
X195683839Y-110772724D01*
X195683829Y-110772731D01*
X195562305Y-110872463D01*
X195505328Y-110894763D01*
X195446125Y-110879314D01*
X195407310Y-110832017D01*
X195400500Y-110795935D01*
X195400500Y-109964710D01*
X195419407Y-109906519D01*
X195468907Y-109870555D01*
X195530093Y-109870555D01*
X195562303Y-109888181D01*
X195611587Y-109928627D01*
X195683547Y-109987683D01*
X195683548Y-109987683D01*
X195683550Y-109987685D01*
X195866046Y-110085232D01*
X196003997Y-110127078D01*
X196064065Y-110145300D01*
X196064070Y-110145301D01*
X196269997Y-110165583D01*
X196270000Y-110165583D01*
X196270003Y-110165583D01*
X196475929Y-110145301D01*
X196475934Y-110145300D01*
X196673954Y-110085232D01*
X196856450Y-109987685D01*
X197016410Y-109856410D01*
X197147685Y-109696450D01*
X197245232Y-109513954D01*
X197305300Y-109315934D01*
X197305301Y-109315929D01*
X197325583Y-109110003D01*
X197325583Y-109109996D01*
X197305301Y-108904070D01*
X197305300Y-108904065D01*
X197277342Y-108811900D01*
X197245232Y-108706046D01*
X197189616Y-108601997D01*
X202037867Y-108601997D01*
X202037867Y-108602002D01*
X202056302Y-108730225D01*
X202110116Y-108848059D01*
X202110118Y-108848063D01*
X202115844Y-108854671D01*
X202139660Y-108911031D01*
X202125800Y-108970626D01*
X202115844Y-108984329D01*
X202110118Y-108990936D01*
X202110116Y-108990940D01*
X202056302Y-109108774D01*
X202037867Y-109236997D01*
X202037867Y-109237002D01*
X202056302Y-109365225D01*
X202087483Y-109433500D01*
X202110118Y-109483063D01*
X202132127Y-109508463D01*
X202194952Y-109580968D01*
X202303926Y-109651001D01*
X202303931Y-109651004D01*
X202428228Y-109687500D01*
X202428230Y-109687500D01*
X202557770Y-109687500D01*
X202557772Y-109687500D01*
X202682069Y-109651004D01*
X202791049Y-109580967D01*
X202875882Y-109483063D01*
X202929697Y-109365226D01*
X202929697Y-109365221D01*
X202931011Y-109362346D01*
X202972383Y-109317268D01*
X203032350Y-109305117D01*
X203076972Y-109324728D01*
X203077994Y-109323139D01*
X203192926Y-109397001D01*
X203192931Y-109397004D01*
X203317228Y-109433500D01*
X203317230Y-109433500D01*
X203446770Y-109433500D01*
X203446772Y-109433500D01*
X203571069Y-109397004D01*
X203680049Y-109326967D01*
X203735998Y-109262397D01*
X209530867Y-109262397D01*
X209530867Y-109262402D01*
X209549302Y-109390625D01*
X209591518Y-109483063D01*
X209603118Y-109508463D01*
X209665942Y-109580967D01*
X209687952Y-109606368D01*
X209796926Y-109676401D01*
X209796931Y-109676404D01*
X209921228Y-109712900D01*
X209921230Y-109712900D01*
X210050770Y-109712900D01*
X210050772Y-109712900D01*
X210175069Y-109676404D01*
X210284049Y-109606367D01*
X210368882Y-109508463D01*
X210422697Y-109390626D01*
X210441133Y-109262400D01*
X210437481Y-109237002D01*
X210422697Y-109134174D01*
X210368882Y-109016338D01*
X210368882Y-109016337D01*
X210284049Y-108918433D01*
X210284048Y-108918432D01*
X210284047Y-108918431D01*
X210175073Y-108848398D01*
X210175070Y-108848396D01*
X210175069Y-108848396D01*
X210173935Y-108848063D01*
X210050774Y-108811900D01*
X210050772Y-108811900D01*
X209921228Y-108811900D01*
X209921225Y-108811900D01*
X209796933Y-108848395D01*
X209796926Y-108848398D01*
X209687952Y-108918431D01*
X209603117Y-109016338D01*
X209549302Y-109134174D01*
X209530867Y-109262397D01*
X203735998Y-109262397D01*
X203764882Y-109229063D01*
X203818697Y-109111226D01*
X203832340Y-109016337D01*
X203837133Y-108983002D01*
X203837133Y-108982997D01*
X203818697Y-108854774D01*
X203764882Y-108736938D01*
X203764882Y-108736937D01*
X203680049Y-108639033D01*
X203680048Y-108639032D01*
X203680047Y-108639031D01*
X203571073Y-108568998D01*
X203571070Y-108568996D01*
X203571069Y-108568996D01*
X203551745Y-108563322D01*
X203446774Y-108532500D01*
X203446772Y-108532500D01*
X203317228Y-108532500D01*
X203317225Y-108532500D01*
X203192933Y-108568995D01*
X203192926Y-108568998D01*
X203094087Y-108632518D01*
X203034912Y-108648073D01*
X202977895Y-108625874D01*
X202944816Y-108574401D01*
X202942572Y-108563322D01*
X202929697Y-108473775D01*
X202879375Y-108363585D01*
X202875882Y-108355937D01*
X202791049Y-108258033D01*
X202791048Y-108258032D01*
X202791047Y-108258031D01*
X202682073Y-108187998D01*
X202682070Y-108187996D01*
X202682069Y-108187996D01*
X202682066Y-108187995D01*
X202557774Y-108151500D01*
X202557772Y-108151500D01*
X202428228Y-108151500D01*
X202428225Y-108151500D01*
X202303933Y-108187995D01*
X202303926Y-108187998D01*
X202194952Y-108258031D01*
X202110117Y-108355938D01*
X202056302Y-108473774D01*
X202037867Y-108601997D01*
X197189616Y-108601997D01*
X197147685Y-108523550D01*
X197016410Y-108363590D01*
X196986042Y-108338668D01*
X196856452Y-108232316D01*
X196673954Y-108134768D01*
X196475934Y-108074699D01*
X196475929Y-108074698D01*
X196270003Y-108054417D01*
X196269997Y-108054417D01*
X196064070Y-108074698D01*
X196064065Y-108074699D01*
X195866045Y-108134768D01*
X195683547Y-108232316D01*
X195683547Y-108232317D01*
X195562305Y-108331817D01*
X195505328Y-108354117D01*
X195446125Y-108338668D01*
X195407310Y-108291371D01*
X195400500Y-108255289D01*
X195400500Y-107424710D01*
X195419407Y-107366519D01*
X195468907Y-107330555D01*
X195530093Y-107330555D01*
X195562303Y-107348181D01*
X195611587Y-107388627D01*
X195683547Y-107447683D01*
X195683548Y-107447683D01*
X195683550Y-107447685D01*
X195866046Y-107545232D01*
X196003997Y-107587078D01*
X196064065Y-107605300D01*
X196064070Y-107605301D01*
X196269997Y-107625583D01*
X196270000Y-107625583D01*
X196270003Y-107625583D01*
X196475929Y-107605301D01*
X196475934Y-107605300D01*
X196673954Y-107545232D01*
X196856450Y-107447685D01*
X197016410Y-107316410D01*
X197147685Y-107156450D01*
X197245232Y-106973954D01*
X197305300Y-106775934D01*
X197305301Y-106775929D01*
X197325583Y-106570003D01*
X197325583Y-106569996D01*
X197305301Y-106364070D01*
X197305300Y-106364065D01*
X197287078Y-106303997D01*
X197245232Y-106166046D01*
X197147685Y-105983550D01*
X197016410Y-105823590D01*
X196986042Y-105798668D01*
X196856452Y-105692316D01*
X196673954Y-105594768D01*
X196475934Y-105534699D01*
X196475929Y-105534698D01*
X196270003Y-105514417D01*
X196269997Y-105514417D01*
X196064070Y-105534698D01*
X196064065Y-105534699D01*
X195866045Y-105594768D01*
X195683547Y-105692316D01*
X195683547Y-105692317D01*
X195562305Y-105791817D01*
X195505328Y-105814117D01*
X195446125Y-105798668D01*
X195407310Y-105751371D01*
X195400500Y-105715289D01*
X195400500Y-105426997D01*
X197846867Y-105426997D01*
X197846867Y-105427002D01*
X197865302Y-105555225D01*
X197883361Y-105594768D01*
X197919118Y-105673063D01*
X197986971Y-105751371D01*
X198003952Y-105770968D01*
X198085826Y-105823585D01*
X198112931Y-105841004D01*
X198237228Y-105877500D01*
X198237230Y-105877500D01*
X198366770Y-105877500D01*
X198366772Y-105877500D01*
X198491069Y-105841004D01*
X198600049Y-105770967D01*
X198684882Y-105673063D01*
X198738697Y-105555226D01*
X198757133Y-105427000D01*
X198738697Y-105298774D01*
X198684882Y-105180937D01*
X198680478Y-105175854D01*
X198656661Y-105119495D01*
X198670520Y-105059900D01*
X198680473Y-105046199D01*
X198704672Y-105018273D01*
X198758487Y-104900436D01*
X198772736Y-104801330D01*
X198776923Y-104772212D01*
X198776923Y-104772207D01*
X198758487Y-104643984D01*
X198704672Y-104526148D01*
X198704672Y-104526147D01*
X198619839Y-104428243D01*
X198619838Y-104428242D01*
X198619837Y-104428241D01*
X198510863Y-104358208D01*
X198510860Y-104358206D01*
X198510859Y-104358206D01*
X198510856Y-104358205D01*
X198386564Y-104321710D01*
X198386562Y-104321710D01*
X198257018Y-104321710D01*
X198257015Y-104321710D01*
X198132723Y-104358205D01*
X198132716Y-104358208D01*
X198023742Y-104428241D01*
X197938907Y-104526148D01*
X197885092Y-104643984D01*
X197866657Y-104772207D01*
X197866657Y-104772212D01*
X197885092Y-104900435D01*
X197932952Y-105005231D01*
X197938908Y-105018273D01*
X197943312Y-105023356D01*
X197967128Y-105079715D01*
X197953268Y-105139310D01*
X197943312Y-105153015D01*
X197919117Y-105180938D01*
X197865302Y-105298774D01*
X197846867Y-105426997D01*
X195400500Y-105426997D01*
X195400500Y-104884710D01*
X195419407Y-104826519D01*
X195468907Y-104790555D01*
X195530093Y-104790555D01*
X195562303Y-104808181D01*
X195611587Y-104848627D01*
X195683547Y-104907683D01*
X195683548Y-104907683D01*
X195683550Y-104907685D01*
X195866046Y-105005232D01*
X196001075Y-105046192D01*
X196064065Y-105065300D01*
X196064070Y-105065301D01*
X196269997Y-105085583D01*
X196270000Y-105085583D01*
X196270003Y-105085583D01*
X196475929Y-105065301D01*
X196475934Y-105065300D01*
X196673954Y-105005232D01*
X196856450Y-104907685D01*
X197016410Y-104776410D01*
X197147685Y-104616450D01*
X197245232Y-104433954D01*
X197305300Y-104235934D01*
X197305301Y-104235929D01*
X197325583Y-104030003D01*
X197325583Y-104029996D01*
X197305301Y-103824070D01*
X197305300Y-103824065D01*
X197287078Y-103763997D01*
X197252194Y-103648997D01*
X204704867Y-103648997D01*
X204704867Y-103649002D01*
X204723302Y-103777225D01*
X204744694Y-103824065D01*
X204777118Y-103895063D01*
X204861951Y-103992967D01*
X204861952Y-103992968D01*
X204919580Y-104030003D01*
X204970931Y-104063004D01*
X205095228Y-104099500D01*
X205095230Y-104099500D01*
X205224770Y-104099500D01*
X205224772Y-104099500D01*
X205349069Y-104063004D01*
X205458049Y-103992967D01*
X205542882Y-103895063D01*
X205596697Y-103777226D01*
X205615133Y-103649000D01*
X205596697Y-103520774D01*
X205542882Y-103402937D01*
X205458049Y-103305033D01*
X205458048Y-103305032D01*
X205458047Y-103305031D01*
X205349073Y-103234998D01*
X205349070Y-103234996D01*
X205349069Y-103234996D01*
X205343906Y-103233480D01*
X205224774Y-103198500D01*
X205224772Y-103198500D01*
X205095228Y-103198500D01*
X205095225Y-103198500D01*
X204970933Y-103234995D01*
X204970926Y-103234998D01*
X204861952Y-103305031D01*
X204777117Y-103402938D01*
X204723302Y-103520774D01*
X204704867Y-103648997D01*
X197252194Y-103648997D01*
X197245232Y-103626046D01*
X197147685Y-103443550D01*
X197016410Y-103283590D01*
X196986042Y-103258668D01*
X196856452Y-103152316D01*
X196673954Y-103054768D01*
X196475934Y-102994699D01*
X196475929Y-102994698D01*
X196270003Y-102974417D01*
X196269997Y-102974417D01*
X196064070Y-102994698D01*
X196064065Y-102994699D01*
X195866045Y-103054768D01*
X195683547Y-103152316D01*
X195683547Y-103152317D01*
X195562305Y-103251817D01*
X195505328Y-103274117D01*
X195446125Y-103258668D01*
X195407310Y-103211371D01*
X195400500Y-103175289D01*
X195400500Y-102344710D01*
X195419407Y-102286519D01*
X195468907Y-102250555D01*
X195530093Y-102250555D01*
X195562303Y-102268181D01*
X195611587Y-102308627D01*
X195683547Y-102367683D01*
X195683548Y-102367683D01*
X195683550Y-102367685D01*
X195866046Y-102465232D01*
X196003997Y-102507078D01*
X196064065Y-102525300D01*
X196064070Y-102525301D01*
X196269997Y-102545583D01*
X196270000Y-102545583D01*
X196270003Y-102545583D01*
X196475929Y-102525301D01*
X196475934Y-102525300D01*
X196673954Y-102465232D01*
X196856450Y-102367685D01*
X197016410Y-102236410D01*
X197147685Y-102076450D01*
X197245232Y-101893954D01*
X197305300Y-101695934D01*
X197305301Y-101695929D01*
X197325583Y-101490003D01*
X197325583Y-101489996D01*
X197305301Y-101284070D01*
X197305300Y-101284065D01*
X197287078Y-101223997D01*
X197245232Y-101086046D01*
X197147685Y-100903550D01*
X197016410Y-100743590D01*
X196986042Y-100718668D01*
X196856452Y-100612316D01*
X196673954Y-100514768D01*
X196475934Y-100454699D01*
X196475929Y-100454698D01*
X196270003Y-100434417D01*
X196269997Y-100434417D01*
X196064070Y-100454698D01*
X196064065Y-100454699D01*
X195866045Y-100514768D01*
X195683547Y-100612316D01*
X195683547Y-100612317D01*
X195562305Y-100711817D01*
X195505328Y-100734117D01*
X195446125Y-100718668D01*
X195407310Y-100671371D01*
X195400500Y-100635289D01*
X195400500Y-99804710D01*
X195419407Y-99746519D01*
X195468907Y-99710555D01*
X195530093Y-99710555D01*
X195562303Y-99728181D01*
X195611587Y-99768627D01*
X195683547Y-99827683D01*
X195683548Y-99827683D01*
X195683550Y-99827685D01*
X195866046Y-99925232D01*
X196000432Y-99965997D01*
X196064065Y-99985300D01*
X196064070Y-99985301D01*
X196269997Y-100005583D01*
X196270000Y-100005583D01*
X196270003Y-100005583D01*
X196475929Y-99985301D01*
X196475934Y-99985300D01*
X196539568Y-99965997D01*
X201290867Y-99965997D01*
X201290867Y-99966002D01*
X201309302Y-100094225D01*
X201363117Y-100212061D01*
X201363118Y-100212063D01*
X201447951Y-100309967D01*
X201447952Y-100309968D01*
X201556926Y-100380001D01*
X201556931Y-100380004D01*
X201681228Y-100416500D01*
X201681230Y-100416500D01*
X201810770Y-100416500D01*
X201810772Y-100416500D01*
X201935069Y-100380004D01*
X202044049Y-100309967D01*
X202128882Y-100212063D01*
X202182697Y-100094226D01*
X202201133Y-99966000D01*
X202195271Y-99925232D01*
X202182697Y-99837774D01*
X202151118Y-99768627D01*
X202128882Y-99719937D01*
X202044049Y-99622033D01*
X202044048Y-99622032D01*
X202044047Y-99622031D01*
X201935073Y-99551998D01*
X201935070Y-99551996D01*
X201935069Y-99551996D01*
X201916089Y-99546423D01*
X201810774Y-99515500D01*
X201810772Y-99515500D01*
X201681228Y-99515500D01*
X201681225Y-99515500D01*
X201556933Y-99551995D01*
X201556926Y-99551998D01*
X201447952Y-99622031D01*
X201363117Y-99719938D01*
X201309302Y-99837774D01*
X201290867Y-99965997D01*
X196539568Y-99965997D01*
X196673954Y-99925232D01*
X196856450Y-99827685D01*
X197016410Y-99696410D01*
X197147685Y-99536450D01*
X197245232Y-99353954D01*
X197305300Y-99155934D01*
X197305301Y-99155929D01*
X197325583Y-98950003D01*
X197325583Y-98949996D01*
X197305301Y-98744070D01*
X197305300Y-98744065D01*
X197287078Y-98683997D01*
X197245232Y-98546046D01*
X197147685Y-98363550D01*
X197016410Y-98203590D01*
X196986042Y-98178668D01*
X196856452Y-98072316D01*
X196673954Y-97974768D01*
X196475934Y-97914699D01*
X196475929Y-97914698D01*
X196270003Y-97894417D01*
X196269997Y-97894417D01*
X196064070Y-97914698D01*
X196064065Y-97914699D01*
X195866045Y-97974768D01*
X195683547Y-98072316D01*
X195683547Y-98072317D01*
X195562305Y-98171817D01*
X195505328Y-98194117D01*
X195446125Y-98178668D01*
X195407310Y-98131371D01*
X195400500Y-98095289D01*
X195400500Y-97264710D01*
X195419407Y-97206519D01*
X195468907Y-97170555D01*
X195530093Y-97170555D01*
X195562303Y-97188181D01*
X195611587Y-97228627D01*
X195683547Y-97287683D01*
X195683548Y-97287683D01*
X195683550Y-97287685D01*
X195866046Y-97385232D01*
X196003997Y-97427078D01*
X196064065Y-97445300D01*
X196064070Y-97445301D01*
X196269997Y-97465583D01*
X196270000Y-97465583D01*
X196270003Y-97465583D01*
X196475929Y-97445301D01*
X196475934Y-97445300D01*
X196673954Y-97385232D01*
X196856450Y-97287685D01*
X197016410Y-97156410D01*
X197147685Y-96996450D01*
X197245232Y-96813954D01*
X197305300Y-96615934D01*
X197305301Y-96615929D01*
X197325583Y-96410003D01*
X197325583Y-96409996D01*
X197305301Y-96204070D01*
X197305300Y-96204065D01*
X197279486Y-96118967D01*
X197245232Y-96006046D01*
X197147685Y-95823550D01*
X197107841Y-95775000D01*
X197107839Y-95774997D01*
X200767867Y-95774997D01*
X200767867Y-95775002D01*
X200786302Y-95903225D01*
X200833259Y-96006045D01*
X200840118Y-96021063D01*
X200916821Y-96109584D01*
X200924952Y-96118968D01*
X201010590Y-96174004D01*
X201033931Y-96189004D01*
X201158228Y-96225500D01*
X201158230Y-96225500D01*
X201287770Y-96225500D01*
X201287772Y-96225500D01*
X201412069Y-96189004D01*
X201521049Y-96118967D01*
X201529179Y-96109583D01*
X201581574Y-96077987D01*
X201642535Y-96083221D01*
X201678820Y-96109583D01*
X201686951Y-96118967D01*
X201795931Y-96189004D01*
X201920228Y-96225500D01*
X201920230Y-96225500D01*
X202049770Y-96225500D01*
X202049772Y-96225500D01*
X202174069Y-96189004D01*
X202283049Y-96118967D01*
X202367882Y-96021063D01*
X202421697Y-95903226D01*
X202440133Y-95775000D01*
X202437976Y-95760000D01*
X202437976Y-95759997D01*
X210800867Y-95759997D01*
X210800867Y-95760002D01*
X210819302Y-95888225D01*
X210826153Y-95903226D01*
X210873118Y-96006063D01*
X210887997Y-96023234D01*
X210957952Y-96103968D01*
X210981293Y-96118968D01*
X211066931Y-96174004D01*
X211191228Y-96210500D01*
X211191230Y-96210500D01*
X211320770Y-96210500D01*
X211320772Y-96210500D01*
X211445069Y-96174004D01*
X211554049Y-96103967D01*
X211638882Y-96006063D01*
X211692697Y-95888226D01*
X211708976Y-95775002D01*
X211711133Y-95760002D01*
X211711133Y-95759997D01*
X211692697Y-95631774D01*
X211647276Y-95532317D01*
X211638882Y-95513937D01*
X211554049Y-95416033D01*
X211554048Y-95416032D01*
X211554047Y-95416031D01*
X211445073Y-95345998D01*
X211445070Y-95345996D01*
X211445069Y-95345996D01*
X211445066Y-95345995D01*
X211320774Y-95309500D01*
X211320772Y-95309500D01*
X211191228Y-95309500D01*
X211191225Y-95309500D01*
X211066933Y-95345995D01*
X211066926Y-95345998D01*
X210957952Y-95416031D01*
X210873117Y-95513938D01*
X210819302Y-95631774D01*
X210800867Y-95759997D01*
X202437976Y-95759997D01*
X202421697Y-95646774D01*
X202396395Y-95591371D01*
X202367882Y-95528937D01*
X202283049Y-95431033D01*
X202283048Y-95431032D01*
X202283047Y-95431031D01*
X202174073Y-95360998D01*
X202174070Y-95360996D01*
X202174069Y-95360996D01*
X202174066Y-95360995D01*
X202049774Y-95324500D01*
X202049772Y-95324500D01*
X201920228Y-95324500D01*
X201920225Y-95324500D01*
X201795933Y-95360995D01*
X201795926Y-95360998D01*
X201686951Y-95431032D01*
X201686949Y-95431034D01*
X201678819Y-95440417D01*
X201626423Y-95472013D01*
X201565462Y-95466777D01*
X201529181Y-95440417D01*
X201521050Y-95431034D01*
X201521048Y-95431032D01*
X201412073Y-95360998D01*
X201412070Y-95360996D01*
X201412069Y-95360996D01*
X201412066Y-95360995D01*
X201287774Y-95324500D01*
X201287772Y-95324500D01*
X201158228Y-95324500D01*
X201158225Y-95324500D01*
X201033933Y-95360995D01*
X201033926Y-95360998D01*
X200924952Y-95431031D01*
X200840117Y-95528938D01*
X200786302Y-95646774D01*
X200767867Y-95774997D01*
X197107839Y-95774997D01*
X197016414Y-95663595D01*
X197016410Y-95663590D01*
X196986042Y-95638668D01*
X196856452Y-95532316D01*
X196673954Y-95434768D01*
X196475934Y-95374699D01*
X196475929Y-95374698D01*
X196270003Y-95354417D01*
X196269997Y-95354417D01*
X196064070Y-95374698D01*
X196064065Y-95374699D01*
X195866045Y-95434768D01*
X195683547Y-95532316D01*
X195683547Y-95532317D01*
X195562305Y-95631817D01*
X195505328Y-95654117D01*
X195446125Y-95638668D01*
X195407310Y-95591371D01*
X195400500Y-95555289D01*
X195400500Y-94724710D01*
X195419407Y-94666519D01*
X195468907Y-94630555D01*
X195530093Y-94630555D01*
X195562303Y-94648181D01*
X195611587Y-94688627D01*
X195683547Y-94747683D01*
X195683548Y-94747683D01*
X195683550Y-94747685D01*
X195866046Y-94845232D01*
X196003997Y-94887078D01*
X196064065Y-94905300D01*
X196064070Y-94905301D01*
X196269997Y-94925583D01*
X196270000Y-94925583D01*
X196270003Y-94925583D01*
X196475929Y-94905301D01*
X196475934Y-94905300D01*
X196673954Y-94845232D01*
X196856450Y-94747685D01*
X197016410Y-94616410D01*
X197147685Y-94456450D01*
X197245232Y-94273954D01*
X197305300Y-94075934D01*
X197305301Y-94075929D01*
X197325583Y-93870003D01*
X197325583Y-93869996D01*
X197305301Y-93664070D01*
X197305300Y-93664065D01*
X197290719Y-93615997D01*
X198227867Y-93615997D01*
X198227867Y-93616002D01*
X198246302Y-93744225D01*
X198277483Y-93812500D01*
X198300118Y-93862063D01*
X198384951Y-93959967D01*
X198384952Y-93959968D01*
X198493926Y-94030001D01*
X198493931Y-94030004D01*
X198618228Y-94066500D01*
X198618230Y-94066500D01*
X198747770Y-94066500D01*
X198747772Y-94066500D01*
X198872069Y-94030004D01*
X198981049Y-93959967D01*
X199065882Y-93862063D01*
X199119697Y-93744226D01*
X199138133Y-93616000D01*
X199138133Y-93615997D01*
X200132867Y-93615997D01*
X200132867Y-93616002D01*
X200151302Y-93744225D01*
X200182483Y-93812500D01*
X200205118Y-93862063D01*
X200289951Y-93959967D01*
X200289952Y-93959968D01*
X200398926Y-94030001D01*
X200398931Y-94030004D01*
X200523228Y-94066500D01*
X200523230Y-94066500D01*
X200652770Y-94066500D01*
X200652772Y-94066500D01*
X200777069Y-94030004D01*
X200886049Y-93959967D01*
X200970882Y-93862063D01*
X201024697Y-93744226D01*
X201043133Y-93616000D01*
X201043133Y-93615997D01*
X202037867Y-93615997D01*
X202037867Y-93616002D01*
X202056302Y-93744225D01*
X202087483Y-93812500D01*
X202110118Y-93862063D01*
X202194951Y-93959967D01*
X202194952Y-93959968D01*
X202303926Y-94030001D01*
X202303931Y-94030004D01*
X202428228Y-94066500D01*
X202428230Y-94066500D01*
X202557770Y-94066500D01*
X202557772Y-94066500D01*
X202682069Y-94030004D01*
X202791049Y-93959967D01*
X202875882Y-93862063D01*
X202929697Y-93744226D01*
X202948133Y-93616000D01*
X202946991Y-93608060D01*
X202929697Y-93487774D01*
X202919774Y-93466046D01*
X202875882Y-93369937D01*
X202869002Y-93361997D01*
X209657867Y-93361997D01*
X209657867Y-93362002D01*
X209676302Y-93490225D01*
X209695053Y-93531283D01*
X209730118Y-93608063D01*
X209778648Y-93664070D01*
X209814952Y-93705968D01*
X209874483Y-93744226D01*
X209923931Y-93776004D01*
X210048228Y-93812500D01*
X210048230Y-93812500D01*
X210177770Y-93812500D01*
X210177772Y-93812500D01*
X210302069Y-93776004D01*
X210411049Y-93705967D01*
X210495882Y-93608063D01*
X210530947Y-93531283D01*
X210572319Y-93486205D01*
X210632285Y-93474054D01*
X210687941Y-93499472D01*
X210711053Y-93531283D01*
X210746116Y-93608060D01*
X210746117Y-93608061D01*
X210746118Y-93608063D01*
X210794644Y-93664066D01*
X210830952Y-93705968D01*
X210890483Y-93744226D01*
X210939931Y-93776004D01*
X211064228Y-93812500D01*
X211064230Y-93812500D01*
X211193770Y-93812500D01*
X211193772Y-93812500D01*
X211318069Y-93776004D01*
X211427049Y-93705967D01*
X211511882Y-93608063D01*
X211565697Y-93490226D01*
X211584133Y-93362000D01*
X211571197Y-93272031D01*
X211565697Y-93233774D01*
X211515377Y-93123590D01*
X211511882Y-93115937D01*
X211427049Y-93018033D01*
X211427048Y-93018032D01*
X211427047Y-93018031D01*
X211318073Y-92947998D01*
X211318070Y-92947996D01*
X211318069Y-92947996D01*
X211318066Y-92947995D01*
X211193774Y-92911500D01*
X211193772Y-92911500D01*
X211064228Y-92911500D01*
X211064225Y-92911500D01*
X210939933Y-92947995D01*
X210939926Y-92947998D01*
X210830952Y-93018031D01*
X210746117Y-93115938D01*
X210711053Y-93192717D01*
X210669681Y-93237794D01*
X210609714Y-93249945D01*
X210554058Y-93224527D01*
X210530947Y-93192717D01*
X210499377Y-93123590D01*
X210495882Y-93115937D01*
X210411049Y-93018033D01*
X210411048Y-93018032D01*
X210411047Y-93018031D01*
X210302073Y-92947998D01*
X210302070Y-92947996D01*
X210302069Y-92947996D01*
X210302066Y-92947995D01*
X210177774Y-92911500D01*
X210177772Y-92911500D01*
X210048228Y-92911500D01*
X210048225Y-92911500D01*
X209923933Y-92947995D01*
X209923926Y-92947998D01*
X209814952Y-93018031D01*
X209730117Y-93115938D01*
X209676302Y-93233774D01*
X209657867Y-93361997D01*
X202869002Y-93361997D01*
X202791049Y-93272033D01*
X202791048Y-93272032D01*
X202791047Y-93272031D01*
X202682073Y-93201998D01*
X202682070Y-93201996D01*
X202682069Y-93201996D01*
X202668351Y-93197968D01*
X202557774Y-93165500D01*
X202557772Y-93165500D01*
X202428228Y-93165500D01*
X202428225Y-93165500D01*
X202303933Y-93201995D01*
X202303926Y-93201998D01*
X202194952Y-93272031D01*
X202110117Y-93369938D01*
X202056302Y-93487774D01*
X202037867Y-93615997D01*
X201043133Y-93615997D01*
X201041991Y-93608060D01*
X201024697Y-93487774D01*
X201014774Y-93466046D01*
X200970882Y-93369937D01*
X200886049Y-93272033D01*
X200886048Y-93272032D01*
X200886047Y-93272031D01*
X200777073Y-93201998D01*
X200777070Y-93201996D01*
X200777069Y-93201996D01*
X200763351Y-93197968D01*
X200652774Y-93165500D01*
X200652772Y-93165500D01*
X200523228Y-93165500D01*
X200523225Y-93165500D01*
X200398933Y-93201995D01*
X200398926Y-93201998D01*
X200289952Y-93272031D01*
X200205117Y-93369938D01*
X200151302Y-93487774D01*
X200132867Y-93615997D01*
X199138133Y-93615997D01*
X199136991Y-93608060D01*
X199119697Y-93487774D01*
X199109774Y-93466046D01*
X199065882Y-93369937D01*
X198981049Y-93272033D01*
X198981048Y-93272032D01*
X198981047Y-93272031D01*
X198872073Y-93201998D01*
X198872070Y-93201996D01*
X198872069Y-93201996D01*
X198858351Y-93197968D01*
X198747774Y-93165500D01*
X198747772Y-93165500D01*
X198618228Y-93165500D01*
X198618225Y-93165500D01*
X198493933Y-93201995D01*
X198493926Y-93201998D01*
X198384952Y-93272031D01*
X198300117Y-93369938D01*
X198246302Y-93487774D01*
X198227867Y-93615997D01*
X197290719Y-93615997D01*
X197265021Y-93531283D01*
X197245232Y-93466046D01*
X197147685Y-93283550D01*
X197138233Y-93272033D01*
X197016414Y-93123595D01*
X197016410Y-93123590D01*
X196986042Y-93098668D01*
X196856452Y-92992316D01*
X196673954Y-92894768D01*
X196539551Y-92853997D01*
X212578867Y-92853997D01*
X212578867Y-92854002D01*
X212597302Y-92982225D01*
X212628881Y-93051371D01*
X212651118Y-93100063D01*
X212707819Y-93165500D01*
X212735952Y-93197968D01*
X212844926Y-93268001D01*
X212844931Y-93268004D01*
X212969228Y-93304500D01*
X212969230Y-93304500D01*
X213098770Y-93304500D01*
X213098772Y-93304500D01*
X213223069Y-93268004D01*
X213332049Y-93197967D01*
X213416882Y-93100063D01*
X213470697Y-92982226D01*
X213476842Y-92939484D01*
X213489133Y-92854002D01*
X213489133Y-92853997D01*
X213470697Y-92725774D01*
X213416882Y-92607938D01*
X213416882Y-92607937D01*
X213332049Y-92510033D01*
X213332048Y-92510032D01*
X213332047Y-92510031D01*
X213274421Y-92472997D01*
X213735867Y-92472997D01*
X213735867Y-92473002D01*
X213754302Y-92601225D01*
X213757368Y-92607938D01*
X213808118Y-92719063D01*
X213892951Y-92816967D01*
X213892952Y-92816968D01*
X214001926Y-92887001D01*
X214001931Y-92887004D01*
X214126228Y-92923500D01*
X214126230Y-92923500D01*
X214255770Y-92923500D01*
X214255772Y-92923500D01*
X214380069Y-92887004D01*
X214489049Y-92816967D01*
X214573882Y-92719063D01*
X214627697Y-92601226D01*
X214633842Y-92558484D01*
X214646133Y-92473002D01*
X214646133Y-92472997D01*
X214627697Y-92344774D01*
X214573882Y-92226937D01*
X214489049Y-92129033D01*
X214489048Y-92129032D01*
X214489047Y-92129031D01*
X214380073Y-92058998D01*
X214380070Y-92058996D01*
X214380069Y-92058996D01*
X214380066Y-92058995D01*
X214255774Y-92022500D01*
X214255772Y-92022500D01*
X214126228Y-92022500D01*
X214126225Y-92022500D01*
X214001933Y-92058995D01*
X214001926Y-92058998D01*
X213892952Y-92129031D01*
X213808117Y-92226938D01*
X213754302Y-92344774D01*
X213735867Y-92472997D01*
X213274421Y-92472997D01*
X213223073Y-92439998D01*
X213223070Y-92439996D01*
X213223069Y-92439996D01*
X213223066Y-92439995D01*
X213098774Y-92403500D01*
X213098772Y-92403500D01*
X212969228Y-92403500D01*
X212969225Y-92403500D01*
X212844933Y-92439995D01*
X212844926Y-92439998D01*
X212735952Y-92510031D01*
X212651117Y-92607938D01*
X212597302Y-92725774D01*
X212578867Y-92853997D01*
X196539551Y-92853997D01*
X196475934Y-92834699D01*
X196475929Y-92834698D01*
X196270003Y-92814417D01*
X196269997Y-92814417D01*
X196064070Y-92834698D01*
X196064065Y-92834699D01*
X195866045Y-92894768D01*
X195683547Y-92992316D01*
X195683547Y-92992317D01*
X195562305Y-93091817D01*
X195505328Y-93114117D01*
X195446125Y-93098668D01*
X195407310Y-93051371D01*
X195400500Y-93015289D01*
X195400500Y-92184710D01*
X195419407Y-92126519D01*
X195468907Y-92090555D01*
X195530093Y-92090555D01*
X195562303Y-92108181D01*
X195587712Y-92129033D01*
X195683547Y-92207683D01*
X195683548Y-92207683D01*
X195683550Y-92207685D01*
X195866046Y-92305232D01*
X195996400Y-92344774D01*
X196064065Y-92365300D01*
X196064070Y-92365301D01*
X196269997Y-92385583D01*
X196270000Y-92385583D01*
X196270003Y-92385583D01*
X196475929Y-92365301D01*
X196475934Y-92365300D01*
X196673954Y-92305232D01*
X196856450Y-92207685D01*
X197016410Y-92076410D01*
X197147685Y-91916450D01*
X197245232Y-91733954D01*
X197305300Y-91535934D01*
X197305301Y-91535929D01*
X197325583Y-91330003D01*
X197325583Y-91329996D01*
X197305301Y-91124070D01*
X197305300Y-91124065D01*
X197287078Y-91063997D01*
X197245232Y-90926046D01*
X197147685Y-90743550D01*
X197016410Y-90583590D01*
X196986042Y-90558668D01*
X196856452Y-90452316D01*
X196673954Y-90354768D01*
X196475934Y-90294699D01*
X196475929Y-90294698D01*
X196270003Y-90274417D01*
X196269997Y-90274417D01*
X196064070Y-90294698D01*
X196064065Y-90294699D01*
X195866045Y-90354768D01*
X195683547Y-90452316D01*
X195683547Y-90452317D01*
X195562305Y-90551817D01*
X195505328Y-90574117D01*
X195446125Y-90558668D01*
X195407310Y-90511371D01*
X195400500Y-90475289D01*
X195400500Y-89644710D01*
X195419407Y-89586519D01*
X195468907Y-89550555D01*
X195530093Y-89550555D01*
X195562303Y-89568181D01*
X195611587Y-89608627D01*
X195683547Y-89667683D01*
X195683548Y-89667683D01*
X195683550Y-89667685D01*
X195866046Y-89765232D01*
X195974270Y-89798061D01*
X196064065Y-89825300D01*
X196064070Y-89825301D01*
X196269997Y-89845583D01*
X196270000Y-89845583D01*
X196270003Y-89845583D01*
X196475929Y-89825301D01*
X196475934Y-89825300D01*
X196673954Y-89765232D01*
X196856450Y-89667685D01*
X196997417Y-89551997D01*
X202037867Y-89551997D01*
X202037867Y-89552002D01*
X202056302Y-89680225D01*
X202095124Y-89765231D01*
X202110118Y-89798063D01*
X202151294Y-89845583D01*
X202194952Y-89895968D01*
X202303926Y-89966001D01*
X202303931Y-89966004D01*
X202428228Y-90002500D01*
X202428230Y-90002500D01*
X202557770Y-90002500D01*
X202557772Y-90002500D01*
X202682069Y-89966004D01*
X202791049Y-89895967D01*
X202875882Y-89798063D01*
X202929697Y-89680226D01*
X202943170Y-89586519D01*
X202948133Y-89552002D01*
X202948133Y-89551997D01*
X202929697Y-89423774D01*
X202912639Y-89386423D01*
X202875882Y-89305937D01*
X202791049Y-89208033D01*
X202791048Y-89208032D01*
X202791047Y-89208031D01*
X202682073Y-89137998D01*
X202682070Y-89137996D01*
X202682069Y-89137996D01*
X202682066Y-89137995D01*
X202557774Y-89101500D01*
X202557772Y-89101500D01*
X202428228Y-89101500D01*
X202428225Y-89101500D01*
X202303933Y-89137995D01*
X202303926Y-89137998D01*
X202194952Y-89208031D01*
X202110117Y-89305938D01*
X202056302Y-89423774D01*
X202037867Y-89551997D01*
X196997417Y-89551997D01*
X197016410Y-89536410D01*
X197147685Y-89376450D01*
X197245232Y-89193954D01*
X197305300Y-88995934D01*
X197305301Y-88995929D01*
X197325583Y-88790003D01*
X197325583Y-88789996D01*
X197305301Y-88584070D01*
X197305300Y-88584069D01*
X197305300Y-88584066D01*
X197305049Y-88583238D01*
X197305056Y-88582842D01*
X197304352Y-88579300D01*
X197305129Y-88579145D01*
X197306250Y-88522065D01*
X197343178Y-88473281D01*
X197399786Y-88455500D01*
X202493075Y-88455500D01*
X202551266Y-88474407D01*
X202567895Y-88489670D01*
X202575951Y-88498967D01*
X202684931Y-88569004D01*
X202809228Y-88605500D01*
X202809230Y-88605500D01*
X202938770Y-88605500D01*
X202938772Y-88605500D01*
X203063069Y-88569004D01*
X203172049Y-88498967D01*
X203256882Y-88401063D01*
X203310697Y-88283226D01*
X203329133Y-88155000D01*
X203329133Y-88154997D01*
X213735867Y-88154997D01*
X213735867Y-88155002D01*
X213754302Y-88283225D01*
X213801259Y-88386045D01*
X213808118Y-88401063D01*
X213871670Y-88474407D01*
X213892952Y-88498968D01*
X213928892Y-88522065D01*
X214001931Y-88569004D01*
X214126228Y-88605500D01*
X214126230Y-88605500D01*
X214255770Y-88605500D01*
X214255772Y-88605500D01*
X214380069Y-88569004D01*
X214489049Y-88498967D01*
X214573882Y-88401063D01*
X214627697Y-88283226D01*
X214646133Y-88155000D01*
X214630115Y-88043595D01*
X214627697Y-88026774D01*
X214602395Y-87971371D01*
X214573882Y-87908937D01*
X214489049Y-87811033D01*
X214489048Y-87811032D01*
X214489047Y-87811031D01*
X214380073Y-87740998D01*
X214380070Y-87740996D01*
X214380069Y-87740996D01*
X214380066Y-87740995D01*
X214255774Y-87704500D01*
X214255772Y-87704500D01*
X214126228Y-87704500D01*
X214126225Y-87704500D01*
X214001933Y-87740995D01*
X214001926Y-87740998D01*
X213892952Y-87811031D01*
X213808117Y-87908938D01*
X213754302Y-88026774D01*
X213735867Y-88154997D01*
X203329133Y-88154997D01*
X203313115Y-88043595D01*
X203310697Y-88026774D01*
X203285395Y-87971371D01*
X203256882Y-87908937D01*
X203172049Y-87811033D01*
X203172048Y-87811032D01*
X203172047Y-87811031D01*
X203063073Y-87740998D01*
X203063070Y-87740996D01*
X203063069Y-87740996D01*
X203063066Y-87740995D01*
X202938774Y-87704500D01*
X202938772Y-87704500D01*
X202809228Y-87704500D01*
X202809225Y-87704500D01*
X202684933Y-87740995D01*
X202684926Y-87740998D01*
X202575951Y-87811032D01*
X202575950Y-87811033D01*
X202567895Y-87820330D01*
X202515500Y-87851927D01*
X202493075Y-87854500D01*
X197071562Y-87854500D01*
X196992438Y-87854500D01*
X196945661Y-87867033D01*
X196916007Y-87874979D01*
X196916007Y-87874980D01*
X196901439Y-87883390D01*
X196841590Y-87896108D01*
X196805276Y-87884961D01*
X196673959Y-87814770D01*
X196673954Y-87814768D01*
X196475934Y-87754699D01*
X196475929Y-87754698D01*
X196270003Y-87734417D01*
X196269997Y-87734417D01*
X196064070Y-87754698D01*
X196064065Y-87754699D01*
X195866045Y-87814768D01*
X195683547Y-87912316D01*
X195683547Y-87912317D01*
X195562305Y-88011817D01*
X195505328Y-88034117D01*
X195446125Y-88018668D01*
X195407310Y-87971371D01*
X195400500Y-87935289D01*
X195400500Y-87104710D01*
X195419407Y-87046519D01*
X195468907Y-87010555D01*
X195530093Y-87010555D01*
X195562303Y-87028181D01*
X195611587Y-87068627D01*
X195683547Y-87127683D01*
X195683548Y-87127683D01*
X195683550Y-87127685D01*
X195866046Y-87225232D01*
X196003997Y-87267078D01*
X196064065Y-87285300D01*
X196064070Y-87285301D01*
X196269997Y-87305583D01*
X196270000Y-87305583D01*
X196270003Y-87305583D01*
X196475929Y-87285301D01*
X196475934Y-87285300D01*
X196673954Y-87225232D01*
X196856450Y-87127685D01*
X197016410Y-86996410D01*
X197147685Y-86836450D01*
X197245232Y-86653954D01*
X197305300Y-86455934D01*
X197305301Y-86455929D01*
X197325583Y-86250003D01*
X197325583Y-86249996D01*
X197313075Y-86122997D01*
X198227867Y-86122997D01*
X198227867Y-86123002D01*
X198246302Y-86251225D01*
X198300117Y-86369061D01*
X198300118Y-86369063D01*
X198375387Y-86455929D01*
X198384952Y-86466968D01*
X198493926Y-86537001D01*
X198493931Y-86537004D01*
X198618228Y-86573500D01*
X198618230Y-86573500D01*
X198747770Y-86573500D01*
X198747772Y-86573500D01*
X198872069Y-86537004D01*
X198981049Y-86466967D01*
X199065882Y-86369063D01*
X199119697Y-86251226D01*
X199138133Y-86123000D01*
X199119697Y-85994774D01*
X199065882Y-85876937D01*
X198981049Y-85779033D01*
X198981048Y-85779032D01*
X198981047Y-85779031D01*
X198872073Y-85708998D01*
X198872070Y-85708996D01*
X198872069Y-85708996D01*
X198872066Y-85708995D01*
X198747774Y-85672500D01*
X198747772Y-85672500D01*
X198618228Y-85672500D01*
X198618225Y-85672500D01*
X198493933Y-85708995D01*
X198493926Y-85708998D01*
X198384952Y-85779031D01*
X198300117Y-85876938D01*
X198246302Y-85994774D01*
X198227867Y-86122997D01*
X197313075Y-86122997D01*
X197305301Y-86044070D01*
X197305300Y-86044065D01*
X197287078Y-85983997D01*
X197245232Y-85846046D01*
X197147685Y-85663550D01*
X197016410Y-85503590D01*
X196986042Y-85478668D01*
X196856452Y-85372316D01*
X196673954Y-85274768D01*
X196475934Y-85214699D01*
X196475929Y-85214698D01*
X196270003Y-85194417D01*
X196269997Y-85194417D01*
X196064070Y-85214698D01*
X196064065Y-85214699D01*
X195866045Y-85274768D01*
X195683547Y-85372316D01*
X195683547Y-85372317D01*
X195562305Y-85471817D01*
X195505328Y-85494117D01*
X195446125Y-85478668D01*
X195407310Y-85431371D01*
X195400500Y-85395289D01*
X195400500Y-84564710D01*
X195419407Y-84506519D01*
X195468907Y-84470555D01*
X195530093Y-84470555D01*
X195562303Y-84488181D01*
X195611587Y-84528627D01*
X195683547Y-84587683D01*
X195683548Y-84587683D01*
X195683550Y-84587685D01*
X195866046Y-84685232D01*
X196003997Y-84727078D01*
X196064065Y-84745300D01*
X196064070Y-84745301D01*
X196269997Y-84765583D01*
X196270000Y-84765583D01*
X196270003Y-84765583D01*
X196475929Y-84745301D01*
X196475934Y-84745300D01*
X196673954Y-84685232D01*
X196835287Y-84598997D01*
X212332864Y-84598997D01*
X212332864Y-84599002D01*
X212351299Y-84727225D01*
X212368817Y-84765583D01*
X212405115Y-84845063D01*
X212489860Y-84942865D01*
X212489949Y-84942968D01*
X212489951Y-84942969D01*
X212598928Y-85013004D01*
X212723225Y-85049500D01*
X212723227Y-85049500D01*
X212852767Y-85049500D01*
X212852769Y-85049500D01*
X212977066Y-85013004D01*
X213086046Y-84942967D01*
X213086053Y-84942958D01*
X213086163Y-84942865D01*
X213086286Y-84942812D01*
X213092003Y-84939139D01*
X213092638Y-84940128D01*
X213142521Y-84919045D01*
X213202117Y-84932900D01*
X213215826Y-84942859D01*
X213215951Y-84942967D01*
X213324931Y-85013004D01*
X213449228Y-85049500D01*
X213449230Y-85049500D01*
X213578770Y-85049500D01*
X213578772Y-85049500D01*
X213703069Y-85013004D01*
X213812049Y-84942967D01*
X213896882Y-84845063D01*
X213950697Y-84727226D01*
X213969133Y-84599000D01*
X213969133Y-84598997D01*
X215372867Y-84598997D01*
X215372867Y-84599002D01*
X215391302Y-84727225D01*
X215408820Y-84765583D01*
X215445118Y-84845063D01*
X215529863Y-84942865D01*
X215529952Y-84942968D01*
X215529954Y-84942969D01*
X215638931Y-85013004D01*
X215763228Y-85049500D01*
X215763230Y-85049500D01*
X215892770Y-85049500D01*
X215892772Y-85049500D01*
X216017069Y-85013004D01*
X216126049Y-84942967D01*
X216134179Y-84933583D01*
X216186574Y-84901987D01*
X216247535Y-84907221D01*
X216283820Y-84933583D01*
X216291951Y-84942967D01*
X216400931Y-85013004D01*
X216525228Y-85049500D01*
X216525230Y-85049500D01*
X216654770Y-85049500D01*
X216654772Y-85049500D01*
X216779069Y-85013004D01*
X216888049Y-84942967D01*
X216972882Y-84845063D01*
X217026697Y-84727226D01*
X217045133Y-84599000D01*
X217043506Y-84587685D01*
X217026697Y-84470774D01*
X216972882Y-84352938D01*
X216972882Y-84352937D01*
X216888049Y-84255033D01*
X216888048Y-84255032D01*
X216888047Y-84255031D01*
X216779073Y-84184998D01*
X216779070Y-84184996D01*
X216779069Y-84184996D01*
X216779066Y-84184995D01*
X216654774Y-84148500D01*
X216654772Y-84148500D01*
X216525228Y-84148500D01*
X216525225Y-84148500D01*
X216400933Y-84184995D01*
X216400926Y-84184998D01*
X216291951Y-84255032D01*
X216291949Y-84255034D01*
X216283819Y-84264417D01*
X216231423Y-84296013D01*
X216170462Y-84290777D01*
X216134181Y-84264417D01*
X216126050Y-84255034D01*
X216126048Y-84255032D01*
X216017073Y-84184998D01*
X216017070Y-84184996D01*
X216017069Y-84184996D01*
X216017066Y-84184995D01*
X215892774Y-84148500D01*
X215892772Y-84148500D01*
X215763228Y-84148500D01*
X215763225Y-84148500D01*
X215638933Y-84184995D01*
X215638926Y-84184998D01*
X215529952Y-84255031D01*
X215445117Y-84352938D01*
X215391302Y-84470774D01*
X215372867Y-84598997D01*
X213969133Y-84598997D01*
X213967506Y-84587685D01*
X213950697Y-84470774D01*
X213896882Y-84352938D01*
X213896882Y-84352937D01*
X213812049Y-84255033D01*
X213812048Y-84255032D01*
X213812047Y-84255031D01*
X213703073Y-84184998D01*
X213703070Y-84184996D01*
X213703069Y-84184996D01*
X213703066Y-84184995D01*
X213578774Y-84148500D01*
X213578772Y-84148500D01*
X213449228Y-84148500D01*
X213449225Y-84148500D01*
X213324933Y-84184995D01*
X213324926Y-84184998D01*
X213215951Y-84255032D01*
X213215826Y-84255141D01*
X213215698Y-84255194D01*
X213209994Y-84258861D01*
X213209359Y-84257873D01*
X213159466Y-84278956D01*
X213099871Y-84265096D01*
X213086163Y-84255135D01*
X213086050Y-84255038D01*
X213086046Y-84255033D01*
X213056391Y-84235975D01*
X212977070Y-84184998D01*
X212977067Y-84184996D01*
X212977066Y-84184996D01*
X212977063Y-84184995D01*
X212852771Y-84148500D01*
X212852769Y-84148500D01*
X212723225Y-84148500D01*
X212723222Y-84148500D01*
X212598930Y-84184995D01*
X212598923Y-84184998D01*
X212489949Y-84255031D01*
X212405114Y-84352938D01*
X212351299Y-84470774D01*
X212332864Y-84598997D01*
X196835287Y-84598997D01*
X196856450Y-84587685D01*
X197016410Y-84456410D01*
X197147685Y-84296450D01*
X197245232Y-84113954D01*
X197305300Y-83915934D01*
X197305301Y-83915929D01*
X197325583Y-83710003D01*
X197325583Y-83709996D01*
X197305301Y-83504070D01*
X197305300Y-83504065D01*
X197287078Y-83443997D01*
X197245232Y-83306046D01*
X197147685Y-83123550D01*
X197134344Y-83107294D01*
X197016414Y-82963595D01*
X197016410Y-82963590D01*
X196986042Y-82938668D01*
X196856452Y-82832316D01*
X196835276Y-82820997D01*
X198932867Y-82820997D01*
X198932867Y-82821002D01*
X198951302Y-82949225D01*
X198957865Y-82963595D01*
X199005118Y-83067063D01*
X199089950Y-83164966D01*
X199089952Y-83164968D01*
X199198926Y-83235001D01*
X199198931Y-83235004D01*
X199323228Y-83271500D01*
X199323230Y-83271500D01*
X199452770Y-83271500D01*
X199452772Y-83271500D01*
X199577069Y-83235004D01*
X199686049Y-83164967D01*
X199713180Y-83133656D01*
X199765576Y-83102059D01*
X199826537Y-83107294D01*
X199862820Y-83133656D01*
X199889951Y-83164967D01*
X199998931Y-83235004D01*
X200123228Y-83271500D01*
X200123230Y-83271500D01*
X200252770Y-83271500D01*
X200252772Y-83271500D01*
X200377069Y-83235004D01*
X200486049Y-83164967D01*
X200513180Y-83133656D01*
X200565576Y-83102059D01*
X200626537Y-83107294D01*
X200662820Y-83133656D01*
X200689951Y-83164967D01*
X200798931Y-83235004D01*
X200923228Y-83271500D01*
X200923230Y-83271500D01*
X201052770Y-83271500D01*
X201052772Y-83271500D01*
X201177069Y-83235004D01*
X201286049Y-83164967D01*
X201313180Y-83133656D01*
X201365576Y-83102059D01*
X201426537Y-83107294D01*
X201462820Y-83133656D01*
X201489951Y-83164967D01*
X201598931Y-83235004D01*
X201723228Y-83271500D01*
X201723230Y-83271500D01*
X201852770Y-83271500D01*
X201852772Y-83271500D01*
X201977069Y-83235004D01*
X202086049Y-83164967D01*
X202170882Y-83067063D01*
X202224697Y-82949226D01*
X202243133Y-82821000D01*
X202224697Y-82692774D01*
X202170882Y-82574937D01*
X202086049Y-82477033D01*
X202086048Y-82477032D01*
X202086047Y-82477031D01*
X201977073Y-82406998D01*
X201977070Y-82406996D01*
X201977069Y-82406996D01*
X201977066Y-82406995D01*
X201852774Y-82370500D01*
X201852772Y-82370500D01*
X201723228Y-82370500D01*
X201723225Y-82370500D01*
X201598933Y-82406995D01*
X201598926Y-82406998D01*
X201489951Y-82477032D01*
X201489949Y-82477034D01*
X201462819Y-82508344D01*
X201410423Y-82539940D01*
X201349462Y-82534704D01*
X201313181Y-82508344D01*
X201286050Y-82477034D01*
X201286048Y-82477032D01*
X201177073Y-82406998D01*
X201177070Y-82406996D01*
X201177069Y-82406996D01*
X201177066Y-82406995D01*
X201052774Y-82370500D01*
X201052772Y-82370500D01*
X200923228Y-82370500D01*
X200923225Y-82370500D01*
X200798933Y-82406995D01*
X200798926Y-82406998D01*
X200689951Y-82477032D01*
X200689949Y-82477034D01*
X200662819Y-82508344D01*
X200610423Y-82539940D01*
X200549462Y-82534704D01*
X200513181Y-82508344D01*
X200486050Y-82477034D01*
X200486048Y-82477032D01*
X200377073Y-82406998D01*
X200377070Y-82406996D01*
X200377069Y-82406996D01*
X200377066Y-82406995D01*
X200252774Y-82370500D01*
X200252772Y-82370500D01*
X200123228Y-82370500D01*
X200123225Y-82370500D01*
X199998933Y-82406995D01*
X199998926Y-82406998D01*
X199889951Y-82477032D01*
X199889949Y-82477034D01*
X199862819Y-82508344D01*
X199810423Y-82539940D01*
X199749462Y-82534704D01*
X199713181Y-82508344D01*
X199686050Y-82477034D01*
X199686048Y-82477032D01*
X199577073Y-82406998D01*
X199577070Y-82406996D01*
X199577069Y-82406996D01*
X199577066Y-82406995D01*
X199452774Y-82370500D01*
X199452772Y-82370500D01*
X199323228Y-82370500D01*
X199323225Y-82370500D01*
X199198933Y-82406995D01*
X199198926Y-82406998D01*
X199089952Y-82477031D01*
X199005117Y-82574938D01*
X198951302Y-82692774D01*
X198932867Y-82820997D01*
X196835276Y-82820997D01*
X196673954Y-82734768D01*
X196475934Y-82674699D01*
X196475929Y-82674698D01*
X196270003Y-82654417D01*
X196269997Y-82654417D01*
X196064070Y-82674698D01*
X196064065Y-82674699D01*
X195866045Y-82734768D01*
X195683547Y-82832316D01*
X195683547Y-82832317D01*
X195562305Y-82931817D01*
X195505328Y-82954117D01*
X195446125Y-82938668D01*
X195407310Y-82891371D01*
X195400500Y-82855289D01*
X195400500Y-82024710D01*
X195419407Y-81966519D01*
X195468907Y-81930555D01*
X195530093Y-81930555D01*
X195562303Y-81948181D01*
X195611587Y-81988627D01*
X195683547Y-82047683D01*
X195683548Y-82047683D01*
X195683550Y-82047685D01*
X195866046Y-82145232D01*
X196003997Y-82187078D01*
X196064065Y-82205300D01*
X196064070Y-82205301D01*
X196269997Y-82225583D01*
X196270000Y-82225583D01*
X196270003Y-82225583D01*
X196475929Y-82205301D01*
X196475934Y-82205300D01*
X196673954Y-82145232D01*
X196856450Y-82047685D01*
X197016410Y-81916410D01*
X197147685Y-81756450D01*
X197245232Y-81573954D01*
X197255300Y-81540762D01*
X197290284Y-81490566D01*
X197348092Y-81470519D01*
X197350037Y-81470500D01*
X202532563Y-81470500D01*
X202532563Y-81470499D01*
X202608989Y-81450021D01*
X202677511Y-81410460D01*
X202733460Y-81354511D01*
X203073475Y-81014496D01*
X203127992Y-80986719D01*
X203143479Y-80985500D01*
X203192770Y-80985500D01*
X203192772Y-80985500D01*
X203317069Y-80949004D01*
X203426049Y-80878967D01*
X203434179Y-80869583D01*
X203486574Y-80837987D01*
X203547535Y-80843221D01*
X203583820Y-80869583D01*
X203591951Y-80878967D01*
X203700931Y-80949004D01*
X203825228Y-80985500D01*
X203825230Y-80985500D01*
X203954770Y-80985500D01*
X203954772Y-80985500D01*
X204079069Y-80949004D01*
X204188049Y-80878967D01*
X204196179Y-80869583D01*
X204248574Y-80837987D01*
X204309535Y-80843221D01*
X204345820Y-80869583D01*
X204353951Y-80878967D01*
X204462931Y-80949004D01*
X204587228Y-80985500D01*
X204587230Y-80985500D01*
X204716770Y-80985500D01*
X204716772Y-80985500D01*
X204841069Y-80949004D01*
X204950049Y-80878967D01*
X204958179Y-80869583D01*
X205010574Y-80837987D01*
X205071535Y-80843221D01*
X205107820Y-80869583D01*
X205115951Y-80878967D01*
X205224931Y-80949004D01*
X205349228Y-80985500D01*
X205349230Y-80985500D01*
X205478770Y-80985500D01*
X205478772Y-80985500D01*
X205603069Y-80949004D01*
X205712049Y-80878967D01*
X205796882Y-80781063D01*
X205850697Y-80663226D01*
X205869133Y-80535000D01*
X205853115Y-80423595D01*
X205850697Y-80406774D01*
X205825395Y-80351371D01*
X205796882Y-80288937D01*
X205738679Y-80221766D01*
X205714863Y-80165408D01*
X205714500Y-80156937D01*
X205714500Y-79606437D01*
X205714499Y-79606435D01*
X205714176Y-79605231D01*
X205694021Y-79530011D01*
X205654460Y-79461489D01*
X205641598Y-79448627D01*
X205598511Y-79405539D01*
X205598511Y-79405540D01*
X199502511Y-73309540D01*
X199502508Y-73309538D01*
X199433992Y-73269980D01*
X199433988Y-73269978D01*
X199357564Y-73249500D01*
X199357562Y-73249500D01*
X197350037Y-73249500D01*
X197291846Y-73230593D01*
X197255882Y-73181093D01*
X197255300Y-73179237D01*
X197245232Y-73146047D01*
X197245231Y-73146045D01*
X197245230Y-73146044D01*
X197147685Y-72963550D01*
X197016410Y-72803590D01*
X196986042Y-72778668D01*
X196856452Y-72672316D01*
X196673954Y-72574768D01*
X196475934Y-72514699D01*
X196475929Y-72514698D01*
X196270003Y-72494417D01*
X196269997Y-72494417D01*
X196064070Y-72514698D01*
X196064065Y-72514699D01*
X195866045Y-72574768D01*
X195683547Y-72672316D01*
X195683547Y-72672317D01*
X195562305Y-72771817D01*
X195505328Y-72794117D01*
X195446125Y-72778668D01*
X195407310Y-72731371D01*
X195400500Y-72695289D01*
X195400500Y-71864710D01*
X195419407Y-71806519D01*
X195468907Y-71770555D01*
X195530093Y-71770555D01*
X195562303Y-71788181D01*
X195591158Y-71811861D01*
X195683547Y-71887683D01*
X195683548Y-71887683D01*
X195683550Y-71887685D01*
X195866046Y-71985232D01*
X195975899Y-72018555D01*
X196064065Y-72045300D01*
X196064070Y-72045301D01*
X196269997Y-72065583D01*
X196270000Y-72065583D01*
X196270003Y-72065583D01*
X196475929Y-72045301D01*
X196475934Y-72045300D01*
X196673954Y-71985232D01*
X196856450Y-71887685D01*
X197016410Y-71756410D01*
X197147685Y-71596450D01*
X197245232Y-71413954D01*
X197305300Y-71215934D01*
X197305301Y-71215929D01*
X197325583Y-71010003D01*
X197325583Y-71009996D01*
X197305301Y-70804070D01*
X197305300Y-70804065D01*
X197276608Y-70709481D01*
X197245232Y-70606046D01*
X197147685Y-70423550D01*
X197016410Y-70263590D01*
X196986042Y-70238668D01*
X196856452Y-70132316D01*
X196673954Y-70034768D01*
X196475934Y-69974699D01*
X196475929Y-69974698D01*
X196270003Y-69954417D01*
X196269997Y-69954417D01*
X196064070Y-69974698D01*
X196064065Y-69974699D01*
X195866045Y-70034768D01*
X195683547Y-70132316D01*
X195683547Y-70132317D01*
X195562305Y-70231817D01*
X195505328Y-70254117D01*
X195446125Y-70238668D01*
X195407310Y-70191371D01*
X195400500Y-70155289D01*
X195400500Y-69324710D01*
X195419407Y-69266519D01*
X195468907Y-69230555D01*
X195530093Y-69230555D01*
X195562303Y-69248181D01*
X195611587Y-69288627D01*
X195683547Y-69347683D01*
X195683548Y-69347683D01*
X195683550Y-69347685D01*
X195866046Y-69445232D01*
X196003997Y-69487078D01*
X196064065Y-69505300D01*
X196064070Y-69505301D01*
X196269997Y-69525583D01*
X196270000Y-69525583D01*
X196270003Y-69525583D01*
X196475929Y-69505301D01*
X196475934Y-69505300D01*
X196673954Y-69445232D01*
X196856450Y-69347685D01*
X197016410Y-69216410D01*
X197147685Y-69056450D01*
X197245232Y-68873954D01*
X197305300Y-68675934D01*
X197305301Y-68675929D01*
X197325583Y-68470003D01*
X197325583Y-68469997D01*
X200259867Y-68469997D01*
X200259867Y-68470002D01*
X200278302Y-68598225D01*
X200313789Y-68675929D01*
X200332118Y-68716063D01*
X200408821Y-68804584D01*
X200416952Y-68813968D01*
X200525926Y-68884001D01*
X200525931Y-68884004D01*
X200650228Y-68920500D01*
X200650230Y-68920500D01*
X200779770Y-68920500D01*
X200779772Y-68920500D01*
X200904069Y-68884004D01*
X201013049Y-68813967D01*
X201097882Y-68716063D01*
X201151697Y-68598226D01*
X201170133Y-68470000D01*
X201170132Y-68469996D01*
X201151697Y-68341774D01*
X201116210Y-68264070D01*
X201097882Y-68223937D01*
X201013049Y-68126033D01*
X201013048Y-68126032D01*
X201013047Y-68126031D01*
X200904073Y-68055998D01*
X200904070Y-68055996D01*
X200904069Y-68055996D01*
X200872750Y-68046800D01*
X200779774Y-68019500D01*
X200779772Y-68019500D01*
X200650228Y-68019500D01*
X200650225Y-68019500D01*
X200525933Y-68055995D01*
X200525926Y-68055998D01*
X200416952Y-68126031D01*
X200332117Y-68223938D01*
X200278302Y-68341774D01*
X200259867Y-68469997D01*
X197325583Y-68469997D01*
X197325583Y-68469996D01*
X197305301Y-68264070D01*
X197305300Y-68264065D01*
X197287078Y-68203997D01*
X197245232Y-68066046D01*
X197147685Y-67883550D01*
X197016410Y-67723590D01*
X197003482Y-67712980D01*
X196856452Y-67592316D01*
X196673954Y-67494768D01*
X196475934Y-67434699D01*
X196475929Y-67434698D01*
X196270003Y-67414417D01*
X196269997Y-67414417D01*
X196064070Y-67434698D01*
X196064065Y-67434699D01*
X195866045Y-67494768D01*
X195683547Y-67592316D01*
X195683547Y-67592317D01*
X195562305Y-67691817D01*
X195505328Y-67714117D01*
X195446125Y-67698668D01*
X195407310Y-67651371D01*
X195400500Y-67615289D01*
X195400500Y-66784710D01*
X195419407Y-66726519D01*
X195468907Y-66690555D01*
X195530093Y-66690555D01*
X195562303Y-66708181D01*
X195611587Y-66748627D01*
X195683547Y-66807683D01*
X195683548Y-66807683D01*
X195683550Y-66807685D01*
X195866046Y-66905232D01*
X196003997Y-66947078D01*
X196064065Y-66965300D01*
X196064070Y-66965301D01*
X196269997Y-66985583D01*
X196270000Y-66985583D01*
X196270003Y-66985583D01*
X196475929Y-66965301D01*
X196475934Y-66965300D01*
X196673954Y-66905232D01*
X196856450Y-66807685D01*
X197016410Y-66676410D01*
X197147685Y-66516450D01*
X197245232Y-66333954D01*
X197305300Y-66135934D01*
X197305301Y-66135929D01*
X197325583Y-65930003D01*
X197325583Y-65929996D01*
X197305301Y-65724070D01*
X197305300Y-65724065D01*
X197270223Y-65608431D01*
X197245232Y-65526046D01*
X197147685Y-65343550D01*
X197108848Y-65296227D01*
X197016414Y-65183595D01*
X197016410Y-65183590D01*
X196999173Y-65169444D01*
X196856452Y-65052316D01*
X196673954Y-64954768D01*
X196475934Y-64894699D01*
X196475929Y-64894698D01*
X196270003Y-64874417D01*
X196269997Y-64874417D01*
X196064070Y-64894698D01*
X196064065Y-64894699D01*
X195866045Y-64954768D01*
X195683547Y-65052316D01*
X195683547Y-65052317D01*
X195562305Y-65151817D01*
X195505328Y-65174117D01*
X195446125Y-65158668D01*
X195407310Y-65111371D01*
X195400500Y-65075289D01*
X195400500Y-64244710D01*
X195419407Y-64186519D01*
X195468907Y-64150555D01*
X195530093Y-64150555D01*
X195562303Y-64168181D01*
X195611587Y-64208627D01*
X195683547Y-64267683D01*
X195683548Y-64267683D01*
X195683550Y-64267685D01*
X195866046Y-64365232D01*
X196003997Y-64407078D01*
X196064065Y-64425300D01*
X196064070Y-64425301D01*
X196269997Y-64445583D01*
X196270000Y-64445583D01*
X196270003Y-64445583D01*
X196475929Y-64425301D01*
X196475934Y-64425300D01*
X196673954Y-64365232D01*
X196856450Y-64267685D01*
X197016410Y-64136410D01*
X197147685Y-63976450D01*
X197245232Y-63793954D01*
X197305300Y-63595934D01*
X197305301Y-63595929D01*
X197318295Y-63463997D01*
X199624867Y-63463997D01*
X199624867Y-63464002D01*
X199643302Y-63592225D01*
X199697117Y-63710061D01*
X199697118Y-63710063D01*
X199743042Y-63763063D01*
X199781952Y-63807968D01*
X199864422Y-63860968D01*
X199890931Y-63878004D01*
X200015228Y-63914500D01*
X200015230Y-63914500D01*
X200144770Y-63914500D01*
X200144772Y-63914500D01*
X200269069Y-63878004D01*
X200378049Y-63807967D01*
X200462882Y-63710063D01*
X200516697Y-63592226D01*
X200527513Y-63516997D01*
X213001867Y-63516997D01*
X213001867Y-63517002D01*
X213020302Y-63645225D01*
X213049913Y-63710063D01*
X213074118Y-63763063D01*
X213100885Y-63793954D01*
X213158952Y-63860968D01*
X213242250Y-63914500D01*
X213267931Y-63931004D01*
X213392228Y-63967500D01*
X213392230Y-63967500D01*
X213521770Y-63967500D01*
X213521772Y-63967500D01*
X213646069Y-63931004D01*
X213755049Y-63860967D01*
X213839882Y-63763063D01*
X213893697Y-63645226D01*
X213912133Y-63517000D01*
X213904512Y-63463997D01*
X214864867Y-63463997D01*
X214864867Y-63464002D01*
X214883302Y-63592225D01*
X214937117Y-63710061D01*
X214937118Y-63710063D01*
X214983042Y-63763063D01*
X215021952Y-63807968D01*
X215104422Y-63860968D01*
X215130931Y-63878004D01*
X215255228Y-63914500D01*
X215255230Y-63914500D01*
X215384770Y-63914500D01*
X215384772Y-63914500D01*
X215509069Y-63878004D01*
X215618049Y-63807967D01*
X215702882Y-63710063D01*
X215756697Y-63592226D01*
X215775133Y-63464000D01*
X215764493Y-63390000D01*
X215756697Y-63335774D01*
X215727087Y-63270938D01*
X215702882Y-63217937D01*
X215618049Y-63120033D01*
X215618048Y-63120032D01*
X215618047Y-63120031D01*
X215509073Y-63049998D01*
X215509070Y-63049996D01*
X215509069Y-63049996D01*
X215509066Y-63049995D01*
X215384774Y-63013500D01*
X215384772Y-63013500D01*
X215255228Y-63013500D01*
X215255225Y-63013500D01*
X215130933Y-63049995D01*
X215130926Y-63049998D01*
X215021952Y-63120031D01*
X214937117Y-63217938D01*
X214883302Y-63335774D01*
X214864867Y-63463997D01*
X213904512Y-63463997D01*
X213893697Y-63388774D01*
X213839882Y-63270938D01*
X213839882Y-63270937D01*
X213755049Y-63173033D01*
X213755048Y-63173032D01*
X213755047Y-63173031D01*
X213646073Y-63102998D01*
X213646070Y-63102996D01*
X213646069Y-63102996D01*
X213646066Y-63102995D01*
X213521774Y-63066500D01*
X213521772Y-63066500D01*
X213392228Y-63066500D01*
X213392225Y-63066500D01*
X213267933Y-63102995D01*
X213267926Y-63102998D01*
X213158952Y-63173031D01*
X213074117Y-63270938D01*
X213020302Y-63388774D01*
X213001867Y-63516997D01*
X200527513Y-63516997D01*
X200535133Y-63464000D01*
X200524493Y-63390000D01*
X200516697Y-63335774D01*
X200487087Y-63270938D01*
X200462882Y-63217937D01*
X200378049Y-63120033D01*
X200378048Y-63120032D01*
X200378047Y-63120031D01*
X200269073Y-63049998D01*
X200269070Y-63049996D01*
X200269069Y-63049996D01*
X200269066Y-63049995D01*
X200144774Y-63013500D01*
X200144772Y-63013500D01*
X200015228Y-63013500D01*
X200015225Y-63013500D01*
X199890933Y-63049995D01*
X199890926Y-63049998D01*
X199781952Y-63120031D01*
X199697117Y-63217938D01*
X199643302Y-63335774D01*
X199624867Y-63463997D01*
X197318295Y-63463997D01*
X197325583Y-63390003D01*
X197325583Y-63389996D01*
X197305301Y-63184070D01*
X197305300Y-63184065D01*
X197285875Y-63120031D01*
X197245232Y-62986046D01*
X197147685Y-62803550D01*
X197016410Y-62643590D01*
X196986042Y-62618668D01*
X196856452Y-62512316D01*
X196673954Y-62414768D01*
X196475934Y-62354699D01*
X196475929Y-62354698D01*
X196270003Y-62334417D01*
X196269997Y-62334417D01*
X196064070Y-62354698D01*
X196064065Y-62354699D01*
X195866045Y-62414768D01*
X195683547Y-62512316D01*
X195683547Y-62512317D01*
X195562305Y-62611817D01*
X195505328Y-62634117D01*
X195446125Y-62618668D01*
X195407310Y-62571371D01*
X195400500Y-62535289D01*
X195400500Y-62193997D01*
X210546867Y-62193997D01*
X210546867Y-62194002D01*
X210565302Y-62322225D01*
X210607566Y-62414768D01*
X210619118Y-62440063D01*
X210701631Y-62535289D01*
X210703952Y-62537968D01*
X210790331Y-62593480D01*
X210812931Y-62608004D01*
X210937228Y-62644500D01*
X210937230Y-62644500D01*
X211066770Y-62644500D01*
X211066772Y-62644500D01*
X211191069Y-62608004D01*
X211300049Y-62537967D01*
X211384882Y-62440063D01*
X211438697Y-62322226D01*
X211457133Y-62194000D01*
X211457133Y-62193997D01*
X214864867Y-62193997D01*
X214864867Y-62194002D01*
X214883302Y-62322225D01*
X214925566Y-62414768D01*
X214937118Y-62440063D01*
X215019631Y-62535289D01*
X215021952Y-62537968D01*
X215108331Y-62593480D01*
X215130931Y-62608004D01*
X215255228Y-62644500D01*
X215255230Y-62644500D01*
X215384770Y-62644500D01*
X215384772Y-62644500D01*
X215509069Y-62608004D01*
X215618049Y-62537967D01*
X215702882Y-62440063D01*
X215756697Y-62322226D01*
X215775133Y-62194000D01*
X215756697Y-62065774D01*
X215702882Y-61947937D01*
X215618049Y-61850033D01*
X215618048Y-61850032D01*
X215618047Y-61850031D01*
X215509073Y-61779998D01*
X215509070Y-61779996D01*
X215509069Y-61779996D01*
X215509066Y-61779995D01*
X215384774Y-61743500D01*
X215384772Y-61743500D01*
X215255228Y-61743500D01*
X215255225Y-61743500D01*
X215130933Y-61779995D01*
X215130926Y-61779998D01*
X215021952Y-61850031D01*
X214937117Y-61947938D01*
X214883302Y-62065774D01*
X214864867Y-62193997D01*
X211457133Y-62193997D01*
X211438697Y-62065774D01*
X211384882Y-61947937D01*
X211300049Y-61850033D01*
X211300048Y-61850032D01*
X211300047Y-61850031D01*
X211191073Y-61779998D01*
X211191070Y-61779996D01*
X211191069Y-61779996D01*
X211191066Y-61779995D01*
X211066774Y-61743500D01*
X211066772Y-61743500D01*
X210937228Y-61743500D01*
X210937225Y-61743500D01*
X210812933Y-61779995D01*
X210812926Y-61779998D01*
X210703952Y-61850031D01*
X210619117Y-61947938D01*
X210565302Y-62065774D01*
X210546867Y-62193997D01*
X195400500Y-62193997D01*
X195400500Y-61704064D01*
X195419407Y-61645873D01*
X195468907Y-61609909D01*
X195530093Y-61609909D01*
X195562305Y-61627536D01*
X195683829Y-61727268D01*
X195683839Y-61727275D01*
X195866232Y-61824765D01*
X195866237Y-61824767D01*
X196064166Y-61884808D01*
X196144998Y-61892769D01*
X196145000Y-61892768D01*
X196145000Y-61334144D01*
X196204174Y-61350000D01*
X196335826Y-61350000D01*
X196395000Y-61334144D01*
X196395000Y-61892768D01*
X196395001Y-61892769D01*
X196475833Y-61884808D01*
X196673762Y-61824767D01*
X196673767Y-61824765D01*
X196856160Y-61727275D01*
X196856170Y-61727268D01*
X197016050Y-61596059D01*
X197016059Y-61596050D01*
X197147268Y-61436170D01*
X197147275Y-61436160D01*
X197244765Y-61253767D01*
X197244767Y-61253762D01*
X197304808Y-61055836D01*
X197304809Y-61055830D01*
X197312771Y-60975000D01*
X196754144Y-60975000D01*
X196767811Y-60923997D01*
X210546867Y-60923997D01*
X210546867Y-60924002D01*
X210565302Y-61052225D01*
X210566994Y-61055929D01*
X210619118Y-61170063D01*
X210691647Y-61253767D01*
X210703952Y-61267968D01*
X210778575Y-61315925D01*
X210812931Y-61338004D01*
X210937228Y-61374500D01*
X210937230Y-61374500D01*
X211066770Y-61374500D01*
X211066772Y-61374500D01*
X211191069Y-61338004D01*
X211300049Y-61267967D01*
X211384882Y-61170063D01*
X211438697Y-61052226D01*
X211457133Y-60924000D01*
X211457133Y-60923997D01*
X214864867Y-60923997D01*
X214864867Y-60924002D01*
X214883302Y-61052225D01*
X214884994Y-61055929D01*
X214937118Y-61170063D01*
X215009647Y-61253767D01*
X215021952Y-61267968D01*
X215096575Y-61315925D01*
X215130931Y-61338004D01*
X215255228Y-61374500D01*
X215255230Y-61374500D01*
X215384770Y-61374500D01*
X215384772Y-61374500D01*
X215509069Y-61338004D01*
X215618049Y-61267967D01*
X215702882Y-61170063D01*
X215756697Y-61052226D01*
X215775133Y-60924000D01*
X215764493Y-60850000D01*
X215756697Y-60795774D01*
X215724375Y-60725000D01*
X215702882Y-60677937D01*
X215618049Y-60580033D01*
X215618048Y-60580032D01*
X215618047Y-60580031D01*
X215509073Y-60509998D01*
X215509070Y-60509996D01*
X215509069Y-60509996D01*
X215509066Y-60509995D01*
X215384774Y-60473500D01*
X215384772Y-60473500D01*
X215255228Y-60473500D01*
X215255225Y-60473500D01*
X215130933Y-60509995D01*
X215130926Y-60509998D01*
X215021952Y-60580031D01*
X214937117Y-60677938D01*
X214883302Y-60795774D01*
X214864867Y-60923997D01*
X211457133Y-60923997D01*
X211446493Y-60850000D01*
X211438697Y-60795774D01*
X211406375Y-60725000D01*
X211384882Y-60677937D01*
X211300049Y-60580033D01*
X211300048Y-60580032D01*
X211300047Y-60580031D01*
X211191073Y-60509998D01*
X211191070Y-60509996D01*
X211191069Y-60509996D01*
X211191066Y-60509995D01*
X211066774Y-60473500D01*
X211066772Y-60473500D01*
X210937228Y-60473500D01*
X210937225Y-60473500D01*
X210812933Y-60509995D01*
X210812926Y-60509998D01*
X210703952Y-60580031D01*
X210619117Y-60677938D01*
X210565302Y-60795774D01*
X210546867Y-60923997D01*
X196767811Y-60923997D01*
X196770000Y-60915826D01*
X196770000Y-60784174D01*
X196754144Y-60725000D01*
X197312770Y-60725000D01*
X197312770Y-60724999D01*
X197304809Y-60644169D01*
X197304808Y-60644163D01*
X197244767Y-60446237D01*
X197244765Y-60446232D01*
X197147275Y-60263839D01*
X197147268Y-60263829D01*
X197016059Y-60103949D01*
X197016050Y-60103940D01*
X196856170Y-59972731D01*
X196856160Y-59972724D01*
X196673767Y-59875234D01*
X196673762Y-59875232D01*
X196475836Y-59815191D01*
X196475830Y-59815190D01*
X196395000Y-59807229D01*
X196395000Y-60365855D01*
X196335826Y-60350000D01*
X196204174Y-60350000D01*
X196145000Y-60365855D01*
X196145000Y-59807229D01*
X196144999Y-59807229D01*
X196064169Y-59815190D01*
X196064163Y-59815191D01*
X195866237Y-59875232D01*
X195866232Y-59875234D01*
X195683839Y-59972724D01*
X195683829Y-59972731D01*
X195562305Y-60072463D01*
X195505328Y-60094763D01*
X195446125Y-60079314D01*
X195407310Y-60032017D01*
X195400500Y-59995935D01*
X195400500Y-59653997D01*
X214864867Y-59653997D01*
X214864867Y-59654002D01*
X214883302Y-59782225D01*
X214925566Y-59874768D01*
X214937118Y-59900063D01*
X215019631Y-59995289D01*
X215021952Y-59997968D01*
X215074934Y-60032017D01*
X215130931Y-60068004D01*
X215255228Y-60104500D01*
X215255230Y-60104500D01*
X215384770Y-60104500D01*
X215384772Y-60104500D01*
X215509069Y-60068004D01*
X215618049Y-59997967D01*
X215702882Y-59900063D01*
X215756697Y-59782226D01*
X215775133Y-59654000D01*
X215756697Y-59525774D01*
X215702882Y-59407937D01*
X215618049Y-59310033D01*
X215618048Y-59310032D01*
X215618047Y-59310031D01*
X215509073Y-59239998D01*
X215509070Y-59239996D01*
X215509069Y-59239996D01*
X215502394Y-59238036D01*
X215384774Y-59203500D01*
X215384772Y-59203500D01*
X215255228Y-59203500D01*
X215255225Y-59203500D01*
X215130933Y-59239995D01*
X215130926Y-59239998D01*
X215021952Y-59310031D01*
X214937117Y-59407938D01*
X214883302Y-59525774D01*
X214864867Y-59653997D01*
X195400500Y-59653997D01*
X195400500Y-59459000D01*
X195419407Y-59400809D01*
X195468907Y-59364845D01*
X195499500Y-59360000D01*
X196144999Y-59360000D01*
X196145000Y-59359999D01*
X196145000Y-58794144D01*
X196204174Y-58810000D01*
X196335826Y-58810000D01*
X196395000Y-58794144D01*
X196395000Y-59359999D01*
X196395001Y-59360000D01*
X197139697Y-59360000D01*
X197139700Y-59359999D01*
X197198036Y-59348396D01*
X197264189Y-59304193D01*
X197264193Y-59304189D01*
X197308396Y-59238036D01*
X197319999Y-59179700D01*
X197320000Y-59179697D01*
X197320000Y-59044982D01*
X205245794Y-59044982D01*
X205290158Y-59073493D01*
X205428109Y-59113999D01*
X205428112Y-59114000D01*
X205571888Y-59114000D01*
X205571890Y-59113999D01*
X205709843Y-59073492D01*
X205709844Y-59073492D01*
X205754206Y-59044982D01*
X206645794Y-59044982D01*
X206690158Y-59073493D01*
X206828109Y-59113999D01*
X206828112Y-59114000D01*
X206971888Y-59114000D01*
X206971890Y-59113999D01*
X207109843Y-59073492D01*
X207109844Y-59073492D01*
X207154206Y-59044982D01*
X206900000Y-58790776D01*
X206645794Y-59044982D01*
X205754206Y-59044982D01*
X205500000Y-58790776D01*
X205245794Y-59044982D01*
X197320000Y-59044982D01*
X197320000Y-58435001D01*
X197319999Y-58435000D01*
X196754144Y-58435000D01*
X196770000Y-58375826D01*
X196770000Y-58344982D01*
X204545794Y-58344982D01*
X204590158Y-58373493D01*
X204728109Y-58413999D01*
X204728112Y-58414000D01*
X204871888Y-58414000D01*
X204871892Y-58413999D01*
X204882491Y-58410887D01*
X204943651Y-58412633D01*
X204992105Y-58449994D01*
X205009345Y-58508701D01*
X205008377Y-58519964D01*
X204994858Y-58613995D01*
X204994858Y-58614002D01*
X205015318Y-58756309D01*
X205015319Y-58756312D01*
X205067233Y-58869988D01*
X205323222Y-58614000D01*
X205303331Y-58594109D01*
X205400000Y-58594109D01*
X205400000Y-58633891D01*
X205415224Y-58670645D01*
X205443355Y-58698776D01*
X205480109Y-58714000D01*
X205519891Y-58714000D01*
X205556645Y-58698776D01*
X205584776Y-58670645D01*
X205600000Y-58633891D01*
X205600000Y-58613999D01*
X205676776Y-58613999D01*
X205932765Y-58869988D01*
X205984680Y-58756313D01*
X206005142Y-58614002D01*
X206005142Y-58613997D01*
X205991622Y-58519965D01*
X206002055Y-58459676D01*
X206045933Y-58417034D01*
X206106495Y-58408326D01*
X206117506Y-58410886D01*
X206128109Y-58413999D01*
X206128112Y-58414000D01*
X206271888Y-58414000D01*
X206271892Y-58413999D01*
X206282491Y-58410887D01*
X206343651Y-58412633D01*
X206392105Y-58449994D01*
X206409345Y-58508701D01*
X206408377Y-58519964D01*
X206394858Y-58613995D01*
X206394858Y-58614002D01*
X206415318Y-58756309D01*
X206415319Y-58756312D01*
X206467233Y-58869988D01*
X206723222Y-58614000D01*
X206703331Y-58594109D01*
X206800000Y-58594109D01*
X206800000Y-58633891D01*
X206815224Y-58670645D01*
X206843355Y-58698776D01*
X206880109Y-58714000D01*
X206919891Y-58714000D01*
X206956645Y-58698776D01*
X206984776Y-58670645D01*
X207000000Y-58633891D01*
X207000000Y-58613999D01*
X207076776Y-58613999D01*
X207332765Y-58869988D01*
X207384680Y-58756313D01*
X207405142Y-58614002D01*
X207405142Y-58613997D01*
X207391622Y-58519965D01*
X207402055Y-58459676D01*
X207445933Y-58417034D01*
X207506495Y-58408326D01*
X207517506Y-58410886D01*
X207528109Y-58413999D01*
X207528112Y-58414000D01*
X207671888Y-58414000D01*
X207671890Y-58413999D01*
X207774067Y-58383997D01*
X214864867Y-58383997D01*
X214864867Y-58384002D01*
X214883302Y-58512225D01*
X214903913Y-58557355D01*
X214937118Y-58630063D01*
X215006469Y-58710099D01*
X215021952Y-58727968D01*
X215066058Y-58756313D01*
X215130931Y-58798004D01*
X215255228Y-58834500D01*
X215255230Y-58834500D01*
X215384770Y-58834500D01*
X215384772Y-58834500D01*
X215509069Y-58798004D01*
X215618049Y-58727967D01*
X215702882Y-58630063D01*
X215756697Y-58512226D01*
X215767800Y-58435000D01*
X215775133Y-58384002D01*
X215775133Y-58383997D01*
X215756697Y-58255774D01*
X215734242Y-58206606D01*
X215702882Y-58137937D01*
X215618049Y-58040033D01*
X215618048Y-58040032D01*
X215618047Y-58040031D01*
X215509073Y-57969998D01*
X215509070Y-57969996D01*
X215509069Y-57969996D01*
X215509066Y-57969995D01*
X215384774Y-57933500D01*
X215384772Y-57933500D01*
X215255228Y-57933500D01*
X215255225Y-57933500D01*
X215130933Y-57969995D01*
X215130926Y-57969998D01*
X215021952Y-58040031D01*
X214937117Y-58137938D01*
X214883302Y-58255774D01*
X214864867Y-58383997D01*
X207774067Y-58383997D01*
X207809843Y-58373492D01*
X207809844Y-58373492D01*
X207854206Y-58344982D01*
X207600000Y-58090776D01*
X207387195Y-58303579D01*
X207387190Y-58303586D01*
X207312300Y-58378475D01*
X207076776Y-58613999D01*
X207000000Y-58613999D01*
X207000000Y-58594109D01*
X206984776Y-58557355D01*
X206956645Y-58529224D01*
X206919891Y-58514000D01*
X206880109Y-58514000D01*
X206843355Y-58529224D01*
X206815224Y-58557355D01*
X206800000Y-58594109D01*
X206703331Y-58594109D01*
X206437447Y-58328225D01*
X206437447Y-58328224D01*
X206383812Y-58274588D01*
X206383812Y-58274589D01*
X206199999Y-58090776D01*
X205987195Y-58303579D01*
X205987190Y-58303586D01*
X205912300Y-58378475D01*
X205676776Y-58613999D01*
X205600000Y-58613999D01*
X205600000Y-58594109D01*
X205584776Y-58557355D01*
X205556645Y-58529224D01*
X205519891Y-58514000D01*
X205480109Y-58514000D01*
X205443355Y-58529224D01*
X205415224Y-58557355D01*
X205400000Y-58594109D01*
X205303331Y-58594109D01*
X205037447Y-58328225D01*
X205037447Y-58328224D01*
X204983812Y-58274588D01*
X204983812Y-58274589D01*
X204800000Y-58090777D01*
X204545794Y-58344982D01*
X196770000Y-58344982D01*
X196770000Y-58244174D01*
X196754144Y-58185000D01*
X197319999Y-58185000D01*
X197320000Y-58184999D01*
X197320000Y-57913997D01*
X204294858Y-57913997D01*
X204294858Y-57914002D01*
X204315318Y-58056309D01*
X204315319Y-58056312D01*
X204367233Y-58169988D01*
X204623222Y-57914000D01*
X204603331Y-57894109D01*
X204700000Y-57894109D01*
X204700000Y-57933891D01*
X204715224Y-57970645D01*
X204743355Y-57998776D01*
X204780109Y-58014000D01*
X204819891Y-58014000D01*
X204856645Y-57998776D01*
X204884776Y-57970645D01*
X204900000Y-57933891D01*
X204900000Y-57913999D01*
X204976776Y-57913999D01*
X205269381Y-58206604D01*
X205269384Y-58206606D01*
X205500000Y-58437222D01*
X206023222Y-57914000D01*
X206003331Y-57894109D01*
X206100000Y-57894109D01*
X206100000Y-57933891D01*
X206115224Y-57970645D01*
X206143355Y-57998776D01*
X206180109Y-58014000D01*
X206219891Y-58014000D01*
X206256645Y-57998776D01*
X206284776Y-57970645D01*
X206300000Y-57933891D01*
X206300000Y-57913999D01*
X206376776Y-57913999D01*
X206669381Y-58206604D01*
X206669384Y-58206606D01*
X206900000Y-58437222D01*
X207423222Y-57914000D01*
X207403331Y-57894109D01*
X207500000Y-57894109D01*
X207500000Y-57933891D01*
X207515224Y-57970645D01*
X207543355Y-57998776D01*
X207580109Y-58014000D01*
X207619891Y-58014000D01*
X207656645Y-57998776D01*
X207684776Y-57970645D01*
X207700000Y-57933891D01*
X207700000Y-57914000D01*
X207776776Y-57914000D01*
X208032765Y-58169988D01*
X208084680Y-58056313D01*
X208105142Y-57914002D01*
X208105142Y-57913997D01*
X208084680Y-57771685D01*
X208084680Y-57771683D01*
X208032766Y-57658010D01*
X207776776Y-57914000D01*
X207700000Y-57914000D01*
X207700000Y-57894109D01*
X207684776Y-57857355D01*
X207656645Y-57829224D01*
X207619891Y-57814000D01*
X207580109Y-57814000D01*
X207543355Y-57829224D01*
X207515224Y-57857355D01*
X207500000Y-57894109D01*
X207403331Y-57894109D01*
X207137447Y-57628225D01*
X207137447Y-57628224D01*
X207083812Y-57574588D01*
X207083812Y-57574589D01*
X206899999Y-57390776D01*
X206687195Y-57603579D01*
X206687190Y-57603586D01*
X206612300Y-57678475D01*
X206376776Y-57913999D01*
X206300000Y-57913999D01*
X206300000Y-57894109D01*
X206284776Y-57857355D01*
X206256645Y-57829224D01*
X206219891Y-57814000D01*
X206180109Y-57814000D01*
X206143355Y-57829224D01*
X206115224Y-57857355D01*
X206100000Y-57894109D01*
X206003331Y-57894109D01*
X205737447Y-57628225D01*
X205737447Y-57628224D01*
X205683812Y-57574588D01*
X205683812Y-57574589D01*
X205499999Y-57390776D01*
X205287195Y-57603579D01*
X205287190Y-57603586D01*
X205212300Y-57678475D01*
X204976776Y-57913999D01*
X204900000Y-57913999D01*
X204900000Y-57894109D01*
X204884776Y-57857355D01*
X204856645Y-57829224D01*
X204819891Y-57814000D01*
X204780109Y-57814000D01*
X204743355Y-57829224D01*
X204715224Y-57857355D01*
X204700000Y-57894109D01*
X204603331Y-57894109D01*
X204367233Y-57658011D01*
X204315319Y-57771687D01*
X204315318Y-57771690D01*
X204294858Y-57913997D01*
X197320000Y-57913997D01*
X197320000Y-57440302D01*
X197319999Y-57440299D01*
X197308396Y-57381963D01*
X197264193Y-57315810D01*
X197264189Y-57315806D01*
X197198036Y-57271603D01*
X197139700Y-57260000D01*
X196395001Y-57260000D01*
X196395000Y-57260001D01*
X196395000Y-57825855D01*
X196335826Y-57810000D01*
X196204174Y-57810000D01*
X196145000Y-57825855D01*
X196145000Y-57260001D01*
X196144999Y-57260000D01*
X195499500Y-57260000D01*
X195441309Y-57241093D01*
X195405345Y-57191593D01*
X195400500Y-57161000D01*
X195400500Y-57113997D01*
X199624867Y-57113997D01*
X199624867Y-57114002D01*
X199643302Y-57242225D01*
X199656719Y-57271603D01*
X199697118Y-57360063D01*
X199778953Y-57454507D01*
X199781952Y-57457968D01*
X199857635Y-57506606D01*
X199890931Y-57528004D01*
X200015228Y-57564500D01*
X200015230Y-57564500D01*
X200144770Y-57564500D01*
X200144772Y-57564500D01*
X200269069Y-57528004D01*
X200339073Y-57483015D01*
X204545793Y-57483015D01*
X204800000Y-57737222D01*
X205323222Y-57214000D01*
X205303331Y-57194109D01*
X205400000Y-57194109D01*
X205400000Y-57233891D01*
X205415224Y-57270645D01*
X205443355Y-57298776D01*
X205480109Y-57314000D01*
X205519891Y-57314000D01*
X205556645Y-57298776D01*
X205584776Y-57270645D01*
X205600000Y-57233891D01*
X205600000Y-57213999D01*
X205676776Y-57213999D01*
X205969381Y-57506604D01*
X205969384Y-57506606D01*
X206200000Y-57737222D01*
X206723222Y-57214000D01*
X206703331Y-57194109D01*
X206800000Y-57194109D01*
X206800000Y-57233891D01*
X206815224Y-57270645D01*
X206843355Y-57298776D01*
X206880109Y-57314000D01*
X206919891Y-57314000D01*
X206956645Y-57298776D01*
X206984776Y-57270645D01*
X207000000Y-57233891D01*
X207000000Y-57213999D01*
X207076776Y-57213999D01*
X207369381Y-57506604D01*
X207369384Y-57506606D01*
X207600000Y-57737222D01*
X207854205Y-57483016D01*
X207854205Y-57483015D01*
X207809847Y-57454508D01*
X207671890Y-57414000D01*
X207528112Y-57414000D01*
X207528104Y-57414001D01*
X207517501Y-57417114D01*
X207456341Y-57415364D01*
X207407890Y-57377999D01*
X207390654Y-57319292D01*
X207391622Y-57308033D01*
X207405142Y-57214001D01*
X207405142Y-57213997D01*
X207391622Y-57119965D01*
X207392655Y-57113997D01*
X214864867Y-57113997D01*
X214864867Y-57114002D01*
X214883302Y-57242225D01*
X214896719Y-57271603D01*
X214937118Y-57360063D01*
X215018953Y-57454507D01*
X215021952Y-57457968D01*
X215097635Y-57506606D01*
X215130931Y-57528004D01*
X215255228Y-57564500D01*
X215255230Y-57564500D01*
X215384770Y-57564500D01*
X215384772Y-57564500D01*
X215509069Y-57528004D01*
X215618049Y-57457967D01*
X215702882Y-57360063D01*
X215756697Y-57242226D01*
X215763977Y-57191593D01*
X215775133Y-57114002D01*
X215775133Y-57113997D01*
X215756697Y-56985774D01*
X215730414Y-56928224D01*
X215702882Y-56867937D01*
X215618049Y-56770033D01*
X215618048Y-56770032D01*
X215618047Y-56770031D01*
X215509073Y-56699998D01*
X215509070Y-56699996D01*
X215509069Y-56699996D01*
X215509066Y-56699995D01*
X215384774Y-56663500D01*
X215384772Y-56663500D01*
X215255228Y-56663500D01*
X215255225Y-56663500D01*
X215130933Y-56699995D01*
X215130926Y-56699998D01*
X215021952Y-56770031D01*
X214937117Y-56867938D01*
X214883302Y-56985774D01*
X214864867Y-57113997D01*
X207392655Y-57113997D01*
X207402055Y-57059676D01*
X207445933Y-57017034D01*
X207506495Y-57008326D01*
X207517506Y-57010886D01*
X207528109Y-57013999D01*
X207528112Y-57014000D01*
X207671888Y-57014000D01*
X207671890Y-57013999D01*
X207809843Y-56973492D01*
X207809844Y-56973492D01*
X207854206Y-56944982D01*
X207600000Y-56690776D01*
X207387195Y-56903579D01*
X207387190Y-56903586D01*
X207312300Y-56978475D01*
X207076776Y-57213999D01*
X207000000Y-57213999D01*
X207000000Y-57194109D01*
X206984776Y-57157355D01*
X206956645Y-57129224D01*
X206919891Y-57114000D01*
X206880109Y-57114000D01*
X206843355Y-57129224D01*
X206815224Y-57157355D01*
X206800000Y-57194109D01*
X206703331Y-57194109D01*
X206437447Y-56928225D01*
X206437447Y-56928224D01*
X206383812Y-56874588D01*
X206383812Y-56874589D01*
X206199999Y-56690776D01*
X205987195Y-56903579D01*
X205987190Y-56903586D01*
X205912300Y-56978475D01*
X205676776Y-57213999D01*
X205600000Y-57213999D01*
X205600000Y-57194109D01*
X205584776Y-57157355D01*
X205556645Y-57129224D01*
X205519891Y-57114000D01*
X205480109Y-57114000D01*
X205443355Y-57129224D01*
X205415224Y-57157355D01*
X205400000Y-57194109D01*
X205303331Y-57194109D01*
X205037447Y-56928225D01*
X205037447Y-56928224D01*
X204983812Y-56874588D01*
X204983812Y-56874589D01*
X204800000Y-56690777D01*
X204545794Y-56944982D01*
X204590158Y-56973493D01*
X204728109Y-57013999D01*
X204728112Y-57014000D01*
X204871888Y-57014000D01*
X204871892Y-57013999D01*
X204882491Y-57010887D01*
X204943651Y-57012633D01*
X204992105Y-57049994D01*
X205009345Y-57108701D01*
X205008377Y-57119964D01*
X204994858Y-57213995D01*
X204994858Y-57214003D01*
X205008377Y-57308034D01*
X204997944Y-57368324D01*
X204954065Y-57410966D01*
X204893503Y-57419673D01*
X204882496Y-57417114D01*
X204871891Y-57414000D01*
X204728109Y-57414000D01*
X204590156Y-57454507D01*
X204590154Y-57454508D01*
X204545793Y-57483015D01*
X200339073Y-57483015D01*
X200378049Y-57457967D01*
X200462882Y-57360063D01*
X200516697Y-57242226D01*
X200523977Y-57191593D01*
X200535133Y-57114002D01*
X200535133Y-57113997D01*
X200516697Y-56985774D01*
X200490414Y-56928224D01*
X200462882Y-56867937D01*
X200378049Y-56770033D01*
X200378048Y-56770032D01*
X200378047Y-56770031D01*
X200269073Y-56699998D01*
X200269070Y-56699996D01*
X200269069Y-56699996D01*
X200269066Y-56699995D01*
X200144774Y-56663500D01*
X200144772Y-56663500D01*
X200015228Y-56663500D01*
X200015225Y-56663500D01*
X199890933Y-56699995D01*
X199890926Y-56699998D01*
X199781952Y-56770031D01*
X199697117Y-56867938D01*
X199643302Y-56985774D01*
X199624867Y-57113997D01*
X195400500Y-57113997D01*
X195400500Y-56513997D01*
X204294858Y-56513997D01*
X204294858Y-56514002D01*
X204315318Y-56656309D01*
X204315319Y-56656312D01*
X204367233Y-56769988D01*
X204623222Y-56514000D01*
X204603331Y-56494109D01*
X204700000Y-56494109D01*
X204700000Y-56533891D01*
X204715224Y-56570645D01*
X204743355Y-56598776D01*
X204780109Y-56614000D01*
X204819891Y-56614000D01*
X204856645Y-56598776D01*
X204884776Y-56570645D01*
X204900000Y-56533891D01*
X204900000Y-56513999D01*
X204976776Y-56513999D01*
X205269381Y-56806604D01*
X205269384Y-56806606D01*
X205500000Y-57037222D01*
X206023222Y-56514000D01*
X206003331Y-56494109D01*
X206100000Y-56494109D01*
X206100000Y-56533891D01*
X206115224Y-56570645D01*
X206143355Y-56598776D01*
X206180109Y-56614000D01*
X206219891Y-56614000D01*
X206256645Y-56598776D01*
X206284776Y-56570645D01*
X206300000Y-56533891D01*
X206300000Y-56513999D01*
X206376776Y-56513999D01*
X206669381Y-56806604D01*
X206669384Y-56806606D01*
X206900000Y-57037222D01*
X207423222Y-56514000D01*
X207403331Y-56494109D01*
X207500000Y-56494109D01*
X207500000Y-56533891D01*
X207515224Y-56570645D01*
X207543355Y-56598776D01*
X207580109Y-56614000D01*
X207619891Y-56614000D01*
X207656645Y-56598776D01*
X207684776Y-56570645D01*
X207700000Y-56533891D01*
X207700000Y-56514000D01*
X207776776Y-56514000D01*
X208032765Y-56769988D01*
X208084680Y-56656313D01*
X208105142Y-56514002D01*
X208105142Y-56513997D01*
X208084680Y-56371685D01*
X208084680Y-56371683D01*
X208032766Y-56258010D01*
X207776776Y-56514000D01*
X207700000Y-56514000D01*
X207700000Y-56494109D01*
X207684776Y-56457355D01*
X207656645Y-56429224D01*
X207619891Y-56414000D01*
X207580109Y-56414000D01*
X207543355Y-56429224D01*
X207515224Y-56457355D01*
X207500000Y-56494109D01*
X207403331Y-56494109D01*
X207137447Y-56228225D01*
X207137447Y-56228224D01*
X207083812Y-56174588D01*
X207083812Y-56174589D01*
X206899999Y-55990776D01*
X206687195Y-56203579D01*
X206687190Y-56203586D01*
X206612300Y-56278475D01*
X206376776Y-56513999D01*
X206300000Y-56513999D01*
X206300000Y-56494109D01*
X206284776Y-56457355D01*
X206256645Y-56429224D01*
X206219891Y-56414000D01*
X206180109Y-56414000D01*
X206143355Y-56429224D01*
X206115224Y-56457355D01*
X206100000Y-56494109D01*
X206003331Y-56494109D01*
X205737447Y-56228225D01*
X205737447Y-56228224D01*
X205683812Y-56174588D01*
X205683812Y-56174589D01*
X205499999Y-55990776D01*
X205287195Y-56203579D01*
X205287190Y-56203586D01*
X205212300Y-56278475D01*
X204976776Y-56513999D01*
X204900000Y-56513999D01*
X204900000Y-56494109D01*
X204884776Y-56457355D01*
X204856645Y-56429224D01*
X204819891Y-56414000D01*
X204780109Y-56414000D01*
X204743355Y-56429224D01*
X204715224Y-56457355D01*
X204700000Y-56494109D01*
X204603331Y-56494109D01*
X204367233Y-56258011D01*
X204315319Y-56371687D01*
X204315318Y-56371690D01*
X204294858Y-56513997D01*
X195400500Y-56513997D01*
X195400500Y-55843997D01*
X199624867Y-55843997D01*
X199624867Y-55844002D01*
X199643302Y-55972225D01*
X199680880Y-56054507D01*
X199697118Y-56090063D01*
X199770358Y-56174588D01*
X199781952Y-56187968D01*
X199890926Y-56258001D01*
X199890931Y-56258004D01*
X200015228Y-56294500D01*
X200015230Y-56294500D01*
X200144770Y-56294500D01*
X200144772Y-56294500D01*
X200269069Y-56258004D01*
X200378049Y-56187967D01*
X200462882Y-56090063D01*
X200466101Y-56083015D01*
X204545793Y-56083015D01*
X204800000Y-56337222D01*
X205323222Y-55814000D01*
X205303331Y-55794109D01*
X205400000Y-55794109D01*
X205400000Y-55833891D01*
X205415224Y-55870645D01*
X205443355Y-55898776D01*
X205480109Y-55914000D01*
X205519891Y-55914000D01*
X205556645Y-55898776D01*
X205584776Y-55870645D01*
X205600000Y-55833891D01*
X205600000Y-55814000D01*
X205676776Y-55814000D01*
X205860588Y-55997811D01*
X205969381Y-56106604D01*
X205969384Y-56106606D01*
X206200000Y-56337222D01*
X206723222Y-55814000D01*
X206703331Y-55794109D01*
X206800000Y-55794109D01*
X206800000Y-55833891D01*
X206815224Y-55870645D01*
X206843355Y-55898776D01*
X206880109Y-55914000D01*
X206919891Y-55914000D01*
X206956645Y-55898776D01*
X206984776Y-55870645D01*
X207000000Y-55833891D01*
X207000000Y-55814000D01*
X207076776Y-55814000D01*
X207260588Y-55997811D01*
X207369381Y-56106604D01*
X207369384Y-56106606D01*
X207600000Y-56337222D01*
X207854205Y-56083016D01*
X207854205Y-56083015D01*
X207809847Y-56054508D01*
X207671890Y-56014000D01*
X207528112Y-56014000D01*
X207528104Y-56014001D01*
X207517501Y-56017114D01*
X207456341Y-56015364D01*
X207407890Y-55977999D01*
X207390654Y-55919292D01*
X207391622Y-55908033D01*
X207400829Y-55843997D01*
X214864867Y-55843997D01*
X214864867Y-55844002D01*
X214883302Y-55972225D01*
X214920880Y-56054507D01*
X214937118Y-56090063D01*
X215010358Y-56174588D01*
X215021952Y-56187968D01*
X215130926Y-56258001D01*
X215130931Y-56258004D01*
X215255228Y-56294500D01*
X215255230Y-56294500D01*
X215384770Y-56294500D01*
X215384772Y-56294500D01*
X215509069Y-56258004D01*
X215618049Y-56187967D01*
X215702882Y-56090063D01*
X215756697Y-55972226D01*
X215765927Y-55908033D01*
X215775133Y-55844002D01*
X215775133Y-55843997D01*
X215756697Y-55715774D01*
X215702882Y-55597938D01*
X215702882Y-55597937D01*
X215618049Y-55500033D01*
X215618048Y-55500032D01*
X215618047Y-55500031D01*
X215509073Y-55429998D01*
X215509070Y-55429996D01*
X215509069Y-55429996D01*
X215509066Y-55429995D01*
X215384774Y-55393500D01*
X215384772Y-55393500D01*
X215255228Y-55393500D01*
X215255225Y-55393500D01*
X215130933Y-55429995D01*
X215130926Y-55429998D01*
X215021952Y-55500031D01*
X214937117Y-55597938D01*
X214883302Y-55715774D01*
X214864867Y-55843997D01*
X207400829Y-55843997D01*
X207405142Y-55814001D01*
X207405142Y-55813997D01*
X207384680Y-55671685D01*
X207384680Y-55671683D01*
X207332766Y-55558010D01*
X207076776Y-55814000D01*
X207000000Y-55814000D01*
X207000000Y-55794109D01*
X206984776Y-55757355D01*
X206956645Y-55729224D01*
X206919891Y-55714000D01*
X206880109Y-55714000D01*
X206843355Y-55729224D01*
X206815224Y-55757355D01*
X206800000Y-55794109D01*
X206703331Y-55794109D01*
X206467233Y-55558011D01*
X206415319Y-55671687D01*
X206415318Y-55671690D01*
X206394858Y-55813997D01*
X206394858Y-55814003D01*
X206408377Y-55908034D01*
X206397944Y-55968324D01*
X206354065Y-56010966D01*
X206293503Y-56019673D01*
X206282496Y-56017114D01*
X206271891Y-56014000D01*
X206128112Y-56014000D01*
X206128104Y-56014001D01*
X206117501Y-56017114D01*
X206056341Y-56015364D01*
X206007890Y-55977999D01*
X205990654Y-55919292D01*
X205991622Y-55908033D01*
X206005142Y-55814001D01*
X206005142Y-55813997D01*
X205984680Y-55671685D01*
X205984680Y-55671683D01*
X205932766Y-55558010D01*
X205676776Y-55814000D01*
X205600000Y-55814000D01*
X205600000Y-55794109D01*
X205584776Y-55757355D01*
X205556645Y-55729224D01*
X205519891Y-55714000D01*
X205480109Y-55714000D01*
X205443355Y-55729224D01*
X205415224Y-55757355D01*
X205400000Y-55794109D01*
X205303331Y-55794109D01*
X205067233Y-55558011D01*
X205015319Y-55671687D01*
X205015318Y-55671690D01*
X204994858Y-55813997D01*
X204994858Y-55814003D01*
X205008377Y-55908034D01*
X204997944Y-55968324D01*
X204954065Y-56010966D01*
X204893503Y-56019673D01*
X204882496Y-56017114D01*
X204871891Y-56014000D01*
X204728109Y-56014000D01*
X204590156Y-56054507D01*
X204590154Y-56054508D01*
X204545793Y-56083015D01*
X200466101Y-56083015D01*
X200516697Y-55972226D01*
X200525927Y-55908033D01*
X200535133Y-55844002D01*
X200535133Y-55843997D01*
X200516697Y-55715774D01*
X200462882Y-55597938D01*
X200462882Y-55597937D01*
X200378049Y-55500033D01*
X200378048Y-55500032D01*
X200378047Y-55500031D01*
X200269073Y-55429998D01*
X200269070Y-55429996D01*
X200269069Y-55429996D01*
X200269066Y-55429995D01*
X200144774Y-55393500D01*
X200144772Y-55393500D01*
X200015228Y-55393500D01*
X200015225Y-55393500D01*
X199890933Y-55429995D01*
X199890926Y-55429998D01*
X199781952Y-55500031D01*
X199697117Y-55597938D01*
X199643302Y-55715774D01*
X199624867Y-55843997D01*
X195400500Y-55843997D01*
X195400500Y-55383015D01*
X205245793Y-55383015D01*
X205500000Y-55637222D01*
X205754205Y-55383016D01*
X205754205Y-55383015D01*
X206645793Y-55383015D01*
X206900000Y-55637222D01*
X207154205Y-55383016D01*
X207154205Y-55383015D01*
X207109847Y-55354508D01*
X206971890Y-55314000D01*
X206828109Y-55314000D01*
X206690156Y-55354507D01*
X206690154Y-55354508D01*
X206645793Y-55383015D01*
X205754205Y-55383015D01*
X205709847Y-55354508D01*
X205571890Y-55314000D01*
X205428109Y-55314000D01*
X205290156Y-55354507D01*
X205290154Y-55354508D01*
X205245793Y-55383015D01*
X195400500Y-55383015D01*
X195400500Y-54573997D01*
X199624867Y-54573997D01*
X199624867Y-54574002D01*
X199643302Y-54702225D01*
X199697117Y-54820061D01*
X199697118Y-54820063D01*
X199781951Y-54917967D01*
X199781952Y-54917968D01*
X199890926Y-54988001D01*
X199890931Y-54988004D01*
X200015228Y-55024500D01*
X200015230Y-55024500D01*
X200144770Y-55024500D01*
X200144772Y-55024500D01*
X200269069Y-54988004D01*
X200378049Y-54917967D01*
X200462882Y-54820063D01*
X200516697Y-54702226D01*
X200535133Y-54574000D01*
X200516697Y-54445774D01*
X200462882Y-54327937D01*
X200378049Y-54230033D01*
X200378048Y-54230032D01*
X200378047Y-54230031D01*
X200269073Y-54159998D01*
X200269070Y-54159996D01*
X200269069Y-54159996D01*
X200269066Y-54159995D01*
X200144774Y-54123500D01*
X200144772Y-54123500D01*
X200015228Y-54123500D01*
X200015225Y-54123500D01*
X199890933Y-54159995D01*
X199890926Y-54159998D01*
X199781952Y-54230031D01*
X199697117Y-54327938D01*
X199643302Y-54445774D01*
X199624867Y-54573997D01*
X195400500Y-54573997D01*
X195400500Y-53303997D01*
X199624867Y-53303997D01*
X199624867Y-53304002D01*
X199643302Y-53432225D01*
X199697117Y-53550061D01*
X199697118Y-53550063D01*
X199781951Y-53647967D01*
X199781952Y-53647968D01*
X199890926Y-53718001D01*
X199890931Y-53718004D01*
X200015228Y-53754500D01*
X200015230Y-53754500D01*
X200144770Y-53754500D01*
X200144772Y-53754500D01*
X200269069Y-53718004D01*
X200378049Y-53647967D01*
X200462882Y-53550063D01*
X200516697Y-53432226D01*
X200535133Y-53304000D01*
X200516697Y-53175774D01*
X200462882Y-53057937D01*
X200378049Y-52960033D01*
X200378048Y-52960032D01*
X200378047Y-52960031D01*
X200269073Y-52889998D01*
X200269070Y-52889996D01*
X200269069Y-52889996D01*
X200269066Y-52889995D01*
X200144774Y-52853500D01*
X200144772Y-52853500D01*
X200015228Y-52853500D01*
X200015225Y-52853500D01*
X199890933Y-52889995D01*
X199890926Y-52889998D01*
X199781952Y-52960031D01*
X199697117Y-53057938D01*
X199643302Y-53175774D01*
X199624867Y-53303997D01*
X195400500Y-53303997D01*
X195400500Y-52033997D01*
X197338867Y-52033997D01*
X197338867Y-52034002D01*
X197357302Y-52162225D01*
X197385800Y-52224625D01*
X197411118Y-52280063D01*
X197465187Y-52342463D01*
X197495952Y-52377968D01*
X197593049Y-52440368D01*
X197604931Y-52448004D01*
X197729228Y-52484500D01*
X197729230Y-52484500D01*
X197858770Y-52484500D01*
X197858772Y-52484500D01*
X197983069Y-52448004D01*
X198092049Y-52377967D01*
X198176882Y-52280063D01*
X198230697Y-52162226D01*
X198240986Y-52090663D01*
X198249133Y-52034002D01*
X198249133Y-52033997D01*
X198230697Y-51905774D01*
X198176882Y-51787938D01*
X198176882Y-51787937D01*
X198092049Y-51690033D01*
X198092048Y-51690032D01*
X198092047Y-51690031D01*
X197983073Y-51619998D01*
X197983070Y-51619996D01*
X197983069Y-51619996D01*
X197983066Y-51619995D01*
X197858774Y-51583500D01*
X197858772Y-51583500D01*
X197729228Y-51583500D01*
X197729225Y-51583500D01*
X197604933Y-51619995D01*
X197604926Y-51619998D01*
X197495952Y-51690031D01*
X197411117Y-51787938D01*
X197357302Y-51905774D01*
X197338867Y-52033997D01*
X195400500Y-52033997D01*
X195400500Y-51578997D01*
X200386867Y-51578997D01*
X200386867Y-51579002D01*
X200405302Y-51707225D01*
X200442163Y-51787937D01*
X200459118Y-51825063D01*
X200543951Y-51922967D01*
X200543952Y-51922968D01*
X200652926Y-51993001D01*
X200652931Y-51993004D01*
X200777228Y-52029500D01*
X200777230Y-52029500D01*
X200906770Y-52029500D01*
X200906772Y-52029500D01*
X201021978Y-51995673D01*
X201083136Y-51997420D01*
X201131589Y-52034783D01*
X201148867Y-52090663D01*
X201148867Y-52096402D01*
X201167302Y-52224625D01*
X201221117Y-52342461D01*
X201221118Y-52342463D01*
X201251882Y-52377967D01*
X201305952Y-52440368D01*
X201317834Y-52448004D01*
X201414931Y-52510404D01*
X201539228Y-52546900D01*
X201539230Y-52546900D01*
X201668770Y-52546900D01*
X201668772Y-52546900D01*
X201793069Y-52510404D01*
X201902049Y-52440367D01*
X201986882Y-52342463D01*
X202040697Y-52224626D01*
X202059133Y-52096400D01*
X202058308Y-52090663D01*
X202050161Y-52033997D01*
X214864867Y-52033997D01*
X214864867Y-52034002D01*
X214883302Y-52162225D01*
X214911800Y-52224625D01*
X214937118Y-52280063D01*
X214991187Y-52342463D01*
X215021952Y-52377968D01*
X215119049Y-52440368D01*
X215130931Y-52448004D01*
X215255228Y-52484500D01*
X215255230Y-52484500D01*
X215384770Y-52484500D01*
X215384772Y-52484500D01*
X215509069Y-52448004D01*
X215618049Y-52377967D01*
X215702882Y-52280063D01*
X215756697Y-52162226D01*
X215766986Y-52090663D01*
X215775133Y-52034002D01*
X215775133Y-52033997D01*
X215756697Y-51905774D01*
X215702882Y-51787938D01*
X215702882Y-51787937D01*
X215618049Y-51690033D01*
X215618048Y-51690032D01*
X215618047Y-51690031D01*
X215509073Y-51619998D01*
X215509070Y-51619996D01*
X215509069Y-51619996D01*
X215509066Y-51619995D01*
X215384774Y-51583500D01*
X215384772Y-51583500D01*
X215255228Y-51583500D01*
X215255225Y-51583500D01*
X215130933Y-51619995D01*
X215130926Y-51619998D01*
X215021952Y-51690031D01*
X214937117Y-51787938D01*
X214883302Y-51905774D01*
X214864867Y-52033997D01*
X202050161Y-52033997D01*
X202040697Y-51968174D01*
X202020051Y-51922967D01*
X201986882Y-51850337D01*
X201902049Y-51752433D01*
X201902048Y-51752432D01*
X201902047Y-51752431D01*
X201788849Y-51679684D01*
X201750118Y-51632318D01*
X201746624Y-51571233D01*
X201779704Y-51519760D01*
X201788849Y-51513116D01*
X201902047Y-51440368D01*
X201902046Y-51440368D01*
X201902049Y-51440367D01*
X201986882Y-51342463D01*
X202040697Y-51224626D01*
X202049270Y-51164998D01*
X202059133Y-51096402D01*
X202059133Y-51096397D01*
X202040697Y-50968174D01*
X201986882Y-50850338D01*
X201986882Y-50850337D01*
X201912069Y-50763997D01*
X214864867Y-50763997D01*
X214864867Y-50764002D01*
X214883302Y-50892225D01*
X214917988Y-50968175D01*
X214937118Y-51010063D01*
X214999724Y-51082315D01*
X215021952Y-51107968D01*
X215130926Y-51178001D01*
X215130931Y-51178004D01*
X215255228Y-51214500D01*
X215255230Y-51214500D01*
X215384770Y-51214500D01*
X215384772Y-51214500D01*
X215509069Y-51178004D01*
X215618049Y-51107967D01*
X215702882Y-51010063D01*
X215756697Y-50892226D01*
X215775133Y-50764000D01*
X215764959Y-50693240D01*
X215756697Y-50635774D01*
X215738533Y-50596001D01*
X215702882Y-50517937D01*
X215618049Y-50420033D01*
X215618048Y-50420032D01*
X215618047Y-50420031D01*
X215509073Y-50349998D01*
X215509070Y-50349996D01*
X215509069Y-50349996D01*
X215509066Y-50349995D01*
X215384774Y-50313500D01*
X215384772Y-50313500D01*
X215255228Y-50313500D01*
X215255225Y-50313500D01*
X215130933Y-50349995D01*
X215130926Y-50349998D01*
X215021952Y-50420031D01*
X214937117Y-50517938D01*
X214883302Y-50635774D01*
X214864867Y-50763997D01*
X201912069Y-50763997D01*
X201902049Y-50752433D01*
X201902048Y-50752432D01*
X201902047Y-50752431D01*
X201793073Y-50682398D01*
X201793070Y-50682396D01*
X201793069Y-50682396D01*
X201793066Y-50682395D01*
X201668774Y-50645900D01*
X201668772Y-50645900D01*
X201539228Y-50645900D01*
X201539225Y-50645900D01*
X201414933Y-50682395D01*
X201414926Y-50682398D01*
X201305952Y-50752431D01*
X201221117Y-50850338D01*
X201167302Y-50968175D01*
X201150891Y-51082315D01*
X201123895Y-51137223D01*
X201069780Y-51165776D01*
X201025008Y-51163216D01*
X200906774Y-51128500D01*
X200906772Y-51128500D01*
X200777228Y-51128500D01*
X200777225Y-51128500D01*
X200652933Y-51164995D01*
X200652926Y-51164998D01*
X200543952Y-51235031D01*
X200459117Y-51332938D01*
X200405302Y-51450774D01*
X200386867Y-51578997D01*
X195400500Y-51578997D01*
X195400500Y-50693240D01*
X195400712Y-50686765D01*
X195400998Y-50682395D01*
X195418379Y-50417208D01*
X195420069Y-50404377D01*
X195430886Y-50349998D01*
X195472139Y-50142603D01*
X195475484Y-50130122D01*
X195561278Y-49877379D01*
X195566223Y-49865443D01*
X195684279Y-49626048D01*
X195690731Y-49614873D01*
X195820943Y-49419997D01*
X204704867Y-49419997D01*
X204704867Y-49420002D01*
X204723302Y-49548225D01*
X204777118Y-49666063D01*
X204837864Y-49736170D01*
X204861681Y-49792529D01*
X204847822Y-49852125D01*
X204837864Y-49865830D01*
X204777118Y-49935936D01*
X204723302Y-50053774D01*
X204704867Y-50181997D01*
X204704867Y-50182002D01*
X204723302Y-50310225D01*
X204741466Y-50349998D01*
X204777118Y-50428063D01*
X204854993Y-50517937D01*
X204861952Y-50525968D01*
X204970926Y-50596001D01*
X204970931Y-50596004D01*
X205095228Y-50632500D01*
X205095230Y-50632500D01*
X205224770Y-50632500D01*
X205224772Y-50632500D01*
X205349069Y-50596004D01*
X205458049Y-50525967D01*
X205542882Y-50428063D01*
X205596697Y-50310226D01*
X205602842Y-50267484D01*
X205615133Y-50182002D01*
X205615133Y-50181997D01*
X205596697Y-50053774D01*
X205542882Y-49935938D01*
X205542882Y-49935937D01*
X205482134Y-49865829D01*
X205458318Y-49809471D01*
X205472177Y-49749876D01*
X205482131Y-49736174D01*
X205542882Y-49666063D01*
X205596697Y-49548226D01*
X205615133Y-49420000D01*
X205596697Y-49291774D01*
X205542882Y-49173937D01*
X205458049Y-49076033D01*
X205458048Y-49076032D01*
X205458047Y-49076031D01*
X205349073Y-49005998D01*
X205349070Y-49005996D01*
X205349069Y-49005996D01*
X205349066Y-49005995D01*
X205224774Y-48969500D01*
X205224772Y-48969500D01*
X205095228Y-48969500D01*
X205095225Y-48969500D01*
X204970933Y-49005995D01*
X204970926Y-49005998D01*
X204861952Y-49076031D01*
X204777117Y-49173938D01*
X204723302Y-49291774D01*
X204704867Y-49419997D01*
X195820943Y-49419997D01*
X195839025Y-49392935D01*
X195846890Y-49382687D01*
X196022875Y-49182013D01*
X196032013Y-49172875D01*
X196232687Y-48996890D01*
X196242935Y-48989025D01*
X196464873Y-48840731D01*
X196476048Y-48834279D01*
X196715443Y-48716223D01*
X196727379Y-48711278D01*
X196980122Y-48625484D01*
X196992603Y-48622139D01*
X197254384Y-48570068D01*
X197267208Y-48568379D01*
X197536766Y-48550712D01*
X197543241Y-48550500D01*
X197597583Y-48550500D01*
X217802417Y-48550500D01*
X217856759Y-48550500D01*
X217863234Y-48550712D01*
G37*
G04 #@! TD.AperFunction*
G04 #@! TA.AperFunction,Conductor*
G36*
X202766712Y-78949407D02*
G01*
X202778525Y-78959496D01*
X203560504Y-79741475D01*
X203588281Y-79795992D01*
X203589500Y-79811479D01*
X203589500Y-80115884D01*
X203570593Y-80174075D01*
X203521093Y-80210039D01*
X203459907Y-80210039D01*
X203432278Y-80194436D01*
X203432006Y-80194861D01*
X203317073Y-80120998D01*
X203317070Y-80120996D01*
X203317069Y-80120996D01*
X203299659Y-80115884D01*
X203192774Y-80084500D01*
X203192772Y-80084500D01*
X203063228Y-80084500D01*
X203063225Y-80084500D01*
X202938933Y-80120995D01*
X202938926Y-80120998D01*
X202829952Y-80191031D01*
X202745117Y-80288938D01*
X202691302Y-80406774D01*
X202672491Y-80537610D01*
X202645495Y-80592518D01*
X202644503Y-80593524D01*
X202397526Y-80840503D01*
X202343009Y-80868281D01*
X202327522Y-80869500D01*
X197350037Y-80869500D01*
X197291846Y-80850593D01*
X197255882Y-80801093D01*
X197255300Y-80799237D01*
X197249787Y-80781063D01*
X197245232Y-80766046D01*
X197147685Y-80583550D01*
X197129482Y-80561370D01*
X197016414Y-80423595D01*
X197016410Y-80423590D01*
X196986042Y-80398668D01*
X196856452Y-80292316D01*
X196673954Y-80194768D01*
X196475934Y-80134699D01*
X196475929Y-80134698D01*
X196270003Y-80114417D01*
X196269997Y-80114417D01*
X196064070Y-80134698D01*
X196064065Y-80134699D01*
X195866045Y-80194768D01*
X195683547Y-80292316D01*
X195683547Y-80292317D01*
X195562305Y-80391817D01*
X195505328Y-80414117D01*
X195446125Y-80398668D01*
X195407310Y-80351371D01*
X195400500Y-80315289D01*
X195400500Y-79484710D01*
X195419407Y-79426519D01*
X195468907Y-79390555D01*
X195530093Y-79390555D01*
X195562303Y-79408181D01*
X195611587Y-79448627D01*
X195683547Y-79507683D01*
X195683548Y-79507683D01*
X195683550Y-79507685D01*
X195866046Y-79605232D01*
X196003997Y-79647078D01*
X196064065Y-79665300D01*
X196064070Y-79665301D01*
X196269997Y-79685583D01*
X196270000Y-79685583D01*
X196270003Y-79685583D01*
X196475929Y-79665301D01*
X196475934Y-79665300D01*
X196673954Y-79605232D01*
X196856450Y-79507685D01*
X197016410Y-79376410D01*
X197147685Y-79216450D01*
X197245232Y-79033954D01*
X197255300Y-79000762D01*
X197290284Y-78950566D01*
X197348092Y-78930519D01*
X197350037Y-78930500D01*
X202708521Y-78930500D01*
X202766712Y-78949407D01*
G37*
G04 #@! TD.AperFunction*
G04 #@! TA.AperFunction,Conductor*
G36*
X200988712Y-76409407D02*
G01*
X201000525Y-76419496D01*
X202741525Y-78160496D01*
X202769302Y-78215013D01*
X202759731Y-78275445D01*
X202716466Y-78318710D01*
X202671521Y-78329500D01*
X197350037Y-78329500D01*
X197291846Y-78310593D01*
X197255882Y-78261093D01*
X197255300Y-78259237D01*
X197245232Y-78226047D01*
X197245231Y-78226045D01*
X197245230Y-78226044D01*
X197147685Y-78043550D01*
X197016410Y-77883590D01*
X196986042Y-77858668D01*
X196856452Y-77752316D01*
X196673954Y-77654768D01*
X196475934Y-77594699D01*
X196475929Y-77594698D01*
X196270003Y-77574417D01*
X196269997Y-77574417D01*
X196064070Y-77594698D01*
X196064065Y-77594699D01*
X195866045Y-77654768D01*
X195683547Y-77752316D01*
X195683547Y-77752317D01*
X195562305Y-77851817D01*
X195505328Y-77874117D01*
X195446125Y-77858668D01*
X195407310Y-77811371D01*
X195400500Y-77775289D01*
X195400500Y-76944710D01*
X195419407Y-76886519D01*
X195468907Y-76850555D01*
X195530093Y-76850555D01*
X195562303Y-76868181D01*
X195611587Y-76908627D01*
X195683547Y-76967683D01*
X195683548Y-76967683D01*
X195683550Y-76967685D01*
X195866046Y-77065232D01*
X196003997Y-77107078D01*
X196064065Y-77125300D01*
X196064070Y-77125301D01*
X196269997Y-77145583D01*
X196270000Y-77145583D01*
X196270003Y-77145583D01*
X196475929Y-77125301D01*
X196475934Y-77125300D01*
X196673954Y-77065232D01*
X196856450Y-76967685D01*
X197016410Y-76836410D01*
X197147685Y-76676450D01*
X197245232Y-76493954D01*
X197255300Y-76460762D01*
X197290284Y-76410566D01*
X197348092Y-76390519D01*
X197350037Y-76390500D01*
X200930521Y-76390500D01*
X200988712Y-76409407D01*
G37*
G04 #@! TD.AperFunction*
G04 #@! TA.AperFunction,Conductor*
G36*
X214596712Y-71983407D02*
G01*
X214608525Y-71993496D01*
X218153812Y-75538783D01*
X218181589Y-75593300D01*
X218172018Y-75653732D01*
X218171120Y-75655453D01*
X218154769Y-75686044D01*
X218154766Y-75686052D01*
X218094699Y-75884065D01*
X218094698Y-75884070D01*
X218074417Y-76089996D01*
X218074417Y-76090003D01*
X218094698Y-76295929D01*
X218094699Y-76295934D01*
X218154768Y-76493954D01*
X218252316Y-76676452D01*
X218383585Y-76836404D01*
X218383590Y-76836410D01*
X218383595Y-76836414D01*
X218543547Y-76967683D01*
X218543548Y-76967683D01*
X218543550Y-76967685D01*
X218726046Y-77065232D01*
X218863997Y-77107078D01*
X218924065Y-77125300D01*
X218924070Y-77125301D01*
X219129997Y-77145583D01*
X219130000Y-77145583D01*
X219130003Y-77145583D01*
X219335929Y-77125301D01*
X219335934Y-77125300D01*
X219533954Y-77065232D01*
X219716450Y-76967685D01*
X219837695Y-76868181D01*
X219894672Y-76845882D01*
X219953875Y-76861330D01*
X219992690Y-76908627D01*
X219999500Y-76944710D01*
X219999500Y-77775289D01*
X219980593Y-77833480D01*
X219931093Y-77869444D01*
X219869907Y-77869444D01*
X219837695Y-77851817D01*
X219716452Y-77752317D01*
X219716452Y-77752316D01*
X219533954Y-77654768D01*
X219335934Y-77594699D01*
X219335929Y-77594698D01*
X219130003Y-77574417D01*
X219129997Y-77574417D01*
X218924070Y-77594698D01*
X218924065Y-77594699D01*
X218726052Y-77654766D01*
X218726049Y-77654766D01*
X218726046Y-77654768D01*
X218726044Y-77654768D01*
X218726044Y-77654769D01*
X218695453Y-77671120D01*
X218635220Y-77681874D01*
X218580169Y-77655171D01*
X218578783Y-77653812D01*
X213058475Y-72133504D01*
X213030698Y-72078987D01*
X213040269Y-72018555D01*
X213083534Y-71975290D01*
X213128479Y-71964500D01*
X214538521Y-71964500D01*
X214596712Y-71983407D01*
G37*
G04 #@! TD.AperFunction*
G04 #@! TA.AperFunction,Conductor*
G36*
X216809712Y-71656407D02*
G01*
X216821525Y-71666496D01*
X218153812Y-72998783D01*
X218181589Y-73053300D01*
X218172018Y-73113732D01*
X218171120Y-73115453D01*
X218154769Y-73146044D01*
X218154766Y-73146052D01*
X218094699Y-73344065D01*
X218094698Y-73344070D01*
X218074417Y-73549996D01*
X218074417Y-73550003D01*
X218094698Y-73755929D01*
X218094699Y-73755934D01*
X218154768Y-73953954D01*
X218252316Y-74136452D01*
X218383585Y-74296404D01*
X218383590Y-74296410D01*
X218383595Y-74296414D01*
X218543547Y-74427683D01*
X218543548Y-74427683D01*
X218543550Y-74427685D01*
X218726046Y-74525232D01*
X218863997Y-74567078D01*
X218924065Y-74585300D01*
X218924070Y-74585301D01*
X219129997Y-74605583D01*
X219130000Y-74605583D01*
X219130003Y-74605583D01*
X219335929Y-74585301D01*
X219335934Y-74585300D01*
X219533954Y-74525232D01*
X219716450Y-74427685D01*
X219837695Y-74328181D01*
X219894672Y-74305882D01*
X219953875Y-74321330D01*
X219992690Y-74368627D01*
X219999500Y-74404710D01*
X219999500Y-75235289D01*
X219980593Y-75293480D01*
X219931093Y-75329444D01*
X219869907Y-75329444D01*
X219837695Y-75311817D01*
X219716452Y-75212317D01*
X219716452Y-75212316D01*
X219533954Y-75114768D01*
X219335934Y-75054699D01*
X219335929Y-75054698D01*
X219130003Y-75034417D01*
X219129997Y-75034417D01*
X218924070Y-75054698D01*
X218924065Y-75054699D01*
X218726052Y-75114766D01*
X218726049Y-75114766D01*
X218726046Y-75114768D01*
X218726044Y-75114768D01*
X218726044Y-75114769D01*
X218695453Y-75131120D01*
X218635220Y-75141874D01*
X218580169Y-75115171D01*
X218578783Y-75113812D01*
X215271475Y-71806504D01*
X215243698Y-71751987D01*
X215253269Y-71691555D01*
X215296534Y-71648290D01*
X215341479Y-71637500D01*
X216751521Y-71637500D01*
X216809712Y-71656407D01*
G37*
G04 #@! TD.AperFunction*
G04 #@! TA.AperFunction,Conductor*
G36*
X218108154Y-71329407D02*
G01*
X218144118Y-71378907D01*
X218144700Y-71380763D01*
X218154767Y-71413952D01*
X218154768Y-71413954D01*
X218252316Y-71596452D01*
X218301520Y-71656407D01*
X218383590Y-71756410D01*
X218383595Y-71756414D01*
X218543547Y-71887683D01*
X218543548Y-71887683D01*
X218543550Y-71887685D01*
X218726046Y-71985232D01*
X218835899Y-72018555D01*
X218924065Y-72045300D01*
X218924070Y-72045301D01*
X219129997Y-72065583D01*
X219130000Y-72065583D01*
X219130003Y-72065583D01*
X219335929Y-72045301D01*
X219335934Y-72045300D01*
X219533954Y-71985232D01*
X219716450Y-71887685D01*
X219837695Y-71788181D01*
X219894672Y-71765882D01*
X219953875Y-71781330D01*
X219992690Y-71828627D01*
X219999500Y-71864710D01*
X219999500Y-72695289D01*
X219980593Y-72753480D01*
X219931093Y-72789444D01*
X219869907Y-72789444D01*
X219837695Y-72771817D01*
X219716452Y-72672317D01*
X219716452Y-72672316D01*
X219533954Y-72574768D01*
X219335934Y-72514699D01*
X219335929Y-72514698D01*
X219130003Y-72494417D01*
X219129997Y-72494417D01*
X218924070Y-72514698D01*
X218924065Y-72514699D01*
X218726052Y-72574766D01*
X218726049Y-72574766D01*
X218726046Y-72574768D01*
X218726044Y-72574768D01*
X218726044Y-72574769D01*
X218695453Y-72591120D01*
X218635220Y-72601874D01*
X218580169Y-72575171D01*
X218578783Y-72573812D01*
X217484475Y-71479504D01*
X217456698Y-71424987D01*
X217466269Y-71364555D01*
X217509534Y-71321290D01*
X217554479Y-71310500D01*
X218049963Y-71310500D01*
X218108154Y-71329407D01*
G37*
G04 #@! TD.AperFunction*
M02*
