M48
; DRILL file {KiCad 8.99.0-1829-g5db4d10c86} date 2024-08-04T21:38:39+0200
; FORMAT={-:-/ absolute / metric / decimal}
; #@! TF.CreationDate,2024-08-04T21:38:39+02:00
; #@! TF.GenerationSoftware,Kicad,Pcbnew,8.99.0-1829-g5db4d10c86
; #@! TF.FileFunction,Plated,1,4,PTH
FMAT,2
METRIC
; #@! TA.AperFunction,Plated,PTH,ViaDrill
T1C0.200
; #@! TA.AperFunction,Plated,PTH,ComponentDrill
T2C0.200
; #@! TA.AperFunction,Plated,PTH,ComponentDrill
T3C0.600
; #@! TA.AperFunction,Plated,PTH,ComponentDrill
T4C1.000
%
G90
G05
T1
X195.762Y-51.96
X196.778Y-77.36
X196.778Y-79.9
X196.778Y-92.6
X196.905Y-56.659
X197.794Y-52.034
X198.175Y-119.905
X198.302Y-102.76
X198.302Y-105.427
X198.322Y-104.772
X198.683Y-86.123
X198.683Y-93.616
X198.937Y-97.68
X199.191Y-107.713
X199.191Y-109.872
X199.388Y-82.821
X199.445Y-101.871
X199.699Y-88.79
X199.826Y-94.251
X200.08Y-53.304
X200.08Y-54.574
X200.08Y-55.844
X200.08Y-57.114
X200.08Y-63.464
X200.149Y-112.478
X200.188Y-82.821
X200.461Y-49.494
X200.588Y-93.616
X200.588Y-106.697
X200.715Y-68.47
X200.715Y-119.905
X200.776Y-112.478
X200.842Y-51.579
X200.988Y-82.821
X201.223Y-95.775
X201.35Y-60.215
X201.35Y-64.025
X201.604Y-51.096
X201.604Y-52.096
X201.746Y-99.966
X201.788Y-82.821
X201.858Y-71.772
X201.985Y-68.47
X201.985Y-95.775
X202.112Y-80.535
X202.112Y-113.428
X202.493Y-89.552
X202.493Y-92.854
X202.493Y-93.616
X202.493Y-108.602
X202.493Y-109.237
X202.62Y-110.761
X202.747Y-91.203
X202.874Y-88.155
X203.128Y-80.535
X203.255Y-55.77
X203.255Y-68.47
X203.255Y-69.918
X203.255Y-85.615
X203.255Y-106.697
X203.255Y-119.905
X203.263Y-72.153
X203.382Y-108.983
X203.89Y-54.096
X203.89Y-72.153
X203.89Y-80.535
X204.017Y-112.793
X204.271Y-100.347
X204.271Y-103.268
X204.525Y-60.215
X204.525Y-64.025
X204.525Y-68.47
X204.525Y-70.502
X204.525Y-72.141
X204.652Y-80.535
X205.16Y-49.42
X205.16Y-50.182
X205.16Y-81.883
X205.16Y-103.649
X205.414Y-80.535
X205.668Y-109.872
X205.795Y-53.865
X205.795Y-68.47
X206.303Y-85.615
X206.43Y-91.254
X206.43Y-92.854
X206.43Y-95.14
X206.43Y-98.061
X207.065Y-49.42
X207.065Y-68.47
X207.096Y-76.141
X207.319Y-112.793
X207.7Y-60.215
X207.7Y-64.025
X207.7Y-102.379
X207.7Y-117.415
X207.7Y-121.175
X208.081Y-114.649
X208.335Y-68.47
X208.589Y-108.983
X208.589Y-110.888
X208.97Y-57.04
X209.097Y-68.47
X209.351Y-104.03
X209.351Y-105.3
X209.351Y-106.951
X209.732Y-115.206
X209.986Y-109.262
X210.113Y-93.362
X210.24Y-49.42
X210.24Y-97.807
X210.875Y-53.941
X210.875Y-55.135
X210.875Y-57.04
X210.875Y-58.945
X211.002Y-60.924
X211.002Y-62.194
X211.129Y-90.187
X211.129Y-93.362
X211.256Y-95.76
X211.383Y-68.47
X211.383Y-105.427
X211.383Y-112.793
X211.51Y-51.095
X211.51Y-64.025
X211.51Y-69.918
X211.51Y-72.468
X211.51Y-76.141
X211.51Y-82.821
X211.51Y-85.615
X211.51Y-95.013
X211.891Y-109.758
X212.145Y-68.47
X212.145Y-119.905
X212.526Y-111.904
X212.78Y-86.885
X212.78Y-90.187
X212.788Y-84.599
X213.034Y-92.854
X213.034Y-105.427
X213.161Y-99.331
X213.288Y-93.997
X213.457Y-63.517
X213.457Y-68.47
X213.514Y-84.599
X213.669Y-109.758
X213.796Y-65.527
X213.923Y-72.153
X214.05Y-57.04
X214.05Y-58.945
X214.05Y-60.85
X214.191Y-88.155
X214.191Y-92.473
X214.304Y-68.851
X214.558Y-65.168
X214.558Y-66.004
X214.558Y-113.047
X214.685Y-119.905
X214.939Y-49.494
X215.117Y-53.941
X215.32Y-50.764
X215.32Y-52.034
X215.32Y-55.844
X215.32Y-57.114
X215.32Y-58.384
X215.32Y-59.654
X215.32Y-60.924
X215.32Y-62.194
X215.32Y-63.464
X215.32Y-64.734
X215.32Y-113.047
X215.828Y-84.599
X215.941Y-88.79
X216.082Y-95.775
X216.082Y-99.077
X216.336Y-113.174
X216.59Y-84.599
X216.717Y-81.17
X216.717Y-82.821
X217.225Y-119.905
X217.352Y-90.06
X217.352Y-92.473
X217.352Y-95.013
X217.352Y-97.807
X217.352Y-100.22
X217.352Y-102.76
X217.352Y-105.3
X217.352Y-107.713
X217.352Y-110.126
X218.495Y-67.2
X218.622Y-72.28
X218.622Y-74.82
X218.622Y-77.36
X218.622Y-79.9
X218.622Y-82.44
X219.13Y-51.325
X219.13Y-55.135
T2
X204.8Y-56.514
X204.8Y-57.914
X205.5Y-55.814
X205.5Y-57.214
X205.5Y-58.614
X206.2Y-56.514
X206.2Y-57.914
X206.9Y-55.814
X206.9Y-57.214
X206.9Y-58.614
X207.6Y-56.514
X207.6Y-57.914
T4
X196.27Y-58.31
X196.27Y-60.85
X196.27Y-63.39
X196.27Y-65.93
X196.27Y-68.47
X196.27Y-71.01
X196.27Y-73.55
X196.27Y-76.09
X196.27Y-78.63
X196.27Y-81.17
X196.27Y-83.71
X196.27Y-86.25
X196.27Y-88.79
X196.27Y-91.33
X196.27Y-93.87
X196.27Y-96.41
X196.27Y-98.95
X196.27Y-101.49
X196.27Y-104.03
X196.27Y-106.57
X196.27Y-109.11
X196.27Y-111.65
X219.13Y-58.31
X219.13Y-60.85
X219.13Y-63.39
X219.13Y-65.93
X219.13Y-68.47
X219.13Y-71.01
X219.13Y-73.55
X219.13Y-76.09
X219.13Y-78.63
X219.13Y-81.17
X219.13Y-83.71
X219.13Y-86.25
X219.13Y-88.79
X219.13Y-91.33
X219.13Y-93.87
X219.13Y-96.41
X219.13Y-98.95
X219.13Y-101.49
X219.13Y-104.03
X219.13Y-106.57
X219.13Y-109.11
X219.13Y-111.65
T3
X196.395Y-116.865G85X196.395Y-117.965
G05
X196.395Y-121.215G85X196.395Y-122.015
G05
X205.035Y-116.865G85X205.035Y-117.965
G05
X205.035Y-121.215G85X205.035Y-122.015
G05
X210.365Y-116.865G85X210.365Y-117.965
G05
X210.365Y-121.215G85X210.365Y-122.015
G05
X219.005Y-116.865G85X219.005Y-117.965
G05
X219.005Y-121.215G85X219.005Y-122.015
G05
M30
