%TF.GenerationSoftware,KiCad,Pcbnew,8.99.0-1829-g5db4d10c86*%
%TF.CreationDate,2024-08-04T21:38:41+02:00*%
%TF.ProjectId,fiit-esp32-kit-pcb,66696974-2d65-4737-9033-322d6b69742d,0.1*%
%TF.SameCoordinates,Original*%
%TF.FileFunction,Drillmap*%
%TF.FilePolarity,Positive*%
%FSLAX45Y45*%
G04 Gerber Fmt 4.5, Leading zero omitted, Abs format (unit mm)*
G04 Created by KiCad (PCBNEW 8.99.0-1829-g5db4d10c86) date 2024-08-04 21:38:41*
%MOMM*%
%LPD*%
G01*
G04 APERTURE LIST*
%ADD10C,0.100000*%
%ADD11C,0.050000*%
%ADD12C,0.200000*%
G04 APERTURE END LIST*
D10*
X19500000Y-5069000D02*
G75*
G02*
X19754000Y-4815000I254000J0D01*
G01*
D11*
X19500000Y-12315000D02*
X19500000Y-5069000D01*
X19754000Y-4815000D02*
X21786000Y-4815000D01*
X22040000Y-12315000D02*
X19500000Y-12315000D01*
D10*
X21786000Y-4815000D02*
G75*
G02*
X22040000Y-5069000I0J-254000D01*
G01*
D11*
X22040000Y-5069000D02*
X22040000Y-12315000D01*
D12*
D10*
X19750000Y-11761000D02*
X19815000Y-11826000D01*
X19815000Y-11761000D02*
X19750000Y-11826000D01*
X20328000Y-11761000D02*
X20393000Y-11826000D01*
X20393000Y-11761000D02*
X20328000Y-11826000D01*
X21147000Y-11761000D02*
X21212000Y-11826000D01*
X21212000Y-11761000D02*
X21147000Y-11826000D01*
X21725000Y-11761000D02*
X21790000Y-11826000D01*
X21790000Y-11761000D02*
X21725000Y-11826000D01*
D12*
X19755777Y-12628984D02*
X19755777Y-12428984D01*
X19755777Y-12428984D02*
X19803396Y-12428984D01*
X19803396Y-12428984D02*
X19831967Y-12438508D01*
X19831967Y-12438508D02*
X19851015Y-12457555D01*
X19851015Y-12457555D02*
X19860539Y-12476603D01*
X19860539Y-12476603D02*
X19870063Y-12514698D01*
X19870063Y-12514698D02*
X19870063Y-12543269D01*
X19870063Y-12543269D02*
X19860539Y-12581365D01*
X19860539Y-12581365D02*
X19851015Y-12600412D01*
X19851015Y-12600412D02*
X19831967Y-12619460D01*
X19831967Y-12619460D02*
X19803396Y-12628984D01*
X19803396Y-12628984D02*
X19755777Y-12628984D01*
X19955777Y-12628984D02*
X19955777Y-12495650D01*
X19955777Y-12533746D02*
X19965301Y-12514698D01*
X19965301Y-12514698D02*
X19974824Y-12505174D01*
X19974824Y-12505174D02*
X19993872Y-12495650D01*
X19993872Y-12495650D02*
X20012920Y-12495650D01*
X20079586Y-12628984D02*
X20079586Y-12495650D01*
X20079586Y-12428984D02*
X20070063Y-12438508D01*
X20070063Y-12438508D02*
X20079586Y-12448031D01*
X20079586Y-12448031D02*
X20089110Y-12438508D01*
X20089110Y-12438508D02*
X20079586Y-12428984D01*
X20079586Y-12428984D02*
X20079586Y-12448031D01*
X20203396Y-12628984D02*
X20184348Y-12619460D01*
X20184348Y-12619460D02*
X20174824Y-12600412D01*
X20174824Y-12600412D02*
X20174824Y-12428984D01*
X20308158Y-12628984D02*
X20289110Y-12619460D01*
X20289110Y-12619460D02*
X20279586Y-12600412D01*
X20279586Y-12600412D02*
X20279586Y-12428984D01*
X20536729Y-12628984D02*
X20536729Y-12428984D01*
X20536729Y-12428984D02*
X20603396Y-12571841D01*
X20603396Y-12571841D02*
X20670063Y-12428984D01*
X20670063Y-12428984D02*
X20670063Y-12628984D01*
X20851015Y-12628984D02*
X20851015Y-12524222D01*
X20851015Y-12524222D02*
X20841491Y-12505174D01*
X20841491Y-12505174D02*
X20822444Y-12495650D01*
X20822444Y-12495650D02*
X20784348Y-12495650D01*
X20784348Y-12495650D02*
X20765301Y-12505174D01*
X20851015Y-12619460D02*
X20831967Y-12628984D01*
X20831967Y-12628984D02*
X20784348Y-12628984D01*
X20784348Y-12628984D02*
X20765301Y-12619460D01*
X20765301Y-12619460D02*
X20755777Y-12600412D01*
X20755777Y-12600412D02*
X20755777Y-12581365D01*
X20755777Y-12581365D02*
X20765301Y-12562317D01*
X20765301Y-12562317D02*
X20784348Y-12552793D01*
X20784348Y-12552793D02*
X20831967Y-12552793D01*
X20831967Y-12552793D02*
X20851015Y-12543269D01*
X20946253Y-12495650D02*
X20946253Y-12695650D01*
X20946253Y-12505174D02*
X20965301Y-12495650D01*
X20965301Y-12495650D02*
X21003396Y-12495650D01*
X21003396Y-12495650D02*
X21022444Y-12505174D01*
X21022444Y-12505174D02*
X21031967Y-12514698D01*
X21031967Y-12514698D02*
X21041491Y-12533746D01*
X21041491Y-12533746D02*
X21041491Y-12590888D01*
X21041491Y-12590888D02*
X21031967Y-12609936D01*
X21031967Y-12609936D02*
X21022444Y-12619460D01*
X21022444Y-12619460D02*
X21003396Y-12628984D01*
X21003396Y-12628984D02*
X20965301Y-12628984D01*
X20965301Y-12628984D02*
X20946253Y-12619460D01*
X21127205Y-12609936D02*
X21136729Y-12619460D01*
X21136729Y-12619460D02*
X21127205Y-12628984D01*
X21127205Y-12628984D02*
X21117682Y-12619460D01*
X21117682Y-12619460D02*
X21127205Y-12609936D01*
X21127205Y-12609936D02*
X21127205Y-12628984D01*
X21127205Y-12505174D02*
X21136729Y-12514698D01*
X21136729Y-12514698D02*
X21127205Y-12524222D01*
X21127205Y-12524222D02*
X21117682Y-12514698D01*
X21117682Y-12514698D02*
X21127205Y-12505174D01*
X21127205Y-12505174D02*
X21127205Y-12524222D01*
D10*
X19430000Y-12925000D02*
X19495000Y-12990000D01*
X19495000Y-12925000D02*
X19430000Y-12990000D01*
D12*
X19793872Y-12848984D02*
X19812920Y-12848984D01*
X19812920Y-12848984D02*
X19831967Y-12858508D01*
X19831967Y-12858508D02*
X19841491Y-12868031D01*
X19841491Y-12868031D02*
X19851015Y-12887079D01*
X19851015Y-12887079D02*
X19860539Y-12925174D01*
X19860539Y-12925174D02*
X19860539Y-12972793D01*
X19860539Y-12972793D02*
X19851015Y-13010888D01*
X19851015Y-13010888D02*
X19841491Y-13029936D01*
X19841491Y-13029936D02*
X19831967Y-13039460D01*
X19831967Y-13039460D02*
X19812920Y-13048984D01*
X19812920Y-13048984D02*
X19793872Y-13048984D01*
X19793872Y-13048984D02*
X19774824Y-13039460D01*
X19774824Y-13039460D02*
X19765301Y-13029936D01*
X19765301Y-13029936D02*
X19755777Y-13010888D01*
X19755777Y-13010888D02*
X19746253Y-12972793D01*
X19746253Y-12972793D02*
X19746253Y-12925174D01*
X19746253Y-12925174D02*
X19755777Y-12887079D01*
X19755777Y-12887079D02*
X19765301Y-12868031D01*
X19765301Y-12868031D02*
X19774824Y-12858508D01*
X19774824Y-12858508D02*
X19793872Y-12848984D01*
X19946253Y-13029936D02*
X19955777Y-13039460D01*
X19955777Y-13039460D02*
X19946253Y-13048984D01*
X19946253Y-13048984D02*
X19936729Y-13039460D01*
X19936729Y-13039460D02*
X19946253Y-13029936D01*
X19946253Y-13029936D02*
X19946253Y-13048984D01*
X20127205Y-12848984D02*
X20089110Y-12848984D01*
X20089110Y-12848984D02*
X20070063Y-12858508D01*
X20070063Y-12858508D02*
X20060539Y-12868031D01*
X20060539Y-12868031D02*
X20041491Y-12896603D01*
X20041491Y-12896603D02*
X20031967Y-12934698D01*
X20031967Y-12934698D02*
X20031967Y-13010888D01*
X20031967Y-13010888D02*
X20041491Y-13029936D01*
X20041491Y-13029936D02*
X20051015Y-13039460D01*
X20051015Y-13039460D02*
X20070063Y-13048984D01*
X20070063Y-13048984D02*
X20108158Y-13048984D01*
X20108158Y-13048984D02*
X20127205Y-13039460D01*
X20127205Y-13039460D02*
X20136729Y-13029936D01*
X20136729Y-13029936D02*
X20146253Y-13010888D01*
X20146253Y-13010888D02*
X20146253Y-12963269D01*
X20146253Y-12963269D02*
X20136729Y-12944222D01*
X20136729Y-12944222D02*
X20127205Y-12934698D01*
X20127205Y-12934698D02*
X20108158Y-12925174D01*
X20108158Y-12925174D02*
X20070063Y-12925174D01*
X20070063Y-12925174D02*
X20051015Y-12934698D01*
X20051015Y-12934698D02*
X20041491Y-12944222D01*
X20041491Y-12944222D02*
X20031967Y-12963269D01*
X20327205Y-12848984D02*
X20231967Y-12848984D01*
X20231967Y-12848984D02*
X20222444Y-12944222D01*
X20222444Y-12944222D02*
X20231967Y-12934698D01*
X20231967Y-12934698D02*
X20251015Y-12925174D01*
X20251015Y-12925174D02*
X20298634Y-12925174D01*
X20298634Y-12925174D02*
X20317682Y-12934698D01*
X20317682Y-12934698D02*
X20327205Y-12944222D01*
X20327205Y-12944222D02*
X20336729Y-12963269D01*
X20336729Y-12963269D02*
X20336729Y-13010888D01*
X20336729Y-13010888D02*
X20327205Y-13029936D01*
X20327205Y-13029936D02*
X20317682Y-13039460D01*
X20317682Y-13039460D02*
X20298634Y-13048984D01*
X20298634Y-13048984D02*
X20251015Y-13048984D01*
X20251015Y-13048984D02*
X20231967Y-13039460D01*
X20231967Y-13039460D02*
X20222444Y-13029936D01*
X20460539Y-12848984D02*
X20479586Y-12848984D01*
X20479586Y-12848984D02*
X20498634Y-12858508D01*
X20498634Y-12858508D02*
X20508158Y-12868031D01*
X20508158Y-12868031D02*
X20517682Y-12887079D01*
X20517682Y-12887079D02*
X20527205Y-12925174D01*
X20527205Y-12925174D02*
X20527205Y-12972793D01*
X20527205Y-12972793D02*
X20517682Y-13010888D01*
X20517682Y-13010888D02*
X20508158Y-13029936D01*
X20508158Y-13029936D02*
X20498634Y-13039460D01*
X20498634Y-13039460D02*
X20479586Y-13048984D01*
X20479586Y-13048984D02*
X20460539Y-13048984D01*
X20460539Y-13048984D02*
X20441491Y-13039460D01*
X20441491Y-13039460D02*
X20431967Y-13029936D01*
X20431967Y-13029936D02*
X20422444Y-13010888D01*
X20422444Y-13010888D02*
X20412920Y-12972793D01*
X20412920Y-12972793D02*
X20412920Y-12925174D01*
X20412920Y-12925174D02*
X20422444Y-12887079D01*
X20422444Y-12887079D02*
X20431967Y-12868031D01*
X20431967Y-12868031D02*
X20441491Y-12858508D01*
X20441491Y-12858508D02*
X20460539Y-12848984D01*
X20612920Y-13048984D02*
X20612920Y-12915650D01*
X20612920Y-12934698D02*
X20622444Y-12925174D01*
X20622444Y-12925174D02*
X20641491Y-12915650D01*
X20641491Y-12915650D02*
X20670063Y-12915650D01*
X20670063Y-12915650D02*
X20689110Y-12925174D01*
X20689110Y-12925174D02*
X20698634Y-12944222D01*
X20698634Y-12944222D02*
X20698634Y-13048984D01*
X20698634Y-12944222D02*
X20708158Y-12925174D01*
X20708158Y-12925174D02*
X20727205Y-12915650D01*
X20727205Y-12915650D02*
X20755777Y-12915650D01*
X20755777Y-12915650D02*
X20774825Y-12925174D01*
X20774825Y-12925174D02*
X20784348Y-12944222D01*
X20784348Y-12944222D02*
X20784348Y-13048984D01*
X20879586Y-13048984D02*
X20879586Y-12915650D01*
X20879586Y-12934698D02*
X20889110Y-12925174D01*
X20889110Y-12925174D02*
X20908158Y-12915650D01*
X20908158Y-12915650D02*
X20936729Y-12915650D01*
X20936729Y-12915650D02*
X20955777Y-12925174D01*
X20955777Y-12925174D02*
X20965301Y-12944222D01*
X20965301Y-12944222D02*
X20965301Y-13048984D01*
X20965301Y-12944222D02*
X20974825Y-12925174D01*
X20974825Y-12925174D02*
X20993872Y-12915650D01*
X20993872Y-12915650D02*
X21022444Y-12915650D01*
X21022444Y-12915650D02*
X21041491Y-12925174D01*
X21041491Y-12925174D02*
X21051015Y-12944222D01*
X21051015Y-12944222D02*
X21051015Y-13048984D01*
X21441491Y-12839460D02*
X21270063Y-13096603D01*
X21698634Y-12848984D02*
X21717682Y-12848984D01*
X21717682Y-12848984D02*
X21736729Y-12858508D01*
X21736729Y-12858508D02*
X21746253Y-12868031D01*
X21746253Y-12868031D02*
X21755777Y-12887079D01*
X21755777Y-12887079D02*
X21765301Y-12925174D01*
X21765301Y-12925174D02*
X21765301Y-12972793D01*
X21765301Y-12972793D02*
X21755777Y-13010888D01*
X21755777Y-13010888D02*
X21746253Y-13029936D01*
X21746253Y-13029936D02*
X21736729Y-13039460D01*
X21736729Y-13039460D02*
X21717682Y-13048984D01*
X21717682Y-13048984D02*
X21698634Y-13048984D01*
X21698634Y-13048984D02*
X21679587Y-13039460D01*
X21679587Y-13039460D02*
X21670063Y-13029936D01*
X21670063Y-13029936D02*
X21660539Y-13010888D01*
X21660539Y-13010888D02*
X21651015Y-12972793D01*
X21651015Y-12972793D02*
X21651015Y-12925174D01*
X21651015Y-12925174D02*
X21660539Y-12887079D01*
X21660539Y-12887079D02*
X21670063Y-12868031D01*
X21670063Y-12868031D02*
X21679587Y-12858508D01*
X21679587Y-12858508D02*
X21698634Y-12848984D01*
X21851015Y-13029936D02*
X21860539Y-13039460D01*
X21860539Y-13039460D02*
X21851015Y-13048984D01*
X21851015Y-13048984D02*
X21841491Y-13039460D01*
X21841491Y-13039460D02*
X21851015Y-13029936D01*
X21851015Y-13029936D02*
X21851015Y-13048984D01*
X21984348Y-12848984D02*
X22003396Y-12848984D01*
X22003396Y-12848984D02*
X22022444Y-12858508D01*
X22022444Y-12858508D02*
X22031968Y-12868031D01*
X22031968Y-12868031D02*
X22041491Y-12887079D01*
X22041491Y-12887079D02*
X22051015Y-12925174D01*
X22051015Y-12925174D02*
X22051015Y-12972793D01*
X22051015Y-12972793D02*
X22041491Y-13010888D01*
X22041491Y-13010888D02*
X22031968Y-13029936D01*
X22031968Y-13029936D02*
X22022444Y-13039460D01*
X22022444Y-13039460D02*
X22003396Y-13048984D01*
X22003396Y-13048984D02*
X21984348Y-13048984D01*
X21984348Y-13048984D02*
X21965301Y-13039460D01*
X21965301Y-13039460D02*
X21955777Y-13029936D01*
X21955777Y-13029936D02*
X21946253Y-13010888D01*
X21946253Y-13010888D02*
X21936729Y-12972793D01*
X21936729Y-12972793D02*
X21936729Y-12925174D01*
X21936729Y-12925174D02*
X21946253Y-12887079D01*
X21946253Y-12887079D02*
X21955777Y-12868031D01*
X21955777Y-12868031D02*
X21965301Y-12858508D01*
X21965301Y-12858508D02*
X21984348Y-12848984D01*
X22127206Y-12868031D02*
X22136729Y-12858508D01*
X22136729Y-12858508D02*
X22155777Y-12848984D01*
X22155777Y-12848984D02*
X22203396Y-12848984D01*
X22203396Y-12848984D02*
X22222444Y-12858508D01*
X22222444Y-12858508D02*
X22231968Y-12868031D01*
X22231968Y-12868031D02*
X22241491Y-12887079D01*
X22241491Y-12887079D02*
X22241491Y-12906127D01*
X22241491Y-12906127D02*
X22231968Y-12934698D01*
X22231968Y-12934698D02*
X22117682Y-13048984D01*
X22117682Y-13048984D02*
X22241491Y-13048984D01*
X22422444Y-12848984D02*
X22327206Y-12848984D01*
X22327206Y-12848984D02*
X22317682Y-12944222D01*
X22317682Y-12944222D02*
X22327206Y-12934698D01*
X22327206Y-12934698D02*
X22346253Y-12925174D01*
X22346253Y-12925174D02*
X22393872Y-12925174D01*
X22393872Y-12925174D02*
X22412920Y-12934698D01*
X22412920Y-12934698D02*
X22422444Y-12944222D01*
X22422444Y-12944222D02*
X22431967Y-12963269D01*
X22431967Y-12963269D02*
X22431967Y-13010888D01*
X22431967Y-13010888D02*
X22422444Y-13029936D01*
X22422444Y-13029936D02*
X22412920Y-13039460D01*
X22412920Y-13039460D02*
X22393872Y-13048984D01*
X22393872Y-13048984D02*
X22346253Y-13048984D01*
X22346253Y-13048984D02*
X22327206Y-13039460D01*
X22327206Y-13039460D02*
X22317682Y-13029936D01*
X22603396Y-12848984D02*
X22565301Y-12848984D01*
X22565301Y-12848984D02*
X22546253Y-12858508D01*
X22546253Y-12858508D02*
X22536729Y-12868031D01*
X22536729Y-12868031D02*
X22517682Y-12896603D01*
X22517682Y-12896603D02*
X22508158Y-12934698D01*
X22508158Y-12934698D02*
X22508158Y-13010888D01*
X22508158Y-13010888D02*
X22517682Y-13029936D01*
X22517682Y-13029936D02*
X22527206Y-13039460D01*
X22527206Y-13039460D02*
X22546253Y-13048984D01*
X22546253Y-13048984D02*
X22584348Y-13048984D01*
X22584348Y-13048984D02*
X22603396Y-13039460D01*
X22603396Y-13039460D02*
X22612920Y-13029936D01*
X22612920Y-13029936D02*
X22622444Y-13010888D01*
X22622444Y-13010888D02*
X22622444Y-12963269D01*
X22622444Y-12963269D02*
X22612920Y-12944222D01*
X22612920Y-12944222D02*
X22603396Y-12934698D01*
X22603396Y-12934698D02*
X22584348Y-12925174D01*
X22584348Y-12925174D02*
X22546253Y-12925174D01*
X22546253Y-12925174D02*
X22527206Y-12934698D01*
X22527206Y-12934698D02*
X22517682Y-12944222D01*
X22517682Y-12944222D02*
X22508158Y-12963269D01*
X22698634Y-12848984D02*
X22698634Y-12887079D01*
X22774825Y-12848984D02*
X22774825Y-12887079D01*
X23070063Y-13125174D02*
X23060539Y-13115650D01*
X23060539Y-13115650D02*
X23041491Y-13087079D01*
X23041491Y-13087079D02*
X23031968Y-13068031D01*
X23031968Y-13068031D02*
X23022444Y-13039460D01*
X23022444Y-13039460D02*
X23012920Y-12991841D01*
X23012920Y-12991841D02*
X23012920Y-12953746D01*
X23012920Y-12953746D02*
X23022444Y-12906127D01*
X23022444Y-12906127D02*
X23031968Y-12877555D01*
X23031968Y-12877555D02*
X23041491Y-12858508D01*
X23041491Y-12858508D02*
X23060539Y-12829936D01*
X23060539Y-12829936D02*
X23070063Y-12820412D01*
X23231968Y-12915650D02*
X23231968Y-13048984D01*
X23184348Y-12839460D02*
X23136729Y-12982317D01*
X23136729Y-12982317D02*
X23260539Y-12982317D01*
X23489110Y-13048984D02*
X23489110Y-12848984D01*
X23574825Y-13048984D02*
X23574825Y-12944222D01*
X23574825Y-12944222D02*
X23565301Y-12925174D01*
X23565301Y-12925174D02*
X23546253Y-12915650D01*
X23546253Y-12915650D02*
X23517682Y-12915650D01*
X23517682Y-12915650D02*
X23498634Y-12925174D01*
X23498634Y-12925174D02*
X23489110Y-12934698D01*
X23698634Y-13048984D02*
X23679587Y-13039460D01*
X23679587Y-13039460D02*
X23670063Y-13029936D01*
X23670063Y-13029936D02*
X23660539Y-13010888D01*
X23660539Y-13010888D02*
X23660539Y-12953746D01*
X23660539Y-12953746D02*
X23670063Y-12934698D01*
X23670063Y-12934698D02*
X23679587Y-12925174D01*
X23679587Y-12925174D02*
X23698634Y-12915650D01*
X23698634Y-12915650D02*
X23727206Y-12915650D01*
X23727206Y-12915650D02*
X23746253Y-12925174D01*
X23746253Y-12925174D02*
X23755777Y-12934698D01*
X23755777Y-12934698D02*
X23765301Y-12953746D01*
X23765301Y-12953746D02*
X23765301Y-13010888D01*
X23765301Y-13010888D02*
X23755777Y-13029936D01*
X23755777Y-13029936D02*
X23746253Y-13039460D01*
X23746253Y-13039460D02*
X23727206Y-13048984D01*
X23727206Y-13048984D02*
X23698634Y-13048984D01*
X23879587Y-13048984D02*
X23860539Y-13039460D01*
X23860539Y-13039460D02*
X23851015Y-13020412D01*
X23851015Y-13020412D02*
X23851015Y-12848984D01*
X24031968Y-13039460D02*
X24012920Y-13048984D01*
X24012920Y-13048984D02*
X23974825Y-13048984D01*
X23974825Y-13048984D02*
X23955777Y-13039460D01*
X23955777Y-13039460D02*
X23946253Y-13020412D01*
X23946253Y-13020412D02*
X23946253Y-12944222D01*
X23946253Y-12944222D02*
X23955777Y-12925174D01*
X23955777Y-12925174D02*
X23974825Y-12915650D01*
X23974825Y-12915650D02*
X24012920Y-12915650D01*
X24012920Y-12915650D02*
X24031968Y-12925174D01*
X24031968Y-12925174D02*
X24041491Y-12944222D01*
X24041491Y-12944222D02*
X24041491Y-12963269D01*
X24041491Y-12963269D02*
X23946253Y-12982317D01*
X24117682Y-13039460D02*
X24136730Y-13048984D01*
X24136730Y-13048984D02*
X24174825Y-13048984D01*
X24174825Y-13048984D02*
X24193872Y-13039460D01*
X24193872Y-13039460D02*
X24203396Y-13020412D01*
X24203396Y-13020412D02*
X24203396Y-13010888D01*
X24203396Y-13010888D02*
X24193872Y-12991841D01*
X24193872Y-12991841D02*
X24174825Y-12982317D01*
X24174825Y-12982317D02*
X24146253Y-12982317D01*
X24146253Y-12982317D02*
X24127206Y-12972793D01*
X24127206Y-12972793D02*
X24117682Y-12953746D01*
X24117682Y-12953746D02*
X24117682Y-12944222D01*
X24117682Y-12944222D02*
X24127206Y-12925174D01*
X24127206Y-12925174D02*
X24146253Y-12915650D01*
X24146253Y-12915650D02*
X24174825Y-12915650D01*
X24174825Y-12915650D02*
X24193872Y-12925174D01*
X24270063Y-13125174D02*
X24279587Y-13115650D01*
X24279587Y-13115650D02*
X24298634Y-13087079D01*
X24298634Y-13087079D02*
X24308158Y-13068031D01*
X24308158Y-13068031D02*
X24317682Y-13039460D01*
X24317682Y-13039460D02*
X24327206Y-12991841D01*
X24327206Y-12991841D02*
X24327206Y-12953746D01*
X24327206Y-12953746D02*
X24317682Y-12906127D01*
X24317682Y-12906127D02*
X24308158Y-12877555D01*
X24308158Y-12877555D02*
X24298634Y-12858508D01*
X24298634Y-12858508D02*
X24279587Y-12829936D01*
X24279587Y-12829936D02*
X24270063Y-12820412D01*
X24631968Y-13125174D02*
X24622444Y-13115650D01*
X24622444Y-13115650D02*
X24603396Y-13087079D01*
X24603396Y-13087079D02*
X24593872Y-13068031D01*
X24593872Y-13068031D02*
X24584349Y-13039460D01*
X24584349Y-13039460D02*
X24574825Y-12991841D01*
X24574825Y-12991841D02*
X24574825Y-12953746D01*
X24574825Y-12953746D02*
X24584349Y-12906127D01*
X24584349Y-12906127D02*
X24593872Y-12877555D01*
X24593872Y-12877555D02*
X24603396Y-12858508D01*
X24603396Y-12858508D02*
X24622444Y-12829936D01*
X24622444Y-12829936D02*
X24631968Y-12820412D01*
X24708158Y-12915650D02*
X24708158Y-13048984D01*
X24708158Y-12934698D02*
X24717682Y-12925174D01*
X24717682Y-12925174D02*
X24736730Y-12915650D01*
X24736730Y-12915650D02*
X24765301Y-12915650D01*
X24765301Y-12915650D02*
X24784349Y-12925174D01*
X24784349Y-12925174D02*
X24793872Y-12944222D01*
X24793872Y-12944222D02*
X24793872Y-13048984D01*
X24917682Y-13048984D02*
X24898634Y-13039460D01*
X24898634Y-13039460D02*
X24889111Y-13029936D01*
X24889111Y-13029936D02*
X24879587Y-13010888D01*
X24879587Y-13010888D02*
X24879587Y-12953746D01*
X24879587Y-12953746D02*
X24889111Y-12934698D01*
X24889111Y-12934698D02*
X24898634Y-12925174D01*
X24898634Y-12925174D02*
X24917682Y-12915650D01*
X24917682Y-12915650D02*
X24946253Y-12915650D01*
X24946253Y-12915650D02*
X24965301Y-12925174D01*
X24965301Y-12925174D02*
X24974825Y-12934698D01*
X24974825Y-12934698D02*
X24984349Y-12953746D01*
X24984349Y-12953746D02*
X24984349Y-13010888D01*
X24984349Y-13010888D02*
X24974825Y-13029936D01*
X24974825Y-13029936D02*
X24965301Y-13039460D01*
X24965301Y-13039460D02*
X24946253Y-13048984D01*
X24946253Y-13048984D02*
X24917682Y-13048984D01*
X25041492Y-12915650D02*
X25117682Y-12915650D01*
X25070063Y-12848984D02*
X25070063Y-13020412D01*
X25070063Y-13020412D02*
X25079587Y-13039460D01*
X25079587Y-13039460D02*
X25098634Y-13048984D01*
X25098634Y-13048984D02*
X25117682Y-13048984D01*
X25336730Y-12915650D02*
X25336730Y-13115650D01*
X25336730Y-12925174D02*
X25355777Y-12915650D01*
X25355777Y-12915650D02*
X25393873Y-12915650D01*
X25393873Y-12915650D02*
X25412920Y-12925174D01*
X25412920Y-12925174D02*
X25422444Y-12934698D01*
X25422444Y-12934698D02*
X25431968Y-12953746D01*
X25431968Y-12953746D02*
X25431968Y-13010888D01*
X25431968Y-13010888D02*
X25422444Y-13029936D01*
X25422444Y-13029936D02*
X25412920Y-13039460D01*
X25412920Y-13039460D02*
X25393873Y-13048984D01*
X25393873Y-13048984D02*
X25355777Y-13048984D01*
X25355777Y-13048984D02*
X25336730Y-13039460D01*
X25546253Y-13048984D02*
X25527206Y-13039460D01*
X25527206Y-13039460D02*
X25517682Y-13020412D01*
X25517682Y-13020412D02*
X25517682Y-12848984D01*
X25708158Y-13048984D02*
X25708158Y-12944222D01*
X25708158Y-12944222D02*
X25698634Y-12925174D01*
X25698634Y-12925174D02*
X25679587Y-12915650D01*
X25679587Y-12915650D02*
X25641492Y-12915650D01*
X25641492Y-12915650D02*
X25622444Y-12925174D01*
X25708158Y-13039460D02*
X25689111Y-13048984D01*
X25689111Y-13048984D02*
X25641492Y-13048984D01*
X25641492Y-13048984D02*
X25622444Y-13039460D01*
X25622444Y-13039460D02*
X25612920Y-13020412D01*
X25612920Y-13020412D02*
X25612920Y-13001365D01*
X25612920Y-13001365D02*
X25622444Y-12982317D01*
X25622444Y-12982317D02*
X25641492Y-12972793D01*
X25641492Y-12972793D02*
X25689111Y-12972793D01*
X25689111Y-12972793D02*
X25708158Y-12963269D01*
X25774825Y-12915650D02*
X25851015Y-12915650D01*
X25803396Y-12848984D02*
X25803396Y-13020412D01*
X25803396Y-13020412D02*
X25812920Y-13039460D01*
X25812920Y-13039460D02*
X25831968Y-13048984D01*
X25831968Y-13048984D02*
X25851015Y-13048984D01*
X25993873Y-13039460D02*
X25974825Y-13048984D01*
X25974825Y-13048984D02*
X25936730Y-13048984D01*
X25936730Y-13048984D02*
X25917682Y-13039460D01*
X25917682Y-13039460D02*
X25908158Y-13020412D01*
X25908158Y-13020412D02*
X25908158Y-12944222D01*
X25908158Y-12944222D02*
X25917682Y-12925174D01*
X25917682Y-12925174D02*
X25936730Y-12915650D01*
X25936730Y-12915650D02*
X25974825Y-12915650D01*
X25974825Y-12915650D02*
X25993873Y-12925174D01*
X25993873Y-12925174D02*
X26003396Y-12944222D01*
X26003396Y-12944222D02*
X26003396Y-12963269D01*
X26003396Y-12963269D02*
X25908158Y-12982317D01*
X26174825Y-13048984D02*
X26174825Y-12848984D01*
X26174825Y-13039460D02*
X26155777Y-13048984D01*
X26155777Y-13048984D02*
X26117682Y-13048984D01*
X26117682Y-13048984D02*
X26098634Y-13039460D01*
X26098634Y-13039460D02*
X26089111Y-13029936D01*
X26089111Y-13029936D02*
X26079587Y-13010888D01*
X26079587Y-13010888D02*
X26079587Y-12953746D01*
X26079587Y-12953746D02*
X26089111Y-12934698D01*
X26089111Y-12934698D02*
X26098634Y-12925174D01*
X26098634Y-12925174D02*
X26117682Y-12915650D01*
X26117682Y-12915650D02*
X26155777Y-12915650D01*
X26155777Y-12915650D02*
X26174825Y-12925174D01*
X26251015Y-13125174D02*
X26260539Y-13115650D01*
X26260539Y-13115650D02*
X26279587Y-13087079D01*
X26279587Y-13087079D02*
X26289111Y-13068031D01*
X26289111Y-13068031D02*
X26298634Y-13039460D01*
X26298634Y-13039460D02*
X26308158Y-12991841D01*
X26308158Y-12991841D02*
X26308158Y-12953746D01*
X26308158Y-12953746D02*
X26298634Y-12906127D01*
X26298634Y-12906127D02*
X26289111Y-12877555D01*
X26289111Y-12877555D02*
X26279587Y-12858508D01*
X26279587Y-12858508D02*
X26260539Y-12829936D01*
X26260539Y-12829936D02*
X26251015Y-12820412D01*
M02*
