G04 #@! TF.GenerationSoftware,KiCad,Pcbnew,8.99.0-1829-g5db4d10c86*
G04 #@! TF.CreationDate,2024-08-04T21:37:52+02:00*
G04 #@! TF.ProjectId,fiit-esp32-kit-pcb,66696974-2d65-4737-9033-322d6b69742d,0.1*
G04 #@! TF.SameCoordinates,Original*
G04 #@! TF.FileFunction,Soldermask,Top*
G04 #@! TF.FilePolarity,Negative*
%FSLAX46Y46*%
G04 Gerber Fmt 4.6, Leading zero omitted, Abs format (unit mm)*
G04 Created by KiCad (PCBNEW 8.99.0-1829-g5db4d10c86) date 2024-08-04 21:37:52*
%MOMM*%
%LPD*%
G01*
G04 APERTURE LIST*
G04 Aperture macros list*
%AMRoundRect*
0 Rectangle with rounded corners*
0 $1 Rounding radius*
0 $2 $3 $4 $5 $6 $7 $8 $9 X,Y pos of 4 corners*
0 Add a 4 corners polygon primitive as box body*
4,1,4,$2,$3,$4,$5,$6,$7,$8,$9,$2,$3,0*
0 Add four circle primitives for the rounded corners*
1,1,$1+$1,$2,$3*
1,1,$1+$1,$4,$5*
1,1,$1+$1,$6,$7*
1,1,$1+$1,$8,$9*
0 Add four rect primitives between the rounded corners*
20,1,$1+$1,$2,$3,$4,$5,0*
20,1,$1+$1,$4,$5,$6,$7,0*
20,1,$1+$1,$6,$7,$8,$9,0*
20,1,$1+$1,$8,$9,$2,$3,0*%
G04 Aperture macros list end*
%ADD10RoundRect,0.050000X-0.750000X-0.450000X0.750000X-0.450000X0.750000X0.450000X-0.750000X0.450000X0*%
%ADD11RoundRect,0.050000X0.750000X0.450000X-0.750000X0.450000X-0.750000X-0.450000X0.750000X-0.450000X0*%
%ADD12RoundRect,0.050000X-0.450000X0.750000X-0.450000X-0.750000X0.450000X-0.750000X0.450000X0.750000X0*%
%ADD13C,0.700000*%
%ADD14RoundRect,0.050000X-1.950000X1.950000X-1.950000X-1.950000X1.950000X-1.950000X1.950000X1.950000X0*%
%ADD15RoundRect,0.125000X0.125000X-0.250000X0.125000X0.250000X-0.125000X0.250000X-0.125000X-0.250000X0*%
%ADD16RoundRect,0.225000X0.300000X-0.225000X0.300000X0.225000X-0.300000X0.225000X-0.300000X-0.225000X0*%
%ADD17RoundRect,0.050000X0.400000X-0.250000X0.400000X0.250000X-0.400000X0.250000X-0.400000X-0.250000X0*%
%ADD18RoundRect,0.250000X-0.275000X0.250000X-0.275000X-0.250000X0.275000X-0.250000X0.275000X0.250000X0*%
%ADD19RoundRect,0.268750X0.481250X-0.268750X0.481250X0.268750X-0.481250X0.268750X-0.481250X-0.268750X0*%
%ADD20RoundRect,0.137500X-0.137500X0.212500X-0.137500X-0.212500X0.137500X-0.212500X0.137500X0.212500X0*%
%ADD21RoundRect,0.250000X-0.250000X-0.275000X0.250000X-0.275000X0.250000X0.275000X-0.250000X0.275000X0*%
%ADD22RoundRect,0.225000X0.225000X0.300000X-0.225000X0.300000X-0.225000X-0.300000X0.225000X-0.300000X0*%
%ADD23RoundRect,0.225000X-0.225000X-0.300000X0.225000X-0.300000X0.225000X0.300000X-0.225000X0.300000X0*%
%ADD24RoundRect,0.250000X0.275000X-0.250000X0.275000X0.250000X-0.275000X0.250000X-0.275000X-0.250000X0*%
%ADD25RoundRect,0.050000X0.250000X-0.400000X0.250000X0.400000X-0.250000X0.400000X-0.250000X-0.400000X0*%
%ADD26RoundRect,0.050000X0.200000X-0.400000X0.200000X0.400000X-0.200000X0.400000X-0.200000X-0.400000X0*%
%ADD27RoundRect,0.271739X-0.678261X0.353261X-0.678261X-0.353261X0.678261X-0.353261X0.678261X0.353261X0*%
%ADD28C,0.750000*%
%ADD29RoundRect,0.050000X-0.300000X-0.620000X0.300000X-0.620000X0.300000X0.620000X-0.300000X0.620000X0*%
%ADD30RoundRect,0.050000X-0.150000X-0.620000X0.150000X-0.620000X0.150000X0.620000X-0.150000X0.620000X0*%
%ADD31O,1.100000X2.200000*%
%ADD32O,1.100000X1.900000*%
%ADD33RoundRect,0.275000X-0.550000X-0.275000X0.550000X-0.275000X0.550000X0.275000X-0.550000X0.275000X0*%
%ADD34RoundRect,0.225000X-0.300000X0.225000X-0.300000X-0.225000X0.300000X-0.225000X0.300000X0.225000X0*%
%ADD35RoundRect,0.250000X0.250000X0.275000X-0.250000X0.275000X-0.250000X-0.275000X0.250000X-0.275000X0*%
%ADD36RoundRect,0.268750X-0.481250X0.268750X-0.481250X-0.268750X0.481250X-0.268750X0.481250X0.268750X0*%
%ADD37RoundRect,0.275000X-0.500000X0.275000X-0.500000X-0.275000X0.500000X-0.275000X0.500000X0.275000X0*%
%ADD38RoundRect,0.050000X0.425000X-0.800000X0.425000X0.800000X-0.425000X0.800000X-0.425000X-0.800000X0*%
%ADD39RoundRect,0.087500X0.087500X-0.362500X0.087500X0.362500X-0.087500X0.362500X-0.087500X-0.362500X0*%
%ADD40RoundRect,0.087500X0.362500X-0.087500X0.362500X0.087500X-0.362500X0.087500X-0.362500X-0.087500X0*%
%ADD41RoundRect,0.050000X1.675000X-1.675000X1.675000X1.675000X-1.675000X1.675000X-1.675000X-1.675000X0*%
%ADD42RoundRect,0.175000X-0.175000X0.537500X-0.175000X-0.537500X0.175000X-0.537500X0.175000X0.537500X0*%
%ADD43RoundRect,0.050000X0.400000X0.550000X-0.400000X0.550000X-0.400000X-0.550000X0.400000X-0.550000X0*%
%ADD44RoundRect,0.050000X0.900000X-0.600000X0.900000X0.600000X-0.900000X0.600000X-0.900000X-0.600000X0*%
%ADD45RoundRect,0.200000X0.200000X0.350000X-0.200000X0.350000X-0.200000X-0.350000X0.200000X-0.350000X0*%
%ADD46RoundRect,0.175000X0.225000X0.175000X-0.225000X0.175000X-0.225000X-0.175000X0.225000X-0.175000X0*%
%ADD47RoundRect,0.050000X0.850000X0.850000X-0.850000X0.850000X-0.850000X-0.850000X0.850000X-0.850000X0*%
%ADD48O,1.800000X1.800000*%
G04 APERTURE END LIST*
D10*
X198950000Y-49494000D03*
X198950000Y-50764000D03*
X198950000Y-52034000D03*
X198950000Y-53304000D03*
X198950000Y-54574000D03*
X198950000Y-55844000D03*
X198950000Y-57114000D03*
X198950000Y-58384000D03*
X198950000Y-59654000D03*
X198950000Y-60924000D03*
X198950000Y-62194000D03*
X198950000Y-63464000D03*
X198950000Y-64734000D03*
D11*
X198950000Y-66004000D03*
D12*
X200715000Y-67254000D03*
X201985000Y-67254000D03*
X203255000Y-67254000D03*
X204525000Y-67254000D03*
X205795000Y-67254000D03*
X207065000Y-67254000D03*
X208335000Y-67254000D03*
X209605000Y-67254000D03*
X210875000Y-67254000D03*
X212145000Y-67254000D03*
X213415000Y-67254000D03*
X214685000Y-67254000D03*
D10*
X216450000Y-66004000D03*
X216450000Y-64734000D03*
X216450000Y-63464000D03*
X216450000Y-62194000D03*
X216450000Y-60924000D03*
X216450000Y-59654000D03*
X216450000Y-58384000D03*
X216450000Y-57114000D03*
X216450000Y-55844000D03*
X216450000Y-54574000D03*
X216450000Y-53304000D03*
X216450000Y-52034000D03*
X216450000Y-50764000D03*
X216450000Y-49494000D03*
D13*
X204800000Y-56514000D03*
X204800000Y-57914000D03*
X205500000Y-55814000D03*
X205500000Y-57214000D03*
X205500000Y-58614000D03*
X206200000Y-56514000D03*
D14*
X206200000Y-57214000D03*
D13*
X206200000Y-57914000D03*
X206900000Y-55814000D03*
X206900000Y-57214000D03*
X206900000Y-58614000D03*
X207600000Y-56514000D03*
X207600000Y-57914000D03*
D15*
X200446000Y-100916000D03*
X201096000Y-100916000D03*
X201746000Y-100916000D03*
X201746000Y-99016000D03*
X201096000Y-99016000D03*
X200446000Y-99016000D03*
D16*
X208716000Y-103204000D03*
X208716000Y-101554000D03*
D17*
X199647000Y-91219000D03*
X199647000Y-92219000D03*
X199647000Y-93219000D03*
X201647000Y-93219000D03*
X201647000Y-92219000D03*
X201647000Y-91219000D03*
D18*
X211129000Y-108208000D03*
X211129000Y-109758000D03*
D16*
X199191000Y-89615000D03*
X199191000Y-87965000D03*
D19*
X207700000Y-98744500D03*
X207700000Y-96869500D03*
D20*
X210748000Y-112378000D03*
X210748000Y-114478000D03*
D21*
X214037000Y-98315000D03*
X215587000Y-98315000D03*
D20*
X204652000Y-112378000D03*
X204652000Y-114478000D03*
D22*
X215637000Y-93362000D03*
X213987000Y-93362000D03*
D19*
X205160000Y-98744500D03*
X205160000Y-96869500D03*
D23*
X213987000Y-101617000D03*
X215637000Y-101617000D03*
D24*
X197032000Y-51465000D03*
X197032000Y-49915000D03*
D25*
X213612000Y-83721000D03*
D26*
X214412000Y-83721000D03*
X215212000Y-83721000D03*
D25*
X216012000Y-83721000D03*
X216012000Y-81921000D03*
D26*
X215212000Y-81921000D03*
X214412000Y-81921000D03*
D25*
X213612000Y-81921000D03*
D22*
X218939000Y-114317000D03*
X217289000Y-114317000D03*
X215637000Y-104919000D03*
X213987000Y-104919000D03*
D21*
X214037000Y-99966000D03*
X215587000Y-99966000D03*
D27*
X206811000Y-111699000D03*
X206811000Y-114649000D03*
D16*
X200715000Y-96600000D03*
X200715000Y-94950000D03*
D28*
X197825000Y-117935000D03*
X203605000Y-117935000D03*
D29*
X197515000Y-116815000D03*
X198315000Y-116815000D03*
D30*
X199465000Y-116815000D03*
X200465000Y-116815000D03*
X200965000Y-116815000D03*
X201965000Y-116815000D03*
D29*
X203115000Y-116815000D03*
X203915000Y-116815000D03*
X203915000Y-116815000D03*
X203115000Y-116815000D03*
D30*
X202465000Y-116815000D03*
X201465000Y-116815000D03*
X199965000Y-116815000D03*
X198965000Y-116815000D03*
D29*
X198315000Y-116815000D03*
X197515000Y-116815000D03*
D31*
X196395000Y-117415000D03*
D32*
X196395000Y-121615000D03*
D31*
X205035000Y-117415000D03*
D32*
X205035000Y-121615000D03*
D22*
X208144000Y-104919000D03*
X206494000Y-104919000D03*
D18*
X198937000Y-95000000D03*
X198937000Y-96550000D03*
X212780000Y-108208000D03*
X212780000Y-109758000D03*
D22*
X208144000Y-108221000D03*
X206494000Y-108221000D03*
D33*
X200630000Y-69918000D03*
X205880000Y-69918000D03*
X200630000Y-73118000D03*
X205880000Y-73118000D03*
D21*
X203369000Y-109872000D03*
X204919000Y-109872000D03*
D34*
X216082000Y-108158000D03*
X216082000Y-109808000D03*
X212526000Y-112603000D03*
X212526000Y-114253000D03*
D35*
X201744000Y-109872000D03*
X200194000Y-109872000D03*
D16*
X202493000Y-96600000D03*
X202493000Y-94950000D03*
D28*
X211795000Y-117935000D03*
X217575000Y-117935000D03*
D29*
X211485000Y-116815000D03*
X212285000Y-116815000D03*
D30*
X213435000Y-116815000D03*
X214435000Y-116815000D03*
X214935000Y-116815000D03*
X215935000Y-116815000D03*
D29*
X217085000Y-116815000D03*
X217885000Y-116815000D03*
X217885000Y-116815000D03*
X217085000Y-116815000D03*
D30*
X216435000Y-116815000D03*
X215435000Y-116815000D03*
X213935000Y-116815000D03*
X212935000Y-116815000D03*
D29*
X212285000Y-116815000D03*
X211485000Y-116815000D03*
D31*
X210365000Y-117415000D03*
D32*
X210365000Y-121615000D03*
D31*
X219005000Y-117415000D03*
D32*
X219005000Y-121615000D03*
D21*
X214037000Y-95013000D03*
X215587000Y-95013000D03*
D16*
X203255000Y-100791000D03*
X203255000Y-99141000D03*
D21*
X214037000Y-96664000D03*
X215587000Y-96664000D03*
D36*
X211510000Y-81883500D03*
X211510000Y-83758500D03*
D33*
X205075000Y-91254000D03*
X210325000Y-91254000D03*
X205075000Y-94454000D03*
X210325000Y-94454000D03*
D37*
X196905000Y-53108000D03*
X196905000Y-55008000D03*
D38*
X214191000Y-90159000D03*
X215941000Y-90159000D03*
X215941000Y-86659000D03*
X214191000Y-86659000D03*
D21*
X206544000Y-106570000D03*
X208094000Y-106570000D03*
D18*
X208843000Y-112653000D03*
X208843000Y-114203000D03*
D34*
X198937000Y-99141000D03*
X198937000Y-100791000D03*
D19*
X210240000Y-98744500D03*
X210240000Y-96869500D03*
D33*
X200630000Y-76141000D03*
X205880000Y-76141000D03*
X200630000Y-79341000D03*
X205880000Y-79341000D03*
D36*
X206430000Y-81883500D03*
X206430000Y-83758500D03*
D39*
X200448000Y-107914000D03*
X200948000Y-107914000D03*
X201448000Y-107914000D03*
X201948000Y-107914000D03*
X202448000Y-107914000D03*
X202948000Y-107914000D03*
X203448000Y-107914000D03*
D40*
X204398000Y-106964000D03*
X204398000Y-106464000D03*
X204398000Y-105964000D03*
X204398000Y-105464000D03*
X204398000Y-104964000D03*
X204398000Y-104464000D03*
X204398000Y-103964000D03*
D39*
X203448000Y-103014000D03*
X202948000Y-103014000D03*
X202448000Y-103014000D03*
X201948000Y-103014000D03*
X201448000Y-103014000D03*
X200948000Y-103014000D03*
X200448000Y-103014000D03*
D40*
X199498000Y-103964000D03*
X199498000Y-104464000D03*
X199498000Y-104964000D03*
X199498000Y-105464000D03*
X199498000Y-105964000D03*
X199498000Y-106464000D03*
X199498000Y-106964000D03*
D41*
X201948000Y-105464000D03*
D42*
X212587000Y-104162500D03*
X211637000Y-104162500D03*
X210687000Y-104162500D03*
X210687000Y-106437500D03*
X212587000Y-106437500D03*
D34*
X202874000Y-112603000D03*
X202874000Y-114253000D03*
D21*
X214037000Y-103268000D03*
X215587000Y-103268000D03*
D43*
X201096000Y-86126000D03*
X200546000Y-89676000D03*
X201646000Y-89676000D03*
D23*
X206494000Y-109872000D03*
X208144000Y-109872000D03*
X196461000Y-114317000D03*
X198111000Y-114317000D03*
D18*
X214431000Y-108208000D03*
X214431000Y-109758000D03*
D16*
X206684000Y-103204000D03*
X206684000Y-101554000D03*
D36*
X208970000Y-81883500D03*
X208970000Y-83758500D03*
D33*
X209520000Y-76141000D03*
X214770000Y-76141000D03*
X209520000Y-79341000D03*
X214770000Y-79341000D03*
D36*
X203890000Y-81883500D03*
X203890000Y-83758500D03*
D44*
X212145000Y-102263000D03*
X212145000Y-100463000D03*
D33*
X209520000Y-69918000D03*
X214770000Y-69918000D03*
X209520000Y-73118000D03*
X214770000Y-73118000D03*
D45*
X201461000Y-114178000D03*
D46*
X201461000Y-112478000D03*
X199461000Y-112478000D03*
X199461000Y-114378000D03*
D45*
X215939000Y-114178000D03*
D46*
X215939000Y-112478000D03*
X213939000Y-112478000D03*
X213939000Y-114378000D03*
D25*
X199388000Y-83721000D03*
D26*
X200188000Y-83721000D03*
X200988000Y-83721000D03*
D25*
X201788000Y-83721000D03*
X201788000Y-81921000D03*
D26*
X200988000Y-81921000D03*
X200188000Y-81921000D03*
D25*
X199388000Y-81921000D03*
D16*
X212399000Y-98632000D03*
X212399000Y-96982000D03*
D47*
X219130000Y-58310000D03*
D48*
X219130000Y-60850000D03*
X219130000Y-63390000D03*
X219130000Y-65930000D03*
X219130000Y-68470000D03*
X219130000Y-71010000D03*
X219130000Y-73550000D03*
X219130000Y-76090000D03*
X219130000Y-78630000D03*
X219130000Y-81170000D03*
X219130000Y-83710000D03*
X219130000Y-86250000D03*
X219130000Y-88790000D03*
X219130000Y-91330000D03*
X219130000Y-93870000D03*
X219130000Y-96410000D03*
X219130000Y-98950000D03*
X219130000Y-101490000D03*
X219130000Y-104030000D03*
X219130000Y-106570000D03*
X219130000Y-109110000D03*
X219130000Y-111650000D03*
D47*
X196270000Y-58310000D03*
D48*
X196270000Y-60850000D03*
X196270000Y-63390000D03*
X196270000Y-65930000D03*
X196270000Y-68470000D03*
X196270000Y-71010000D03*
X196270000Y-73550000D03*
X196270000Y-76090000D03*
X196270000Y-78630000D03*
X196270000Y-81170000D03*
X196270000Y-83710000D03*
X196270000Y-86250000D03*
X196270000Y-88790000D03*
X196270000Y-91330000D03*
X196270000Y-93870000D03*
X196270000Y-96410000D03*
X196270000Y-98950000D03*
X196270000Y-101490000D03*
X196270000Y-104030000D03*
X196270000Y-106570000D03*
X196270000Y-109110000D03*
X196270000Y-111650000D03*
M02*
